%TF.GenerationSoftware,KiCad,Pcbnew,(6.0.11)*%
%TF.CreationDate,2023-05-21T23:05:42+09:00*%
%TF.ProjectId,STM32F4_Ethernet,53544d33-3246-4345-9f45-746865726e65,rev?*%
%TF.SameCoordinates,Original*%
%TF.FileFunction,Legend,Top*%
%TF.FilePolarity,Positive*%
%FSLAX46Y46*%
G04 Gerber Fmt 4.6, Leading zero omitted, Abs format (unit mm)*
G04 Created by KiCad (PCBNEW (6.0.11)) date 2023-05-21 23:05:42*
%MOMM*%
%LPD*%
G01*
G04 APERTURE LIST*
%ADD10C,0.150000*%
%ADD11C,0.098425*%
%ADD12C,0.120000*%
%ADD13C,0.152400*%
%ADD14C,0.127000*%
%ADD15C,0.200000*%
G04 APERTURE END LIST*
D10*
%TO.C,R17*%
X127657142Y-126652380D02*
X127323809Y-126176190D01*
X127085714Y-126652380D02*
X127085714Y-125652380D01*
X127466666Y-125652380D01*
X127561904Y-125700000D01*
X127609523Y-125747619D01*
X127657142Y-125842857D01*
X127657142Y-125985714D01*
X127609523Y-126080952D01*
X127561904Y-126128571D01*
X127466666Y-126176190D01*
X127085714Y-126176190D01*
X128609523Y-126652380D02*
X128038095Y-126652380D01*
X128323809Y-126652380D02*
X128323809Y-125652380D01*
X128228571Y-125795238D01*
X128133333Y-125890476D01*
X128038095Y-125938095D01*
X128942857Y-125652380D02*
X129609523Y-125652380D01*
X129180952Y-126652380D01*
%TO.C,C20*%
X93677142Y-82942857D02*
X93724761Y-82990476D01*
X93772380Y-83133333D01*
X93772380Y-83228571D01*
X93724761Y-83371428D01*
X93629523Y-83466666D01*
X93534285Y-83514285D01*
X93343809Y-83561904D01*
X93200952Y-83561904D01*
X93010476Y-83514285D01*
X92915238Y-83466666D01*
X92820000Y-83371428D01*
X92772380Y-83228571D01*
X92772380Y-83133333D01*
X92820000Y-82990476D01*
X92867619Y-82942857D01*
X92867619Y-82561904D02*
X92820000Y-82514285D01*
X92772380Y-82419047D01*
X92772380Y-82180952D01*
X92820000Y-82085714D01*
X92867619Y-82038095D01*
X92962857Y-81990476D01*
X93058095Y-81990476D01*
X93200952Y-82038095D01*
X93772380Y-82609523D01*
X93772380Y-81990476D01*
X92772380Y-81371428D02*
X92772380Y-81276190D01*
X92820000Y-81180952D01*
X92867619Y-81133333D01*
X92962857Y-81085714D01*
X93153333Y-81038095D01*
X93391428Y-81038095D01*
X93581904Y-81085714D01*
X93677142Y-81133333D01*
X93724761Y-81180952D01*
X93772380Y-81276190D01*
X93772380Y-81371428D01*
X93724761Y-81466666D01*
X93677142Y-81514285D01*
X93581904Y-81561904D01*
X93391428Y-81609523D01*
X93153333Y-81609523D01*
X92962857Y-81561904D01*
X92867619Y-81514285D01*
X92820000Y-81466666D01*
X92772380Y-81371428D01*
%TO.C,R26*%
X68952380Y-124087857D02*
X68476190Y-124421190D01*
X68952380Y-124659285D02*
X67952380Y-124659285D01*
X67952380Y-124278333D01*
X68000000Y-124183095D01*
X68047619Y-124135476D01*
X68142857Y-124087857D01*
X68285714Y-124087857D01*
X68380952Y-124135476D01*
X68428571Y-124183095D01*
X68476190Y-124278333D01*
X68476190Y-124659285D01*
X68047619Y-123706904D02*
X68000000Y-123659285D01*
X67952380Y-123564047D01*
X67952380Y-123325952D01*
X68000000Y-123230714D01*
X68047619Y-123183095D01*
X68142857Y-123135476D01*
X68238095Y-123135476D01*
X68380952Y-123183095D01*
X68952380Y-123754523D01*
X68952380Y-123135476D01*
X67952380Y-122278333D02*
X67952380Y-122468809D01*
X68000000Y-122564047D01*
X68047619Y-122611666D01*
X68190476Y-122706904D01*
X68380952Y-122754523D01*
X68761904Y-122754523D01*
X68857142Y-122706904D01*
X68904761Y-122659285D01*
X68952380Y-122564047D01*
X68952380Y-122373571D01*
X68904761Y-122278333D01*
X68857142Y-122230714D01*
X68761904Y-122183095D01*
X68523809Y-122183095D01*
X68428571Y-122230714D01*
X68380952Y-122278333D01*
X68333333Y-122373571D01*
X68333333Y-122564047D01*
X68380952Y-122659285D01*
X68428571Y-122706904D01*
X68523809Y-122754523D01*
%TO.C,C53*%
X69787142Y-79842857D02*
X69834761Y-79890476D01*
X69882380Y-80033333D01*
X69882380Y-80128571D01*
X69834761Y-80271428D01*
X69739523Y-80366666D01*
X69644285Y-80414285D01*
X69453809Y-80461904D01*
X69310952Y-80461904D01*
X69120476Y-80414285D01*
X69025238Y-80366666D01*
X68930000Y-80271428D01*
X68882380Y-80128571D01*
X68882380Y-80033333D01*
X68930000Y-79890476D01*
X68977619Y-79842857D01*
X68882380Y-78938095D02*
X68882380Y-79414285D01*
X69358571Y-79461904D01*
X69310952Y-79414285D01*
X69263333Y-79319047D01*
X69263333Y-79080952D01*
X69310952Y-78985714D01*
X69358571Y-78938095D01*
X69453809Y-78890476D01*
X69691904Y-78890476D01*
X69787142Y-78938095D01*
X69834761Y-78985714D01*
X69882380Y-79080952D01*
X69882380Y-79319047D01*
X69834761Y-79414285D01*
X69787142Y-79461904D01*
X68882380Y-78557142D02*
X68882380Y-77938095D01*
X69263333Y-78271428D01*
X69263333Y-78128571D01*
X69310952Y-78033333D01*
X69358571Y-77985714D01*
X69453809Y-77938095D01*
X69691904Y-77938095D01*
X69787142Y-77985714D01*
X69834761Y-78033333D01*
X69882380Y-78128571D01*
X69882380Y-78414285D01*
X69834761Y-78509523D01*
X69787142Y-78557142D01*
%TO.C,H4*%
X80438095Y-152802380D02*
X80438095Y-151802380D01*
X80438095Y-152278571D02*
X81009523Y-152278571D01*
X81009523Y-152802380D02*
X81009523Y-151802380D01*
X81914285Y-152135714D02*
X81914285Y-152802380D01*
X81676190Y-151754761D02*
X81438095Y-152469047D01*
X82057142Y-152469047D01*
%TO.C,R7*%
X90520833Y-149352380D02*
X90187500Y-148876190D01*
X89949404Y-149352380D02*
X89949404Y-148352380D01*
X90330357Y-148352380D01*
X90425595Y-148400000D01*
X90473214Y-148447619D01*
X90520833Y-148542857D01*
X90520833Y-148685714D01*
X90473214Y-148780952D01*
X90425595Y-148828571D01*
X90330357Y-148876190D01*
X89949404Y-148876190D01*
X90854166Y-148352380D02*
X91520833Y-148352380D01*
X91092261Y-149352380D01*
%TO.C,U4*%
X83138095Y-75052380D02*
X83138095Y-75861904D01*
X83185714Y-75957142D01*
X83233333Y-76004761D01*
X83328571Y-76052380D01*
X83519047Y-76052380D01*
X83614285Y-76004761D01*
X83661904Y-75957142D01*
X83709523Y-75861904D01*
X83709523Y-75052380D01*
X84614285Y-75385714D02*
X84614285Y-76052380D01*
X84376190Y-75004761D02*
X84138095Y-75719047D01*
X84757142Y-75719047D01*
%TO.C,R23*%
X94457142Y-119652380D02*
X94123809Y-119176190D01*
X93885714Y-119652380D02*
X93885714Y-118652380D01*
X94266666Y-118652380D01*
X94361904Y-118700000D01*
X94409523Y-118747619D01*
X94457142Y-118842857D01*
X94457142Y-118985714D01*
X94409523Y-119080952D01*
X94361904Y-119128571D01*
X94266666Y-119176190D01*
X93885714Y-119176190D01*
X94838095Y-118747619D02*
X94885714Y-118700000D01*
X94980952Y-118652380D01*
X95219047Y-118652380D01*
X95314285Y-118700000D01*
X95361904Y-118747619D01*
X95409523Y-118842857D01*
X95409523Y-118938095D01*
X95361904Y-119080952D01*
X94790476Y-119652380D01*
X95409523Y-119652380D01*
X95742857Y-118652380D02*
X96361904Y-118652380D01*
X96028571Y-119033333D01*
X96171428Y-119033333D01*
X96266666Y-119080952D01*
X96314285Y-119128571D01*
X96361904Y-119223809D01*
X96361904Y-119461904D01*
X96314285Y-119557142D01*
X96266666Y-119604761D01*
X96171428Y-119652380D01*
X95885714Y-119652380D01*
X95790476Y-119604761D01*
X95742857Y-119557142D01*
%TO.C,R29*%
X69407142Y-100747380D02*
X69073809Y-100271190D01*
X68835714Y-100747380D02*
X68835714Y-99747380D01*
X69216666Y-99747380D01*
X69311904Y-99795000D01*
X69359523Y-99842619D01*
X69407142Y-99937857D01*
X69407142Y-100080714D01*
X69359523Y-100175952D01*
X69311904Y-100223571D01*
X69216666Y-100271190D01*
X68835714Y-100271190D01*
X69788095Y-99842619D02*
X69835714Y-99795000D01*
X69930952Y-99747380D01*
X70169047Y-99747380D01*
X70264285Y-99795000D01*
X70311904Y-99842619D01*
X70359523Y-99937857D01*
X70359523Y-100033095D01*
X70311904Y-100175952D01*
X69740476Y-100747380D01*
X70359523Y-100747380D01*
X70835714Y-100747380D02*
X71026190Y-100747380D01*
X71121428Y-100699761D01*
X71169047Y-100652142D01*
X71264285Y-100509285D01*
X71311904Y-100318809D01*
X71311904Y-99937857D01*
X71264285Y-99842619D01*
X71216666Y-99795000D01*
X71121428Y-99747380D01*
X70930952Y-99747380D01*
X70835714Y-99795000D01*
X70788095Y-99842619D01*
X70740476Y-99937857D01*
X70740476Y-100175952D01*
X70788095Y-100271190D01*
X70835714Y-100318809D01*
X70930952Y-100366428D01*
X71121428Y-100366428D01*
X71216666Y-100318809D01*
X71264285Y-100271190D01*
X71311904Y-100175952D01*
%TO.C,C25*%
X130157142Y-101567857D02*
X130204761Y-101615476D01*
X130252380Y-101758333D01*
X130252380Y-101853571D01*
X130204761Y-101996428D01*
X130109523Y-102091666D01*
X130014285Y-102139285D01*
X129823809Y-102186904D01*
X129680952Y-102186904D01*
X129490476Y-102139285D01*
X129395238Y-102091666D01*
X129300000Y-101996428D01*
X129252380Y-101853571D01*
X129252380Y-101758333D01*
X129300000Y-101615476D01*
X129347619Y-101567857D01*
X129347619Y-101186904D02*
X129300000Y-101139285D01*
X129252380Y-101044047D01*
X129252380Y-100805952D01*
X129300000Y-100710714D01*
X129347619Y-100663095D01*
X129442857Y-100615476D01*
X129538095Y-100615476D01*
X129680952Y-100663095D01*
X130252380Y-101234523D01*
X130252380Y-100615476D01*
X129252380Y-99710714D02*
X129252380Y-100186904D01*
X129728571Y-100234523D01*
X129680952Y-100186904D01*
X129633333Y-100091666D01*
X129633333Y-99853571D01*
X129680952Y-99758333D01*
X129728571Y-99710714D01*
X129823809Y-99663095D01*
X130061904Y-99663095D01*
X130157142Y-99710714D01*
X130204761Y-99758333D01*
X130252380Y-99853571D01*
X130252380Y-100091666D01*
X130204761Y-100186904D01*
X130157142Y-100234523D01*
%TO.C,C41*%
X94557142Y-112657142D02*
X94509523Y-112704761D01*
X94366666Y-112752380D01*
X94271428Y-112752380D01*
X94128571Y-112704761D01*
X94033333Y-112609523D01*
X93985714Y-112514285D01*
X93938095Y-112323809D01*
X93938095Y-112180952D01*
X93985714Y-111990476D01*
X94033333Y-111895238D01*
X94128571Y-111800000D01*
X94271428Y-111752380D01*
X94366666Y-111752380D01*
X94509523Y-111800000D01*
X94557142Y-111847619D01*
X95414285Y-112085714D02*
X95414285Y-112752380D01*
X95176190Y-111704761D02*
X94938095Y-112419047D01*
X95557142Y-112419047D01*
X96461904Y-112752380D02*
X95890476Y-112752380D01*
X96176190Y-112752380D02*
X96176190Y-111752380D01*
X96080952Y-111895238D01*
X95985714Y-111990476D01*
X95890476Y-112038095D01*
%TO.C,D6*%
X67252380Y-123683095D02*
X66252380Y-123683095D01*
X66252380Y-123445000D01*
X66300000Y-123302142D01*
X66395238Y-123206904D01*
X66490476Y-123159285D01*
X66680952Y-123111666D01*
X66823809Y-123111666D01*
X67014285Y-123159285D01*
X67109523Y-123206904D01*
X67204761Y-123302142D01*
X67252380Y-123445000D01*
X67252380Y-123683095D01*
X66252380Y-122254523D02*
X66252380Y-122445000D01*
X66300000Y-122540238D01*
X66347619Y-122587857D01*
X66490476Y-122683095D01*
X66680952Y-122730714D01*
X67061904Y-122730714D01*
X67157142Y-122683095D01*
X67204761Y-122635476D01*
X67252380Y-122540238D01*
X67252380Y-122349761D01*
X67204761Y-122254523D01*
X67157142Y-122206904D01*
X67061904Y-122159285D01*
X66823809Y-122159285D01*
X66728571Y-122206904D01*
X66680952Y-122254523D01*
X66633333Y-122349761D01*
X66633333Y-122540238D01*
X66680952Y-122635476D01*
X66728571Y-122683095D01*
X66823809Y-122730714D01*
%TO.C,C13*%
X116607142Y-71657142D02*
X116559523Y-71704761D01*
X116416666Y-71752380D01*
X116321428Y-71752380D01*
X116178571Y-71704761D01*
X116083333Y-71609523D01*
X116035714Y-71514285D01*
X115988095Y-71323809D01*
X115988095Y-71180952D01*
X116035714Y-70990476D01*
X116083333Y-70895238D01*
X116178571Y-70800000D01*
X116321428Y-70752380D01*
X116416666Y-70752380D01*
X116559523Y-70800000D01*
X116607142Y-70847619D01*
X117559523Y-71752380D02*
X116988095Y-71752380D01*
X117273809Y-71752380D02*
X117273809Y-70752380D01*
X117178571Y-70895238D01*
X117083333Y-70990476D01*
X116988095Y-71038095D01*
X117892857Y-70752380D02*
X118511904Y-70752380D01*
X118178571Y-71133333D01*
X118321428Y-71133333D01*
X118416666Y-71180952D01*
X118464285Y-71228571D01*
X118511904Y-71323809D01*
X118511904Y-71561904D01*
X118464285Y-71657142D01*
X118416666Y-71704761D01*
X118321428Y-71752380D01*
X118035714Y-71752380D01*
X117940476Y-71704761D01*
X117892857Y-71657142D01*
%TO.C,U6*%
X77952380Y-78561904D02*
X78761904Y-78561904D01*
X78857142Y-78514285D01*
X78904761Y-78466666D01*
X78952380Y-78371428D01*
X78952380Y-78180952D01*
X78904761Y-78085714D01*
X78857142Y-78038095D01*
X78761904Y-77990476D01*
X77952380Y-77990476D01*
X77952380Y-77085714D02*
X77952380Y-77276190D01*
X78000000Y-77371428D01*
X78047619Y-77419047D01*
X78190476Y-77514285D01*
X78380952Y-77561904D01*
X78761904Y-77561904D01*
X78857142Y-77514285D01*
X78904761Y-77466666D01*
X78952380Y-77371428D01*
X78952380Y-77180952D01*
X78904761Y-77085714D01*
X78857142Y-77038095D01*
X78761904Y-76990476D01*
X78523809Y-76990476D01*
X78428571Y-77038095D01*
X78380952Y-77085714D01*
X78333333Y-77180952D01*
X78333333Y-77371428D01*
X78380952Y-77466666D01*
X78428571Y-77514285D01*
X78523809Y-77561904D01*
%TO.C,R13*%
X107669642Y-126752380D02*
X107336309Y-126276190D01*
X107098214Y-126752380D02*
X107098214Y-125752380D01*
X107479166Y-125752380D01*
X107574404Y-125800000D01*
X107622023Y-125847619D01*
X107669642Y-125942857D01*
X107669642Y-126085714D01*
X107622023Y-126180952D01*
X107574404Y-126228571D01*
X107479166Y-126276190D01*
X107098214Y-126276190D01*
X108622023Y-126752380D02*
X108050595Y-126752380D01*
X108336309Y-126752380D02*
X108336309Y-125752380D01*
X108241071Y-125895238D01*
X108145833Y-125990476D01*
X108050595Y-126038095D01*
X108955357Y-125752380D02*
X109574404Y-125752380D01*
X109241071Y-126133333D01*
X109383928Y-126133333D01*
X109479166Y-126180952D01*
X109526785Y-126228571D01*
X109574404Y-126323809D01*
X109574404Y-126561904D01*
X109526785Y-126657142D01*
X109479166Y-126704761D01*
X109383928Y-126752380D01*
X109098214Y-126752380D01*
X109002976Y-126704761D01*
X108955357Y-126657142D01*
%TO.C,C33*%
X125857142Y-119457142D02*
X125809523Y-119504761D01*
X125666666Y-119552380D01*
X125571428Y-119552380D01*
X125428571Y-119504761D01*
X125333333Y-119409523D01*
X125285714Y-119314285D01*
X125238095Y-119123809D01*
X125238095Y-118980952D01*
X125285714Y-118790476D01*
X125333333Y-118695238D01*
X125428571Y-118600000D01*
X125571428Y-118552380D01*
X125666666Y-118552380D01*
X125809523Y-118600000D01*
X125857142Y-118647619D01*
X126190476Y-118552380D02*
X126809523Y-118552380D01*
X126476190Y-118933333D01*
X126619047Y-118933333D01*
X126714285Y-118980952D01*
X126761904Y-119028571D01*
X126809523Y-119123809D01*
X126809523Y-119361904D01*
X126761904Y-119457142D01*
X126714285Y-119504761D01*
X126619047Y-119552380D01*
X126333333Y-119552380D01*
X126238095Y-119504761D01*
X126190476Y-119457142D01*
X127142857Y-118552380D02*
X127761904Y-118552380D01*
X127428571Y-118933333D01*
X127571428Y-118933333D01*
X127666666Y-118980952D01*
X127714285Y-119028571D01*
X127761904Y-119123809D01*
X127761904Y-119361904D01*
X127714285Y-119457142D01*
X127666666Y-119504761D01*
X127571428Y-119552380D01*
X127285714Y-119552380D01*
X127190476Y-119504761D01*
X127142857Y-119457142D01*
%TO.C,C21*%
X113944642Y-67977142D02*
X113897023Y-68024761D01*
X113754166Y-68072380D01*
X113658928Y-68072380D01*
X113516071Y-68024761D01*
X113420833Y-67929523D01*
X113373214Y-67834285D01*
X113325595Y-67643809D01*
X113325595Y-67500952D01*
X113373214Y-67310476D01*
X113420833Y-67215238D01*
X113516071Y-67120000D01*
X113658928Y-67072380D01*
X113754166Y-67072380D01*
X113897023Y-67120000D01*
X113944642Y-67167619D01*
X114325595Y-67167619D02*
X114373214Y-67120000D01*
X114468452Y-67072380D01*
X114706547Y-67072380D01*
X114801785Y-67120000D01*
X114849404Y-67167619D01*
X114897023Y-67262857D01*
X114897023Y-67358095D01*
X114849404Y-67500952D01*
X114277976Y-68072380D01*
X114897023Y-68072380D01*
X115849404Y-68072380D02*
X115277976Y-68072380D01*
X115563690Y-68072380D02*
X115563690Y-67072380D01*
X115468452Y-67215238D01*
X115373214Y-67310476D01*
X115277976Y-67358095D01*
%TO.C,R14*%
X104169642Y-126752380D02*
X103836309Y-126276190D01*
X103598214Y-126752380D02*
X103598214Y-125752380D01*
X103979166Y-125752380D01*
X104074404Y-125800000D01*
X104122023Y-125847619D01*
X104169642Y-125942857D01*
X104169642Y-126085714D01*
X104122023Y-126180952D01*
X104074404Y-126228571D01*
X103979166Y-126276190D01*
X103598214Y-126276190D01*
X105122023Y-126752380D02*
X104550595Y-126752380D01*
X104836309Y-126752380D02*
X104836309Y-125752380D01*
X104741071Y-125895238D01*
X104645833Y-125990476D01*
X104550595Y-126038095D01*
X105979166Y-126085714D02*
X105979166Y-126752380D01*
X105741071Y-125704761D02*
X105502976Y-126419047D01*
X106122023Y-126419047D01*
%TO.C,R24*%
X101457142Y-117931380D02*
X101123809Y-117455190D01*
X100885714Y-117931380D02*
X100885714Y-116931380D01*
X101266666Y-116931380D01*
X101361904Y-116979000D01*
X101409523Y-117026619D01*
X101457142Y-117121857D01*
X101457142Y-117264714D01*
X101409523Y-117359952D01*
X101361904Y-117407571D01*
X101266666Y-117455190D01*
X100885714Y-117455190D01*
X101838095Y-117026619D02*
X101885714Y-116979000D01*
X101980952Y-116931380D01*
X102219047Y-116931380D01*
X102314285Y-116979000D01*
X102361904Y-117026619D01*
X102409523Y-117121857D01*
X102409523Y-117217095D01*
X102361904Y-117359952D01*
X101790476Y-117931380D01*
X102409523Y-117931380D01*
X103266666Y-117264714D02*
X103266666Y-117931380D01*
X103028571Y-116883761D02*
X102790476Y-117598047D01*
X103409523Y-117598047D01*
%TO.C,R19*%
X120657142Y-126652380D02*
X120323809Y-126176190D01*
X120085714Y-126652380D02*
X120085714Y-125652380D01*
X120466666Y-125652380D01*
X120561904Y-125700000D01*
X120609523Y-125747619D01*
X120657142Y-125842857D01*
X120657142Y-125985714D01*
X120609523Y-126080952D01*
X120561904Y-126128571D01*
X120466666Y-126176190D01*
X120085714Y-126176190D01*
X121609523Y-126652380D02*
X121038095Y-126652380D01*
X121323809Y-126652380D02*
X121323809Y-125652380D01*
X121228571Y-125795238D01*
X121133333Y-125890476D01*
X121038095Y-125938095D01*
X122085714Y-126652380D02*
X122276190Y-126652380D01*
X122371428Y-126604761D01*
X122419047Y-126557142D01*
X122514285Y-126414285D01*
X122561904Y-126223809D01*
X122561904Y-125842857D01*
X122514285Y-125747619D01*
X122466666Y-125700000D01*
X122371428Y-125652380D01*
X122180952Y-125652380D01*
X122085714Y-125700000D01*
X122038095Y-125747619D01*
X121990476Y-125842857D01*
X121990476Y-126080952D01*
X122038095Y-126176190D01*
X122085714Y-126223809D01*
X122180952Y-126271428D01*
X122371428Y-126271428D01*
X122466666Y-126223809D01*
X122514285Y-126176190D01*
X122561904Y-126080952D01*
%TO.C,U2*%
X96792380Y-85991904D02*
X97601904Y-85991904D01*
X97697142Y-85944285D01*
X97744761Y-85896666D01*
X97792380Y-85801428D01*
X97792380Y-85610952D01*
X97744761Y-85515714D01*
X97697142Y-85468095D01*
X97601904Y-85420476D01*
X96792380Y-85420476D01*
X96887619Y-84991904D02*
X96840000Y-84944285D01*
X96792380Y-84849047D01*
X96792380Y-84610952D01*
X96840000Y-84515714D01*
X96887619Y-84468095D01*
X96982857Y-84420476D01*
X97078095Y-84420476D01*
X97220952Y-84468095D01*
X97792380Y-85039523D01*
X97792380Y-84420476D01*
%TO.C,R34*%
X92757142Y-74552380D02*
X92423809Y-74076190D01*
X92185714Y-74552380D02*
X92185714Y-73552380D01*
X92566666Y-73552380D01*
X92661904Y-73600000D01*
X92709523Y-73647619D01*
X92757142Y-73742857D01*
X92757142Y-73885714D01*
X92709523Y-73980952D01*
X92661904Y-74028571D01*
X92566666Y-74076190D01*
X92185714Y-74076190D01*
X93090476Y-73552380D02*
X93709523Y-73552380D01*
X93376190Y-73933333D01*
X93519047Y-73933333D01*
X93614285Y-73980952D01*
X93661904Y-74028571D01*
X93709523Y-74123809D01*
X93709523Y-74361904D01*
X93661904Y-74457142D01*
X93614285Y-74504761D01*
X93519047Y-74552380D01*
X93233333Y-74552380D01*
X93138095Y-74504761D01*
X93090476Y-74457142D01*
X94566666Y-73885714D02*
X94566666Y-74552380D01*
X94328571Y-73504761D02*
X94090476Y-74219047D01*
X94709523Y-74219047D01*
%TO.C,C3*%
X127987142Y-81629166D02*
X128034761Y-81676785D01*
X128082380Y-81819642D01*
X128082380Y-81914880D01*
X128034761Y-82057738D01*
X127939523Y-82152976D01*
X127844285Y-82200595D01*
X127653809Y-82248214D01*
X127510952Y-82248214D01*
X127320476Y-82200595D01*
X127225238Y-82152976D01*
X127130000Y-82057738D01*
X127082380Y-81914880D01*
X127082380Y-81819642D01*
X127130000Y-81676785D01*
X127177619Y-81629166D01*
X127082380Y-81295833D02*
X127082380Y-80676785D01*
X127463333Y-81010119D01*
X127463333Y-80867261D01*
X127510952Y-80772023D01*
X127558571Y-80724404D01*
X127653809Y-80676785D01*
X127891904Y-80676785D01*
X127987142Y-80724404D01*
X128034761Y-80772023D01*
X128082380Y-80867261D01*
X128082380Y-81152976D01*
X128034761Y-81248214D01*
X127987142Y-81295833D01*
%TO.C,U3*%
X107258260Y-120269515D02*
X107258260Y-121602144D01*
X107336650Y-121758924D01*
X107415040Y-121837314D01*
X107571820Y-121915704D01*
X107885380Y-121915704D01*
X108042160Y-121837314D01*
X108120550Y-121758924D01*
X108198940Y-121602144D01*
X108198940Y-120269515D01*
X108826059Y-120269515D02*
X109845129Y-120269515D01*
X109296399Y-120896635D01*
X109531569Y-120896635D01*
X109688349Y-120975025D01*
X109766739Y-121053415D01*
X109845129Y-121210194D01*
X109845129Y-121602144D01*
X109766739Y-121758924D01*
X109688349Y-121837314D01*
X109531569Y-121915704D01*
X109061229Y-121915704D01*
X108904449Y-121837314D01*
X108826059Y-121758924D01*
%TO.C,C16*%
X90827142Y-83142857D02*
X90874761Y-83190476D01*
X90922380Y-83333333D01*
X90922380Y-83428571D01*
X90874761Y-83571428D01*
X90779523Y-83666666D01*
X90684285Y-83714285D01*
X90493809Y-83761904D01*
X90350952Y-83761904D01*
X90160476Y-83714285D01*
X90065238Y-83666666D01*
X89970000Y-83571428D01*
X89922380Y-83428571D01*
X89922380Y-83333333D01*
X89970000Y-83190476D01*
X90017619Y-83142857D01*
X90922380Y-82190476D02*
X90922380Y-82761904D01*
X90922380Y-82476190D02*
X89922380Y-82476190D01*
X90065238Y-82571428D01*
X90160476Y-82666666D01*
X90208095Y-82761904D01*
X89922380Y-81333333D02*
X89922380Y-81523809D01*
X89970000Y-81619047D01*
X90017619Y-81666666D01*
X90160476Y-81761904D01*
X90350952Y-81809523D01*
X90731904Y-81809523D01*
X90827142Y-81761904D01*
X90874761Y-81714285D01*
X90922380Y-81619047D01*
X90922380Y-81428571D01*
X90874761Y-81333333D01*
X90827142Y-81285714D01*
X90731904Y-81238095D01*
X90493809Y-81238095D01*
X90398571Y-81285714D01*
X90350952Y-81333333D01*
X90303333Y-81428571D01*
X90303333Y-81619047D01*
X90350952Y-81714285D01*
X90398571Y-81761904D01*
X90493809Y-81809523D01*
%TO.C,R1*%
X90258333Y-105764880D02*
X89925000Y-105288690D01*
X89686904Y-105764880D02*
X89686904Y-104764880D01*
X90067857Y-104764880D01*
X90163095Y-104812500D01*
X90210714Y-104860119D01*
X90258333Y-104955357D01*
X90258333Y-105098214D01*
X90210714Y-105193452D01*
X90163095Y-105241071D01*
X90067857Y-105288690D01*
X89686904Y-105288690D01*
X91210714Y-105764880D02*
X90639285Y-105764880D01*
X90925000Y-105764880D02*
X90925000Y-104764880D01*
X90829761Y-104907738D01*
X90734523Y-105002976D01*
X90639285Y-105050595D01*
%TO.C,C18*%
X106319642Y-69827142D02*
X106272023Y-69874761D01*
X106129166Y-69922380D01*
X106033928Y-69922380D01*
X105891071Y-69874761D01*
X105795833Y-69779523D01*
X105748214Y-69684285D01*
X105700595Y-69493809D01*
X105700595Y-69350952D01*
X105748214Y-69160476D01*
X105795833Y-69065238D01*
X105891071Y-68970000D01*
X106033928Y-68922380D01*
X106129166Y-68922380D01*
X106272023Y-68970000D01*
X106319642Y-69017619D01*
X107272023Y-69922380D02*
X106700595Y-69922380D01*
X106986309Y-69922380D02*
X106986309Y-68922380D01*
X106891071Y-69065238D01*
X106795833Y-69160476D01*
X106700595Y-69208095D01*
X107843452Y-69350952D02*
X107748214Y-69303333D01*
X107700595Y-69255714D01*
X107652976Y-69160476D01*
X107652976Y-69112857D01*
X107700595Y-69017619D01*
X107748214Y-68970000D01*
X107843452Y-68922380D01*
X108033928Y-68922380D01*
X108129166Y-68970000D01*
X108176785Y-69017619D01*
X108224404Y-69112857D01*
X108224404Y-69160476D01*
X108176785Y-69255714D01*
X108129166Y-69303333D01*
X108033928Y-69350952D01*
X107843452Y-69350952D01*
X107748214Y-69398571D01*
X107700595Y-69446190D01*
X107652976Y-69541428D01*
X107652976Y-69731904D01*
X107700595Y-69827142D01*
X107748214Y-69874761D01*
X107843452Y-69922380D01*
X108033928Y-69922380D01*
X108129166Y-69874761D01*
X108176785Y-69827142D01*
X108224404Y-69731904D01*
X108224404Y-69541428D01*
X108176785Y-69446190D01*
X108129166Y-69398571D01*
X108033928Y-69350952D01*
%TO.C,R4*%
X132052380Y-101554166D02*
X131576190Y-101887500D01*
X132052380Y-102125595D02*
X131052380Y-102125595D01*
X131052380Y-101744642D01*
X131100000Y-101649404D01*
X131147619Y-101601785D01*
X131242857Y-101554166D01*
X131385714Y-101554166D01*
X131480952Y-101601785D01*
X131528571Y-101649404D01*
X131576190Y-101744642D01*
X131576190Y-102125595D01*
X131385714Y-100697023D02*
X132052380Y-100697023D01*
X131004761Y-100935119D02*
X131719047Y-101173214D01*
X131719047Y-100554166D01*
%TO.C,SW3*%
X122404761Y-104820833D02*
X122452380Y-104677976D01*
X122452380Y-104439880D01*
X122404761Y-104344642D01*
X122357142Y-104297023D01*
X122261904Y-104249404D01*
X122166666Y-104249404D01*
X122071428Y-104297023D01*
X122023809Y-104344642D01*
X121976190Y-104439880D01*
X121928571Y-104630357D01*
X121880952Y-104725595D01*
X121833333Y-104773214D01*
X121738095Y-104820833D01*
X121642857Y-104820833D01*
X121547619Y-104773214D01*
X121500000Y-104725595D01*
X121452380Y-104630357D01*
X121452380Y-104392261D01*
X121500000Y-104249404D01*
X121452380Y-103916071D02*
X122452380Y-103677976D01*
X121738095Y-103487500D01*
X122452380Y-103297023D01*
X121452380Y-103058928D01*
X121452380Y-102773214D02*
X121452380Y-102154166D01*
X121833333Y-102487500D01*
X121833333Y-102344642D01*
X121880952Y-102249404D01*
X121928571Y-102201785D01*
X122023809Y-102154166D01*
X122261904Y-102154166D01*
X122357142Y-102201785D01*
X122404761Y-102249404D01*
X122452380Y-102344642D01*
X122452380Y-102630357D01*
X122404761Y-102725595D01*
X122357142Y-102773214D01*
%TO.C,R16*%
X97169642Y-126752380D02*
X96836309Y-126276190D01*
X96598214Y-126752380D02*
X96598214Y-125752380D01*
X96979166Y-125752380D01*
X97074404Y-125800000D01*
X97122023Y-125847619D01*
X97169642Y-125942857D01*
X97169642Y-126085714D01*
X97122023Y-126180952D01*
X97074404Y-126228571D01*
X96979166Y-126276190D01*
X96598214Y-126276190D01*
X98122023Y-126752380D02*
X97550595Y-126752380D01*
X97836309Y-126752380D02*
X97836309Y-125752380D01*
X97741071Y-125895238D01*
X97645833Y-125990476D01*
X97550595Y-126038095D01*
X98979166Y-125752380D02*
X98788690Y-125752380D01*
X98693452Y-125800000D01*
X98645833Y-125847619D01*
X98550595Y-125990476D01*
X98502976Y-126180952D01*
X98502976Y-126561904D01*
X98550595Y-126657142D01*
X98598214Y-126704761D01*
X98693452Y-126752380D01*
X98883928Y-126752380D01*
X98979166Y-126704761D01*
X99026785Y-126657142D01*
X99074404Y-126561904D01*
X99074404Y-126323809D01*
X99026785Y-126228571D01*
X98979166Y-126180952D01*
X98883928Y-126133333D01*
X98693452Y-126133333D01*
X98598214Y-126180952D01*
X98550595Y-126228571D01*
X98502976Y-126323809D01*
%TO.C,C50*%
X69207142Y-103852142D02*
X69159523Y-103899761D01*
X69016666Y-103947380D01*
X68921428Y-103947380D01*
X68778571Y-103899761D01*
X68683333Y-103804523D01*
X68635714Y-103709285D01*
X68588095Y-103518809D01*
X68588095Y-103375952D01*
X68635714Y-103185476D01*
X68683333Y-103090238D01*
X68778571Y-102995000D01*
X68921428Y-102947380D01*
X69016666Y-102947380D01*
X69159523Y-102995000D01*
X69207142Y-103042619D01*
X70111904Y-102947380D02*
X69635714Y-102947380D01*
X69588095Y-103423571D01*
X69635714Y-103375952D01*
X69730952Y-103328333D01*
X69969047Y-103328333D01*
X70064285Y-103375952D01*
X70111904Y-103423571D01*
X70159523Y-103518809D01*
X70159523Y-103756904D01*
X70111904Y-103852142D01*
X70064285Y-103899761D01*
X69969047Y-103947380D01*
X69730952Y-103947380D01*
X69635714Y-103899761D01*
X69588095Y-103852142D01*
X70778571Y-102947380D02*
X70873809Y-102947380D01*
X70969047Y-102995000D01*
X71016666Y-103042619D01*
X71064285Y-103137857D01*
X71111904Y-103328333D01*
X71111904Y-103566428D01*
X71064285Y-103756904D01*
X71016666Y-103852142D01*
X70969047Y-103899761D01*
X70873809Y-103947380D01*
X70778571Y-103947380D01*
X70683333Y-103899761D01*
X70635714Y-103852142D01*
X70588095Y-103756904D01*
X70540476Y-103566428D01*
X70540476Y-103328333D01*
X70588095Y-103137857D01*
X70635714Y-103042619D01*
X70683333Y-102995000D01*
X70778571Y-102947380D01*
%TO.C,C52*%
X83957142Y-65257142D02*
X83909523Y-65304761D01*
X83766666Y-65352380D01*
X83671428Y-65352380D01*
X83528571Y-65304761D01*
X83433333Y-65209523D01*
X83385714Y-65114285D01*
X83338095Y-64923809D01*
X83338095Y-64780952D01*
X83385714Y-64590476D01*
X83433333Y-64495238D01*
X83528571Y-64400000D01*
X83671428Y-64352380D01*
X83766666Y-64352380D01*
X83909523Y-64400000D01*
X83957142Y-64447619D01*
X84861904Y-64352380D02*
X84385714Y-64352380D01*
X84338095Y-64828571D01*
X84385714Y-64780952D01*
X84480952Y-64733333D01*
X84719047Y-64733333D01*
X84814285Y-64780952D01*
X84861904Y-64828571D01*
X84909523Y-64923809D01*
X84909523Y-65161904D01*
X84861904Y-65257142D01*
X84814285Y-65304761D01*
X84719047Y-65352380D01*
X84480952Y-65352380D01*
X84385714Y-65304761D01*
X84338095Y-65257142D01*
X85290476Y-64447619D02*
X85338095Y-64400000D01*
X85433333Y-64352380D01*
X85671428Y-64352380D01*
X85766666Y-64400000D01*
X85814285Y-64447619D01*
X85861904Y-64542857D01*
X85861904Y-64638095D01*
X85814285Y-64780952D01*
X85242857Y-65352380D01*
X85861904Y-65352380D01*
%TO.C,C45*%
X69507142Y-109052142D02*
X69459523Y-109099761D01*
X69316666Y-109147380D01*
X69221428Y-109147380D01*
X69078571Y-109099761D01*
X68983333Y-109004523D01*
X68935714Y-108909285D01*
X68888095Y-108718809D01*
X68888095Y-108575952D01*
X68935714Y-108385476D01*
X68983333Y-108290238D01*
X69078571Y-108195000D01*
X69221428Y-108147380D01*
X69316666Y-108147380D01*
X69459523Y-108195000D01*
X69507142Y-108242619D01*
X70364285Y-108480714D02*
X70364285Y-109147380D01*
X70126190Y-108099761D02*
X69888095Y-108814047D01*
X70507142Y-108814047D01*
X71364285Y-108147380D02*
X70888095Y-108147380D01*
X70840476Y-108623571D01*
X70888095Y-108575952D01*
X70983333Y-108528333D01*
X71221428Y-108528333D01*
X71316666Y-108575952D01*
X71364285Y-108623571D01*
X71411904Y-108718809D01*
X71411904Y-108956904D01*
X71364285Y-109052142D01*
X71316666Y-109099761D01*
X71221428Y-109147380D01*
X70983333Y-109147380D01*
X70888095Y-109099761D01*
X70840476Y-109052142D01*
%TO.C,H2*%
X131238095Y-69452380D02*
X131238095Y-68452380D01*
X131238095Y-68928571D02*
X131809523Y-68928571D01*
X131809523Y-69452380D02*
X131809523Y-68452380D01*
X132238095Y-68547619D02*
X132285714Y-68500000D01*
X132380952Y-68452380D01*
X132619047Y-68452380D01*
X132714285Y-68500000D01*
X132761904Y-68547619D01*
X132809523Y-68642857D01*
X132809523Y-68738095D01*
X132761904Y-68880952D01*
X132190476Y-69452380D01*
X132809523Y-69452380D01*
%TO.C,FB3*%
X99028571Y-122880952D02*
X99028571Y-123214285D01*
X99552380Y-123214285D02*
X98552380Y-123214285D01*
X98552380Y-122738095D01*
X99028571Y-122023809D02*
X99076190Y-121880952D01*
X99123809Y-121833333D01*
X99219047Y-121785714D01*
X99361904Y-121785714D01*
X99457142Y-121833333D01*
X99504761Y-121880952D01*
X99552380Y-121976190D01*
X99552380Y-122357142D01*
X98552380Y-122357142D01*
X98552380Y-122023809D01*
X98600000Y-121928571D01*
X98647619Y-121880952D01*
X98742857Y-121833333D01*
X98838095Y-121833333D01*
X98933333Y-121880952D01*
X98980952Y-121928571D01*
X99028571Y-122023809D01*
X99028571Y-122357142D01*
X98552380Y-121452380D02*
X98552380Y-120833333D01*
X98933333Y-121166666D01*
X98933333Y-121023809D01*
X98980952Y-120928571D01*
X99028571Y-120880952D01*
X99123809Y-120833333D01*
X99361904Y-120833333D01*
X99457142Y-120880952D01*
X99504761Y-120928571D01*
X99552380Y-121023809D01*
X99552380Y-121309523D01*
X99504761Y-121404761D01*
X99457142Y-121452380D01*
%TO.C,R10*%
X90520833Y-151052380D02*
X90187500Y-150576190D01*
X89949405Y-151052380D02*
X89949405Y-150052380D01*
X90330357Y-150052380D01*
X90425595Y-150100000D01*
X90473214Y-150147619D01*
X90520833Y-150242857D01*
X90520833Y-150385714D01*
X90473214Y-150480952D01*
X90425595Y-150528571D01*
X90330357Y-150576190D01*
X89949405Y-150576190D01*
X91473214Y-151052380D02*
X90901786Y-151052380D01*
X91187500Y-151052380D02*
X91187500Y-150052380D01*
X91092262Y-150195238D01*
X90997024Y-150290476D01*
X90901786Y-150338095D01*
X92092262Y-150052380D02*
X92187500Y-150052380D01*
X92282738Y-150100000D01*
X92330357Y-150147619D01*
X92377976Y-150242857D01*
X92425595Y-150433333D01*
X92425595Y-150671428D01*
X92377976Y-150861904D01*
X92330357Y-150957142D01*
X92282738Y-151004761D01*
X92187500Y-151052380D01*
X92092262Y-151052380D01*
X91997024Y-151004761D01*
X91949405Y-150957142D01*
X91901786Y-150861904D01*
X91854167Y-150671428D01*
X91854167Y-150433333D01*
X91901786Y-150242857D01*
X91949405Y-150147619D01*
X91997024Y-150100000D01*
X92092262Y-150052380D01*
%TO.C,SW2*%
X88816666Y-96154761D02*
X88959523Y-96202380D01*
X89197619Y-96202380D01*
X89292857Y-96154761D01*
X89340476Y-96107142D01*
X89388095Y-96011904D01*
X89388095Y-95916666D01*
X89340476Y-95821428D01*
X89292857Y-95773809D01*
X89197619Y-95726190D01*
X89007142Y-95678571D01*
X88911904Y-95630952D01*
X88864285Y-95583333D01*
X88816666Y-95488095D01*
X88816666Y-95392857D01*
X88864285Y-95297619D01*
X88911904Y-95250000D01*
X89007142Y-95202380D01*
X89245238Y-95202380D01*
X89388095Y-95250000D01*
X89721428Y-95202380D02*
X89959523Y-96202380D01*
X90150000Y-95488095D01*
X90340476Y-96202380D01*
X90578571Y-95202380D01*
X90911904Y-95297619D02*
X90959523Y-95250000D01*
X91054761Y-95202380D01*
X91292857Y-95202380D01*
X91388095Y-95250000D01*
X91435714Y-95297619D01*
X91483333Y-95392857D01*
X91483333Y-95488095D01*
X91435714Y-95630952D01*
X90864285Y-96202380D01*
X91483333Y-96202380D01*
%TO.C,C40*%
X101257142Y-122642857D02*
X101304761Y-122690476D01*
X101352380Y-122833333D01*
X101352380Y-122928571D01*
X101304761Y-123071428D01*
X101209523Y-123166666D01*
X101114285Y-123214285D01*
X100923809Y-123261904D01*
X100780952Y-123261904D01*
X100590476Y-123214285D01*
X100495238Y-123166666D01*
X100400000Y-123071428D01*
X100352380Y-122928571D01*
X100352380Y-122833333D01*
X100400000Y-122690476D01*
X100447619Y-122642857D01*
X100685714Y-121785714D02*
X101352380Y-121785714D01*
X100304761Y-122023809D02*
X101019047Y-122261904D01*
X101019047Y-121642857D01*
X100352380Y-121071428D02*
X100352380Y-120976190D01*
X100400000Y-120880952D01*
X100447619Y-120833333D01*
X100542857Y-120785714D01*
X100733333Y-120738095D01*
X100971428Y-120738095D01*
X101161904Y-120785714D01*
X101257142Y-120833333D01*
X101304761Y-120880952D01*
X101352380Y-120976190D01*
X101352380Y-121071428D01*
X101304761Y-121166666D01*
X101257142Y-121214285D01*
X101161904Y-121261904D01*
X100971428Y-121309523D01*
X100733333Y-121309523D01*
X100542857Y-121261904D01*
X100447619Y-121214285D01*
X100400000Y-121166666D01*
X100352380Y-121071428D01*
%TO.C,R5*%
X91670833Y-99502380D02*
X91337500Y-99026190D01*
X91099404Y-99502380D02*
X91099404Y-98502380D01*
X91480357Y-98502380D01*
X91575595Y-98550000D01*
X91623214Y-98597619D01*
X91670833Y-98692857D01*
X91670833Y-98835714D01*
X91623214Y-98930952D01*
X91575595Y-98978571D01*
X91480357Y-99026190D01*
X91099404Y-99026190D01*
X92575595Y-98502380D02*
X92099404Y-98502380D01*
X92051785Y-98978571D01*
X92099404Y-98930952D01*
X92194642Y-98883333D01*
X92432738Y-98883333D01*
X92527976Y-98930952D01*
X92575595Y-98978571D01*
X92623214Y-99073809D01*
X92623214Y-99311904D01*
X92575595Y-99407142D01*
X92527976Y-99454761D01*
X92432738Y-99502380D01*
X92194642Y-99502380D01*
X92099404Y-99454761D01*
X92051785Y-99407142D01*
%TO.C,C47*%
X69507142Y-110752142D02*
X69459523Y-110799761D01*
X69316666Y-110847380D01*
X69221428Y-110847380D01*
X69078571Y-110799761D01*
X68983333Y-110704523D01*
X68935714Y-110609285D01*
X68888095Y-110418809D01*
X68888095Y-110275952D01*
X68935714Y-110085476D01*
X68983333Y-109990238D01*
X69078571Y-109895000D01*
X69221428Y-109847380D01*
X69316666Y-109847380D01*
X69459523Y-109895000D01*
X69507142Y-109942619D01*
X70364285Y-110180714D02*
X70364285Y-110847380D01*
X70126190Y-109799761D02*
X69888095Y-110514047D01*
X70507142Y-110514047D01*
X70792857Y-109847380D02*
X71459523Y-109847380D01*
X71030952Y-110847380D01*
%TO.C,C30*%
X97257142Y-134680357D02*
X97304761Y-134727976D01*
X97352380Y-134870833D01*
X97352380Y-134966071D01*
X97304761Y-135108928D01*
X97209523Y-135204166D01*
X97114285Y-135251785D01*
X96923809Y-135299404D01*
X96780952Y-135299404D01*
X96590476Y-135251785D01*
X96495238Y-135204166D01*
X96400000Y-135108928D01*
X96352380Y-134966071D01*
X96352380Y-134870833D01*
X96400000Y-134727976D01*
X96447619Y-134680357D01*
X96352380Y-134347023D02*
X96352380Y-133727976D01*
X96733333Y-134061309D01*
X96733333Y-133918452D01*
X96780952Y-133823214D01*
X96828571Y-133775595D01*
X96923809Y-133727976D01*
X97161904Y-133727976D01*
X97257142Y-133775595D01*
X97304761Y-133823214D01*
X97352380Y-133918452D01*
X97352380Y-134204166D01*
X97304761Y-134299404D01*
X97257142Y-134347023D01*
X96352380Y-133108928D02*
X96352380Y-133013690D01*
X96400000Y-132918452D01*
X96447619Y-132870833D01*
X96542857Y-132823214D01*
X96733333Y-132775595D01*
X96971428Y-132775595D01*
X97161904Y-132823214D01*
X97257142Y-132870833D01*
X97304761Y-132918452D01*
X97352380Y-133013690D01*
X97352380Y-133108928D01*
X97304761Y-133204166D01*
X97257142Y-133251785D01*
X97161904Y-133299404D01*
X96971428Y-133347023D01*
X96733333Y-133347023D01*
X96542857Y-133299404D01*
X96447619Y-133251785D01*
X96400000Y-133204166D01*
X96352380Y-133108928D01*
%TO.C,C46*%
X69507142Y-112452142D02*
X69459523Y-112499761D01*
X69316666Y-112547380D01*
X69221428Y-112547380D01*
X69078571Y-112499761D01*
X68983333Y-112404523D01*
X68935714Y-112309285D01*
X68888095Y-112118809D01*
X68888095Y-111975952D01*
X68935714Y-111785476D01*
X68983333Y-111690238D01*
X69078571Y-111595000D01*
X69221428Y-111547380D01*
X69316666Y-111547380D01*
X69459523Y-111595000D01*
X69507142Y-111642619D01*
X70364285Y-111880714D02*
X70364285Y-112547380D01*
X70126190Y-111499761D02*
X69888095Y-112214047D01*
X70507142Y-112214047D01*
X71316666Y-111547380D02*
X71126190Y-111547380D01*
X71030952Y-111595000D01*
X70983333Y-111642619D01*
X70888095Y-111785476D01*
X70840476Y-111975952D01*
X70840476Y-112356904D01*
X70888095Y-112452142D01*
X70935714Y-112499761D01*
X71030952Y-112547380D01*
X71221428Y-112547380D01*
X71316666Y-112499761D01*
X71364285Y-112452142D01*
X71411904Y-112356904D01*
X71411904Y-112118809D01*
X71364285Y-112023571D01*
X71316666Y-111975952D01*
X71221428Y-111928333D01*
X71030952Y-111928333D01*
X70935714Y-111975952D01*
X70888095Y-112023571D01*
X70840476Y-112118809D01*
%TO.C,FB1*%
X124181547Y-94328571D02*
X123848214Y-94328571D01*
X123848214Y-94852380D02*
X123848214Y-93852380D01*
X124324404Y-93852380D01*
X125038690Y-94328571D02*
X125181547Y-94376190D01*
X125229166Y-94423809D01*
X125276785Y-94519047D01*
X125276785Y-94661904D01*
X125229166Y-94757142D01*
X125181547Y-94804761D01*
X125086309Y-94852380D01*
X124705357Y-94852380D01*
X124705357Y-93852380D01*
X125038690Y-93852380D01*
X125133928Y-93900000D01*
X125181547Y-93947619D01*
X125229166Y-94042857D01*
X125229166Y-94138095D01*
X125181547Y-94233333D01*
X125133928Y-94280952D01*
X125038690Y-94328571D01*
X124705357Y-94328571D01*
X126229166Y-94852380D02*
X125657738Y-94852380D01*
X125943452Y-94852380D02*
X125943452Y-93852380D01*
X125848214Y-93995238D01*
X125752976Y-94090476D01*
X125657738Y-94138095D01*
D11*
%TO.C,FB5*%
X63041878Y-89088084D02*
X63041878Y-89219317D01*
X63248102Y-89219317D02*
X62854401Y-89219317D01*
X62854401Y-89031841D01*
X63041878Y-88750626D02*
X63060626Y-88694383D01*
X63079373Y-88675635D01*
X63116869Y-88656887D01*
X63173112Y-88656887D01*
X63210607Y-88675635D01*
X63229355Y-88694383D01*
X63248102Y-88731878D01*
X63248102Y-88881859D01*
X62854401Y-88881859D01*
X62854401Y-88750626D01*
X62873149Y-88713130D01*
X62891897Y-88694383D01*
X62929392Y-88675635D01*
X62966887Y-88675635D01*
X63004383Y-88694383D01*
X63023130Y-88713130D01*
X63041878Y-88750626D01*
X63041878Y-88881859D01*
X62854401Y-88300682D02*
X62854401Y-88488158D01*
X63041878Y-88506906D01*
X63023130Y-88488158D01*
X63004383Y-88450663D01*
X63004383Y-88356925D01*
X63023130Y-88319429D01*
X63041878Y-88300682D01*
X63079373Y-88281934D01*
X63173112Y-88281934D01*
X63210607Y-88300682D01*
X63229355Y-88319429D01*
X63248102Y-88356925D01*
X63248102Y-88450663D01*
X63229355Y-88488158D01*
X63210607Y-88506906D01*
D10*
%TO.C,R25*%
X125457142Y-113531380D02*
X125123809Y-113055190D01*
X124885714Y-113531380D02*
X124885714Y-112531380D01*
X125266666Y-112531380D01*
X125361904Y-112579000D01*
X125409523Y-112626619D01*
X125457142Y-112721857D01*
X125457142Y-112864714D01*
X125409523Y-112959952D01*
X125361904Y-113007571D01*
X125266666Y-113055190D01*
X124885714Y-113055190D01*
X125838095Y-112626619D02*
X125885714Y-112579000D01*
X125980952Y-112531380D01*
X126219047Y-112531380D01*
X126314285Y-112579000D01*
X126361904Y-112626619D01*
X126409523Y-112721857D01*
X126409523Y-112817095D01*
X126361904Y-112959952D01*
X125790476Y-113531380D01*
X126409523Y-113531380D01*
X127314285Y-112531380D02*
X126838095Y-112531380D01*
X126790476Y-113007571D01*
X126838095Y-112959952D01*
X126933333Y-112912333D01*
X127171428Y-112912333D01*
X127266666Y-112959952D01*
X127314285Y-113007571D01*
X127361904Y-113102809D01*
X127361904Y-113340904D01*
X127314285Y-113436142D01*
X127266666Y-113483761D01*
X127171428Y-113531380D01*
X126933333Y-113531380D01*
X126838095Y-113483761D01*
X126790476Y-113436142D01*
%TO.C,J5*%
X62202380Y-102628333D02*
X62916666Y-102628333D01*
X63059523Y-102675952D01*
X63154761Y-102771190D01*
X63202380Y-102914047D01*
X63202380Y-103009285D01*
X62202380Y-101675952D02*
X62202380Y-102152142D01*
X62678571Y-102199761D01*
X62630952Y-102152142D01*
X62583333Y-102056904D01*
X62583333Y-101818809D01*
X62630952Y-101723571D01*
X62678571Y-101675952D01*
X62773809Y-101628333D01*
X63011904Y-101628333D01*
X63107142Y-101675952D01*
X63154761Y-101723571D01*
X63202380Y-101818809D01*
X63202380Y-102056904D01*
X63154761Y-102152142D01*
X63107142Y-102199761D01*
%TO.C,J1*%
X118782380Y-64633333D02*
X119496666Y-64633333D01*
X119639523Y-64680952D01*
X119734761Y-64776190D01*
X119782380Y-64919047D01*
X119782380Y-65014285D01*
X119782380Y-63633333D02*
X119782380Y-64204761D01*
X119782380Y-63919047D02*
X118782380Y-63919047D01*
X118925238Y-64014285D01*
X119020476Y-64109523D01*
X119068095Y-64204761D01*
%TO.C,C4*%
X108499642Y-103274166D02*
X108547261Y-103321785D01*
X108594880Y-103464642D01*
X108594880Y-103559880D01*
X108547261Y-103702738D01*
X108452023Y-103797976D01*
X108356785Y-103845595D01*
X108166309Y-103893214D01*
X108023452Y-103893214D01*
X107832976Y-103845595D01*
X107737738Y-103797976D01*
X107642500Y-103702738D01*
X107594880Y-103559880D01*
X107594880Y-103464642D01*
X107642500Y-103321785D01*
X107690119Y-103274166D01*
X107928214Y-102417023D02*
X108594880Y-102417023D01*
X107547261Y-102655119D02*
X108261547Y-102893214D01*
X108261547Y-102274166D01*
%TO.C,R18*%
X124157142Y-126652380D02*
X123823809Y-126176190D01*
X123585714Y-126652380D02*
X123585714Y-125652380D01*
X123966666Y-125652380D01*
X124061904Y-125700000D01*
X124109523Y-125747619D01*
X124157142Y-125842857D01*
X124157142Y-125985714D01*
X124109523Y-126080952D01*
X124061904Y-126128571D01*
X123966666Y-126176190D01*
X123585714Y-126176190D01*
X125109523Y-126652380D02*
X124538095Y-126652380D01*
X124823809Y-126652380D02*
X124823809Y-125652380D01*
X124728571Y-125795238D01*
X124633333Y-125890476D01*
X124538095Y-125938095D01*
X125680952Y-126080952D02*
X125585714Y-126033333D01*
X125538095Y-125985714D01*
X125490476Y-125890476D01*
X125490476Y-125842857D01*
X125538095Y-125747619D01*
X125585714Y-125700000D01*
X125680952Y-125652380D01*
X125871428Y-125652380D01*
X125966666Y-125700000D01*
X126014285Y-125747619D01*
X126061904Y-125842857D01*
X126061904Y-125890476D01*
X126014285Y-125985714D01*
X125966666Y-126033333D01*
X125871428Y-126080952D01*
X125680952Y-126080952D01*
X125585714Y-126128571D01*
X125538095Y-126176190D01*
X125490476Y-126271428D01*
X125490476Y-126461904D01*
X125538095Y-126557142D01*
X125585714Y-126604761D01*
X125680952Y-126652380D01*
X125871428Y-126652380D01*
X125966666Y-126604761D01*
X126014285Y-126557142D01*
X126061904Y-126461904D01*
X126061904Y-126271428D01*
X126014285Y-126176190D01*
X125966666Y-126128571D01*
X125871428Y-126080952D01*
%TO.C,C42*%
X101382142Y-119557142D02*
X101334523Y-119604761D01*
X101191666Y-119652380D01*
X101096428Y-119652380D01*
X100953571Y-119604761D01*
X100858333Y-119509523D01*
X100810714Y-119414285D01*
X100763095Y-119223809D01*
X100763095Y-119080952D01*
X100810714Y-118890476D01*
X100858333Y-118795238D01*
X100953571Y-118700000D01*
X101096428Y-118652380D01*
X101191666Y-118652380D01*
X101334523Y-118700000D01*
X101382142Y-118747619D01*
X102239285Y-118985714D02*
X102239285Y-119652380D01*
X102001190Y-118604761D02*
X101763095Y-119319047D01*
X102382142Y-119319047D01*
X102715476Y-118747619D02*
X102763095Y-118700000D01*
X102858333Y-118652380D01*
X103096428Y-118652380D01*
X103191666Y-118700000D01*
X103239285Y-118747619D01*
X103286904Y-118842857D01*
X103286904Y-118938095D01*
X103239285Y-119080952D01*
X102667857Y-119652380D01*
X103286904Y-119652380D01*
%TO.C,C26*%
X124419642Y-90382142D02*
X124372023Y-90429761D01*
X124229166Y-90477380D01*
X124133928Y-90477380D01*
X123991071Y-90429761D01*
X123895833Y-90334523D01*
X123848214Y-90239285D01*
X123800595Y-90048809D01*
X123800595Y-89905952D01*
X123848214Y-89715476D01*
X123895833Y-89620238D01*
X123991071Y-89525000D01*
X124133928Y-89477380D01*
X124229166Y-89477380D01*
X124372023Y-89525000D01*
X124419642Y-89572619D01*
X124800595Y-89572619D02*
X124848214Y-89525000D01*
X124943452Y-89477380D01*
X125181547Y-89477380D01*
X125276785Y-89525000D01*
X125324404Y-89572619D01*
X125372023Y-89667857D01*
X125372023Y-89763095D01*
X125324404Y-89905952D01*
X124752976Y-90477380D01*
X125372023Y-90477380D01*
X126229166Y-89477380D02*
X126038690Y-89477380D01*
X125943452Y-89525000D01*
X125895833Y-89572619D01*
X125800595Y-89715476D01*
X125752976Y-89905952D01*
X125752976Y-90286904D01*
X125800595Y-90382142D01*
X125848214Y-90429761D01*
X125943452Y-90477380D01*
X126133928Y-90477380D01*
X126229166Y-90429761D01*
X126276785Y-90382142D01*
X126324404Y-90286904D01*
X126324404Y-90048809D01*
X126276785Y-89953571D01*
X126229166Y-89905952D01*
X126133928Y-89858333D01*
X125943452Y-89858333D01*
X125848214Y-89905952D01*
X125800595Y-89953571D01*
X125752976Y-90048809D01*
%TO.C,C55*%
X83057142Y-80457142D02*
X83009523Y-80504761D01*
X82866666Y-80552380D01*
X82771428Y-80552380D01*
X82628571Y-80504761D01*
X82533333Y-80409523D01*
X82485714Y-80314285D01*
X82438095Y-80123809D01*
X82438095Y-79980952D01*
X82485714Y-79790476D01*
X82533333Y-79695238D01*
X82628571Y-79600000D01*
X82771428Y-79552380D01*
X82866666Y-79552380D01*
X83009523Y-79600000D01*
X83057142Y-79647619D01*
X83961904Y-79552380D02*
X83485714Y-79552380D01*
X83438095Y-80028571D01*
X83485714Y-79980952D01*
X83580952Y-79933333D01*
X83819047Y-79933333D01*
X83914285Y-79980952D01*
X83961904Y-80028571D01*
X84009523Y-80123809D01*
X84009523Y-80361904D01*
X83961904Y-80457142D01*
X83914285Y-80504761D01*
X83819047Y-80552380D01*
X83580952Y-80552380D01*
X83485714Y-80504761D01*
X83438095Y-80457142D01*
X84914285Y-79552380D02*
X84438095Y-79552380D01*
X84390476Y-80028571D01*
X84438095Y-79980952D01*
X84533333Y-79933333D01*
X84771428Y-79933333D01*
X84866666Y-79980952D01*
X84914285Y-80028571D01*
X84961904Y-80123809D01*
X84961904Y-80361904D01*
X84914285Y-80457142D01*
X84866666Y-80504761D01*
X84771428Y-80552380D01*
X84533333Y-80552380D01*
X84438095Y-80504761D01*
X84390476Y-80457142D01*
%TO.C,U5*%
X57599210Y-79400995D02*
X57599210Y-80729958D01*
X57677385Y-80886307D01*
X57755559Y-80964481D01*
X57911908Y-81042656D01*
X58224605Y-81042656D01*
X58380954Y-80964481D01*
X58459128Y-80886307D01*
X58537302Y-80729958D01*
X58537302Y-79400995D01*
X60100789Y-79400995D02*
X59319046Y-79400995D01*
X59240871Y-80182738D01*
X59319046Y-80104564D01*
X59475394Y-80026389D01*
X59866266Y-80026389D01*
X60022615Y-80104564D01*
X60100789Y-80182738D01*
X60178963Y-80339087D01*
X60178963Y-80729958D01*
X60100789Y-80886307D01*
X60022615Y-80964481D01*
X59866266Y-81042656D01*
X59475394Y-81042656D01*
X59319046Y-80964481D01*
X59240871Y-80886307D01*
%TO.C,C48*%
X69407142Y-105652142D02*
X69359523Y-105699761D01*
X69216666Y-105747380D01*
X69121428Y-105747380D01*
X68978571Y-105699761D01*
X68883333Y-105604523D01*
X68835714Y-105509285D01*
X68788095Y-105318809D01*
X68788095Y-105175952D01*
X68835714Y-104985476D01*
X68883333Y-104890238D01*
X68978571Y-104795000D01*
X69121428Y-104747380D01*
X69216666Y-104747380D01*
X69359523Y-104795000D01*
X69407142Y-104842619D01*
X70264285Y-105080714D02*
X70264285Y-105747380D01*
X70026190Y-104699761D02*
X69788095Y-105414047D01*
X70407142Y-105414047D01*
X70930952Y-105175952D02*
X70835714Y-105128333D01*
X70788095Y-105080714D01*
X70740476Y-104985476D01*
X70740476Y-104937857D01*
X70788095Y-104842619D01*
X70835714Y-104795000D01*
X70930952Y-104747380D01*
X71121428Y-104747380D01*
X71216666Y-104795000D01*
X71264285Y-104842619D01*
X71311904Y-104937857D01*
X71311904Y-104985476D01*
X71264285Y-105080714D01*
X71216666Y-105128333D01*
X71121428Y-105175952D01*
X70930952Y-105175952D01*
X70835714Y-105223571D01*
X70788095Y-105271190D01*
X70740476Y-105366428D01*
X70740476Y-105556904D01*
X70788095Y-105652142D01*
X70835714Y-105699761D01*
X70930952Y-105747380D01*
X71121428Y-105747380D01*
X71216666Y-105699761D01*
X71264285Y-105652142D01*
X71311904Y-105556904D01*
X71311904Y-105366428D01*
X71264285Y-105271190D01*
X71216666Y-105223571D01*
X71121428Y-105175952D01*
%TO.C,C35*%
X94557142Y-109057142D02*
X94509523Y-109104761D01*
X94366666Y-109152380D01*
X94271428Y-109152380D01*
X94128571Y-109104761D01*
X94033333Y-109009523D01*
X93985714Y-108914285D01*
X93938095Y-108723809D01*
X93938095Y-108580952D01*
X93985714Y-108390476D01*
X94033333Y-108295238D01*
X94128571Y-108200000D01*
X94271428Y-108152380D01*
X94366666Y-108152380D01*
X94509523Y-108200000D01*
X94557142Y-108247619D01*
X94890476Y-108152380D02*
X95509523Y-108152380D01*
X95176190Y-108533333D01*
X95319047Y-108533333D01*
X95414285Y-108580952D01*
X95461904Y-108628571D01*
X95509523Y-108723809D01*
X95509523Y-108961904D01*
X95461904Y-109057142D01*
X95414285Y-109104761D01*
X95319047Y-109152380D01*
X95033333Y-109152380D01*
X94938095Y-109104761D01*
X94890476Y-109057142D01*
X96414285Y-108152380D02*
X95938095Y-108152380D01*
X95890476Y-108628571D01*
X95938095Y-108580952D01*
X96033333Y-108533333D01*
X96271428Y-108533333D01*
X96366666Y-108580952D01*
X96414285Y-108628571D01*
X96461904Y-108723809D01*
X96461904Y-108961904D01*
X96414285Y-109057142D01*
X96366666Y-109104761D01*
X96271428Y-109152380D01*
X96033333Y-109152380D01*
X95938095Y-109104761D01*
X95890476Y-109057142D01*
%TO.C,C22*%
X100894642Y-69777142D02*
X100847023Y-69824761D01*
X100704166Y-69872380D01*
X100608928Y-69872380D01*
X100466071Y-69824761D01*
X100370833Y-69729523D01*
X100323214Y-69634285D01*
X100275595Y-69443809D01*
X100275595Y-69300952D01*
X100323214Y-69110476D01*
X100370833Y-69015238D01*
X100466071Y-68920000D01*
X100608928Y-68872380D01*
X100704166Y-68872380D01*
X100847023Y-68920000D01*
X100894642Y-68967619D01*
X101275595Y-68967619D02*
X101323214Y-68920000D01*
X101418452Y-68872380D01*
X101656547Y-68872380D01*
X101751785Y-68920000D01*
X101799404Y-68967619D01*
X101847023Y-69062857D01*
X101847023Y-69158095D01*
X101799404Y-69300952D01*
X101227976Y-69872380D01*
X101847023Y-69872380D01*
X102227976Y-68967619D02*
X102275595Y-68920000D01*
X102370833Y-68872380D01*
X102608928Y-68872380D01*
X102704166Y-68920000D01*
X102751785Y-68967619D01*
X102799404Y-69062857D01*
X102799404Y-69158095D01*
X102751785Y-69300952D01*
X102180357Y-69872380D01*
X102799404Y-69872380D01*
%TO.C,R32*%
X63557142Y-73752380D02*
X63223809Y-73276190D01*
X62985714Y-73752380D02*
X62985714Y-72752380D01*
X63366666Y-72752380D01*
X63461904Y-72800000D01*
X63509523Y-72847619D01*
X63557142Y-72942857D01*
X63557142Y-73085714D01*
X63509523Y-73180952D01*
X63461904Y-73228571D01*
X63366666Y-73276190D01*
X62985714Y-73276190D01*
X63890476Y-72752380D02*
X64509523Y-72752380D01*
X64176190Y-73133333D01*
X64319047Y-73133333D01*
X64414285Y-73180952D01*
X64461904Y-73228571D01*
X64509523Y-73323809D01*
X64509523Y-73561904D01*
X64461904Y-73657142D01*
X64414285Y-73704761D01*
X64319047Y-73752380D01*
X64033333Y-73752380D01*
X63938095Y-73704761D01*
X63890476Y-73657142D01*
X64890476Y-72847619D02*
X64938095Y-72800000D01*
X65033333Y-72752380D01*
X65271428Y-72752380D01*
X65366666Y-72800000D01*
X65414285Y-72847619D01*
X65461904Y-72942857D01*
X65461904Y-73038095D01*
X65414285Y-73180952D01*
X64842857Y-73752380D01*
X65461904Y-73752380D01*
%TO.C,D4*%
X118466666Y-133543333D02*
X118466666Y-132143333D01*
X118800000Y-132143333D01*
X119000000Y-132210000D01*
X119133333Y-132343333D01*
X119200000Y-132476666D01*
X119266666Y-132743333D01*
X119266666Y-132943333D01*
X119200000Y-133210000D01*
X119133333Y-133343333D01*
X119000000Y-133476666D01*
X118800000Y-133543333D01*
X118466666Y-133543333D01*
X120466666Y-132610000D02*
X120466666Y-133543333D01*
X120133333Y-132076666D02*
X119800000Y-133076666D01*
X120666666Y-133076666D01*
%TO.C,R9*%
X90520833Y-152752380D02*
X90187500Y-152276190D01*
X89949404Y-152752380D02*
X89949404Y-151752380D01*
X90330357Y-151752380D01*
X90425595Y-151800000D01*
X90473214Y-151847619D01*
X90520833Y-151942857D01*
X90520833Y-152085714D01*
X90473214Y-152180952D01*
X90425595Y-152228571D01*
X90330357Y-152276190D01*
X89949404Y-152276190D01*
X90997023Y-152752380D02*
X91187500Y-152752380D01*
X91282738Y-152704761D01*
X91330357Y-152657142D01*
X91425595Y-152514285D01*
X91473214Y-152323809D01*
X91473214Y-151942857D01*
X91425595Y-151847619D01*
X91377976Y-151800000D01*
X91282738Y-151752380D01*
X91092261Y-151752380D01*
X90997023Y-151800000D01*
X90949404Y-151847619D01*
X90901785Y-151942857D01*
X90901785Y-152180952D01*
X90949404Y-152276190D01*
X90997023Y-152323809D01*
X91092261Y-152371428D01*
X91282738Y-152371428D01*
X91377976Y-152323809D01*
X91425595Y-152276190D01*
X91473214Y-152180952D01*
%TO.C,R28*%
X69407142Y-102347380D02*
X69073809Y-101871190D01*
X68835714Y-102347380D02*
X68835714Y-101347380D01*
X69216666Y-101347380D01*
X69311904Y-101395000D01*
X69359523Y-101442619D01*
X69407142Y-101537857D01*
X69407142Y-101680714D01*
X69359523Y-101775952D01*
X69311904Y-101823571D01*
X69216666Y-101871190D01*
X68835714Y-101871190D01*
X69788095Y-101442619D02*
X69835714Y-101395000D01*
X69930952Y-101347380D01*
X70169047Y-101347380D01*
X70264285Y-101395000D01*
X70311904Y-101442619D01*
X70359523Y-101537857D01*
X70359523Y-101633095D01*
X70311904Y-101775952D01*
X69740476Y-102347380D01*
X70359523Y-102347380D01*
X70930952Y-101775952D02*
X70835714Y-101728333D01*
X70788095Y-101680714D01*
X70740476Y-101585476D01*
X70740476Y-101537857D01*
X70788095Y-101442619D01*
X70835714Y-101395000D01*
X70930952Y-101347380D01*
X71121428Y-101347380D01*
X71216666Y-101395000D01*
X71264285Y-101442619D01*
X71311904Y-101537857D01*
X71311904Y-101585476D01*
X71264285Y-101680714D01*
X71216666Y-101728333D01*
X71121428Y-101775952D01*
X70930952Y-101775952D01*
X70835714Y-101823571D01*
X70788095Y-101871190D01*
X70740476Y-101966428D01*
X70740476Y-102156904D01*
X70788095Y-102252142D01*
X70835714Y-102299761D01*
X70930952Y-102347380D01*
X71121428Y-102347380D01*
X71216666Y-102299761D01*
X71264285Y-102252142D01*
X71311904Y-102156904D01*
X71311904Y-101966428D01*
X71264285Y-101871190D01*
X71216666Y-101823571D01*
X71121428Y-101775952D01*
%TO.C,R20*%
X117157142Y-126652380D02*
X116823809Y-126176190D01*
X116585714Y-126652380D02*
X116585714Y-125652380D01*
X116966666Y-125652380D01*
X117061904Y-125700000D01*
X117109523Y-125747619D01*
X117157142Y-125842857D01*
X117157142Y-125985714D01*
X117109523Y-126080952D01*
X117061904Y-126128571D01*
X116966666Y-126176190D01*
X116585714Y-126176190D01*
X117538095Y-125747619D02*
X117585714Y-125700000D01*
X117680952Y-125652380D01*
X117919047Y-125652380D01*
X118014285Y-125700000D01*
X118061904Y-125747619D01*
X118109523Y-125842857D01*
X118109523Y-125938095D01*
X118061904Y-126080952D01*
X117490476Y-126652380D01*
X118109523Y-126652380D01*
X118728571Y-125652380D02*
X118823809Y-125652380D01*
X118919047Y-125700000D01*
X118966666Y-125747619D01*
X119014285Y-125842857D01*
X119061904Y-126033333D01*
X119061904Y-126271428D01*
X119014285Y-126461904D01*
X118966666Y-126557142D01*
X118919047Y-126604761D01*
X118823809Y-126652380D01*
X118728571Y-126652380D01*
X118633333Y-126604761D01*
X118585714Y-126557142D01*
X118538095Y-126461904D01*
X118490476Y-126271428D01*
X118490476Y-126033333D01*
X118538095Y-125842857D01*
X118585714Y-125747619D01*
X118633333Y-125700000D01*
X118728571Y-125652380D01*
D11*
%TO.C,FB2*%
X132971878Y-138648084D02*
X132971878Y-138779317D01*
X133178102Y-138779317D02*
X132784401Y-138779317D01*
X132784401Y-138591841D01*
X132971878Y-138310626D02*
X132990626Y-138254383D01*
X133009373Y-138235635D01*
X133046869Y-138216887D01*
X133103112Y-138216887D01*
X133140607Y-138235635D01*
X133159355Y-138254383D01*
X133178102Y-138291878D01*
X133178102Y-138441859D01*
X132784401Y-138441859D01*
X132784401Y-138310626D01*
X132803149Y-138273130D01*
X132821897Y-138254383D01*
X132859392Y-138235635D01*
X132896887Y-138235635D01*
X132934383Y-138254383D01*
X132953130Y-138273130D01*
X132971878Y-138310626D01*
X132971878Y-138441859D01*
X132821897Y-138066906D02*
X132803149Y-138048158D01*
X132784401Y-138010663D01*
X132784401Y-137916925D01*
X132803149Y-137879429D01*
X132821897Y-137860682D01*
X132859392Y-137841934D01*
X132896887Y-137841934D01*
X132953130Y-137860682D01*
X133178102Y-138085654D01*
X133178102Y-137841934D01*
D10*
%TO.C,C32*%
X117257142Y-134642857D02*
X117304761Y-134690476D01*
X117352380Y-134833333D01*
X117352380Y-134928571D01*
X117304761Y-135071428D01*
X117209523Y-135166666D01*
X117114285Y-135214285D01*
X116923809Y-135261904D01*
X116780952Y-135261904D01*
X116590476Y-135214285D01*
X116495238Y-135166666D01*
X116400000Y-135071428D01*
X116352380Y-134928571D01*
X116352380Y-134833333D01*
X116400000Y-134690476D01*
X116447619Y-134642857D01*
X116352380Y-134309523D02*
X116352380Y-133690476D01*
X116733333Y-134023809D01*
X116733333Y-133880952D01*
X116780952Y-133785714D01*
X116828571Y-133738095D01*
X116923809Y-133690476D01*
X117161904Y-133690476D01*
X117257142Y-133738095D01*
X117304761Y-133785714D01*
X117352380Y-133880952D01*
X117352380Y-134166666D01*
X117304761Y-134261904D01*
X117257142Y-134309523D01*
X116447619Y-133309523D02*
X116400000Y-133261904D01*
X116352380Y-133166666D01*
X116352380Y-132928571D01*
X116400000Y-132833333D01*
X116447619Y-132785714D01*
X116542857Y-132738095D01*
X116638095Y-132738095D01*
X116780952Y-132785714D01*
X117352380Y-133357142D01*
X117352380Y-132738095D01*
%TO.C,C36*%
X125519642Y-115157142D02*
X125472023Y-115204761D01*
X125329166Y-115252380D01*
X125233928Y-115252380D01*
X125091071Y-115204761D01*
X124995833Y-115109523D01*
X124948214Y-115014285D01*
X124900595Y-114823809D01*
X124900595Y-114680952D01*
X124948214Y-114490476D01*
X124995833Y-114395238D01*
X125091071Y-114300000D01*
X125233928Y-114252380D01*
X125329166Y-114252380D01*
X125472023Y-114300000D01*
X125519642Y-114347619D01*
X125852976Y-114252380D02*
X126472023Y-114252380D01*
X126138690Y-114633333D01*
X126281547Y-114633333D01*
X126376785Y-114680952D01*
X126424404Y-114728571D01*
X126472023Y-114823809D01*
X126472023Y-115061904D01*
X126424404Y-115157142D01*
X126376785Y-115204761D01*
X126281547Y-115252380D01*
X125995833Y-115252380D01*
X125900595Y-115204761D01*
X125852976Y-115157142D01*
X127329166Y-114252380D02*
X127138690Y-114252380D01*
X127043452Y-114300000D01*
X126995833Y-114347619D01*
X126900595Y-114490476D01*
X126852976Y-114680952D01*
X126852976Y-115061904D01*
X126900595Y-115157142D01*
X126948214Y-115204761D01*
X127043452Y-115252380D01*
X127233928Y-115252380D01*
X127329166Y-115204761D01*
X127376785Y-115157142D01*
X127424404Y-115061904D01*
X127424404Y-114823809D01*
X127376785Y-114728571D01*
X127329166Y-114680952D01*
X127233928Y-114633333D01*
X127043452Y-114633333D01*
X126948214Y-114680952D01*
X126900595Y-114728571D01*
X126852976Y-114823809D01*
%TO.C,R15*%
X100669642Y-126752380D02*
X100336309Y-126276190D01*
X100098214Y-126752380D02*
X100098214Y-125752380D01*
X100479166Y-125752380D01*
X100574404Y-125800000D01*
X100622023Y-125847619D01*
X100669642Y-125942857D01*
X100669642Y-126085714D01*
X100622023Y-126180952D01*
X100574404Y-126228571D01*
X100479166Y-126276190D01*
X100098214Y-126276190D01*
X101622023Y-126752380D02*
X101050595Y-126752380D01*
X101336309Y-126752380D02*
X101336309Y-125752380D01*
X101241071Y-125895238D01*
X101145833Y-125990476D01*
X101050595Y-126038095D01*
X102526785Y-125752380D02*
X102050595Y-125752380D01*
X102002976Y-126228571D01*
X102050595Y-126180952D01*
X102145833Y-126133333D01*
X102383928Y-126133333D01*
X102479166Y-126180952D01*
X102526785Y-126228571D01*
X102574404Y-126323809D01*
X102574404Y-126561904D01*
X102526785Y-126657142D01*
X102479166Y-126704761D01*
X102383928Y-126752380D01*
X102145833Y-126752380D01*
X102050595Y-126704761D01*
X102002976Y-126657142D01*
%TO.C,C49*%
X69407142Y-114152142D02*
X69359523Y-114199761D01*
X69216666Y-114247380D01*
X69121428Y-114247380D01*
X68978571Y-114199761D01*
X68883333Y-114104523D01*
X68835714Y-114009285D01*
X68788095Y-113818809D01*
X68788095Y-113675952D01*
X68835714Y-113485476D01*
X68883333Y-113390238D01*
X68978571Y-113295000D01*
X69121428Y-113247380D01*
X69216666Y-113247380D01*
X69359523Y-113295000D01*
X69407142Y-113342619D01*
X70264285Y-113580714D02*
X70264285Y-114247380D01*
X70026190Y-113199761D02*
X69788095Y-113914047D01*
X70407142Y-113914047D01*
X70835714Y-114247380D02*
X71026190Y-114247380D01*
X71121428Y-114199761D01*
X71169047Y-114152142D01*
X71264285Y-114009285D01*
X71311904Y-113818809D01*
X71311904Y-113437857D01*
X71264285Y-113342619D01*
X71216666Y-113295000D01*
X71121428Y-113247380D01*
X70930952Y-113247380D01*
X70835714Y-113295000D01*
X70788095Y-113342619D01*
X70740476Y-113437857D01*
X70740476Y-113675952D01*
X70788095Y-113771190D01*
X70835714Y-113818809D01*
X70930952Y-113866428D01*
X71121428Y-113866428D01*
X71216666Y-113818809D01*
X71264285Y-113771190D01*
X71311904Y-113675952D01*
%TO.C,C24*%
X124419642Y-96457142D02*
X124372023Y-96504761D01*
X124229166Y-96552380D01*
X124133928Y-96552380D01*
X123991071Y-96504761D01*
X123895833Y-96409523D01*
X123848214Y-96314285D01*
X123800595Y-96123809D01*
X123800595Y-95980952D01*
X123848214Y-95790476D01*
X123895833Y-95695238D01*
X123991071Y-95600000D01*
X124133928Y-95552380D01*
X124229166Y-95552380D01*
X124372023Y-95600000D01*
X124419642Y-95647619D01*
X124800595Y-95647619D02*
X124848214Y-95600000D01*
X124943452Y-95552380D01*
X125181547Y-95552380D01*
X125276785Y-95600000D01*
X125324404Y-95647619D01*
X125372023Y-95742857D01*
X125372023Y-95838095D01*
X125324404Y-95980952D01*
X124752976Y-96552380D01*
X125372023Y-96552380D01*
X126229166Y-95885714D02*
X126229166Y-96552380D01*
X125991071Y-95504761D02*
X125752976Y-96219047D01*
X126372023Y-96219047D01*
%TO.C,R31*%
X63557142Y-75452380D02*
X63223809Y-74976190D01*
X62985714Y-75452380D02*
X62985714Y-74452380D01*
X63366666Y-74452380D01*
X63461904Y-74500000D01*
X63509523Y-74547619D01*
X63557142Y-74642857D01*
X63557142Y-74785714D01*
X63509523Y-74880952D01*
X63461904Y-74928571D01*
X63366666Y-74976190D01*
X62985714Y-74976190D01*
X63890476Y-74452380D02*
X64509523Y-74452380D01*
X64176190Y-74833333D01*
X64319047Y-74833333D01*
X64414285Y-74880952D01*
X64461904Y-74928571D01*
X64509523Y-75023809D01*
X64509523Y-75261904D01*
X64461904Y-75357142D01*
X64414285Y-75404761D01*
X64319047Y-75452380D01*
X64033333Y-75452380D01*
X63938095Y-75404761D01*
X63890476Y-75357142D01*
X65461904Y-75452380D02*
X64890476Y-75452380D01*
X65176190Y-75452380D02*
X65176190Y-74452380D01*
X65080952Y-74595238D01*
X64985714Y-74690476D01*
X64890476Y-74738095D01*
%TO.C,D1*%
X82011904Y-87927380D02*
X82011904Y-86927380D01*
X82250000Y-86927380D01*
X82392857Y-86975000D01*
X82488095Y-87070238D01*
X82535714Y-87165476D01*
X82583333Y-87355952D01*
X82583333Y-87498809D01*
X82535714Y-87689285D01*
X82488095Y-87784523D01*
X82392857Y-87879761D01*
X82250000Y-87927380D01*
X82011904Y-87927380D01*
X83535714Y-87927380D02*
X82964285Y-87927380D01*
X83250000Y-87927380D02*
X83250000Y-86927380D01*
X83154761Y-87070238D01*
X83059523Y-87165476D01*
X82964285Y-87213095D01*
%TO.C,C27*%
X131219642Y-134457142D02*
X131172023Y-134504761D01*
X131029166Y-134552380D01*
X130933928Y-134552380D01*
X130791071Y-134504761D01*
X130695833Y-134409523D01*
X130648214Y-134314285D01*
X130600595Y-134123809D01*
X130600595Y-133980952D01*
X130648214Y-133790476D01*
X130695833Y-133695238D01*
X130791071Y-133600000D01*
X130933928Y-133552380D01*
X131029166Y-133552380D01*
X131172023Y-133600000D01*
X131219642Y-133647619D01*
X131600595Y-133647619D02*
X131648214Y-133600000D01*
X131743452Y-133552380D01*
X131981547Y-133552380D01*
X132076785Y-133600000D01*
X132124404Y-133647619D01*
X132172023Y-133742857D01*
X132172023Y-133838095D01*
X132124404Y-133980952D01*
X131552976Y-134552380D01*
X132172023Y-134552380D01*
X132505357Y-133552380D02*
X133172023Y-133552380D01*
X132743452Y-134552380D01*
%TO.C,R30*%
X84057142Y-63652380D02*
X83723809Y-63176190D01*
X83485714Y-63652380D02*
X83485714Y-62652380D01*
X83866666Y-62652380D01*
X83961904Y-62700000D01*
X84009523Y-62747619D01*
X84057142Y-62842857D01*
X84057142Y-62985714D01*
X84009523Y-63080952D01*
X83961904Y-63128571D01*
X83866666Y-63176190D01*
X83485714Y-63176190D01*
X84390476Y-62652380D02*
X85009523Y-62652380D01*
X84676190Y-63033333D01*
X84819047Y-63033333D01*
X84914285Y-63080952D01*
X84961904Y-63128571D01*
X85009523Y-63223809D01*
X85009523Y-63461904D01*
X84961904Y-63557142D01*
X84914285Y-63604761D01*
X84819047Y-63652380D01*
X84533333Y-63652380D01*
X84438095Y-63604761D01*
X84390476Y-63557142D01*
X85628571Y-62652380D02*
X85723809Y-62652380D01*
X85819047Y-62700000D01*
X85866666Y-62747619D01*
X85914285Y-62842857D01*
X85961904Y-63033333D01*
X85961904Y-63271428D01*
X85914285Y-63461904D01*
X85866666Y-63557142D01*
X85819047Y-63604761D01*
X85723809Y-63652380D01*
X85628571Y-63652380D01*
X85533333Y-63604761D01*
X85485714Y-63557142D01*
X85438095Y-63461904D01*
X85390476Y-63271428D01*
X85390476Y-63033333D01*
X85438095Y-62842857D01*
X85485714Y-62747619D01*
X85533333Y-62700000D01*
X85628571Y-62652380D01*
%TO.C,R11*%
X94457142Y-116252380D02*
X94123809Y-115776190D01*
X93885714Y-116252380D02*
X93885714Y-115252380D01*
X94266666Y-115252380D01*
X94361904Y-115300000D01*
X94409523Y-115347619D01*
X94457142Y-115442857D01*
X94457142Y-115585714D01*
X94409523Y-115680952D01*
X94361904Y-115728571D01*
X94266666Y-115776190D01*
X93885714Y-115776190D01*
X95409523Y-116252380D02*
X94838095Y-116252380D01*
X95123809Y-116252380D02*
X95123809Y-115252380D01*
X95028571Y-115395238D01*
X94933333Y-115490476D01*
X94838095Y-115538095D01*
X96361904Y-116252380D02*
X95790476Y-116252380D01*
X96076190Y-116252380D02*
X96076190Y-115252380D01*
X95980952Y-115395238D01*
X95885714Y-115490476D01*
X95790476Y-115538095D01*
%TO.C,C6*%
X94275892Y-103287916D02*
X94323511Y-103335535D01*
X94371130Y-103478392D01*
X94371130Y-103573630D01*
X94323511Y-103716488D01*
X94228273Y-103811726D01*
X94133035Y-103859345D01*
X93942559Y-103906964D01*
X93799702Y-103906964D01*
X93609226Y-103859345D01*
X93513988Y-103811726D01*
X93418750Y-103716488D01*
X93371130Y-103573630D01*
X93371130Y-103478392D01*
X93418750Y-103335535D01*
X93466369Y-103287916D01*
X93371130Y-102430773D02*
X93371130Y-102621250D01*
X93418750Y-102716488D01*
X93466369Y-102764107D01*
X93609226Y-102859345D01*
X93799702Y-102906964D01*
X94180654Y-102906964D01*
X94275892Y-102859345D01*
X94323511Y-102811726D01*
X94371130Y-102716488D01*
X94371130Y-102526011D01*
X94323511Y-102430773D01*
X94275892Y-102383154D01*
X94180654Y-102335535D01*
X93942559Y-102335535D01*
X93847321Y-102383154D01*
X93799702Y-102430773D01*
X93752083Y-102526011D01*
X93752083Y-102716488D01*
X93799702Y-102811726D01*
X93847321Y-102859345D01*
X93942559Y-102906964D01*
%TO.C,H1*%
X39238095Y-69452380D02*
X39238095Y-68452380D01*
X39238095Y-68928571D02*
X39809523Y-68928571D01*
X39809523Y-69452380D02*
X39809523Y-68452380D01*
X40809523Y-69452380D02*
X40238095Y-69452380D01*
X40523809Y-69452380D02*
X40523809Y-68452380D01*
X40428571Y-68595238D01*
X40333333Y-68690476D01*
X40238095Y-68738095D01*
%TO.C,C7*%
X105335892Y-103387916D02*
X105383511Y-103435535D01*
X105431130Y-103578392D01*
X105431130Y-103673630D01*
X105383511Y-103816488D01*
X105288273Y-103911726D01*
X105193035Y-103959345D01*
X105002559Y-104006964D01*
X104859702Y-104006964D01*
X104669226Y-103959345D01*
X104573988Y-103911726D01*
X104478750Y-103816488D01*
X104431130Y-103673630D01*
X104431130Y-103578392D01*
X104478750Y-103435535D01*
X104526369Y-103387916D01*
X104431130Y-103054583D02*
X104431130Y-102387916D01*
X105431130Y-102816488D01*
%TO.C,FB4*%
X94319047Y-110428571D02*
X93985714Y-110428571D01*
X93985714Y-110952380D02*
X93985714Y-109952380D01*
X94461904Y-109952380D01*
X95176190Y-110428571D02*
X95319047Y-110476190D01*
X95366666Y-110523809D01*
X95414285Y-110619047D01*
X95414285Y-110761904D01*
X95366666Y-110857142D01*
X95319047Y-110904761D01*
X95223809Y-110952380D01*
X94842857Y-110952380D01*
X94842857Y-109952380D01*
X95176190Y-109952380D01*
X95271428Y-110000000D01*
X95319047Y-110047619D01*
X95366666Y-110142857D01*
X95366666Y-110238095D01*
X95319047Y-110333333D01*
X95271428Y-110380952D01*
X95176190Y-110428571D01*
X94842857Y-110428571D01*
X96271428Y-110285714D02*
X96271428Y-110952380D01*
X96033333Y-109904761D02*
X95795238Y-110619047D01*
X96414285Y-110619047D01*
%TO.C,C38*%
X101357142Y-112657142D02*
X101309523Y-112704761D01*
X101166666Y-112752380D01*
X101071428Y-112752380D01*
X100928571Y-112704761D01*
X100833333Y-112609523D01*
X100785714Y-112514285D01*
X100738095Y-112323809D01*
X100738095Y-112180952D01*
X100785714Y-111990476D01*
X100833333Y-111895238D01*
X100928571Y-111800000D01*
X101071428Y-111752380D01*
X101166666Y-111752380D01*
X101309523Y-111800000D01*
X101357142Y-111847619D01*
X101690476Y-111752380D02*
X102309523Y-111752380D01*
X101976190Y-112133333D01*
X102119047Y-112133333D01*
X102214285Y-112180952D01*
X102261904Y-112228571D01*
X102309523Y-112323809D01*
X102309523Y-112561904D01*
X102261904Y-112657142D01*
X102214285Y-112704761D01*
X102119047Y-112752380D01*
X101833333Y-112752380D01*
X101738095Y-112704761D01*
X101690476Y-112657142D01*
X102880952Y-112180952D02*
X102785714Y-112133333D01*
X102738095Y-112085714D01*
X102690476Y-111990476D01*
X102690476Y-111942857D01*
X102738095Y-111847619D01*
X102785714Y-111800000D01*
X102880952Y-111752380D01*
X103071428Y-111752380D01*
X103166666Y-111800000D01*
X103214285Y-111847619D01*
X103261904Y-111942857D01*
X103261904Y-111990476D01*
X103214285Y-112085714D01*
X103166666Y-112133333D01*
X103071428Y-112180952D01*
X102880952Y-112180952D01*
X102785714Y-112228571D01*
X102738095Y-112276190D01*
X102690476Y-112371428D01*
X102690476Y-112561904D01*
X102738095Y-112657142D01*
X102785714Y-112704761D01*
X102880952Y-112752380D01*
X103071428Y-112752380D01*
X103166666Y-112704761D01*
X103214285Y-112657142D01*
X103261904Y-112561904D01*
X103261904Y-112371428D01*
X103214285Y-112276190D01*
X103166666Y-112228571D01*
X103071428Y-112180952D01*
%TO.C,C2*%
X127987142Y-86366666D02*
X128034761Y-86414285D01*
X128082380Y-86557142D01*
X128082380Y-86652380D01*
X128034761Y-86795238D01*
X127939523Y-86890476D01*
X127844285Y-86938095D01*
X127653809Y-86985714D01*
X127510952Y-86985714D01*
X127320476Y-86938095D01*
X127225238Y-86890476D01*
X127130000Y-86795238D01*
X127082380Y-86652380D01*
X127082380Y-86557142D01*
X127130000Y-86414285D01*
X127177619Y-86366666D01*
X127177619Y-85985714D02*
X127130000Y-85938095D01*
X127082380Y-85842857D01*
X127082380Y-85604761D01*
X127130000Y-85509523D01*
X127177619Y-85461904D01*
X127272857Y-85414285D01*
X127368095Y-85414285D01*
X127510952Y-85461904D01*
X128082380Y-86033333D01*
X128082380Y-85414285D01*
%TO.C,U7*%
X61436823Y-71367966D02*
X61436823Y-72178841D01*
X61484522Y-72274238D01*
X61532220Y-72321937D01*
X61627617Y-72369635D01*
X61818411Y-72369635D01*
X61913808Y-72321937D01*
X61961507Y-72274238D01*
X62009205Y-72178841D01*
X62009205Y-71367966D01*
X62390794Y-71367966D02*
X63058573Y-71367966D01*
X62629286Y-72369635D01*
%TO.C,C51*%
X69207142Y-115852142D02*
X69159523Y-115899761D01*
X69016666Y-115947380D01*
X68921428Y-115947380D01*
X68778571Y-115899761D01*
X68683333Y-115804523D01*
X68635714Y-115709285D01*
X68588095Y-115518809D01*
X68588095Y-115375952D01*
X68635714Y-115185476D01*
X68683333Y-115090238D01*
X68778571Y-114995000D01*
X68921428Y-114947380D01*
X69016666Y-114947380D01*
X69159523Y-114995000D01*
X69207142Y-115042619D01*
X70111904Y-114947380D02*
X69635714Y-114947380D01*
X69588095Y-115423571D01*
X69635714Y-115375952D01*
X69730952Y-115328333D01*
X69969047Y-115328333D01*
X70064285Y-115375952D01*
X70111904Y-115423571D01*
X70159523Y-115518809D01*
X70159523Y-115756904D01*
X70111904Y-115852142D01*
X70064285Y-115899761D01*
X69969047Y-115947380D01*
X69730952Y-115947380D01*
X69635714Y-115899761D01*
X69588095Y-115852142D01*
X71111904Y-115947380D02*
X70540476Y-115947380D01*
X70826190Y-115947380D02*
X70826190Y-114947380D01*
X70730952Y-115090238D01*
X70635714Y-115185476D01*
X70540476Y-115233095D01*
%TO.C,R6*%
X91670833Y-97802380D02*
X91337500Y-97326190D01*
X91099404Y-97802380D02*
X91099404Y-96802380D01*
X91480357Y-96802380D01*
X91575595Y-96850000D01*
X91623214Y-96897619D01*
X91670833Y-96992857D01*
X91670833Y-97135714D01*
X91623214Y-97230952D01*
X91575595Y-97278571D01*
X91480357Y-97326190D01*
X91099404Y-97326190D01*
X92527976Y-96802380D02*
X92337500Y-96802380D01*
X92242261Y-96850000D01*
X92194642Y-96897619D01*
X92099404Y-97040476D01*
X92051785Y-97230952D01*
X92051785Y-97611904D01*
X92099404Y-97707142D01*
X92147023Y-97754761D01*
X92242261Y-97802380D01*
X92432738Y-97802380D01*
X92527976Y-97754761D01*
X92575595Y-97707142D01*
X92623214Y-97611904D01*
X92623214Y-97373809D01*
X92575595Y-97278571D01*
X92527976Y-97230952D01*
X92432738Y-97183333D01*
X92242261Y-97183333D01*
X92147023Y-97230952D01*
X92099404Y-97278571D01*
X92051785Y-97373809D01*
%TO.C,C14*%
X123957142Y-73927142D02*
X123909523Y-73974761D01*
X123766666Y-74022380D01*
X123671428Y-74022380D01*
X123528571Y-73974761D01*
X123433333Y-73879523D01*
X123385714Y-73784285D01*
X123338095Y-73593809D01*
X123338095Y-73450952D01*
X123385714Y-73260476D01*
X123433333Y-73165238D01*
X123528571Y-73070000D01*
X123671428Y-73022380D01*
X123766666Y-73022380D01*
X123909523Y-73070000D01*
X123957142Y-73117619D01*
X124909523Y-74022380D02*
X124338095Y-74022380D01*
X124623809Y-74022380D02*
X124623809Y-73022380D01*
X124528571Y-73165238D01*
X124433333Y-73260476D01*
X124338095Y-73308095D01*
X125766666Y-73355714D02*
X125766666Y-74022380D01*
X125528571Y-72974761D02*
X125290476Y-73689047D01*
X125909523Y-73689047D01*
%TO.C,H3*%
X38963095Y-152602380D02*
X38963095Y-151602380D01*
X38963095Y-152078571D02*
X39534523Y-152078571D01*
X39534523Y-152602380D02*
X39534523Y-151602380D01*
X39915476Y-151602380D02*
X40534523Y-151602380D01*
X40201190Y-151983333D01*
X40344047Y-151983333D01*
X40439285Y-152030952D01*
X40486904Y-152078571D01*
X40534523Y-152173809D01*
X40534523Y-152411904D01*
X40486904Y-152507142D01*
X40439285Y-152554761D01*
X40344047Y-152602380D01*
X40058333Y-152602380D01*
X39963095Y-152554761D01*
X39915476Y-152507142D01*
%TO.C,C34*%
X97657142Y-122642857D02*
X97704761Y-122690476D01*
X97752380Y-122833333D01*
X97752380Y-122928571D01*
X97704761Y-123071428D01*
X97609523Y-123166666D01*
X97514285Y-123214285D01*
X97323809Y-123261904D01*
X97180952Y-123261904D01*
X96990476Y-123214285D01*
X96895238Y-123166666D01*
X96800000Y-123071428D01*
X96752380Y-122928571D01*
X96752380Y-122833333D01*
X96800000Y-122690476D01*
X96847619Y-122642857D01*
X96752380Y-122309523D02*
X96752380Y-121690476D01*
X97133333Y-122023809D01*
X97133333Y-121880952D01*
X97180952Y-121785714D01*
X97228571Y-121738095D01*
X97323809Y-121690476D01*
X97561904Y-121690476D01*
X97657142Y-121738095D01*
X97704761Y-121785714D01*
X97752380Y-121880952D01*
X97752380Y-122166666D01*
X97704761Y-122261904D01*
X97657142Y-122309523D01*
X97085714Y-120833333D02*
X97752380Y-120833333D01*
X96704761Y-121071428D02*
X97419047Y-121309523D01*
X97419047Y-120690476D01*
%TO.C,C23*%
X127677142Y-77307142D02*
X127629523Y-77354761D01*
X127486666Y-77402380D01*
X127391428Y-77402380D01*
X127248571Y-77354761D01*
X127153333Y-77259523D01*
X127105714Y-77164285D01*
X127058095Y-76973809D01*
X127058095Y-76830952D01*
X127105714Y-76640476D01*
X127153333Y-76545238D01*
X127248571Y-76450000D01*
X127391428Y-76402380D01*
X127486666Y-76402380D01*
X127629523Y-76450000D01*
X127677142Y-76497619D01*
X128058095Y-76497619D02*
X128105714Y-76450000D01*
X128200952Y-76402380D01*
X128439047Y-76402380D01*
X128534285Y-76450000D01*
X128581904Y-76497619D01*
X128629523Y-76592857D01*
X128629523Y-76688095D01*
X128581904Y-76830952D01*
X128010476Y-77402380D01*
X128629523Y-77402380D01*
X128962857Y-76402380D02*
X129581904Y-76402380D01*
X129248571Y-76783333D01*
X129391428Y-76783333D01*
X129486666Y-76830952D01*
X129534285Y-76878571D01*
X129581904Y-76973809D01*
X129581904Y-77211904D01*
X129534285Y-77307142D01*
X129486666Y-77354761D01*
X129391428Y-77402380D01*
X129105714Y-77402380D01*
X129010476Y-77354761D01*
X128962857Y-77307142D01*
%TO.C,C17*%
X98269642Y-97227142D02*
X98222023Y-97274761D01*
X98079166Y-97322380D01*
X97983928Y-97322380D01*
X97841071Y-97274761D01*
X97745833Y-97179523D01*
X97698214Y-97084285D01*
X97650595Y-96893809D01*
X97650595Y-96750952D01*
X97698214Y-96560476D01*
X97745833Y-96465238D01*
X97841071Y-96370000D01*
X97983928Y-96322380D01*
X98079166Y-96322380D01*
X98222023Y-96370000D01*
X98269642Y-96417619D01*
X99222023Y-97322380D02*
X98650595Y-97322380D01*
X98936309Y-97322380D02*
X98936309Y-96322380D01*
X98841071Y-96465238D01*
X98745833Y-96560476D01*
X98650595Y-96608095D01*
X99555357Y-96322380D02*
X100222023Y-96322380D01*
X99793452Y-97322380D01*
%TO.C,C31*%
X129557142Y-134642857D02*
X129604761Y-134690476D01*
X129652380Y-134833333D01*
X129652380Y-134928571D01*
X129604761Y-135071428D01*
X129509523Y-135166666D01*
X129414285Y-135214285D01*
X129223809Y-135261904D01*
X129080952Y-135261904D01*
X128890476Y-135214285D01*
X128795238Y-135166666D01*
X128700000Y-135071428D01*
X128652380Y-134928571D01*
X128652380Y-134833333D01*
X128700000Y-134690476D01*
X128747619Y-134642857D01*
X128652380Y-134309523D02*
X128652380Y-133690476D01*
X129033333Y-134023809D01*
X129033333Y-133880952D01*
X129080952Y-133785714D01*
X129128571Y-133738095D01*
X129223809Y-133690476D01*
X129461904Y-133690476D01*
X129557142Y-133738095D01*
X129604761Y-133785714D01*
X129652380Y-133880952D01*
X129652380Y-134166666D01*
X129604761Y-134261904D01*
X129557142Y-134309523D01*
X129652380Y-132738095D02*
X129652380Y-133309523D01*
X129652380Y-133023809D02*
X128652380Y-133023809D01*
X128795238Y-133119047D01*
X128890476Y-133214285D01*
X128938095Y-133309523D01*
%TO.C,D3*%
X98166666Y-133443333D02*
X98166666Y-132043333D01*
X98500000Y-132043333D01*
X98700000Y-132110000D01*
X98833333Y-132243333D01*
X98900000Y-132376666D01*
X98966666Y-132643333D01*
X98966666Y-132843333D01*
X98900000Y-133110000D01*
X98833333Y-133243333D01*
X98700000Y-133376666D01*
X98500000Y-133443333D01*
X98166666Y-133443333D01*
X99433333Y-132043333D02*
X100300000Y-132043333D01*
X99833333Y-132576666D01*
X100033333Y-132576666D01*
X100166666Y-132643333D01*
X100233333Y-132710000D01*
X100300000Y-132843333D01*
X100300000Y-133176666D01*
X100233333Y-133310000D01*
X100166666Y-133376666D01*
X100033333Y-133443333D01*
X99633333Y-133443333D01*
X99500000Y-133376666D01*
X99433333Y-133310000D01*
%TO.C,R27*%
X69307142Y-107447380D02*
X68973809Y-106971190D01*
X68735714Y-107447380D02*
X68735714Y-106447380D01*
X69116666Y-106447380D01*
X69211904Y-106495000D01*
X69259523Y-106542619D01*
X69307142Y-106637857D01*
X69307142Y-106780714D01*
X69259523Y-106875952D01*
X69211904Y-106923571D01*
X69116666Y-106971190D01*
X68735714Y-106971190D01*
X69688095Y-106542619D02*
X69735714Y-106495000D01*
X69830952Y-106447380D01*
X70069047Y-106447380D01*
X70164285Y-106495000D01*
X70211904Y-106542619D01*
X70259523Y-106637857D01*
X70259523Y-106733095D01*
X70211904Y-106875952D01*
X69640476Y-107447380D01*
X70259523Y-107447380D01*
X70592857Y-106447380D02*
X71259523Y-106447380D01*
X70830952Y-107447380D01*
%TO.C,R33*%
X92557142Y-72752380D02*
X92223809Y-72276190D01*
X91985714Y-72752380D02*
X91985714Y-71752380D01*
X92366666Y-71752380D01*
X92461904Y-71800000D01*
X92509523Y-71847619D01*
X92557142Y-71942857D01*
X92557142Y-72085714D01*
X92509523Y-72180952D01*
X92461904Y-72228571D01*
X92366666Y-72276190D01*
X91985714Y-72276190D01*
X92890476Y-71752380D02*
X93509523Y-71752380D01*
X93176190Y-72133333D01*
X93319047Y-72133333D01*
X93414285Y-72180952D01*
X93461904Y-72228571D01*
X93509523Y-72323809D01*
X93509523Y-72561904D01*
X93461904Y-72657142D01*
X93414285Y-72704761D01*
X93319047Y-72752380D01*
X93033333Y-72752380D01*
X92938095Y-72704761D01*
X92890476Y-72657142D01*
X93842857Y-71752380D02*
X94461904Y-71752380D01*
X94128571Y-72133333D01*
X94271428Y-72133333D01*
X94366666Y-72180952D01*
X94414285Y-72228571D01*
X94461904Y-72323809D01*
X94461904Y-72561904D01*
X94414285Y-72657142D01*
X94366666Y-72704761D01*
X94271428Y-72752380D01*
X93985714Y-72752380D01*
X93890476Y-72704761D01*
X93842857Y-72657142D01*
%TO.C,R21*%
X125657142Y-117752380D02*
X125323809Y-117276190D01*
X125085714Y-117752380D02*
X125085714Y-116752380D01*
X125466666Y-116752380D01*
X125561904Y-116800000D01*
X125609523Y-116847619D01*
X125657142Y-116942857D01*
X125657142Y-117085714D01*
X125609523Y-117180952D01*
X125561904Y-117228571D01*
X125466666Y-117276190D01*
X125085714Y-117276190D01*
X126038095Y-116847619D02*
X126085714Y-116800000D01*
X126180952Y-116752380D01*
X126419047Y-116752380D01*
X126514285Y-116800000D01*
X126561904Y-116847619D01*
X126609523Y-116942857D01*
X126609523Y-117038095D01*
X126561904Y-117180952D01*
X125990476Y-117752380D01*
X126609523Y-117752380D01*
X127561904Y-117752380D02*
X126990476Y-117752380D01*
X127276190Y-117752380D02*
X127276190Y-116752380D01*
X127180952Y-116895238D01*
X127085714Y-116990476D01*
X126990476Y-117038095D01*
%TO.C,R2*%
X82658333Y-86277380D02*
X82325000Y-85801190D01*
X82086904Y-86277380D02*
X82086904Y-85277380D01*
X82467857Y-85277380D01*
X82563095Y-85325000D01*
X82610714Y-85372619D01*
X82658333Y-85467857D01*
X82658333Y-85610714D01*
X82610714Y-85705952D01*
X82563095Y-85753571D01*
X82467857Y-85801190D01*
X82086904Y-85801190D01*
X83039285Y-85372619D02*
X83086904Y-85325000D01*
X83182142Y-85277380D01*
X83420238Y-85277380D01*
X83515476Y-85325000D01*
X83563095Y-85372619D01*
X83610714Y-85467857D01*
X83610714Y-85563095D01*
X83563095Y-85705952D01*
X82991666Y-86277380D01*
X83610714Y-86277380D01*
%TO.C,J6*%
X74616666Y-114677380D02*
X74616666Y-115391666D01*
X74569047Y-115534523D01*
X74473809Y-115629761D01*
X74330952Y-115677380D01*
X74235714Y-115677380D01*
X75521428Y-114677380D02*
X75330952Y-114677380D01*
X75235714Y-114725000D01*
X75188095Y-114772619D01*
X75092857Y-114915476D01*
X75045238Y-115105952D01*
X75045238Y-115486904D01*
X75092857Y-115582142D01*
X75140476Y-115629761D01*
X75235714Y-115677380D01*
X75426190Y-115677380D01*
X75521428Y-115629761D01*
X75569047Y-115582142D01*
X75616666Y-115486904D01*
X75616666Y-115248809D01*
X75569047Y-115153571D01*
X75521428Y-115105952D01*
X75426190Y-115058333D01*
X75235714Y-115058333D01*
X75140476Y-115105952D01*
X75092857Y-115153571D01*
X75045238Y-115248809D01*
%TO.C,JP1*%
X124133928Y-91652380D02*
X124133928Y-92366666D01*
X124086309Y-92509523D01*
X123991071Y-92604761D01*
X123848214Y-92652380D01*
X123752976Y-92652380D01*
X124610119Y-92652380D02*
X124610119Y-91652380D01*
X124991071Y-91652380D01*
X125086309Y-91700000D01*
X125133928Y-91747619D01*
X125181547Y-91842857D01*
X125181547Y-91985714D01*
X125133928Y-92080952D01*
X125086309Y-92128571D01*
X124991071Y-92176190D01*
X124610119Y-92176190D01*
X126133928Y-92652380D02*
X125562500Y-92652380D01*
X125848214Y-92652380D02*
X125848214Y-91652380D01*
X125752976Y-91795238D01*
X125657738Y-91890476D01*
X125562500Y-91938095D01*
%TO.C,C28*%
X93757142Y-135227142D02*
X93709523Y-135274761D01*
X93566666Y-135322380D01*
X93471428Y-135322380D01*
X93328571Y-135274761D01*
X93233333Y-135179523D01*
X93185714Y-135084285D01*
X93138095Y-134893809D01*
X93138095Y-134750952D01*
X93185714Y-134560476D01*
X93233333Y-134465238D01*
X93328571Y-134370000D01*
X93471428Y-134322380D01*
X93566666Y-134322380D01*
X93709523Y-134370000D01*
X93757142Y-134417619D01*
X94138095Y-134417619D02*
X94185714Y-134370000D01*
X94280952Y-134322380D01*
X94519047Y-134322380D01*
X94614285Y-134370000D01*
X94661904Y-134417619D01*
X94709523Y-134512857D01*
X94709523Y-134608095D01*
X94661904Y-134750952D01*
X94090476Y-135322380D01*
X94709523Y-135322380D01*
X95280952Y-134750952D02*
X95185714Y-134703333D01*
X95138095Y-134655714D01*
X95090476Y-134560476D01*
X95090476Y-134512857D01*
X95138095Y-134417619D01*
X95185714Y-134370000D01*
X95280952Y-134322380D01*
X95471428Y-134322380D01*
X95566666Y-134370000D01*
X95614285Y-134417619D01*
X95661904Y-134512857D01*
X95661904Y-134560476D01*
X95614285Y-134655714D01*
X95566666Y-134703333D01*
X95471428Y-134750952D01*
X95280952Y-134750952D01*
X95185714Y-134798571D01*
X95138095Y-134846190D01*
X95090476Y-134941428D01*
X95090476Y-135131904D01*
X95138095Y-135227142D01*
X95185714Y-135274761D01*
X95280952Y-135322380D01*
X95471428Y-135322380D01*
X95566666Y-135274761D01*
X95614285Y-135227142D01*
X95661904Y-135131904D01*
X95661904Y-134941428D01*
X95614285Y-134846190D01*
X95566666Y-134798571D01*
X95471428Y-134750952D01*
%TO.C,C54*%
X83457142Y-82257142D02*
X83409523Y-82304761D01*
X83266666Y-82352380D01*
X83171428Y-82352380D01*
X83028571Y-82304761D01*
X82933333Y-82209523D01*
X82885714Y-82114285D01*
X82838095Y-81923809D01*
X82838095Y-81780952D01*
X82885714Y-81590476D01*
X82933333Y-81495238D01*
X83028571Y-81400000D01*
X83171428Y-81352380D01*
X83266666Y-81352380D01*
X83409523Y-81400000D01*
X83457142Y-81447619D01*
X84361904Y-81352380D02*
X83885714Y-81352380D01*
X83838095Y-81828571D01*
X83885714Y-81780952D01*
X83980952Y-81733333D01*
X84219047Y-81733333D01*
X84314285Y-81780952D01*
X84361904Y-81828571D01*
X84409523Y-81923809D01*
X84409523Y-82161904D01*
X84361904Y-82257142D01*
X84314285Y-82304761D01*
X84219047Y-82352380D01*
X83980952Y-82352380D01*
X83885714Y-82304761D01*
X83838095Y-82257142D01*
X85266666Y-81685714D02*
X85266666Y-82352380D01*
X85028571Y-81304761D02*
X84790476Y-82019047D01*
X85409523Y-82019047D01*
%TO.C,J7*%
X72366666Y-68832380D02*
X72366666Y-69546666D01*
X72319047Y-69689523D01*
X72223809Y-69784761D01*
X72080952Y-69832380D01*
X71985714Y-69832380D01*
X72747619Y-68832380D02*
X73414285Y-68832380D01*
X72985714Y-69832380D01*
%TO.C,C5*%
X119859642Y-103491666D02*
X119907261Y-103539285D01*
X119954880Y-103682142D01*
X119954880Y-103777380D01*
X119907261Y-103920238D01*
X119812023Y-104015476D01*
X119716785Y-104063095D01*
X119526309Y-104110714D01*
X119383452Y-104110714D01*
X119192976Y-104063095D01*
X119097738Y-104015476D01*
X119002500Y-103920238D01*
X118954880Y-103777380D01*
X118954880Y-103682142D01*
X119002500Y-103539285D01*
X119050119Y-103491666D01*
X118954880Y-102586904D02*
X118954880Y-103063095D01*
X119431071Y-103110714D01*
X119383452Y-103063095D01*
X119335833Y-102967857D01*
X119335833Y-102729761D01*
X119383452Y-102634523D01*
X119431071Y-102586904D01*
X119526309Y-102539285D01*
X119764404Y-102539285D01*
X119859642Y-102586904D01*
X119907261Y-102634523D01*
X119954880Y-102729761D01*
X119954880Y-102967857D01*
X119907261Y-103063095D01*
X119859642Y-103110714D01*
%TO.C,D5*%
X127361904Y-121752380D02*
X127361904Y-120752380D01*
X127600000Y-120752380D01*
X127742857Y-120800000D01*
X127838095Y-120895238D01*
X127885714Y-120990476D01*
X127933333Y-121180952D01*
X127933333Y-121323809D01*
X127885714Y-121514285D01*
X127838095Y-121609523D01*
X127742857Y-121704761D01*
X127600000Y-121752380D01*
X127361904Y-121752380D01*
X128838095Y-120752380D02*
X128361904Y-120752380D01*
X128314285Y-121228571D01*
X128361904Y-121180952D01*
X128457142Y-121133333D01*
X128695238Y-121133333D01*
X128790476Y-121180952D01*
X128838095Y-121228571D01*
X128885714Y-121323809D01*
X128885714Y-121561904D01*
X128838095Y-121657142D01*
X128790476Y-121704761D01*
X128695238Y-121752380D01*
X128457142Y-121752380D01*
X128361904Y-121704761D01*
X128314285Y-121657142D01*
%TO.C,C19*%
X131487142Y-82192857D02*
X131534761Y-82240476D01*
X131582380Y-82383333D01*
X131582380Y-82478571D01*
X131534761Y-82621428D01*
X131439523Y-82716666D01*
X131344285Y-82764285D01*
X131153809Y-82811904D01*
X131010952Y-82811904D01*
X130820476Y-82764285D01*
X130725238Y-82716666D01*
X130630000Y-82621428D01*
X130582380Y-82478571D01*
X130582380Y-82383333D01*
X130630000Y-82240476D01*
X130677619Y-82192857D01*
X131582380Y-81240476D02*
X131582380Y-81811904D01*
X131582380Y-81526190D02*
X130582380Y-81526190D01*
X130725238Y-81621428D01*
X130820476Y-81716666D01*
X130868095Y-81811904D01*
X131582380Y-80764285D02*
X131582380Y-80573809D01*
X131534761Y-80478571D01*
X131487142Y-80430952D01*
X131344285Y-80335714D01*
X131153809Y-80288095D01*
X130772857Y-80288095D01*
X130677619Y-80335714D01*
X130630000Y-80383333D01*
X130582380Y-80478571D01*
X130582380Y-80669047D01*
X130630000Y-80764285D01*
X130677619Y-80811904D01*
X130772857Y-80859523D01*
X131010952Y-80859523D01*
X131106190Y-80811904D01*
X131153809Y-80764285D01*
X131201428Y-80669047D01*
X131201428Y-80478571D01*
X131153809Y-80383333D01*
X131106190Y-80335714D01*
X131010952Y-80288095D01*
%TO.C,Y2*%
X99142559Y-100137440D02*
X99142559Y-100613630D01*
X98809226Y-99613630D02*
X99142559Y-100137440D01*
X99475892Y-99613630D01*
X99761607Y-99708869D02*
X99809226Y-99661250D01*
X99904464Y-99613630D01*
X100142559Y-99613630D01*
X100237797Y-99661250D01*
X100285416Y-99708869D01*
X100333035Y-99804107D01*
X100333035Y-99899345D01*
X100285416Y-100042202D01*
X99713988Y-100613630D01*
X100333035Y-100613630D01*
%TO.C,C10*%
X96257142Y-70127142D02*
X96209523Y-70174761D01*
X96066666Y-70222380D01*
X95971428Y-70222380D01*
X95828571Y-70174761D01*
X95733333Y-70079523D01*
X95685714Y-69984285D01*
X95638095Y-69793809D01*
X95638095Y-69650952D01*
X95685714Y-69460476D01*
X95733333Y-69365238D01*
X95828571Y-69270000D01*
X95971428Y-69222380D01*
X96066666Y-69222380D01*
X96209523Y-69270000D01*
X96257142Y-69317619D01*
X97209523Y-70222380D02*
X96638095Y-70222380D01*
X96923809Y-70222380D02*
X96923809Y-69222380D01*
X96828571Y-69365238D01*
X96733333Y-69460476D01*
X96638095Y-69508095D01*
X97828571Y-69222380D02*
X97923809Y-69222380D01*
X98019047Y-69270000D01*
X98066666Y-69317619D01*
X98114285Y-69412857D01*
X98161904Y-69603333D01*
X98161904Y-69841428D01*
X98114285Y-70031904D01*
X98066666Y-70127142D01*
X98019047Y-70174761D01*
X97923809Y-70222380D01*
X97828571Y-70222380D01*
X97733333Y-70174761D01*
X97685714Y-70127142D01*
X97638095Y-70031904D01*
X97590476Y-69841428D01*
X97590476Y-69603333D01*
X97638095Y-69412857D01*
X97685714Y-69317619D01*
X97733333Y-69270000D01*
X97828571Y-69222380D01*
%TO.C,C43*%
X101494642Y-116157142D02*
X101447023Y-116204761D01*
X101304166Y-116252380D01*
X101208928Y-116252380D01*
X101066071Y-116204761D01*
X100970833Y-116109523D01*
X100923214Y-116014285D01*
X100875595Y-115823809D01*
X100875595Y-115680952D01*
X100923214Y-115490476D01*
X100970833Y-115395238D01*
X101066071Y-115300000D01*
X101208928Y-115252380D01*
X101304166Y-115252380D01*
X101447023Y-115300000D01*
X101494642Y-115347619D01*
X102351785Y-115585714D02*
X102351785Y-116252380D01*
X102113690Y-115204761D02*
X101875595Y-115919047D01*
X102494642Y-115919047D01*
X102780357Y-115252380D02*
X103399404Y-115252380D01*
X103066071Y-115633333D01*
X103208928Y-115633333D01*
X103304166Y-115680952D01*
X103351785Y-115728571D01*
X103399404Y-115823809D01*
X103399404Y-116061904D01*
X103351785Y-116157142D01*
X103304166Y-116204761D01*
X103208928Y-116252380D01*
X102923214Y-116252380D01*
X102827976Y-116204761D01*
X102780357Y-116157142D01*
%TO.C,R12*%
X94457142Y-117952379D02*
X94123809Y-117476189D01*
X93885714Y-117952379D02*
X93885714Y-116952379D01*
X94266666Y-116952379D01*
X94361904Y-116999999D01*
X94409523Y-117047618D01*
X94457142Y-117142856D01*
X94457142Y-117285713D01*
X94409523Y-117380951D01*
X94361904Y-117428570D01*
X94266666Y-117476189D01*
X93885714Y-117476189D01*
X95409523Y-117952379D02*
X94838095Y-117952379D01*
X95123809Y-117952379D02*
X95123809Y-116952379D01*
X95028571Y-117095237D01*
X94933333Y-117190475D01*
X94838095Y-117238094D01*
X95790476Y-117047618D02*
X95838095Y-116999999D01*
X95933333Y-116952379D01*
X96171428Y-116952379D01*
X96266666Y-116999999D01*
X96314285Y-117047618D01*
X96361904Y-117142856D01*
X96361904Y-117238094D01*
X96314285Y-117380951D01*
X95742857Y-117952379D01*
X96361904Y-117952379D01*
%TO.C,R22*%
X94457142Y-114552380D02*
X94123809Y-114076190D01*
X93885714Y-114552380D02*
X93885714Y-113552380D01*
X94266666Y-113552380D01*
X94361904Y-113600000D01*
X94409523Y-113647619D01*
X94457142Y-113742857D01*
X94457142Y-113885714D01*
X94409523Y-113980952D01*
X94361904Y-114028571D01*
X94266666Y-114076190D01*
X93885714Y-114076190D01*
X94838095Y-113647619D02*
X94885714Y-113600000D01*
X94980952Y-113552380D01*
X95219047Y-113552380D01*
X95314285Y-113600000D01*
X95361904Y-113647619D01*
X95409523Y-113742857D01*
X95409523Y-113838095D01*
X95361904Y-113980952D01*
X94790476Y-114552380D01*
X95409523Y-114552380D01*
X95790476Y-113647619D02*
X95838095Y-113600000D01*
X95933333Y-113552380D01*
X96171428Y-113552380D01*
X96266666Y-113600000D01*
X96314285Y-113647619D01*
X96361904Y-113742857D01*
X96361904Y-113838095D01*
X96314285Y-113980952D01*
X95742857Y-114552380D01*
X96361904Y-114552380D01*
%TO.C,Y1*%
X113326309Y-100033690D02*
X113326309Y-100509880D01*
X112992976Y-99509880D02*
X113326309Y-100033690D01*
X113659642Y-99509880D01*
X114516785Y-100509880D02*
X113945357Y-100509880D01*
X114231071Y-100509880D02*
X114231071Y-99509880D01*
X114135833Y-99652738D01*
X114040595Y-99747976D01*
X113945357Y-99795595D01*
%TO.C,C29*%
X109557142Y-134580357D02*
X109604761Y-134627976D01*
X109652380Y-134770833D01*
X109652380Y-134866071D01*
X109604761Y-135008928D01*
X109509523Y-135104166D01*
X109414285Y-135151785D01*
X109223809Y-135199404D01*
X109080952Y-135199404D01*
X108890476Y-135151785D01*
X108795238Y-135104166D01*
X108700000Y-135008928D01*
X108652380Y-134866071D01*
X108652380Y-134770833D01*
X108700000Y-134627976D01*
X108747619Y-134580357D01*
X108747619Y-134199404D02*
X108700000Y-134151785D01*
X108652380Y-134056547D01*
X108652380Y-133818452D01*
X108700000Y-133723214D01*
X108747619Y-133675595D01*
X108842857Y-133627976D01*
X108938095Y-133627976D01*
X109080952Y-133675595D01*
X109652380Y-134247023D01*
X109652380Y-133627976D01*
X109652380Y-133151785D02*
X109652380Y-132961309D01*
X109604761Y-132866071D01*
X109557142Y-132818452D01*
X109414285Y-132723214D01*
X109223809Y-132675595D01*
X108842857Y-132675595D01*
X108747619Y-132723214D01*
X108700000Y-132770833D01*
X108652380Y-132866071D01*
X108652380Y-133056547D01*
X108700000Y-133151785D01*
X108747619Y-133199404D01*
X108842857Y-133247023D01*
X109080952Y-133247023D01*
X109176190Y-133199404D01*
X109223809Y-133151785D01*
X109271428Y-133056547D01*
X109271428Y-132866071D01*
X109223809Y-132770833D01*
X109176190Y-132723214D01*
X109080952Y-132675595D01*
%TO.C,D2*%
X128052380Y-108138095D02*
X127052380Y-108138095D01*
X127052380Y-107900000D01*
X127100000Y-107757142D01*
X127195238Y-107661904D01*
X127290476Y-107614285D01*
X127480952Y-107566666D01*
X127623809Y-107566666D01*
X127814285Y-107614285D01*
X127909523Y-107661904D01*
X128004761Y-107757142D01*
X128052380Y-107900000D01*
X128052380Y-108138095D01*
X127147619Y-107185714D02*
X127100000Y-107138095D01*
X127052380Y-107042857D01*
X127052380Y-106804761D01*
X127100000Y-106709523D01*
X127147619Y-106661904D01*
X127242857Y-106614285D01*
X127338095Y-106614285D01*
X127480952Y-106661904D01*
X128052380Y-107233333D01*
X128052380Y-106614285D01*
%TO.C,SW1*%
X86859166Y-100097261D02*
X87002023Y-100144880D01*
X87240119Y-100144880D01*
X87335357Y-100097261D01*
X87382976Y-100049642D01*
X87430595Y-99954404D01*
X87430595Y-99859166D01*
X87382976Y-99763928D01*
X87335357Y-99716309D01*
X87240119Y-99668690D01*
X87049642Y-99621071D01*
X86954404Y-99573452D01*
X86906785Y-99525833D01*
X86859166Y-99430595D01*
X86859166Y-99335357D01*
X86906785Y-99240119D01*
X86954404Y-99192500D01*
X87049642Y-99144880D01*
X87287738Y-99144880D01*
X87430595Y-99192500D01*
X87763928Y-99144880D02*
X88002023Y-100144880D01*
X88192500Y-99430595D01*
X88382976Y-100144880D01*
X88621071Y-99144880D01*
X89525833Y-100144880D02*
X88954404Y-100144880D01*
X89240119Y-100144880D02*
X89240119Y-99144880D01*
X89144880Y-99287738D01*
X89049642Y-99382976D01*
X88954404Y-99430595D01*
%TO.C,C44*%
X70657142Y-124087857D02*
X70704761Y-124135476D01*
X70752380Y-124278333D01*
X70752380Y-124373571D01*
X70704761Y-124516428D01*
X70609523Y-124611666D01*
X70514285Y-124659285D01*
X70323809Y-124706904D01*
X70180952Y-124706904D01*
X69990476Y-124659285D01*
X69895238Y-124611666D01*
X69800000Y-124516428D01*
X69752380Y-124373571D01*
X69752380Y-124278333D01*
X69800000Y-124135476D01*
X69847619Y-124087857D01*
X70085714Y-123230714D02*
X70752380Y-123230714D01*
X69704761Y-123468809D02*
X70419047Y-123706904D01*
X70419047Y-123087857D01*
X70085714Y-122278333D02*
X70752380Y-122278333D01*
X69704761Y-122516428D02*
X70419047Y-122754523D01*
X70419047Y-122135476D01*
%TO.C,C37*%
X116919642Y-109537142D02*
X116872023Y-109584761D01*
X116729166Y-109632380D01*
X116633928Y-109632380D01*
X116491071Y-109584761D01*
X116395833Y-109489523D01*
X116348214Y-109394285D01*
X116300595Y-109203809D01*
X116300595Y-109060952D01*
X116348214Y-108870476D01*
X116395833Y-108775238D01*
X116491071Y-108680000D01*
X116633928Y-108632380D01*
X116729166Y-108632380D01*
X116872023Y-108680000D01*
X116919642Y-108727619D01*
X117252976Y-108632380D02*
X117872023Y-108632380D01*
X117538690Y-109013333D01*
X117681547Y-109013333D01*
X117776785Y-109060952D01*
X117824404Y-109108571D01*
X117872023Y-109203809D01*
X117872023Y-109441904D01*
X117824404Y-109537142D01*
X117776785Y-109584761D01*
X117681547Y-109632380D01*
X117395833Y-109632380D01*
X117300595Y-109584761D01*
X117252976Y-109537142D01*
X118205357Y-108632380D02*
X118872023Y-108632380D01*
X118443452Y-109632380D01*
%TO.C,R8*%
X90520833Y-147652380D02*
X90187500Y-147176190D01*
X89949404Y-147652380D02*
X89949404Y-146652380D01*
X90330357Y-146652380D01*
X90425595Y-146700000D01*
X90473214Y-146747619D01*
X90520833Y-146842857D01*
X90520833Y-146985714D01*
X90473214Y-147080952D01*
X90425595Y-147128571D01*
X90330357Y-147176190D01*
X89949404Y-147176190D01*
X91092261Y-147080952D02*
X90997023Y-147033333D01*
X90949404Y-146985714D01*
X90901785Y-146890476D01*
X90901785Y-146842857D01*
X90949404Y-146747619D01*
X90997023Y-146700000D01*
X91092261Y-146652380D01*
X91282738Y-146652380D01*
X91377976Y-146700000D01*
X91425595Y-146747619D01*
X91473214Y-146842857D01*
X91473214Y-146890476D01*
X91425595Y-146985714D01*
X91377976Y-147033333D01*
X91282738Y-147080952D01*
X91092261Y-147080952D01*
X90997023Y-147128571D01*
X90949404Y-147176190D01*
X90901785Y-147271428D01*
X90901785Y-147461904D01*
X90949404Y-147557142D01*
X90997023Y-147604761D01*
X91092261Y-147652380D01*
X91282738Y-147652380D01*
X91377976Y-147604761D01*
X91425595Y-147557142D01*
X91473214Y-147461904D01*
X91473214Y-147271428D01*
X91425595Y-147176190D01*
X91377976Y-147128571D01*
X91282738Y-147080952D01*
%TO.C,C39*%
X101357142Y-114407142D02*
X101309523Y-114454761D01*
X101166666Y-114502380D01*
X101071428Y-114502380D01*
X100928571Y-114454761D01*
X100833333Y-114359523D01*
X100785714Y-114264285D01*
X100738095Y-114073809D01*
X100738095Y-113930952D01*
X100785714Y-113740476D01*
X100833333Y-113645238D01*
X100928571Y-113550000D01*
X101071428Y-113502380D01*
X101166666Y-113502380D01*
X101309523Y-113550000D01*
X101357142Y-113597619D01*
X101690476Y-113502380D02*
X102309523Y-113502380D01*
X101976190Y-113883333D01*
X102119047Y-113883333D01*
X102214285Y-113930952D01*
X102261904Y-113978571D01*
X102309523Y-114073809D01*
X102309523Y-114311904D01*
X102261904Y-114407142D01*
X102214285Y-114454761D01*
X102119047Y-114502380D01*
X101833333Y-114502380D01*
X101738095Y-114454761D01*
X101690476Y-114407142D01*
X102785714Y-114502380D02*
X102976190Y-114502380D01*
X103071428Y-114454761D01*
X103119047Y-114407142D01*
X103214285Y-114264285D01*
X103261904Y-114073809D01*
X103261904Y-113692857D01*
X103214285Y-113597619D01*
X103166666Y-113550000D01*
X103071428Y-113502380D01*
X102880952Y-113502380D01*
X102785714Y-113550000D01*
X102738095Y-113597619D01*
X102690476Y-113692857D01*
X102690476Y-113930952D01*
X102738095Y-114026190D01*
X102785714Y-114073809D01*
X102880952Y-114121428D01*
X103071428Y-114121428D01*
X103166666Y-114073809D01*
X103214285Y-114026190D01*
X103261904Y-113930952D01*
%TO.C,R3*%
X92208333Y-92102380D02*
X91875000Y-91626190D01*
X91636904Y-92102380D02*
X91636904Y-91102380D01*
X92017857Y-91102380D01*
X92113095Y-91150000D01*
X92160714Y-91197619D01*
X92208333Y-91292857D01*
X92208333Y-91435714D01*
X92160714Y-91530952D01*
X92113095Y-91578571D01*
X92017857Y-91626190D01*
X91636904Y-91626190D01*
X92541666Y-91102380D02*
X93160714Y-91102380D01*
X92827380Y-91483333D01*
X92970238Y-91483333D01*
X93065476Y-91530952D01*
X93113095Y-91578571D01*
X93160714Y-91673809D01*
X93160714Y-91911904D01*
X93113095Y-92007142D01*
X93065476Y-92054761D01*
X92970238Y-92102380D01*
X92684523Y-92102380D01*
X92589285Y-92054761D01*
X92541666Y-92007142D01*
%TO.C,J2*%
X105857380Y-64633333D02*
X106571666Y-64633333D01*
X106714523Y-64680952D01*
X106809761Y-64776190D01*
X106857380Y-64919047D01*
X106857380Y-65014285D01*
X105952619Y-64204761D02*
X105905000Y-64157142D01*
X105857380Y-64061904D01*
X105857380Y-63823809D01*
X105905000Y-63728571D01*
X105952619Y-63680952D01*
X106047857Y-63633333D01*
X106143095Y-63633333D01*
X106285952Y-63680952D01*
X106857380Y-64252380D01*
X106857380Y-63633333D01*
D12*
%TO.C,R17*%
X128045276Y-127377500D02*
X128554724Y-127377500D01*
X128045276Y-128422500D02*
X128554724Y-128422500D01*
%TO.C,C20*%
X95735000Y-82561252D02*
X95735000Y-82038748D01*
X94265000Y-82561252D02*
X94265000Y-82038748D01*
%TO.C,R26*%
X67977500Y-119462224D02*
X67977500Y-118952776D01*
X69022500Y-119462224D02*
X69022500Y-118952776D01*
%TO.C,C53*%
X68510000Y-79053733D02*
X68510000Y-79346267D01*
X67490000Y-79053733D02*
X67490000Y-79346267D01*
%TO.C,R7*%
X87929724Y-149422500D02*
X87420276Y-149422500D01*
X87929724Y-148377500D02*
X87420276Y-148377500D01*
%TO.C,U4*%
X83900000Y-74760000D02*
X85700000Y-74760000D01*
X83900000Y-71640000D02*
X84700000Y-71640000D01*
X83900000Y-74760000D02*
X83100000Y-74760000D01*
X83900000Y-71640000D02*
X83100000Y-71640000D01*
%TO.C,R23*%
X98854724Y-119722500D02*
X98345276Y-119722500D01*
X98854724Y-118677500D02*
X98345276Y-118677500D01*
%TO.C,R29*%
X66917224Y-99772500D02*
X66407776Y-99772500D01*
X66917224Y-100817500D02*
X66407776Y-100817500D01*
%TO.C,C25*%
X129290000Y-104433767D02*
X129290000Y-104141233D01*
X130310000Y-104433767D02*
X130310000Y-104141233D01*
%TO.C,C41*%
X98846267Y-112810000D02*
X98553733Y-112810000D01*
X98846267Y-111790000D02*
X98553733Y-111790000D01*
%TO.C,D6*%
X65200000Y-121457500D02*
X67200000Y-121457500D01*
X65200000Y-121457500D02*
X65200000Y-117557500D01*
X67200000Y-121457500D02*
X67200000Y-117557500D01*
%TO.C,C13*%
X113616233Y-71810000D02*
X113908767Y-71810000D01*
X113616233Y-70790000D02*
X113908767Y-70790000D01*
%TO.C,U6*%
X70390000Y-83110000D02*
X71650000Y-83110000D01*
X70390000Y-79350000D02*
X70390000Y-83110000D01*
X77210000Y-77100000D02*
X77210000Y-83110000D01*
X77210000Y-83110000D02*
X75950000Y-83110000D01*
%TO.C,R13*%
X108057776Y-128422500D02*
X108567224Y-128422500D01*
X108057776Y-127377500D02*
X108567224Y-127377500D01*
%TO.C,C33*%
X122653733Y-118590000D02*
X122946267Y-118590000D01*
X122653733Y-119610000D02*
X122946267Y-119610000D01*
%TO.C,C21*%
X114326248Y-68565000D02*
X114848752Y-68565000D01*
X114326248Y-70035000D02*
X114848752Y-70035000D01*
%TO.C,R14*%
X104557776Y-128422500D02*
X105067224Y-128422500D01*
X104557776Y-127377500D02*
X105067224Y-127377500D01*
%TO.C,R24*%
X105754724Y-116956500D02*
X105245276Y-116956500D01*
X105754724Y-118001500D02*
X105245276Y-118001500D01*
%TO.C,R19*%
X121045276Y-128422500D02*
X121554724Y-128422500D01*
X121045276Y-127377500D02*
X121554724Y-127377500D01*
%TO.C,U2*%
X119800000Y-94390000D02*
X119800000Y-95340000D01*
X99580000Y-76070000D02*
X99580000Y-75120000D01*
X119800000Y-76070000D02*
X119800000Y-75120000D01*
X99580000Y-75120000D02*
X100530000Y-75120000D01*
X99580000Y-94390000D02*
X99580000Y-95340000D01*
X119800000Y-75120000D02*
X118850000Y-75120000D01*
X100530000Y-95340000D02*
X100530000Y-96630000D01*
X99580000Y-95340000D02*
X100530000Y-95340000D01*
X119800000Y-95340000D02*
X118850000Y-95340000D01*
%TO.C,R34*%
X89954724Y-73577500D02*
X89445276Y-73577500D01*
X89954724Y-74622500D02*
X89445276Y-74622500D01*
%TO.C,C3*%
X125690000Y-81316233D02*
X125690000Y-81608767D01*
X126710000Y-81316233D02*
X126710000Y-81608767D01*
D13*
%TO.C,U3*%
X110147500Y-119731000D02*
X110503100Y-119731000D01*
X116903900Y-119731000D02*
X117259500Y-119731000D01*
X110503100Y-112619000D02*
X110147500Y-112619000D01*
X110147500Y-112619000D02*
X110147500Y-112974600D01*
X117259500Y-112619000D02*
X116903900Y-112619000D01*
X117259500Y-119731000D02*
X117259500Y-119375400D01*
X117259500Y-112974600D02*
X117259500Y-112619000D01*
X110147500Y-119375400D02*
X110147500Y-119731000D01*
D12*
%TO.C,C16*%
X91390000Y-82646267D02*
X91390000Y-82353733D01*
X92410000Y-82646267D02*
X92410000Y-82353733D01*
%TO.C,R1*%
X87207776Y-105885000D02*
X87717224Y-105885000D01*
X87207776Y-104840000D02*
X87717224Y-104840000D01*
%TO.C,C18*%
X106816233Y-70390000D02*
X107108767Y-70390000D01*
X106816233Y-71410000D02*
X107108767Y-71410000D01*
%TO.C,R4*%
X132122500Y-104032776D02*
X132122500Y-104542224D01*
X131077500Y-104032776D02*
X131077500Y-104542224D01*
%TO.C,SW3*%
X123100000Y-105137500D02*
X123100000Y-101837500D01*
X125900000Y-105137500D02*
X125900000Y-101837500D01*
X125600000Y-105137500D02*
X125900000Y-105137500D01*
X125900000Y-101837500D02*
X125600000Y-101837500D01*
X123100000Y-101837500D02*
X123400000Y-101837500D01*
X123400000Y-105137500D02*
X123100000Y-105137500D01*
%TO.C,R16*%
X97557776Y-127377500D02*
X98067224Y-127377500D01*
X97557776Y-128422500D02*
X98067224Y-128422500D01*
%TO.C,C50*%
X66503733Y-104105000D02*
X66796267Y-104105000D01*
X66503733Y-103085000D02*
X66796267Y-103085000D01*
%TO.C,C52*%
X81246267Y-65410000D02*
X80953733Y-65410000D01*
X81246267Y-64390000D02*
X80953733Y-64390000D01*
%TO.C,C45*%
X66503733Y-109205000D02*
X66796267Y-109205000D01*
X66503733Y-108185000D02*
X66796267Y-108185000D01*
%TO.C,R10*%
X87929724Y-151122500D02*
X87420276Y-151122500D01*
X87929724Y-150077500D02*
X87420276Y-150077500D01*
%TO.C,SW2*%
X92925000Y-95850000D02*
X92925000Y-95550000D01*
X96225000Y-95850000D02*
X92925000Y-95850000D01*
X96225000Y-93050000D02*
X92925000Y-93050000D01*
X92925000Y-93050000D02*
X92925000Y-93350000D01*
X96225000Y-95550000D02*
X96225000Y-95850000D01*
X96225000Y-93350000D02*
X96225000Y-93050000D01*
%TO.C,C40*%
X105690000Y-121816233D02*
X105690000Y-122108767D01*
X106710000Y-121816233D02*
X106710000Y-122108767D01*
%TO.C,R5*%
X94782776Y-98527500D02*
X95292224Y-98527500D01*
X94782776Y-99572500D02*
X95292224Y-99572500D01*
%TO.C,C47*%
X66796267Y-110905000D02*
X66503733Y-110905000D01*
X66796267Y-109885000D02*
X66503733Y-109885000D01*
%TO.C,C30*%
X97410000Y-130453733D02*
X97410000Y-130746267D01*
X96390000Y-130453733D02*
X96390000Y-130746267D01*
%TO.C,C46*%
X66796267Y-112605000D02*
X66503733Y-112605000D01*
X66796267Y-111585000D02*
X66503733Y-111585000D01*
%TO.C,R25*%
X122545276Y-113601500D02*
X123054724Y-113601500D01*
X122545276Y-112556500D02*
X123054724Y-112556500D01*
%TO.C,J5*%
X63630000Y-114295000D02*
X61270000Y-114295000D01*
X61270000Y-104495000D02*
X63630000Y-104495000D01*
X63630000Y-114295000D02*
X63630000Y-104495000D01*
X61270000Y-114295000D02*
X61270000Y-104495000D01*
%TO.C,J1*%
X115730000Y-65630000D02*
X108050000Y-65630000D01*
X115730000Y-62970000D02*
X108050000Y-62970000D01*
X108050000Y-62970000D02*
X108050000Y-65630000D01*
X117000000Y-62970000D02*
X118330000Y-62970000D01*
X118330000Y-62970000D02*
X118330000Y-64300000D01*
X115730000Y-62970000D02*
X115730000Y-65630000D01*
%TO.C,C4*%
X110082500Y-103253767D02*
X110082500Y-102961233D01*
X109062500Y-103253767D02*
X109062500Y-102961233D01*
%TO.C,R18*%
X124545276Y-128422500D02*
X125054724Y-128422500D01*
X124545276Y-127377500D02*
X125054724Y-127377500D01*
%TO.C,C42*%
X105646267Y-118690000D02*
X105353733Y-118690000D01*
X105646267Y-119710000D02*
X105353733Y-119710000D01*
%TO.C,C26*%
X128733767Y-90510000D02*
X128441233Y-90510000D01*
X128733767Y-89490000D02*
X128441233Y-89490000D01*
%TO.C,C55*%
X79853733Y-80610000D02*
X80146267Y-80610000D01*
X79853733Y-79590000D02*
X80146267Y-79590000D01*
D13*
%TO.C,U5*%
X49066800Y-93475200D02*
X56178800Y-93475200D01*
X52927600Y-73764800D02*
X52318000Y-73764800D01*
X56178800Y-73764800D02*
X52927600Y-73764800D01*
X49066800Y-91875000D02*
X49066800Y-93475200D01*
X56178800Y-93475200D02*
X56178800Y-91875000D01*
X52318000Y-73764800D02*
X49066800Y-73764800D01*
X56178800Y-75365000D02*
X56178800Y-73764800D01*
X49066800Y-73764800D02*
X49066800Y-75365000D01*
X52318000Y-73764800D02*
G75*
G03*
X52927600Y-73764800I304800J0D01*
G01*
D12*
%TO.C,C48*%
X66503733Y-104785000D02*
X66796267Y-104785000D01*
X66503733Y-105805000D02*
X66796267Y-105805000D01*
%TO.C,C35*%
X98553733Y-109210000D02*
X98846267Y-109210000D01*
X98553733Y-108190000D02*
X98846267Y-108190000D01*
%TO.C,C22*%
X101276248Y-71835000D02*
X101798752Y-71835000D01*
X101276248Y-70365000D02*
X101798752Y-70365000D01*
%TO.C,R32*%
X67545276Y-72777500D02*
X68054724Y-72777500D01*
X67545276Y-73822500D02*
X68054724Y-73822500D01*
D14*
%TO.C,D4*%
X124800000Y-132560000D02*
X124800000Y-133260000D01*
X121700000Y-132560000D02*
X121700000Y-133260000D01*
D15*
X124650000Y-131110000D02*
G75*
G03*
X124650000Y-131110000I-100000J0D01*
G01*
D12*
%TO.C,R9*%
X87954724Y-152822500D02*
X87445276Y-152822500D01*
X87954724Y-151777500D02*
X87445276Y-151777500D01*
%TO.C,R28*%
X66904724Y-101372500D02*
X66395276Y-101372500D01*
X66904724Y-102417500D02*
X66395276Y-102417500D01*
%TO.C,R20*%
X117545276Y-128422500D02*
X118054724Y-128422500D01*
X117545276Y-127377500D02*
X118054724Y-127377500D01*
%TO.C,C32*%
X116390000Y-130453733D02*
X116390000Y-130746267D01*
X117410000Y-130453733D02*
X117410000Y-130746267D01*
%TO.C,C36*%
X122653733Y-114290000D02*
X122946267Y-114290000D01*
X122653733Y-115310000D02*
X122946267Y-115310000D01*
%TO.C,R15*%
X101057776Y-128422500D02*
X101567224Y-128422500D01*
X101057776Y-127377500D02*
X101567224Y-127377500D01*
%TO.C,C49*%
X66796267Y-113285000D02*
X66503733Y-113285000D01*
X66796267Y-114305000D02*
X66503733Y-114305000D01*
%TO.C,C24*%
X128416233Y-95590000D02*
X128708767Y-95590000D01*
X128416233Y-96610000D02*
X128708767Y-96610000D01*
%TO.C,R31*%
X68054724Y-75522500D02*
X67545276Y-75522500D01*
X68054724Y-74477500D02*
X67545276Y-74477500D01*
%TO.C,D1*%
X87635000Y-86765000D02*
X85175000Y-86765000D01*
X87635000Y-88235000D02*
X87635000Y-86765000D01*
X85175000Y-88235000D02*
X87635000Y-88235000D01*
%TO.C,C27*%
X132046267Y-136310000D02*
X131753733Y-136310000D01*
X132046267Y-135290000D02*
X131753733Y-135290000D01*
%TO.C,R30*%
X81354724Y-63722500D02*
X80845276Y-63722500D01*
X81354724Y-62677500D02*
X80845276Y-62677500D01*
%TO.C,R11*%
X98345276Y-116322500D02*
X98854724Y-116322500D01*
X98345276Y-115277500D02*
X98854724Y-115277500D01*
%TO.C,C6*%
X95858750Y-103267517D02*
X95858750Y-102974983D01*
X94838750Y-103267517D02*
X94838750Y-102974983D01*
%TO.C,C7*%
X104058750Y-103074983D02*
X104058750Y-103367517D01*
X103038750Y-103074983D02*
X103038750Y-103367517D01*
%TO.C,C38*%
X105646267Y-111790000D02*
X105353733Y-111790000D01*
X105646267Y-112810000D02*
X105353733Y-112810000D01*
%TO.C,C2*%
X126710000Y-86053733D02*
X126710000Y-86346267D01*
X125690000Y-86053733D02*
X125690000Y-86346267D01*
%TO.C,U7*%
X65400000Y-69416500D02*
X44200000Y-69416500D01*
X44200000Y-69416500D02*
X44200000Y-60216500D01*
X44200000Y-60216500D02*
X65400000Y-60216500D01*
X65400000Y-60216500D02*
X65400000Y-69416500D01*
%TO.C,C51*%
X66796267Y-114985000D02*
X66503733Y-114985000D01*
X66796267Y-116005000D02*
X66503733Y-116005000D01*
%TO.C,R6*%
X95292224Y-97872500D02*
X94782776Y-97872500D01*
X95292224Y-96827500D02*
X94782776Y-96827500D01*
%TO.C,C14*%
X124453733Y-74490000D02*
X124746267Y-74490000D01*
X124453733Y-75510000D02*
X124746267Y-75510000D01*
%TO.C,C34*%
X102090000Y-122108767D02*
X102090000Y-121816233D01*
X103110000Y-122108767D02*
X103110000Y-121816233D01*
%TO.C,C23*%
X125061252Y-77695000D02*
X124538748Y-77695000D01*
X125061252Y-76225000D02*
X124538748Y-76225000D01*
%TO.C,C17*%
X98766233Y-97790000D02*
X99058767Y-97790000D01*
X98766233Y-98810000D02*
X99058767Y-98810000D01*
%TO.C,C31*%
X128690000Y-130453733D02*
X128690000Y-130746267D01*
X129710000Y-130453733D02*
X129710000Y-130746267D01*
D14*
%TO.C,D3*%
X104500000Y-132460000D02*
X104500000Y-133160000D01*
X101400000Y-132460000D02*
X101400000Y-133160000D01*
D15*
X104350000Y-131010000D02*
G75*
G03*
X104350000Y-131010000I-100000J0D01*
G01*
D12*
%TO.C,R27*%
X66904724Y-107517500D02*
X66395276Y-107517500D01*
X66904724Y-106472500D02*
X66395276Y-106472500D01*
%TO.C,R33*%
X89954724Y-71777500D02*
X89445276Y-71777500D01*
X89954724Y-72822500D02*
X89445276Y-72822500D01*
%TO.C,R21*%
X123054724Y-117822500D02*
X122545276Y-117822500D01*
X123054724Y-116777500D02*
X122545276Y-116777500D01*
%TO.C,R2*%
X86254724Y-85277500D02*
X85745276Y-85277500D01*
X86254724Y-86322500D02*
X85745276Y-86322500D01*
%TO.C,J6*%
X76280000Y-112895000D02*
X76280000Y-114225000D01*
X73620000Y-111625000D02*
X73620000Y-103945000D01*
X76280000Y-111625000D02*
X73620000Y-111625000D01*
X76280000Y-114225000D02*
X74950000Y-114225000D01*
X76280000Y-111625000D02*
X76280000Y-103945000D01*
X76280000Y-103945000D02*
X73620000Y-103945000D01*
%TO.C,JP1*%
X129962500Y-91200000D02*
X129962500Y-93200000D01*
X129962500Y-93200000D02*
X127162500Y-93200000D01*
X127162500Y-93200000D02*
X127162500Y-91200000D01*
X127162500Y-91200000D02*
X129962500Y-91200000D01*
%TO.C,C28*%
X94253733Y-135790000D02*
X94546267Y-135790000D01*
X94253733Y-136810000D02*
X94546267Y-136810000D01*
%TO.C,C54*%
X79853733Y-82410000D02*
X80146267Y-82410000D01*
X79853733Y-81390000D02*
X80146267Y-81390000D01*
%TO.C,J7*%
X68230000Y-59960000D02*
X77170000Y-59960000D01*
X77170000Y-65470000D02*
X77170000Y-63670000D01*
X68230000Y-59960000D02*
X68230000Y-61420000D01*
X68230000Y-65470000D02*
X68230000Y-63670000D01*
X77170000Y-59960000D02*
X77170000Y-61420000D01*
%TO.C,C5*%
X118582500Y-103178733D02*
X118582500Y-103471267D01*
X117562500Y-103178733D02*
X117562500Y-103471267D01*
%TO.C,D5*%
X125750000Y-122300000D02*
X125750000Y-120300000D01*
X125750000Y-122300000D02*
X121850000Y-122300000D01*
X125750000Y-120300000D02*
X121850000Y-120300000D01*
%TO.C,C19*%
X128715000Y-81288748D02*
X128715000Y-81811252D01*
X130185000Y-81288748D02*
X130185000Y-81811252D01*
%TO.C,Y2*%
X96918750Y-105461250D02*
X102318750Y-105461250D01*
X96918750Y-100961250D02*
X96918750Y-105461250D01*
%TO.C,C10*%
X96753733Y-70690000D02*
X97046267Y-70690000D01*
X96753733Y-71710000D02*
X97046267Y-71710000D01*
%TO.C,C43*%
X105646267Y-115290000D02*
X105353733Y-115290000D01*
X105646267Y-116310000D02*
X105353733Y-116310000D01*
%TO.C,R12*%
X98345276Y-116977500D02*
X98854724Y-116977500D01*
X98345276Y-118022500D02*
X98854724Y-118022500D01*
%TO.C,R22*%
X98345276Y-113577500D02*
X98854724Y-113577500D01*
X98345276Y-114622500D02*
X98854724Y-114622500D01*
%TO.C,Y1*%
X111102500Y-100857500D02*
X111102500Y-105357500D01*
X111102500Y-105357500D02*
X116502500Y-105357500D01*
%TO.C,C29*%
X108690000Y-130553733D02*
X108690000Y-130846267D01*
X109710000Y-130553733D02*
X109710000Y-130846267D01*
%TO.C,D2*%
X128600000Y-101337500D02*
X126600000Y-101337500D01*
X128600000Y-101337500D02*
X128600000Y-105237500D01*
X126600000Y-101337500D02*
X126600000Y-105237500D01*
%TO.C,SW1*%
X86542500Y-100792500D02*
X89842500Y-100792500D01*
X86542500Y-103292500D02*
X86542500Y-103592500D01*
X86542500Y-101092500D02*
X86542500Y-100792500D01*
X86542500Y-103592500D02*
X89842500Y-103592500D01*
X89842500Y-103592500D02*
X89842500Y-103292500D01*
X89842500Y-100792500D02*
X89842500Y-101092500D01*
%TO.C,C44*%
X69790000Y-119061233D02*
X69790000Y-119353767D01*
X70810000Y-119061233D02*
X70810000Y-119353767D01*
%TO.C,C37*%
X113666233Y-108670000D02*
X113958767Y-108670000D01*
X113666233Y-109690000D02*
X113958767Y-109690000D01*
%TO.C,R8*%
X87942224Y-146677500D02*
X87432776Y-146677500D01*
X87942224Y-147722500D02*
X87432776Y-147722500D01*
%TO.C,C39*%
X105646267Y-113540000D02*
X105353733Y-113540000D01*
X105646267Y-114560000D02*
X105353733Y-114560000D01*
%TO.C,R3*%
X95629724Y-91127500D02*
X95120276Y-91127500D01*
X95629724Y-92172500D02*
X95120276Y-92172500D01*
%TO.C,J2*%
X102805000Y-62970000D02*
X92585000Y-62970000D01*
X104075000Y-62970000D02*
X105405000Y-62970000D01*
X102805000Y-62970000D02*
X102805000Y-65630000D01*
X105405000Y-62970000D02*
X105405000Y-64300000D01*
X92585000Y-62970000D02*
X92585000Y-65630000D01*
X102805000Y-65630000D02*
X92585000Y-65630000D01*
%TD*%
M02*
