%TF.GenerationSoftware,KiCad,Pcbnew,(6.0.11)*%
%TF.CreationDate,2023-05-21T23:05:42+09:00*%
%TF.ProjectId,STM32F4_Ethernet,53544d33-3246-4345-9f45-746865726e65,rev?*%
%TF.SameCoordinates,Original*%
%TF.FileFunction,Soldermask,Top*%
%TF.FilePolarity,Negative*%
%FSLAX46Y46*%
G04 Gerber Fmt 4.6, Leading zero omitted, Abs format (unit mm)*
G04 Created by KiCad (PCBNEW (6.0.11)) date 2023-05-21 23:05:42*
%MOMM*%
%LPD*%
G01*
G04 APERTURE LIST*
G04 Aperture macros list*
%AMRoundRect*
0 Rectangle with rounded corners*
0 $1 Rounding radius*
0 $2 $3 $4 $5 $6 $7 $8 $9 X,Y pos of 4 corners*
0 Add a 4 corners polygon primitive as box body*
4,1,4,$2,$3,$4,$5,$6,$7,$8,$9,$2,$3,0*
0 Add four circle primitives for the rounded corners*
1,1,$1+$1,$2,$3*
1,1,$1+$1,$4,$5*
1,1,$1+$1,$6,$7*
1,1,$1+$1,$8,$9*
0 Add four rect primitives between the rounded corners*
20,1,$1+$1,$2,$3,$4,$5,0*
20,1,$1+$1,$4,$5,$6,$7,0*
20,1,$1+$1,$6,$7,$8,$9,0*
20,1,$1+$1,$8,$9,$2,$3,0*%
%AMFreePoly0*
4,1,6,1.000000,0.000000,0.500000,-0.750000,-0.500000,-0.750000,-0.500000,0.750000,0.500000,0.750000,1.000000,0.000000,1.000000,0.000000,$1*%
%AMFreePoly1*
4,1,6,0.500000,-0.750000,-0.650000,-0.750000,-0.150000,0.000000,-0.650000,0.750000,0.500000,0.750000,0.500000,-0.750000,0.500000,-0.750000,$1*%
G04 Aperture macros list end*
%ADD10RoundRect,0.237500X-0.250000X-0.237500X0.250000X-0.237500X0.250000X0.237500X-0.250000X0.237500X0*%
%ADD11RoundRect,0.250000X0.475000X-0.337500X0.475000X0.337500X-0.475000X0.337500X-0.475000X-0.337500X0*%
%ADD12RoundRect,0.237500X0.237500X-0.250000X0.237500X0.250000X-0.237500X0.250000X-0.237500X-0.250000X0*%
%ADD13RoundRect,0.237500X-0.237500X0.300000X-0.237500X-0.300000X0.237500X-0.300000X0.237500X0.300000X0*%
%ADD14C,5.700000*%
%ADD15RoundRect,0.237500X0.250000X0.237500X-0.250000X0.237500X-0.250000X-0.237500X0.250000X-0.237500X0*%
%ADD16RoundRect,0.150000X0.512500X0.150000X-0.512500X0.150000X-0.512500X-0.150000X0.512500X-0.150000X0*%
%ADD17RoundRect,0.237500X0.237500X-0.300000X0.237500X0.300000X-0.237500X0.300000X-0.237500X-0.300000X0*%
%ADD18RoundRect,0.237500X0.300000X0.237500X-0.300000X0.237500X-0.300000X-0.237500X0.300000X-0.237500X0*%
%ADD19R,1.200000X0.900000*%
%ADD20RoundRect,0.237500X-0.300000X-0.237500X0.300000X-0.237500X0.300000X0.237500X-0.300000X0.237500X0*%
%ADD21R,1.500000X2.000000*%
%ADD22R,3.800000X2.000000*%
%ADD23RoundRect,0.250000X-0.337500X-0.475000X0.337500X-0.475000X0.337500X0.475000X-0.337500X0.475000X0*%
%ADD24RoundRect,0.075000X0.075000X-0.662500X0.075000X0.662500X-0.075000X0.662500X-0.075000X-0.662500X0*%
%ADD25RoundRect,0.075000X0.662500X-0.075000X0.662500X0.075000X-0.662500X0.075000X-0.662500X-0.075000X0*%
%ADD26R,0.254000X1.422400*%
%ADD27R,1.422400X0.254000*%
%ADD28RoundRect,0.237500X-0.237500X0.250000X-0.237500X-0.250000X0.237500X-0.250000X0.237500X0.250000X0*%
%ADD29C,0.800000*%
%ADD30R,1.700000X0.900000*%
%ADD31R,0.970000X0.900000*%
%ADD32R,0.900000X1.700000*%
%ADD33R,0.900000X0.970000*%
%ADD34C,1.100000*%
%ADD35R,2.000000X0.350000*%
%ADD36R,1.700000X1.700000*%
%ADD37O,1.700000X1.700000*%
%ADD38R,2.159000X0.609600*%
%ADD39R,0.250000X0.580000*%
%ADD40R,0.400000X1.000000*%
%ADD41RoundRect,0.237500X0.287500X0.237500X-0.287500X0.237500X-0.287500X-0.237500X0.287500X-0.237500X0*%
%ADD42O,1.950000X3.900000*%
%ADD43RoundRect,0.250000X0.337500X0.475000X-0.337500X0.475000X-0.337500X-0.475000X0.337500X-0.475000X0*%
%ADD44FreePoly0,180.000000*%
%ADD45FreePoly1,180.000000*%
%ADD46C,0.600000*%
%ADD47R,0.600000X1.160000*%
%ADD48R,0.300000X1.160000*%
%ADD49O,0.900000X2.000000*%
%ADD50O,0.900000X1.700000*%
%ADD51R,0.900000X1.200000*%
%ADD52RoundRect,0.250000X-0.475000X0.337500X-0.475000X-0.337500X0.475000X-0.337500X0.475000X0.337500X0*%
%ADD53R,2.100000X1.800000*%
%ADD54C,3.250000*%
%ADD55RoundRect,0.250500X0.499500X0.499500X-0.499500X0.499500X-0.499500X-0.499500X0.499500X-0.499500X0*%
%ADD56C,1.500000*%
%ADD57C,2.500000*%
G04 APERTURE END LIST*
D10*
%TO.C,R17*%
X127387500Y-127900000D03*
X129212500Y-127900000D03*
%TD*%
D11*
%TO.C,C20*%
X95000000Y-83337500D03*
X95000000Y-81262500D03*
%TD*%
D12*
%TO.C,R26*%
X68500000Y-120120000D03*
X68500000Y-118295000D03*
%TD*%
D13*
%TO.C,C53*%
X68000000Y-78337500D03*
X68000000Y-80062500D03*
%TD*%
D14*
%TO.C,H4*%
X81200000Y-156200000D03*
%TD*%
D15*
%TO.C,R7*%
X88587500Y-148900000D03*
X86762500Y-148900000D03*
%TD*%
D16*
%TO.C,U4*%
X85037500Y-74150000D03*
X85037500Y-73200000D03*
X85037500Y-72250000D03*
X82762500Y-72250000D03*
X82762500Y-73200000D03*
X82762500Y-74150000D03*
%TD*%
D15*
%TO.C,R23*%
X99512500Y-119200000D03*
X97687500Y-119200000D03*
%TD*%
%TO.C,R29*%
X67575000Y-100295000D03*
X65750000Y-100295000D03*
%TD*%
D17*
%TO.C,C25*%
X129800000Y-105150000D03*
X129800000Y-103425000D03*
%TD*%
D18*
%TO.C,C41*%
X99562500Y-112300000D03*
X97837500Y-112300000D03*
%TD*%
D19*
%TO.C,D6*%
X66200000Y-120857500D03*
X66200000Y-117557500D03*
%TD*%
D20*
%TO.C,C13*%
X112900000Y-71300000D03*
X114625000Y-71300000D03*
%TD*%
D21*
%TO.C,U6*%
X76100000Y-78050000D03*
X73800000Y-78050000D03*
D22*
X73800000Y-84350000D03*
D21*
X71500000Y-78050000D03*
%TD*%
D10*
%TO.C,R13*%
X107400000Y-127900000D03*
X109225000Y-127900000D03*
%TD*%
D20*
%TO.C,C33*%
X121937500Y-119100000D03*
X123662500Y-119100000D03*
%TD*%
D23*
%TO.C,C21*%
X113550000Y-69300000D03*
X115625000Y-69300000D03*
%TD*%
D10*
%TO.C,R14*%
X103900000Y-127900000D03*
X105725000Y-127900000D03*
%TD*%
D15*
%TO.C,R24*%
X106412500Y-117479000D03*
X104587500Y-117479000D03*
%TD*%
D10*
%TO.C,R19*%
X120387500Y-127900000D03*
X122212500Y-127900000D03*
%TD*%
D24*
%TO.C,U2*%
X100940000Y-95892500D03*
X101440000Y-95892500D03*
X101940000Y-95892500D03*
X102440000Y-95892500D03*
X102940000Y-95892500D03*
X103440000Y-95892500D03*
X103940000Y-95892500D03*
X104440000Y-95892500D03*
X104940000Y-95892500D03*
X105440000Y-95892500D03*
X105940000Y-95892500D03*
X106440000Y-95892500D03*
X106940000Y-95892500D03*
X107440000Y-95892500D03*
X107940000Y-95892500D03*
X108440000Y-95892500D03*
X108940000Y-95892500D03*
X109440000Y-95892500D03*
X109940000Y-95892500D03*
X110440000Y-95892500D03*
X110940000Y-95892500D03*
X111440000Y-95892500D03*
X111940000Y-95892500D03*
X112440000Y-95892500D03*
X112940000Y-95892500D03*
X113440000Y-95892500D03*
X113940000Y-95892500D03*
X114440000Y-95892500D03*
X114940000Y-95892500D03*
X115440000Y-95892500D03*
X115940000Y-95892500D03*
X116440000Y-95892500D03*
X116940000Y-95892500D03*
X117440000Y-95892500D03*
X117940000Y-95892500D03*
X118440000Y-95892500D03*
D25*
X120352500Y-93980000D03*
X120352500Y-93480000D03*
X120352500Y-92980000D03*
X120352500Y-92480000D03*
X120352500Y-91980000D03*
X120352500Y-91480000D03*
X120352500Y-90980000D03*
X120352500Y-90480000D03*
X120352500Y-89980000D03*
X120352500Y-89480000D03*
X120352500Y-88980000D03*
X120352500Y-88480000D03*
X120352500Y-87980000D03*
X120352500Y-87480000D03*
X120352500Y-86980000D03*
X120352500Y-86480000D03*
X120352500Y-85980000D03*
X120352500Y-85480000D03*
X120352500Y-84980000D03*
X120352500Y-84480000D03*
X120352500Y-83980000D03*
X120352500Y-83480000D03*
X120352500Y-82980000D03*
X120352500Y-82480000D03*
X120352500Y-81980000D03*
X120352500Y-81480000D03*
X120352500Y-80980000D03*
X120352500Y-80480000D03*
X120352500Y-79980000D03*
X120352500Y-79480000D03*
X120352500Y-78980000D03*
X120352500Y-78480000D03*
X120352500Y-77980000D03*
X120352500Y-77480000D03*
X120352500Y-76980000D03*
X120352500Y-76480000D03*
D24*
X118440000Y-74567500D03*
X117940000Y-74567500D03*
X117440000Y-74567500D03*
X116940000Y-74567500D03*
X116440000Y-74567500D03*
X115940000Y-74567500D03*
X115440000Y-74567500D03*
X114940000Y-74567500D03*
X114440000Y-74567500D03*
X113940000Y-74567500D03*
X113440000Y-74567500D03*
X112940000Y-74567500D03*
X112440000Y-74567500D03*
X111940000Y-74567500D03*
X111440000Y-74567500D03*
X110940000Y-74567500D03*
X110440000Y-74567500D03*
X109940000Y-74567500D03*
X109440000Y-74567500D03*
X108940000Y-74567500D03*
X108440000Y-74567500D03*
X107940000Y-74567500D03*
X107440000Y-74567500D03*
X106940000Y-74567500D03*
X106440000Y-74567500D03*
X105940000Y-74567500D03*
X105440000Y-74567500D03*
X104940000Y-74567500D03*
X104440000Y-74567500D03*
X103940000Y-74567500D03*
X103440000Y-74567500D03*
X102940000Y-74567500D03*
X102440000Y-74567500D03*
X101940000Y-74567500D03*
X101440000Y-74567500D03*
X100940000Y-74567500D03*
D25*
X99027500Y-76480000D03*
X99027500Y-76980000D03*
X99027500Y-77480000D03*
X99027500Y-77980000D03*
X99027500Y-78480000D03*
X99027500Y-78980000D03*
X99027500Y-79480000D03*
X99027500Y-79980000D03*
X99027500Y-80480000D03*
X99027500Y-80980000D03*
X99027500Y-81480000D03*
X99027500Y-81980000D03*
X99027500Y-82480000D03*
X99027500Y-82980000D03*
X99027500Y-83480000D03*
X99027500Y-83980000D03*
X99027500Y-84480000D03*
X99027500Y-84980000D03*
X99027500Y-85480000D03*
X99027500Y-85980000D03*
X99027500Y-86480000D03*
X99027500Y-86980000D03*
X99027500Y-87480000D03*
X99027500Y-87980000D03*
X99027500Y-88480000D03*
X99027500Y-88980000D03*
X99027500Y-89480000D03*
X99027500Y-89980000D03*
X99027500Y-90480000D03*
X99027500Y-90980000D03*
X99027500Y-91480000D03*
X99027500Y-91980000D03*
X99027500Y-92480000D03*
X99027500Y-92980000D03*
X99027500Y-93480000D03*
X99027500Y-93980000D03*
%TD*%
D15*
%TO.C,R34*%
X90612500Y-74100000D03*
X88787500Y-74100000D03*
%TD*%
D13*
%TO.C,C3*%
X126200000Y-80600000D03*
X126200000Y-82325000D03*
%TD*%
D26*
%TO.C,U3*%
X110960300Y-120366000D03*
X111442900Y-120366000D03*
X111950900Y-120366000D03*
X112458900Y-120366000D03*
X112941500Y-120366000D03*
X113449500Y-120366000D03*
X113957500Y-120366000D03*
X114465500Y-120366000D03*
X114948100Y-120366000D03*
X115456100Y-120366000D03*
X115964100Y-120366000D03*
X116446700Y-120366000D03*
D27*
X117894500Y-118918200D03*
X117894500Y-118435600D03*
X117894500Y-117927600D03*
X117894500Y-117419600D03*
X117894500Y-116937000D03*
X117894500Y-116429000D03*
X117894500Y-115921000D03*
X117894500Y-115413000D03*
X117894500Y-114930400D03*
X117894500Y-114422400D03*
X117894500Y-113914400D03*
X117894500Y-113431800D03*
D26*
X116446700Y-111984000D03*
X115964100Y-111984000D03*
X115456100Y-111984000D03*
X114948100Y-111984000D03*
X114465500Y-111984000D03*
X113957500Y-111984000D03*
X113449500Y-111984000D03*
X112941500Y-111984000D03*
X112458900Y-111984000D03*
X111950900Y-111984000D03*
X111442900Y-111984000D03*
X110960300Y-111984000D03*
D27*
X109512500Y-113431800D03*
X109512500Y-113914400D03*
X109512500Y-114422400D03*
X109512500Y-114930400D03*
X109512500Y-115413000D03*
X109512500Y-115921000D03*
X109512500Y-116429000D03*
X109512500Y-116937000D03*
X109512500Y-117419600D03*
X109512500Y-117927600D03*
X109512500Y-118435600D03*
X109512500Y-118918200D03*
%TD*%
D17*
%TO.C,C16*%
X91900000Y-83362500D03*
X91900000Y-81637500D03*
%TD*%
D10*
%TO.C,R1*%
X86550000Y-105362500D03*
X88375000Y-105362500D03*
%TD*%
D20*
%TO.C,C18*%
X106100000Y-70900000D03*
X107825000Y-70900000D03*
%TD*%
D28*
%TO.C,R4*%
X131600000Y-103375000D03*
X131600000Y-105200000D03*
%TD*%
D29*
%TO.C,SW3*%
X124500000Y-103487500D03*
D30*
X124500000Y-105187500D03*
X124500000Y-101787500D03*
%TD*%
D10*
%TO.C,R16*%
X96900000Y-127900000D03*
X98725000Y-127900000D03*
%TD*%
D20*
%TO.C,C50*%
X65787500Y-103595000D03*
X67512500Y-103595000D03*
%TD*%
D18*
%TO.C,C52*%
X81962500Y-64900000D03*
X80237500Y-64900000D03*
%TD*%
D20*
%TO.C,C45*%
X65787500Y-108695000D03*
X67512500Y-108695000D03*
%TD*%
D14*
%TO.C,H2*%
X132000000Y-64000000D03*
%TD*%
D31*
%TO.C,FB3*%
X104400000Y-122747500D03*
X104400000Y-121177500D03*
%TD*%
D15*
%TO.C,R10*%
X88587500Y-150600000D03*
X86762500Y-150600000D03*
%TD*%
D29*
%TO.C,SW2*%
X94575000Y-94450000D03*
D32*
X96275000Y-94450000D03*
X92875000Y-94450000D03*
%TD*%
D13*
%TO.C,C40*%
X106200000Y-121100000D03*
X106200000Y-122825000D03*
%TD*%
D10*
%TO.C,R5*%
X94125000Y-99050000D03*
X95950000Y-99050000D03*
%TD*%
D18*
%TO.C,C47*%
X67512500Y-110395000D03*
X65787500Y-110395000D03*
%TD*%
D13*
%TO.C,C30*%
X96900000Y-129737500D03*
X96900000Y-131462500D03*
%TD*%
D18*
%TO.C,C46*%
X67512500Y-112095000D03*
X65787500Y-112095000D03*
%TD*%
D33*
%TO.C,FB1*%
X127777500Y-94400000D03*
X129347500Y-94400000D03*
%TD*%
D31*
%TO.C,FB5*%
X62000000Y-88215000D03*
X62000000Y-89785000D03*
%TD*%
D10*
%TO.C,R25*%
X121887500Y-113079000D03*
X123712500Y-113079000D03*
%TD*%
D34*
%TO.C,J5*%
X59450000Y-114495000D03*
X59450000Y-104295000D03*
D35*
X62450000Y-113945000D03*
X62450000Y-113245000D03*
X62450000Y-112545000D03*
X62450000Y-111845000D03*
X62450000Y-111145000D03*
X62450000Y-110445000D03*
X62450000Y-109745000D03*
X62450000Y-109045000D03*
X62450000Y-108345000D03*
X62450000Y-107645000D03*
X62450000Y-106945000D03*
X62450000Y-106245000D03*
X62450000Y-105545000D03*
X62450000Y-104845000D03*
%TD*%
D36*
%TO.C,J1*%
X117000000Y-64300000D03*
D37*
X114460000Y-64300000D03*
X111920000Y-64300000D03*
X109380000Y-64300000D03*
%TD*%
D17*
%TO.C,C4*%
X109572500Y-103970000D03*
X109572500Y-102245000D03*
%TD*%
D10*
%TO.C,R18*%
X123887500Y-127900000D03*
X125712500Y-127900000D03*
%TD*%
D18*
%TO.C,C42*%
X106362500Y-119200000D03*
X104637500Y-119200000D03*
%TD*%
%TO.C,C26*%
X129450000Y-90000000D03*
X127725000Y-90000000D03*
%TD*%
D20*
%TO.C,C55*%
X79137500Y-80100000D03*
X80862500Y-80100000D03*
%TD*%
D38*
%TO.C,U5*%
X48000000Y-76000000D03*
X48000000Y-78540000D03*
X48000000Y-86160000D03*
X48000000Y-88700000D03*
X48000000Y-91240000D03*
X57245600Y-91240000D03*
X57245600Y-76000000D03*
%TD*%
D20*
%TO.C,C48*%
X65787500Y-105295000D03*
X67512500Y-105295000D03*
%TD*%
%TO.C,C35*%
X97837500Y-108700000D03*
X99562500Y-108700000D03*
%TD*%
D23*
%TO.C,C22*%
X100500000Y-71100000D03*
X102575000Y-71100000D03*
%TD*%
D10*
%TO.C,R32*%
X66887500Y-73300000D03*
X68712500Y-73300000D03*
%TD*%
D39*
%TO.C,D4*%
X124500000Y-131920000D03*
X123900000Y-131920000D03*
X123250000Y-131920000D03*
X122600000Y-131920000D03*
X122000000Y-131920000D03*
X122000000Y-133900000D03*
X122600000Y-133900000D03*
X123250000Y-133900000D03*
X123900000Y-133900000D03*
X124500000Y-133900000D03*
D40*
X124200000Y-132910000D03*
X123250000Y-132910000D03*
X122300000Y-132910000D03*
%TD*%
D15*
%TO.C,R9*%
X88612500Y-152300000D03*
X86787500Y-152300000D03*
%TD*%
%TO.C,R28*%
X67562500Y-101895000D03*
X65737500Y-101895000D03*
%TD*%
D10*
%TO.C,R20*%
X116887500Y-127900000D03*
X118712500Y-127900000D03*
%TD*%
D31*
%TO.C,FB2*%
X133000000Y-141570000D03*
X133000000Y-140000000D03*
%TD*%
D13*
%TO.C,C32*%
X116900000Y-129737500D03*
X116900000Y-131462500D03*
%TD*%
D20*
%TO.C,C36*%
X121937500Y-114800000D03*
X123662500Y-114800000D03*
%TD*%
D10*
%TO.C,R15*%
X100400000Y-127900000D03*
X102225000Y-127900000D03*
%TD*%
D18*
%TO.C,C49*%
X67512500Y-113795000D03*
X65787500Y-113795000D03*
%TD*%
D20*
%TO.C,C24*%
X127700000Y-96100000D03*
X129425000Y-96100000D03*
%TD*%
D15*
%TO.C,R31*%
X68712500Y-75000000D03*
X66887500Y-75000000D03*
%TD*%
D41*
%TO.C,D1*%
X86850000Y-87500000D03*
X85100000Y-87500000D03*
%TD*%
D18*
%TO.C,C27*%
X132762500Y-135800000D03*
X131037500Y-135800000D03*
%TD*%
D15*
%TO.C,R30*%
X82012500Y-63200000D03*
X80187500Y-63200000D03*
%TD*%
D10*
%TO.C,R11*%
X97687500Y-115800000D03*
X99512500Y-115800000D03*
%TD*%
D17*
%TO.C,C6*%
X95348750Y-103983750D03*
X95348750Y-102258750D03*
%TD*%
D14*
%TO.C,H1*%
X40000000Y-64000000D03*
%TD*%
D13*
%TO.C,C7*%
X103548750Y-102358750D03*
X103548750Y-104083750D03*
%TD*%
D33*
%TO.C,FB4*%
X97915000Y-110500000D03*
X99485000Y-110500000D03*
%TD*%
D18*
%TO.C,C38*%
X106362500Y-112300000D03*
X104637500Y-112300000D03*
%TD*%
D13*
%TO.C,C2*%
X126200000Y-85337500D03*
X126200000Y-87062500D03*
%TD*%
D42*
%TO.C,U7*%
X58397180Y-68242913D03*
X54897181Y-68242913D03*
X51397180Y-68242913D03*
%TD*%
D18*
%TO.C,C51*%
X67512500Y-115495000D03*
X65787500Y-115495000D03*
%TD*%
D15*
%TO.C,R6*%
X95950000Y-97350000D03*
X94125000Y-97350000D03*
%TD*%
D20*
%TO.C,C14*%
X123737500Y-75000000D03*
X125462500Y-75000000D03*
%TD*%
D14*
%TO.C,H3*%
X39725000Y-156000000D03*
%TD*%
D17*
%TO.C,C34*%
X102600000Y-122825000D03*
X102600000Y-121100000D03*
%TD*%
D43*
%TO.C,C23*%
X125837500Y-76960000D03*
X123762500Y-76960000D03*
%TD*%
D20*
%TO.C,C17*%
X98050000Y-98300000D03*
X99775000Y-98300000D03*
%TD*%
D13*
%TO.C,C31*%
X129200000Y-129737500D03*
X129200000Y-131462500D03*
%TD*%
D39*
%TO.C,D3*%
X104200000Y-131820000D03*
X103600000Y-131820000D03*
X102950000Y-131820000D03*
X102300000Y-131820000D03*
X101700000Y-131820000D03*
X101700000Y-133800000D03*
X102300000Y-133800000D03*
X102950000Y-133800000D03*
X103600000Y-133800000D03*
X104200000Y-133800000D03*
D40*
X103900000Y-132810000D03*
X102950000Y-132810000D03*
X102000000Y-132810000D03*
%TD*%
D15*
%TO.C,R27*%
X67562500Y-106995000D03*
X65737500Y-106995000D03*
%TD*%
%TO.C,R33*%
X90612500Y-72300000D03*
X88787500Y-72300000D03*
%TD*%
%TO.C,R21*%
X123712500Y-117300000D03*
X121887500Y-117300000D03*
%TD*%
%TO.C,R2*%
X86912500Y-85800000D03*
X85087500Y-85800000D03*
%TD*%
D36*
%TO.C,J6*%
X74950000Y-112895000D03*
D37*
X74950000Y-110355000D03*
X74950000Y-107815000D03*
X74950000Y-105275000D03*
%TD*%
D44*
%TO.C,JP1*%
X129287500Y-92200000D03*
D45*
X127837500Y-92200000D03*
%TD*%
D20*
%TO.C,C28*%
X93537500Y-136300000D03*
X95262500Y-136300000D03*
%TD*%
%TO.C,C54*%
X79137500Y-81900000D03*
X80862500Y-81900000D03*
%TD*%
D46*
%TO.C,J7*%
X69810000Y-66250000D03*
X75590000Y-66250000D03*
D47*
X75900000Y-67310000D03*
X75100000Y-67310000D03*
D48*
X73950000Y-67310000D03*
X72950000Y-67310000D03*
X72450000Y-67310000D03*
X71450000Y-67310000D03*
D47*
X70300000Y-67310000D03*
X69500000Y-67310000D03*
X69500000Y-67310000D03*
X70300000Y-67310000D03*
D48*
X70950000Y-67310000D03*
X71950000Y-67310000D03*
X73450000Y-67310000D03*
X74450000Y-67310000D03*
D47*
X75100000Y-67310000D03*
X75900000Y-67310000D03*
D49*
X77020000Y-66730000D03*
D50*
X77020000Y-62560000D03*
D49*
X68380000Y-66730000D03*
D50*
X68380000Y-62560000D03*
%TD*%
D13*
%TO.C,C5*%
X118072500Y-102462500D03*
X118072500Y-104187500D03*
%TD*%
D51*
%TO.C,D5*%
X125150000Y-121300000D03*
X121850000Y-121300000D03*
%TD*%
D52*
%TO.C,C19*%
X129450000Y-80512500D03*
X129450000Y-82587500D03*
%TD*%
D53*
%TO.C,Y2*%
X98168750Y-104361250D03*
X101068750Y-104361250D03*
X101068750Y-102061250D03*
X98168750Y-102061250D03*
%TD*%
D20*
%TO.C,C10*%
X96037500Y-71200000D03*
X97762500Y-71200000D03*
%TD*%
D18*
%TO.C,C43*%
X106362500Y-115800000D03*
X104637500Y-115800000D03*
%TD*%
D10*
%TO.C,R12*%
X97687500Y-117500000D03*
X99512500Y-117500000D03*
%TD*%
%TO.C,R22*%
X97687500Y-114100000D03*
X99512500Y-114100000D03*
%TD*%
D53*
%TO.C,Y1*%
X112352500Y-104257500D03*
X115252500Y-104257500D03*
X115252500Y-101957500D03*
X112352500Y-101957500D03*
%TD*%
D13*
%TO.C,C29*%
X109200000Y-129837500D03*
X109200000Y-131562500D03*
%TD*%
D19*
%TO.C,D2*%
X127600000Y-101937500D03*
X127600000Y-105237500D03*
%TD*%
D29*
%TO.C,SW1*%
X88192500Y-102192500D03*
D32*
X86492500Y-102192500D03*
X89892500Y-102192500D03*
%TD*%
D13*
%TO.C,C44*%
X70300000Y-118345000D03*
X70300000Y-120070000D03*
%TD*%
D20*
%TO.C,C37*%
X112950000Y-109180000D03*
X114675000Y-109180000D03*
%TD*%
D15*
%TO.C,R8*%
X88600000Y-147200000D03*
X86775000Y-147200000D03*
%TD*%
D18*
%TO.C,C39*%
X106362500Y-114050000D03*
X104637500Y-114050000D03*
%TD*%
D15*
%TO.C,R3*%
X96287500Y-91650000D03*
X94462500Y-91650000D03*
%TD*%
D36*
%TO.C,J2*%
X104075000Y-64300000D03*
D37*
X101535000Y-64300000D03*
X98995000Y-64300000D03*
X96455000Y-64300000D03*
X93915000Y-64300000D03*
%TD*%
D54*
%TO.C,J3*%
X108440000Y-149750000D03*
X97010000Y-149750000D03*
D55*
X107170000Y-143400000D03*
D56*
X105900000Y-140860000D03*
X104630000Y-143400000D03*
X103360000Y-140860000D03*
X102090000Y-143400000D03*
X100820000Y-140860000D03*
X99550000Y-143400000D03*
X98280000Y-140860000D03*
X109050000Y-154830000D03*
X106510000Y-153130000D03*
X98940000Y-154830000D03*
X96400000Y-153130000D03*
D57*
X94850000Y-146700000D03*
X110600000Y-146700000D03*
%TD*%
D54*
%TO.C,J4*%
X128900000Y-149800000D03*
X117470000Y-149800000D03*
D55*
X127630000Y-143450000D03*
D56*
X126360000Y-140910000D03*
X125090000Y-143450000D03*
X123820000Y-140910000D03*
X122550000Y-143450000D03*
X121280000Y-140910000D03*
X120010000Y-143450000D03*
X118740000Y-140910000D03*
X129510000Y-154880000D03*
X126970000Y-153180000D03*
X119400000Y-154880000D03*
X116860000Y-153180000D03*
D57*
X115310000Y-146750000D03*
X131060000Y-146750000D03*
%TD*%
M02*
