%TF.GenerationSoftware,KiCad,Pcbnew,(6.0.11)*%
%TF.CreationDate,2023-05-21T23:05:42+09:00*%
%TF.ProjectId,STM32F4_Ethernet,53544d33-3246-4345-9f45-746865726e65,rev?*%
%TF.SameCoordinates,Original*%
%TF.FileFunction,Copper,L1,Top*%
%TF.FilePolarity,Positive*%
%FSLAX46Y46*%
G04 Gerber Fmt 4.6, Leading zero omitted, Abs format (unit mm)*
G04 Created by KiCad (PCBNEW (6.0.11)) date 2023-05-21 23:05:42*
%MOMM*%
%LPD*%
G01*
G04 APERTURE LIST*
G04 Aperture macros list*
%AMRoundRect*
0 Rectangle with rounded corners*
0 $1 Rounding radius*
0 $2 $3 $4 $5 $6 $7 $8 $9 X,Y pos of 4 corners*
0 Add a 4 corners polygon primitive as box body*
4,1,4,$2,$3,$4,$5,$6,$7,$8,$9,$2,$3,0*
0 Add four circle primitives for the rounded corners*
1,1,$1+$1,$2,$3*
1,1,$1+$1,$4,$5*
1,1,$1+$1,$6,$7*
1,1,$1+$1,$8,$9*
0 Add four rect primitives between the rounded corners*
20,1,$1+$1,$2,$3,$4,$5,0*
20,1,$1+$1,$4,$5,$6,$7,0*
20,1,$1+$1,$6,$7,$8,$9,0*
20,1,$1+$1,$8,$9,$2,$3,0*%
%AMFreePoly0*
4,1,6,1.000000,0.000000,0.500000,-0.750000,-0.500000,-0.750000,-0.500000,0.750000,0.500000,0.750000,1.000000,0.000000,1.000000,0.000000,$1*%
%AMFreePoly1*
4,1,6,0.500000,-0.750000,-0.650000,-0.750000,-0.150000,0.000000,-0.650000,0.750000,0.500000,0.750000,0.500000,-0.750000,0.500000,-0.750000,$1*%
G04 Aperture macros list end*
%TA.AperFunction,SMDPad,CuDef*%
%ADD10RoundRect,0.237500X-0.250000X-0.237500X0.250000X-0.237500X0.250000X0.237500X-0.250000X0.237500X0*%
%TD*%
%TA.AperFunction,SMDPad,CuDef*%
%ADD11RoundRect,0.250000X0.475000X-0.337500X0.475000X0.337500X-0.475000X0.337500X-0.475000X-0.337500X0*%
%TD*%
%TA.AperFunction,SMDPad,CuDef*%
%ADD12RoundRect,0.237500X0.237500X-0.250000X0.237500X0.250000X-0.237500X0.250000X-0.237500X-0.250000X0*%
%TD*%
%TA.AperFunction,SMDPad,CuDef*%
%ADD13RoundRect,0.237500X-0.237500X0.300000X-0.237500X-0.300000X0.237500X-0.300000X0.237500X0.300000X0*%
%TD*%
%TA.AperFunction,ComponentPad*%
%ADD14C,5.700000*%
%TD*%
%TA.AperFunction,SMDPad,CuDef*%
%ADD15RoundRect,0.237500X0.250000X0.237500X-0.250000X0.237500X-0.250000X-0.237500X0.250000X-0.237500X0*%
%TD*%
%TA.AperFunction,SMDPad,CuDef*%
%ADD16RoundRect,0.150000X0.512500X0.150000X-0.512500X0.150000X-0.512500X-0.150000X0.512500X-0.150000X0*%
%TD*%
%TA.AperFunction,SMDPad,CuDef*%
%ADD17RoundRect,0.237500X0.237500X-0.300000X0.237500X0.300000X-0.237500X0.300000X-0.237500X-0.300000X0*%
%TD*%
%TA.AperFunction,SMDPad,CuDef*%
%ADD18RoundRect,0.237500X0.300000X0.237500X-0.300000X0.237500X-0.300000X-0.237500X0.300000X-0.237500X0*%
%TD*%
%TA.AperFunction,SMDPad,CuDef*%
%ADD19R,1.200000X0.900000*%
%TD*%
%TA.AperFunction,SMDPad,CuDef*%
%ADD20RoundRect,0.237500X-0.300000X-0.237500X0.300000X-0.237500X0.300000X0.237500X-0.300000X0.237500X0*%
%TD*%
%TA.AperFunction,SMDPad,CuDef*%
%ADD21R,1.500000X2.000000*%
%TD*%
%TA.AperFunction,SMDPad,CuDef*%
%ADD22R,3.800000X2.000000*%
%TD*%
%TA.AperFunction,SMDPad,CuDef*%
%ADD23RoundRect,0.250000X-0.337500X-0.475000X0.337500X-0.475000X0.337500X0.475000X-0.337500X0.475000X0*%
%TD*%
%TA.AperFunction,SMDPad,CuDef*%
%ADD24RoundRect,0.075000X0.075000X-0.662500X0.075000X0.662500X-0.075000X0.662500X-0.075000X-0.662500X0*%
%TD*%
%TA.AperFunction,SMDPad,CuDef*%
%ADD25RoundRect,0.075000X0.662500X-0.075000X0.662500X0.075000X-0.662500X0.075000X-0.662500X-0.075000X0*%
%TD*%
%TA.AperFunction,SMDPad,CuDef*%
%ADD26R,0.254000X1.422400*%
%TD*%
%TA.AperFunction,SMDPad,CuDef*%
%ADD27R,1.422400X0.254000*%
%TD*%
%TA.AperFunction,SMDPad,CuDef*%
%ADD28RoundRect,0.237500X-0.237500X0.250000X-0.237500X-0.250000X0.237500X-0.250000X0.237500X0.250000X0*%
%TD*%
%TA.AperFunction,SMDPad,CuDef*%
%ADD29R,1.700000X0.900000*%
%TD*%
%TA.AperFunction,SMDPad,CuDef*%
%ADD30R,0.970000X0.900000*%
%TD*%
%TA.AperFunction,SMDPad,CuDef*%
%ADD31R,0.900000X1.700000*%
%TD*%
%TA.AperFunction,SMDPad,CuDef*%
%ADD32R,0.900000X0.970000*%
%TD*%
%TA.AperFunction,SMDPad,CuDef*%
%ADD33R,2.000000X0.350000*%
%TD*%
%TA.AperFunction,ComponentPad*%
%ADD34R,1.700000X1.700000*%
%TD*%
%TA.AperFunction,ComponentPad*%
%ADD35O,1.700000X1.700000*%
%TD*%
%TA.AperFunction,SMDPad,CuDef*%
%ADD36R,2.159000X0.609600*%
%TD*%
%TA.AperFunction,SMDPad,CuDef*%
%ADD37R,0.250000X0.580000*%
%TD*%
%TA.AperFunction,SMDPad,CuDef*%
%ADD38R,0.400000X1.000000*%
%TD*%
%TA.AperFunction,SMDPad,CuDef*%
%ADD39RoundRect,0.237500X0.287500X0.237500X-0.287500X0.237500X-0.287500X-0.237500X0.287500X-0.237500X0*%
%TD*%
%TA.AperFunction,ComponentPad*%
%ADD40O,1.950000X3.900000*%
%TD*%
%TA.AperFunction,SMDPad,CuDef*%
%ADD41RoundRect,0.250000X0.337500X0.475000X-0.337500X0.475000X-0.337500X-0.475000X0.337500X-0.475000X0*%
%TD*%
%TA.AperFunction,SMDPad,CuDef*%
%ADD42FreePoly0,180.000000*%
%TD*%
%TA.AperFunction,SMDPad,CuDef*%
%ADD43FreePoly1,180.000000*%
%TD*%
%TA.AperFunction,SMDPad,CuDef*%
%ADD44R,0.600000X1.160000*%
%TD*%
%TA.AperFunction,SMDPad,CuDef*%
%ADD45R,0.300000X1.160000*%
%TD*%
%TA.AperFunction,ComponentPad*%
%ADD46O,0.900000X2.000000*%
%TD*%
%TA.AperFunction,ComponentPad*%
%ADD47O,0.900000X1.700000*%
%TD*%
%TA.AperFunction,SMDPad,CuDef*%
%ADD48R,0.900000X1.200000*%
%TD*%
%TA.AperFunction,SMDPad,CuDef*%
%ADD49RoundRect,0.250000X-0.475000X0.337500X-0.475000X-0.337500X0.475000X-0.337500X0.475000X0.337500X0*%
%TD*%
%TA.AperFunction,SMDPad,CuDef*%
%ADD50R,2.100000X1.800000*%
%TD*%
%TA.AperFunction,ComponentPad*%
%ADD51RoundRect,0.250500X0.499500X0.499500X-0.499500X0.499500X-0.499500X-0.499500X0.499500X-0.499500X0*%
%TD*%
%TA.AperFunction,ComponentPad*%
%ADD52C,1.500000*%
%TD*%
%TA.AperFunction,ComponentPad*%
%ADD53C,2.500000*%
%TD*%
%TA.AperFunction,ViaPad*%
%ADD54C,0.800000*%
%TD*%
%TA.AperFunction,ViaPad*%
%ADD55C,0.250000*%
%TD*%
%TA.AperFunction,ViaPad*%
%ADD56C,0.300000*%
%TD*%
%TA.AperFunction,Conductor*%
%ADD57C,0.250000*%
%TD*%
%TA.AperFunction,Conductor*%
%ADD58C,0.500000*%
%TD*%
%TA.AperFunction,Conductor*%
%ADD59C,0.203200*%
%TD*%
%TA.AperFunction,Conductor*%
%ADD60C,0.100000*%
%TD*%
%TA.AperFunction,Conductor*%
%ADD61C,0.150000*%
%TD*%
%TA.AperFunction,Conductor*%
%ADD62C,0.090000*%
%TD*%
%TA.AperFunction,Conductor*%
%ADD63C,0.600000*%
%TD*%
G04 APERTURE END LIST*
D10*
%TO.P,R17,1*%
%TO.N,/Ethernet/TX2+*%
X127387500Y-127900000D03*
%TO.P,R17,2*%
%TO.N,Net-(C31-Pad1)*%
X129212500Y-127900000D03*
%TD*%
D11*
%TO.P,C20,1*%
%TO.N,+3V3*%
X95000000Y-83337500D03*
%TO.P,C20,2*%
%TO.N,GND*%
X95000000Y-81262500D03*
%TD*%
D12*
%TO.P,R26,1*%
%TO.N,+3V3*%
X68500000Y-120120000D03*
%TO.P,R26,2*%
%TO.N,/Display/DISP_RES*%
X68500000Y-118295000D03*
%TD*%
D13*
%TO.P,C53,1*%
%TO.N,USB_POWER*%
X68000000Y-78337500D03*
%TO.P,C53,2*%
%TO.N,GND*%
X68000000Y-80062500D03*
%TD*%
D14*
%TO.P,H4,1,1*%
%TO.N,GND*%
X81200000Y-156200000D03*
%TD*%
D15*
%TO.P,R7,1*%
%TO.N,Net-(J3-Pad9)*%
X88587500Y-148900000D03*
%TO.P,R7,2*%
%TO.N,/Ethernet/P1LED0*%
X86762500Y-148900000D03*
%TD*%
D16*
%TO.P,U4,1,I/O1*%
%TO.N,/USB/USBDM+*%
X85037500Y-74150000D03*
%TO.P,U4,2,GND*%
%TO.N,GND*%
X85037500Y-73200000D03*
%TO.P,U4,3,I/O2*%
%TO.N,/USB/USBDM-*%
X85037500Y-72250000D03*
%TO.P,U4,4,I/O2*%
X82762500Y-72250000D03*
%TO.P,U4,5,VBUS*%
%TO.N,USB_POWER*%
X82762500Y-73200000D03*
%TO.P,U4,6,I/O1*%
%TO.N,/USB/USBDM+*%
X82762500Y-74150000D03*
%TD*%
D15*
%TO.P,R23,1*%
%TO.N,/Ethernet/P2LED0*%
X99512500Y-119200000D03*
%TO.P,R23,2*%
%TO.N,GND*%
X97687500Y-119200000D03*
%TD*%
%TO.P,R29,1*%
%TO.N,+3V3*%
X67575000Y-100295000D03*
%TO.P,R29,2*%
%TO.N,/Display/DISP_SCL*%
X65750000Y-100295000D03*
%TD*%
D17*
%TO.P,C25,1*%
%TO.N,/MCU/~{RESET}*%
X129800000Y-105150000D03*
%TO.P,C25,2*%
%TO.N,GND*%
X129800000Y-103425000D03*
%TD*%
D18*
%TO.P,C41,1*%
%TO.N,/Ethernet/PHY_1V8A*%
X99562500Y-112300000D03*
%TO.P,C41,2*%
%TO.N,GND*%
X97837500Y-112300000D03*
%TD*%
D19*
%TO.P,D6,1,K*%
%TO.N,+3V3*%
X66200000Y-120857500D03*
%TO.P,D6,2,A*%
%TO.N,/Display/DISP_RES*%
X66200000Y-117557500D03*
%TD*%
D20*
%TO.P,C13,1*%
%TO.N,+3V3*%
X112900000Y-71300000D03*
%TO.P,C13,2*%
%TO.N,GND*%
X114625000Y-71300000D03*
%TD*%
D21*
%TO.P,U6,1,GND*%
%TO.N,GND*%
X76100000Y-78050000D03*
%TO.P,U6,2,VO*%
%TO.N,+3V3*%
X73800000Y-78050000D03*
D22*
X73800000Y-84350000D03*
D21*
%TO.P,U6,3,VI*%
%TO.N,USB_POWER*%
X71500000Y-78050000D03*
%TD*%
D10*
%TO.P,R13,1*%
%TO.N,/Ethernet/TX1+*%
X107400000Y-127900000D03*
%TO.P,R13,2*%
%TO.N,Net-(C29-Pad1)*%
X109225000Y-127900000D03*
%TD*%
D20*
%TO.P,C33,1*%
%TO.N,/MCU/ETH_RESET*%
X121937500Y-119100000D03*
%TO.P,C33,2*%
%TO.N,GND*%
X123662500Y-119100000D03*
%TD*%
D23*
%TO.P,C21,1*%
%TO.N,+3V3*%
X113550000Y-69300000D03*
%TO.P,C21,2*%
%TO.N,GND*%
X115625000Y-69300000D03*
%TD*%
D10*
%TO.P,R14,1*%
%TO.N,Net-(C29-Pad1)*%
X103900000Y-127900000D03*
%TO.P,R14,2*%
%TO.N,/Ethernet/TX1-*%
X105725000Y-127900000D03*
%TD*%
D15*
%TO.P,R24,1*%
%TO.N,/Ethernet/ISET*%
X106412500Y-117479000D03*
%TO.P,R24,2*%
%TO.N,GND*%
X104587500Y-117479000D03*
%TD*%
D10*
%TO.P,R19,1*%
%TO.N,/Ethernet/RX2+*%
X120387500Y-127900000D03*
%TO.P,R19,2*%
%TO.N,Net-(C32-Pad1)*%
X122212500Y-127900000D03*
%TD*%
D24*
%TO.P,U2,1,PE2*%
%TO.N,unconnected-(U2-Pad1)*%
X100940000Y-95892500D03*
%TO.P,U2,2,PE3*%
%TO.N,unconnected-(U2-Pad2)*%
X101440000Y-95892500D03*
%TO.P,U2,3,PE4*%
%TO.N,unconnected-(U2-Pad3)*%
X101940000Y-95892500D03*
%TO.P,U2,4,PE5*%
%TO.N,unconnected-(U2-Pad4)*%
X102440000Y-95892500D03*
%TO.P,U2,5,PE6*%
%TO.N,unconnected-(U2-Pad5)*%
X102940000Y-95892500D03*
%TO.P,U2,6,VBAT*%
%TO.N,+3V3*%
X103440000Y-95892500D03*
%TO.P,U2,7,PC13*%
%TO.N,/MCU/LD1*%
X103940000Y-95892500D03*
%TO.P,U2,8,PC14*%
%TO.N,/MCU/LSE+*%
X104440000Y-95892500D03*
%TO.P,U2,9,PC15*%
%TO.N,/MCU/LSE-*%
X104940000Y-95892500D03*
%TO.P,U2,10,PF0*%
%TO.N,/MCU/A0*%
X105440000Y-95892500D03*
%TO.P,U2,11,PF1*%
%TO.N,/MCU/A1*%
X105940000Y-95892500D03*
%TO.P,U2,12,PF2*%
%TO.N,/MCU/A2*%
X106440000Y-95892500D03*
%TO.P,U2,13,PF3*%
%TO.N,/MCU/A3*%
X106940000Y-95892500D03*
%TO.P,U2,14,PF4*%
%TO.N,/MCU/A4*%
X107440000Y-95892500D03*
%TO.P,U2,15,PF5*%
%TO.N,/MCU/A5*%
X107940000Y-95892500D03*
%TO.P,U2,16,VSS*%
%TO.N,GND*%
X108440000Y-95892500D03*
%TO.P,U2,17,VDD*%
%TO.N,+3V3*%
X108940000Y-95892500D03*
%TO.P,U2,18,PF6*%
%TO.N,/MCU/B0*%
X109440000Y-95892500D03*
%TO.P,U2,19,PF7*%
%TO.N,unconnected-(U2-Pad19)*%
X109940000Y-95892500D03*
%TO.P,U2,20,PF8*%
%TO.N,unconnected-(U2-Pad20)*%
X110440000Y-95892500D03*
%TO.P,U2,21,PF9*%
%TO.N,unconnected-(U2-Pad21)*%
X110940000Y-95892500D03*
%TO.P,U2,22,PF10*%
%TO.N,unconnected-(U2-Pad22)*%
X111440000Y-95892500D03*
%TO.P,U2,23,PH0*%
%TO.N,/MCU/HSE+*%
X111940000Y-95892500D03*
%TO.P,U2,24,PH1*%
%TO.N,/MCU/HSE-*%
X112440000Y-95892500D03*
%TO.P,U2,25,NRST*%
%TO.N,/MCU/~{RESET}*%
X112940000Y-95892500D03*
%TO.P,U2,26,PC0*%
%TO.N,unconnected-(U2-Pad26)*%
X113440000Y-95892500D03*
%TO.P,U2,27,PC1*%
%TO.N,/MCU/ETH_MDC*%
X113940000Y-95892500D03*
%TO.P,U2,28,PC2*%
%TO.N,/MCU/ETH_TXD2*%
X114440000Y-95892500D03*
%TO.P,U2,29,PC3*%
%TO.N,/MCU/ETH_TX_CLK*%
X114940000Y-95892500D03*
%TO.P,U2,30,VDD*%
%TO.N,+3V3*%
X115440000Y-95892500D03*
%TO.P,U2,31,VSSA*%
%TO.N,/MCU/STM32_VSSA*%
X115940000Y-95892500D03*
%TO.P,U2,32,VREF+*%
%TO.N,+3V3*%
X116440000Y-95892500D03*
%TO.P,U2,33,VDDA*%
%TO.N,/MCU/STM32_VDDA*%
X116940000Y-95892500D03*
%TO.P,U2,34,PA0*%
%TO.N,/MCU/ETH_CRS*%
X117440000Y-95892500D03*
%TO.P,U2,35,PA1*%
%TO.N,/MCU/ETH_RX_CLK*%
X117940000Y-95892500D03*
%TO.P,U2,36,PA2*%
%TO.N,/MCU/ETH_MDIO*%
X118440000Y-95892500D03*
D25*
%TO.P,U2,37,PA3*%
%TO.N,/MCU/ETH_COL*%
X120352500Y-93980000D03*
%TO.P,U2,38,VSS*%
%TO.N,GND*%
X120352500Y-93480000D03*
%TO.P,U2,39,VDD*%
%TO.N,+3V3*%
X120352500Y-92980000D03*
%TO.P,U2,40,PA4*%
%TO.N,/MCU/SPI_NSS*%
X120352500Y-92480000D03*
%TO.P,U2,41,PA5*%
%TO.N,/MCU/SPI_SCK*%
X120352500Y-91980000D03*
%TO.P,U2,42,PA6*%
%TO.N,/MCU/SPI_MISO*%
X120352500Y-91480000D03*
%TO.P,U2,43,PA7*%
%TO.N,/MCU/ETH_RX_DV*%
X120352500Y-90980000D03*
%TO.P,U2,44,PC4*%
%TO.N,/MCU/ETH_RXD0*%
X120352500Y-90480000D03*
%TO.P,U2,45,PC5*%
%TO.N,/MCU/ETH_RXD1*%
X120352500Y-89980000D03*
%TO.P,U2,46,PB0*%
%TO.N,/MCU/ETH_RXD2*%
X120352500Y-89480000D03*
%TO.P,U2,47,PB1*%
%TO.N,/MCU/ETH_RXD3*%
X120352500Y-88980000D03*
%TO.P,U2,48,PB2*%
%TO.N,unconnected-(U2-Pad48)*%
X120352500Y-88480000D03*
%TO.P,U2,49,PF11*%
%TO.N,unconnected-(U2-Pad49)*%
X120352500Y-87980000D03*
%TO.P,U2,50,PF12*%
%TO.N,/MCU/A6*%
X120352500Y-87480000D03*
%TO.P,U2,51,VSS*%
%TO.N,GND*%
X120352500Y-86980000D03*
%TO.P,U2,52,VDD*%
%TO.N,+3V3*%
X120352500Y-86480000D03*
%TO.P,U2,53,PF13*%
%TO.N,/MCU/A7*%
X120352500Y-85980000D03*
%TO.P,U2,54,PF14*%
%TO.N,/MCU/A8*%
X120352500Y-85480000D03*
%TO.P,U2,55,PF15*%
%TO.N,/MCU/A9*%
X120352500Y-84980000D03*
%TO.P,U2,56,PG0*%
%TO.N,/MCU/A10*%
X120352500Y-84480000D03*
%TO.P,U2,57,PG1*%
%TO.N,/MCU/A11*%
X120352500Y-83980000D03*
%TO.P,U2,58,PE7*%
%TO.N,/MCU/D4*%
X120352500Y-83480000D03*
%TO.P,U2,59,PE8*%
%TO.N,/MCU/D5*%
X120352500Y-82980000D03*
%TO.P,U2,60,PE9*%
%TO.N,/MCU/D6*%
X120352500Y-82480000D03*
%TO.P,U2,61,VSS*%
%TO.N,GND*%
X120352500Y-81980000D03*
%TO.P,U2,62,VDD*%
%TO.N,+3V3*%
X120352500Y-81480000D03*
%TO.P,U2,63,PE10*%
%TO.N,/MCU/D7*%
X120352500Y-80980000D03*
%TO.P,U2,64,PE11*%
%TO.N,/MCU/D8*%
X120352500Y-80480000D03*
%TO.P,U2,65,PE12*%
%TO.N,/MCU/D9*%
X120352500Y-79980000D03*
%TO.P,U2,66,PE13*%
%TO.N,/MCU/D10*%
X120352500Y-79480000D03*
%TO.P,U2,67,PE14*%
%TO.N,/MCU/D11*%
X120352500Y-78980000D03*
%TO.P,U2,68,PE15*%
%TO.N,/MCU/D12*%
X120352500Y-78480000D03*
%TO.P,U2,69,PB10*%
%TO.N,unconnected-(U2-Pad69)*%
X120352500Y-77980000D03*
%TO.P,U2,70,PB11*%
%TO.N,/MCU/ETH_TX_EN*%
X120352500Y-77480000D03*
%TO.P,U2,71,VCAP_1*%
%TO.N,Net-(C23-Pad2)*%
X120352500Y-76980000D03*
%TO.P,U2,72,VDD*%
%TO.N,+3V3*%
X120352500Y-76480000D03*
D24*
%TO.P,U2,73,PB12*%
%TO.N,/MCU/ETH_TXD0*%
X118440000Y-74567500D03*
%TO.P,U2,74,PB13*%
%TO.N,/MCU/ETH_TXD1*%
X117940000Y-74567500D03*
%TO.P,U2,75,PB14*%
%TO.N,unconnected-(U2-Pad75)*%
X117440000Y-74567500D03*
%TO.P,U2,76,PB15*%
%TO.N,unconnected-(U2-Pad76)*%
X116940000Y-74567500D03*
%TO.P,U2,77,PD8*%
%TO.N,/MCU/D13*%
X116440000Y-74567500D03*
%TO.P,U2,78,PD9*%
%TO.N,/MCU/D14*%
X115940000Y-74567500D03*
%TO.P,U2,79,PD10*%
%TO.N,/MCU/D15*%
X115440000Y-74567500D03*
%TO.P,U2,80,PD11*%
%TO.N,/MCU/A16*%
X114940000Y-74567500D03*
%TO.P,U2,81,PD12*%
%TO.N,/MCU/A17*%
X114440000Y-74567500D03*
%TO.P,U2,82,PD13*%
%TO.N,/MCU/A18*%
X113940000Y-74567500D03*
%TO.P,U2,83,VSS*%
%TO.N,GND*%
X113440000Y-74567500D03*
%TO.P,U2,84,VDD*%
%TO.N,+3V3*%
X112940000Y-74567500D03*
%TO.P,U2,85,PD14*%
%TO.N,/MCU/D0*%
X112440000Y-74567500D03*
%TO.P,U2,86,PD15*%
%TO.N,/MCU/D1*%
X111940000Y-74567500D03*
%TO.P,U2,87,PG2*%
%TO.N,/MCU/A12*%
X111440000Y-74567500D03*
%TO.P,U2,88,PG3*%
%TO.N,/MCU/A13*%
X110940000Y-74567500D03*
%TO.P,U2,89,PG4*%
%TO.N,/MCU/A14*%
X110440000Y-74567500D03*
%TO.P,U2,90,PG5*%
%TO.N,/MCU/A15*%
X109940000Y-74567500D03*
%TO.P,U2,91,PG6*%
%TO.N,unconnected-(U2-Pad91)*%
X109440000Y-74567500D03*
%TO.P,U2,92,PG7*%
%TO.N,unconnected-(U2-Pad92)*%
X108940000Y-74567500D03*
%TO.P,U2,93,PG8*%
%TO.N,/MCU/ETH_RESET*%
X108440000Y-74567500D03*
%TO.P,U2,94,VSS*%
%TO.N,GND*%
X107940000Y-74567500D03*
%TO.P,U2,95,VDD*%
%TO.N,+3V3*%
X107440000Y-74567500D03*
%TO.P,U2,96,PC6*%
%TO.N,unconnected-(U2-Pad96)*%
X106940000Y-74567500D03*
%TO.P,U2,97,PC7*%
%TO.N,unconnected-(U2-Pad97)*%
X106440000Y-74567500D03*
%TO.P,U2,98,PC8*%
%TO.N,/MCU/SDIO_D0*%
X105940000Y-74567500D03*
%TO.P,U2,99,PC9*%
%TO.N,/MCU/MCO_25MHz*%
X105440000Y-74567500D03*
%TO.P,U2,100,PA8*%
%TO.N,unconnected-(U2-Pad100)*%
X104940000Y-74567500D03*
%TO.P,U2,101,PA9*%
%TO.N,/MCU/UART_TX*%
X104440000Y-74567500D03*
%TO.P,U2,102,PA10*%
%TO.N,/MCU/UART_RX*%
X103940000Y-74567500D03*
%TO.P,U2,103,PA11*%
%TO.N,/MCU/USB_D-*%
X103440000Y-74567500D03*
%TO.P,U2,104,PA12*%
%TO.N,/MCU/USB_D+*%
X102940000Y-74567500D03*
%TO.P,U2,105,PA13*%
%TO.N,/MCU/JTAG_SWDIO*%
X102440000Y-74567500D03*
%TO.P,U2,106,VCAP_2*%
%TO.N,Net-(C22-Pad2)*%
X101940000Y-74567500D03*
%TO.P,U2,107,VSS*%
%TO.N,GND*%
X101440000Y-74567500D03*
%TO.P,U2,108,VDD*%
%TO.N,+3V3*%
X100940000Y-74567500D03*
D25*
%TO.P,U2,109,PA14*%
%TO.N,/MCU/JTAG_SWCLK*%
X99027500Y-76480000D03*
%TO.P,U2,110,PA15*%
%TO.N,unconnected-(U2-Pad110)*%
X99027500Y-76980000D03*
%TO.P,U2,111,PC10*%
%TO.N,unconnected-(U2-Pad111)*%
X99027500Y-77480000D03*
%TO.P,U2,112,PC11*%
%TO.N,unconnected-(U2-Pad112)*%
X99027500Y-77980000D03*
%TO.P,U2,113,PC12*%
%TO.N,/MCU/SDIO_CLK*%
X99027500Y-78480000D03*
%TO.P,U2,114,PD0*%
%TO.N,/MCU/D2*%
X99027500Y-78980000D03*
%TO.P,U2,115,PD1*%
%TO.N,/MCU/D3*%
X99027500Y-79480000D03*
%TO.P,U2,116,PD2*%
%TO.N,/MCU/SDIO_CMD*%
X99027500Y-79980000D03*
%TO.P,U2,117,PD3*%
%TO.N,/MCU/SDIO_Detect*%
X99027500Y-80480000D03*
%TO.P,U2,118,PD4*%
%TO.N,/MCU/FSMC_NOE*%
X99027500Y-80980000D03*
%TO.P,U2,119,PD5*%
%TO.N,/MCU/FSMC_NWE*%
X99027500Y-81480000D03*
%TO.P,U2,120,VSS*%
%TO.N,GND*%
X99027500Y-81980000D03*
%TO.P,U2,121,VDD*%
%TO.N,+3V3*%
X99027500Y-82480000D03*
%TO.P,U2,122,PD6*%
%TO.N,/MCU/FSMC_NWAIT*%
X99027500Y-82980000D03*
%TO.P,U2,123,PD7*%
%TO.N,/MCU/FSMC_NE1*%
X99027500Y-83480000D03*
%TO.P,U2,124,PG9*%
%TO.N,/MCU/ETH_INT*%
X99027500Y-83980000D03*
%TO.P,U2,125,PG10*%
%TO.N,/MCU/USB_VBUS*%
X99027500Y-84480000D03*
%TO.P,U2,126,PG11*%
%TO.N,unconnected-(U2-Pad126)*%
X99027500Y-84980000D03*
%TO.P,U2,127,PG12*%
%TO.N,unconnected-(U2-Pad127)*%
X99027500Y-85480000D03*
%TO.P,U2,128,PG13*%
%TO.N,unconnected-(U2-Pad128)*%
X99027500Y-85980000D03*
%TO.P,U2,129,PG14*%
%TO.N,unconnected-(U2-Pad129)*%
X99027500Y-86480000D03*
%TO.P,U2,130,VSS*%
%TO.N,GND*%
X99027500Y-86980000D03*
%TO.P,U2,131,VDD*%
%TO.N,+3V3*%
X99027500Y-87480000D03*
%TO.P,U2,132,PG15*%
%TO.N,unconnected-(U2-Pad132)*%
X99027500Y-87980000D03*
%TO.P,U2,133,PB3*%
%TO.N,/MCU/JTAG_SWO*%
X99027500Y-88480000D03*
%TO.P,U2,134,PB4*%
%TO.N,unconnected-(U2-Pad134)*%
X99027500Y-88980000D03*
%TO.P,U2,135,PB5*%
%TO.N,/MCU/SPI_MOSI*%
X99027500Y-89480000D03*
%TO.P,U2,136,PB6*%
%TO.N,/Display/DISP_SCL*%
X99027500Y-89980000D03*
%TO.P,U2,137,PB7*%
%TO.N,/Display/DISP_SCA*%
X99027500Y-90480000D03*
%TO.P,U2,138,BOOT0*%
%TO.N,/MCU/BOOT0*%
X99027500Y-90980000D03*
%TO.P,U2,139,PB8*%
%TO.N,/MCU/ETH_TXD3*%
X99027500Y-91480000D03*
%TO.P,U2,140,PB9*%
%TO.N,unconnected-(U2-Pad140)*%
X99027500Y-91980000D03*
%TO.P,U2,141,PE0*%
%TO.N,/MCU/FSMC_NBL0*%
X99027500Y-92480000D03*
%TO.P,U2,142,PE1*%
%TO.N,/MCU/FSMC_NBL1*%
X99027500Y-92980000D03*
%TO.P,U2,143,PDR_ON*%
%TO.N,/MCU/PDR_ON*%
X99027500Y-93480000D03*
%TO.P,U2,144,VDD*%
%TO.N,+3V3*%
X99027500Y-93980000D03*
%TD*%
D15*
%TO.P,R34,1*%
%TO.N,/MCU/USB_D-*%
X90612500Y-74100000D03*
%TO.P,R34,2*%
%TO.N,/USB/USBDM+*%
X88787500Y-74100000D03*
%TD*%
D13*
%TO.P,C3,1*%
%TO.N,+3V3*%
X126200000Y-80600000D03*
%TO.P,C3,2*%
%TO.N,GND*%
X126200000Y-82325000D03*
%TD*%
D26*
%TO.P,U3,1,RXM1*%
%TO.N,/Ethernet/RX1-*%
X110960300Y-120366000D03*
%TO.P,U3,2,RXP1*%
%TO.N,/Ethernet/RX1+*%
X111442900Y-120366000D03*
%TO.P,U3,3,TXM1*%
%TO.N,/Ethernet/TX1-*%
X111950900Y-120366000D03*
%TO.P,U3,4,TXP1*%
%TO.N,/Ethernet/TX1+*%
X112458900Y-120366000D03*
%TO.P,U3,5,VDDA_3.3*%
%TO.N,/Ethernet/PHY_3V3A*%
X112941500Y-120366000D03*
%TO.P,U3,6,ISET*%
%TO.N,/Ethernet/ISET*%
X113449500Y-120366000D03*
%TO.P,U3,7,VDDA_1.8*%
%TO.N,/Ethernet/PHY_1V8A*%
X113957500Y-120366000D03*
%TO.P,U3,8,RXM2*%
%TO.N,/Ethernet/RX2-*%
X114465500Y-120366000D03*
%TO.P,U3,9,RXP2*%
%TO.N,/Ethernet/RX2+*%
X114948100Y-120366000D03*
%TO.P,U3,10,AGND*%
%TO.N,GND*%
X115456100Y-120366000D03*
%TO.P,U3,11,TXM2*%
%TO.N,/Ethernet/TX2-*%
X115964100Y-120366000D03*
%TO.P,U3,12,TXP2*%
%TO.N,/Ethernet/TX2+*%
X116446700Y-120366000D03*
D27*
%TO.P,U3,13,NC*%
%TO.N,unconnected-(U3-Pad13)*%
X117894500Y-118918200D03*
%TO.P,U3,14,X1*%
%TO.N,/MCU/MCO_25MHz*%
X117894500Y-118435600D03*
%TO.P,U3,15,X2*%
%TO.N,unconnected-(U3-Pad15)*%
X117894500Y-117927600D03*
%TO.P,U3,16,SMTXEN3*%
%TO.N,/MCU/ETH_TX_EN*%
X117894500Y-117419600D03*
%TO.P,U3,17,SMTXD33/E_REFCLK_3*%
%TO.N,/MCU/ETH_TXD3*%
X117894500Y-116937000D03*
%TO.P,U3,18,SMTXD32*%
%TO.N,/MCU/ETH_TXD2*%
X117894500Y-116429000D03*
%TO.P,U3,19,SMTDX31*%
%TO.N,/MCU/ETH_TXD1*%
X117894500Y-115921000D03*
%TO.P,U3,20,SMTXD30*%
%TO.N,/MCU/ETH_TXD0*%
X117894500Y-115413000D03*
%TO.P,U3,21,GND_2*%
%TO.N,GND*%
X117894500Y-114930400D03*
%TO.P,U3,22,VDDIO*%
%TO.N,+3V3*%
X117894500Y-114422400D03*
%TO.P,U3,23,SMTXC3/REFCLK_3*%
%TO.N,/MCU/ETH_TX_CLK*%
X117894500Y-113914400D03*
%TO.P,U3,24,SMTXER3/MII_LINK_3*%
%TO.N,/Ethernet/MII_LINK_MODE*%
X117894500Y-113431800D03*
D26*
%TO.P,U3,25,SMRXDV3*%
%TO.N,/MCU/ETH_RX_DV*%
X116446700Y-111984000D03*
%TO.P,U3,26,SMRXD33/REFCLKO_3*%
%TO.N,/MCU/ETH_RXD3*%
X115964100Y-111984000D03*
%TO.P,U3,27,SMRXD32*%
%TO.N,/MCU/ETH_RXD2*%
X115456100Y-111984000D03*
%TO.P,U3,28,SMRXD31*%
%TO.N,/MCU/ETH_RXD1*%
X114948100Y-111984000D03*
%TO.P,U3,29,SMRXD30*%
%TO.N,/MCU/ETH_RXD0*%
X114465500Y-111984000D03*
%TO.P,U3,30,SMRXC3*%
%TO.N,/MCU/ETH_RX_CLK*%
X113957500Y-111984000D03*
%TO.P,U3,31,GND*%
%TO.N,GND*%
X113449500Y-111984000D03*
%TO.P,U3,32,VDDC*%
%TO.N,+1V8*%
X112941500Y-111984000D03*
%TO.P,U3,33,SCOL3*%
%TO.N,/MCU/ETH_COL*%
X112458900Y-111984000D03*
%TO.P,U3,34,SCRS3*%
%TO.N,/MCU/ETH_CRS*%
X111950900Y-111984000D03*
%TO.P,U3,35,INTRN*%
%TO.N,/MCU/ETH_INT*%
X111442900Y-111984000D03*
%TO.P,U3,36,SCL_MDC*%
%TO.N,/MCU/SPI_SCK*%
X110960300Y-111984000D03*
D27*
%TO.P,U3,37,SDA_MDIO*%
%TO.N,/MCU/SPI_MOSI*%
X109512500Y-113431800D03*
%TO.P,U3,38,SPIQ*%
%TO.N,/MCU/SPI_MISO*%
X109512500Y-113914400D03*
%TO.P,U3,39,SPISN*%
%TO.N,/MCU/SPI_NSS*%
X109512500Y-114422400D03*
%TO.P,U3,40,VDDIO_2*%
%TO.N,+3V3*%
X109512500Y-114930400D03*
%TO.P,U3,41,GND_3*%
%TO.N,GND*%
X109512500Y-115413000D03*
%TO.P,U3,42,VDDC0*%
%TO.N,+1V8*%
X109512500Y-115921000D03*
%TO.P,U3,43,P1LED1*%
%TO.N,/Ethernet/P1LED1*%
X109512500Y-116429000D03*
%TO.P,U3,44,P1LED0*%
%TO.N,/Ethernet/P1LED0*%
X109512500Y-116937000D03*
%TO.P,U3,45,P2LED1*%
%TO.N,/Ethernet/P2LED1*%
X109512500Y-117419600D03*
%TO.P,U3,46,P2LED0*%
%TO.N,/Ethernet/P2LED0*%
X109512500Y-117927600D03*
%TO.P,U3,47,RSTN*%
%TO.N,/MCU/ETH_RESET*%
X109512500Y-118435600D03*
%TO.P,U3,48,FXSD1*%
%TO.N,unconnected-(U3-Pad48)*%
X109512500Y-118918200D03*
%TD*%
D17*
%TO.P,C16,1*%
%TO.N,+3V3*%
X91900000Y-83362500D03*
%TO.P,C16,2*%
%TO.N,GND*%
X91900000Y-81637500D03*
%TD*%
D10*
%TO.P,R1,1*%
%TO.N,/MCU/B0*%
X86550000Y-105362500D03*
%TO.P,R1,2*%
%TO.N,GND*%
X88375000Y-105362500D03*
%TD*%
D20*
%TO.P,C18,1*%
%TO.N,+3V3*%
X106100000Y-70900000D03*
%TO.P,C18,2*%
%TO.N,GND*%
X107825000Y-70900000D03*
%TD*%
D28*
%TO.P,R4,1*%
%TO.N,+3V3*%
X131600000Y-103375000D03*
%TO.P,R4,2*%
%TO.N,/MCU/~{RESET}*%
X131600000Y-105200000D03*
%TD*%
D29*
%TO.P,SW3,1,1*%
%TO.N,/MCU/~{RESET}*%
X124500000Y-105187500D03*
%TO.P,SW3,2,2*%
%TO.N,GND*%
X124500000Y-101787500D03*
%TD*%
D10*
%TO.P,R16,1*%
%TO.N,Net-(C30-Pad1)*%
X96900000Y-127900000D03*
%TO.P,R16,2*%
%TO.N,/Ethernet/RX1-*%
X98725000Y-127900000D03*
%TD*%
D20*
%TO.P,C50,1*%
%TO.N,Net-(C50-Pad1)*%
X65787500Y-103595000D03*
%TO.P,C50,2*%
%TO.N,GND*%
X67512500Y-103595000D03*
%TD*%
D18*
%TO.P,C52,1*%
%TO.N,GND*%
X81962500Y-64900000D03*
%TO.P,C52,2*%
%TO.N,GNDS*%
X80237500Y-64900000D03*
%TD*%
D20*
%TO.P,C45,1*%
%TO.N,+3V3*%
X65787500Y-108695000D03*
%TO.P,C45,2*%
%TO.N,GND*%
X67512500Y-108695000D03*
%TD*%
D14*
%TO.P,H2,1,1*%
%TO.N,GND*%
X132000000Y-64000000D03*
%TD*%
D30*
%TO.P,FB3,1*%
%TO.N,+3V3*%
X104400000Y-122747500D03*
%TO.P,FB3,2*%
%TO.N,/Ethernet/PHY_3V3A*%
X104400000Y-121177500D03*
%TD*%
D15*
%TO.P,R10,1*%
%TO.N,Net-(J4-Pad11)*%
X88587500Y-150600000D03*
%TO.P,R10,2*%
%TO.N,/Ethernet/P2LED1*%
X86762500Y-150600000D03*
%TD*%
D31*
%TO.P,SW2,1,1*%
%TO.N,/MCU/BOOT0*%
X96275000Y-94450000D03*
%TO.P,SW2,2,2*%
%TO.N,+3V3*%
X92875000Y-94450000D03*
%TD*%
D13*
%TO.P,C40,1*%
%TO.N,/Ethernet/PHY_3V3A*%
X106200000Y-121100000D03*
%TO.P,C40,2*%
%TO.N,GND*%
X106200000Y-122825000D03*
%TD*%
D10*
%TO.P,R5,1*%
%TO.N,+3V3*%
X94125000Y-99050000D03*
%TO.P,R5,2*%
%TO.N,/MCU/PDR_ON*%
X95950000Y-99050000D03*
%TD*%
D18*
%TO.P,C47,1*%
%TO.N,GND*%
X67512500Y-110395000D03*
%TO.P,C47,2*%
%TO.N,+3V3*%
X65787500Y-110395000D03*
%TD*%
D13*
%TO.P,C30,1*%
%TO.N,Net-(C30-Pad1)*%
X96900000Y-129737500D03*
%TO.P,C30,2*%
%TO.N,GND*%
X96900000Y-131462500D03*
%TD*%
D18*
%TO.P,C46,1*%
%TO.N,GND*%
X67512500Y-112095000D03*
%TO.P,C46,2*%
%TO.N,+3V3*%
X65787500Y-112095000D03*
%TD*%
D32*
%TO.P,FB1,1*%
%TO.N,+3V3*%
X127777500Y-94400000D03*
%TO.P,FB1,2*%
%TO.N,/MCU/STM32_VDDA*%
X129347500Y-94400000D03*
%TD*%
D30*
%TO.P,FB5,1*%
%TO.N,/Power/5V*%
X62000000Y-88215000D03*
%TO.P,FB5,2*%
%TO.N,USB_POWER*%
X62000000Y-89785000D03*
%TD*%
D10*
%TO.P,R25,1*%
%TO.N,/Ethernet/MII_LINK_MODE*%
X121887500Y-113079000D03*
%TO.P,R25,2*%
%TO.N,GND*%
X123712500Y-113079000D03*
%TD*%
D33*
%TO.P,J5,1,Pin_1*%
%TO.N,Net-(C51-Pad2)*%
X62450000Y-113945000D03*
%TO.P,J5,2,Pin_2*%
%TO.N,Net-(C51-Pad1)*%
X62450000Y-113245000D03*
%TO.P,J5,3,Pin_3*%
%TO.N,Net-(C49-Pad2)*%
X62450000Y-112545000D03*
%TO.P,J5,4,Pin_4*%
%TO.N,Net-(C49-Pad1)*%
X62450000Y-111845000D03*
%TO.P,J5,5,Pin_5*%
%TO.N,+3V3*%
X62450000Y-111145000D03*
%TO.P,J5,6,Pin_6*%
%TO.N,unconnected-(J5-Pad6)*%
X62450000Y-110445000D03*
%TO.P,J5,7,Pin_7*%
%TO.N,GND*%
X62450000Y-109745000D03*
%TO.P,J5,8,Pin_8*%
%TO.N,+3V3*%
X62450000Y-109045000D03*
%TO.P,J5,9,Pin_9*%
%TO.N,/Display/DISP_RES*%
X62450000Y-108345000D03*
%TO.P,J5,10,Pin_10*%
%TO.N,/Display/DISP_SCL*%
X62450000Y-107645000D03*
%TO.P,J5,11,Pin_11*%
%TO.N,/Display/DISP_SCA*%
X62450000Y-106945000D03*
%TO.P,J5,12,Pin_12*%
%TO.N,Net-(J5-Pad12)*%
X62450000Y-106245000D03*
%TO.P,J5,13,Pin_13*%
%TO.N,Net-(C48-Pad1)*%
X62450000Y-105545000D03*
%TO.P,J5,14,Pin_14*%
%TO.N,Net-(C50-Pad1)*%
X62450000Y-104845000D03*
%TD*%
D34*
%TO.P,J1,1,Pin_1*%
%TO.N,unconnected-(J1-Pad1)*%
X117000000Y-64300000D03*
D35*
%TO.P,J1,2,Pin_2*%
%TO.N,/MCU/UART_TX*%
X114460000Y-64300000D03*
%TO.P,J1,3,Pin_3*%
%TO.N,/MCU/UART_RX*%
X111920000Y-64300000D03*
%TO.P,J1,4,Pin_4*%
%TO.N,GND*%
X109380000Y-64300000D03*
%TD*%
D17*
%TO.P,C4,1*%
%TO.N,/MCU/HSE+*%
X109572500Y-103970000D03*
%TO.P,C4,2*%
%TO.N,GND*%
X109572500Y-102245000D03*
%TD*%
D10*
%TO.P,R18,1*%
%TO.N,Net-(C31-Pad1)*%
X123887500Y-127900000D03*
%TO.P,R18,2*%
%TO.N,/Ethernet/TX2-*%
X125712500Y-127900000D03*
%TD*%
D18*
%TO.P,C42,1*%
%TO.N,/Ethernet/PHY_3V3A*%
X106362500Y-119200000D03*
%TO.P,C42,2*%
%TO.N,GND*%
X104637500Y-119200000D03*
%TD*%
%TO.P,C26,1*%
%TO.N,/MCU/STM32_VDDA*%
X129450000Y-90000000D03*
%TO.P,C26,2*%
%TO.N,/MCU/STM32_VSSA*%
X127725000Y-90000000D03*
%TD*%
D20*
%TO.P,C55,1*%
%TO.N,+3V3*%
X79137500Y-80100000D03*
%TO.P,C55,2*%
%TO.N,GND*%
X80862500Y-80100000D03*
%TD*%
D36*
%TO.P,U5,1,VS*%
%TO.N,/Power/ISO_+24V*%
X48000000Y-76000000D03*
%TO.P,U5,2,0V_2*%
%TO.N,/Power/ISO_GND*%
X48000000Y-78540000D03*
%TO.P,U5,5,0V*%
%TO.N,GND*%
X48000000Y-86160000D03*
%TO.P,U5,6,+VOUT*%
%TO.N,/Power/5V*%
X48000000Y-88700000D03*
%TO.P,U5,7,-VOUT*%
%TO.N,unconnected-(U5-Pad7)*%
X48000000Y-91240000D03*
%TO.P,U5,8,SYNCOUT*%
%TO.N,unconnected-(U5-Pad8)*%
X57245600Y-91240000D03*
%TO.P,U5,14,SYNCIN*%
%TO.N,unconnected-(U5-Pad14)*%
X57245600Y-76000000D03*
%TD*%
D20*
%TO.P,C48,1*%
%TO.N,Net-(C48-Pad1)*%
X65787500Y-105295000D03*
%TO.P,C48,2*%
%TO.N,GND*%
X67512500Y-105295000D03*
%TD*%
%TO.P,C35,1*%
%TO.N,+1V8*%
X97837500Y-108700000D03*
%TO.P,C35,2*%
%TO.N,GND*%
X99562500Y-108700000D03*
%TD*%
D23*
%TO.P,C22,1*%
%TO.N,GND*%
X100500000Y-71100000D03*
%TO.P,C22,2*%
%TO.N,Net-(C22-Pad2)*%
X102575000Y-71100000D03*
%TD*%
D10*
%TO.P,R32,1*%
%TO.N,GND*%
X66887500Y-73300000D03*
%TO.P,R32,2*%
%TO.N,Net-(J7-PadB5)*%
X68712500Y-73300000D03*
%TD*%
D37*
%TO.P,D4,1,LINE1-IN*%
%TO.N,/Ethernet/TX2+*%
X124500000Y-131920000D03*
%TO.P,D4,2,LINE2-IN*%
%TO.N,/Ethernet/TX2-*%
X123900000Y-131920000D03*
%TO.P,D4,3,GND*%
%TO.N,unconnected-(D4-Pad11)*%
X123250000Y-131920000D03*
%TO.P,D4,4,LINE3-IN*%
%TO.N,/Ethernet/RX2+*%
X122600000Y-131920000D03*
%TO.P,D4,5,LINE4-IN*%
%TO.N,/Ethernet/RX2-*%
X122000000Y-131920000D03*
%TO.P,D4,6,LINE4-OUT*%
X122000000Y-133900000D03*
%TO.P,D4,7,LINE3-OUT*%
%TO.N,/Ethernet/RX2+*%
X122600000Y-133900000D03*
%TO.P,D4,8,GND*%
%TO.N,unconnected-(D4-Pad11)*%
X123250000Y-133900000D03*
%TO.P,D4,9,LINE2-OUT*%
%TO.N,/Ethernet/TX2-*%
X123900000Y-133900000D03*
%TO.P,D4,10,LINE1-OUT*%
%TO.N,/Ethernet/TX2+*%
X124500000Y-133900000D03*
D38*
%TO.P,D4,11,GND*%
%TO.N,unconnected-(D4-Pad11)*%
X124200000Y-132910000D03*
%TO.P,D4,12,GND*%
X123250000Y-132910000D03*
%TO.P,D4,13,GND*%
X122300000Y-132910000D03*
%TD*%
D15*
%TO.P,R9,1*%
%TO.N,Net-(J4-Pad9)*%
X88612500Y-152300000D03*
%TO.P,R9,2*%
%TO.N,/Ethernet/P2LED0*%
X86787500Y-152300000D03*
%TD*%
%TO.P,R28,1*%
%TO.N,+3V3*%
X67562500Y-101895000D03*
%TO.P,R28,2*%
%TO.N,/Display/DISP_SCA*%
X65737500Y-101895000D03*
%TD*%
D10*
%TO.P,R20,1*%
%TO.N,Net-(C32-Pad1)*%
X116887500Y-127900000D03*
%TO.P,R20,2*%
%TO.N,/Ethernet/RX2-*%
X118712500Y-127900000D03*
%TD*%
D30*
%TO.P,FB2,1*%
%TO.N,GNDREF*%
X133000000Y-141570000D03*
%TO.P,FB2,2*%
%TO.N,GND*%
X133000000Y-140000000D03*
%TD*%
D13*
%TO.P,C32,1*%
%TO.N,Net-(C32-Pad1)*%
X116900000Y-129737500D03*
%TO.P,C32,2*%
%TO.N,GND*%
X116900000Y-131462500D03*
%TD*%
D20*
%TO.P,C36,1*%
%TO.N,+3V3*%
X121937500Y-114800000D03*
%TO.P,C36,2*%
%TO.N,GND*%
X123662500Y-114800000D03*
%TD*%
D10*
%TO.P,R15,1*%
%TO.N,/Ethernet/RX1+*%
X100400000Y-127900000D03*
%TO.P,R15,2*%
%TO.N,Net-(C30-Pad1)*%
X102225000Y-127900000D03*
%TD*%
D18*
%TO.P,C49,1*%
%TO.N,Net-(C49-Pad1)*%
X67512500Y-113795000D03*
%TO.P,C49,2*%
%TO.N,Net-(C49-Pad2)*%
X65787500Y-113795000D03*
%TD*%
D20*
%TO.P,C24,1*%
%TO.N,+3V3*%
X127700000Y-96100000D03*
%TO.P,C24,2*%
%TO.N,GND*%
X129425000Y-96100000D03*
%TD*%
D15*
%TO.P,R31,1*%
%TO.N,Net-(J7-PadA5)*%
X68712500Y-75000000D03*
%TO.P,R31,2*%
%TO.N,GND*%
X66887500Y-75000000D03*
%TD*%
D39*
%TO.P,D1,1,K*%
%TO.N,/MCU/LD1*%
X86850000Y-87500000D03*
%TO.P,D1,2,A*%
%TO.N,Net-(D1-Pad2)*%
X85100000Y-87500000D03*
%TD*%
D18*
%TO.P,C27,1*%
%TO.N,GND*%
X132762500Y-135800000D03*
%TO.P,C27,2*%
%TO.N,+3V3*%
X131037500Y-135800000D03*
%TD*%
D15*
%TO.P,R30,1*%
%TO.N,GND*%
X82012500Y-63200000D03*
%TO.P,R30,2*%
%TO.N,GNDS*%
X80187500Y-63200000D03*
%TD*%
D10*
%TO.P,R11,1*%
%TO.N,+3V3*%
X97687500Y-115800000D03*
%TO.P,R11,2*%
%TO.N,/Ethernet/P1LED0*%
X99512500Y-115800000D03*
%TD*%
D17*
%TO.P,C6,1*%
%TO.N,/MCU/LSE+*%
X95348750Y-103983750D03*
%TO.P,C6,2*%
%TO.N,GND*%
X95348750Y-102258750D03*
%TD*%
D14*
%TO.P,H1,1,1*%
%TO.N,GND*%
X40000000Y-64000000D03*
%TD*%
D13*
%TO.P,C7,1*%
%TO.N,/MCU/LSE-*%
X103548750Y-102358750D03*
%TO.P,C7,2*%
%TO.N,GND*%
X103548750Y-104083750D03*
%TD*%
D32*
%TO.P,FB4,1*%
%TO.N,+1V8*%
X97915000Y-110500000D03*
%TO.P,FB4,2*%
%TO.N,/Ethernet/PHY_1V8A*%
X99485000Y-110500000D03*
%TD*%
D18*
%TO.P,C38,1*%
%TO.N,+3V3*%
X106362500Y-112300000D03*
%TO.P,C38,2*%
%TO.N,GND*%
X104637500Y-112300000D03*
%TD*%
D13*
%TO.P,C2,1*%
%TO.N,+3V3*%
X126200000Y-85337500D03*
%TO.P,C2,2*%
%TO.N,GND*%
X126200000Y-87062500D03*
%TD*%
D40*
%TO.P,U7,1,1*%
%TO.N,unconnected-(U7-Pad1)*%
X58397180Y-68242913D03*
%TO.P,U7,2,2*%
%TO.N,/Power/ISO_+24V*%
X54897181Y-68242913D03*
%TO.P,U7,3,3*%
%TO.N,/Power/ISO_GND*%
X51397180Y-68242913D03*
%TD*%
D18*
%TO.P,C51,1*%
%TO.N,Net-(C51-Pad1)*%
X67512500Y-115495000D03*
%TO.P,C51,2*%
%TO.N,Net-(C51-Pad2)*%
X65787500Y-115495000D03*
%TD*%
D15*
%TO.P,R6,1*%
%TO.N,/MCU/PDR_ON*%
X95950000Y-97350000D03*
%TO.P,R6,2*%
%TO.N,GND*%
X94125000Y-97350000D03*
%TD*%
D20*
%TO.P,C14,1*%
%TO.N,+3V3*%
X123737500Y-75000000D03*
%TO.P,C14,2*%
%TO.N,GND*%
X125462500Y-75000000D03*
%TD*%
D14*
%TO.P,H3,1,1*%
%TO.N,GND*%
X39725000Y-156000000D03*
%TD*%
D17*
%TO.P,C34,1*%
%TO.N,+3V3*%
X102600000Y-122825000D03*
%TO.P,C34,2*%
%TO.N,GND*%
X102600000Y-121100000D03*
%TD*%
D41*
%TO.P,C23,1*%
%TO.N,GND*%
X125837500Y-76960000D03*
%TO.P,C23,2*%
%TO.N,Net-(C23-Pad2)*%
X123762500Y-76960000D03*
%TD*%
D20*
%TO.P,C17,1*%
%TO.N,+3V3*%
X98050000Y-98300000D03*
%TO.P,C17,2*%
%TO.N,GND*%
X99775000Y-98300000D03*
%TD*%
D13*
%TO.P,C31,1*%
%TO.N,Net-(C31-Pad1)*%
X129200000Y-129737500D03*
%TO.P,C31,2*%
%TO.N,GND*%
X129200000Y-131462500D03*
%TD*%
D37*
%TO.P,D3,1,LINE1-IN*%
%TO.N,/Ethernet/TX1+*%
X104200000Y-131820000D03*
%TO.P,D3,2,LINE2-IN*%
%TO.N,/Ethernet/TX1-*%
X103600000Y-131820000D03*
%TO.P,D3,3,GND*%
%TO.N,unconnected-(D3-Pad11)*%
X102950000Y-131820000D03*
%TO.P,D3,4,LINE3-IN*%
%TO.N,/Ethernet/RX1+*%
X102300000Y-131820000D03*
%TO.P,D3,5,LINE4-IN*%
%TO.N,/Ethernet/RX1-*%
X101700000Y-131820000D03*
%TO.P,D3,6,LINE4-OUT*%
X101700000Y-133800000D03*
%TO.P,D3,7,LINE3-OUT*%
%TO.N,/Ethernet/RX1+*%
X102300000Y-133800000D03*
%TO.P,D3,8,GND*%
%TO.N,unconnected-(D3-Pad11)*%
X102950000Y-133800000D03*
%TO.P,D3,9,LINE2-OUT*%
%TO.N,/Ethernet/TX1-*%
X103600000Y-133800000D03*
%TO.P,D3,10,LINE1-OUT*%
%TO.N,/Ethernet/TX1+*%
X104200000Y-133800000D03*
D38*
%TO.P,D3,11,GND*%
%TO.N,unconnected-(D3-Pad11)*%
X103900000Y-132810000D03*
%TO.P,D3,12,GND*%
X102950000Y-132810000D03*
%TO.P,D3,13,GND*%
X102000000Y-132810000D03*
%TD*%
D15*
%TO.P,R27,1*%
%TO.N,GND*%
X67562500Y-106995000D03*
%TO.P,R27,2*%
%TO.N,Net-(J5-Pad12)*%
X65737500Y-106995000D03*
%TD*%
%TO.P,R33,1*%
%TO.N,/MCU/USB_D+*%
X90612500Y-72300000D03*
%TO.P,R33,2*%
%TO.N,/USB/USBDM-*%
X88787500Y-72300000D03*
%TD*%
%TO.P,R21,1*%
%TO.N,+3V3*%
X123712500Y-117300000D03*
%TO.P,R21,2*%
%TO.N,/MCU/ETH_RESET*%
X121887500Y-117300000D03*
%TD*%
%TO.P,R2,1*%
%TO.N,+3V3*%
X86912500Y-85800000D03*
%TO.P,R2,2*%
%TO.N,Net-(D1-Pad2)*%
X85087500Y-85800000D03*
%TD*%
D34*
%TO.P,J6,1,Pin_1*%
%TO.N,GND*%
X74950000Y-112895000D03*
D35*
%TO.P,J6,2,Pin_2*%
%TO.N,/Display/DISP_SCA*%
X74950000Y-110355000D03*
%TO.P,J6,3,Pin_3*%
%TO.N,/Display/DISP_SCL*%
X74950000Y-107815000D03*
%TO.P,J6,4,Pin_4*%
%TO.N,+3V3*%
X74950000Y-105275000D03*
%TD*%
D42*
%TO.P,JP1,1,A*%
%TO.N,GND*%
X129287500Y-92200000D03*
D43*
%TO.P,JP1,2,B*%
%TO.N,/MCU/STM32_VSSA*%
X127837500Y-92200000D03*
%TD*%
D20*
%TO.P,C28,1*%
%TO.N,GND*%
X93537500Y-136300000D03*
%TO.P,C28,2*%
%TO.N,+3V3*%
X95262500Y-136300000D03*
%TD*%
%TO.P,C54,1*%
%TO.N,+3V3*%
X79137500Y-81900000D03*
%TO.P,C54,2*%
%TO.N,GND*%
X80862500Y-81900000D03*
%TD*%
D44*
%TO.P,J7,A1,GND*%
%TO.N,GND*%
X75900000Y-67310000D03*
%TO.P,J7,A4,VBUS*%
%TO.N,USB_POWER*%
X75100000Y-67310000D03*
D45*
%TO.P,J7,A5,CC1*%
%TO.N,Net-(J7-PadA5)*%
X73950000Y-67310000D03*
%TO.P,J7,A6,D+*%
%TO.N,/USB/USBDM+*%
X72950000Y-67310000D03*
%TO.P,J7,A7,D-*%
%TO.N,/USB/USBDM-*%
X72450000Y-67310000D03*
%TO.P,J7,A8,SBU1*%
%TO.N,unconnected-(J7-PadA8)*%
X71450000Y-67310000D03*
D44*
%TO.P,J7,A9,VBUS*%
%TO.N,USB_POWER*%
X70300000Y-67310000D03*
%TO.P,J7,A12,GND*%
%TO.N,GND*%
X69500000Y-67310000D03*
%TO.P,J7,B1,GND*%
X69500000Y-67310000D03*
%TO.P,J7,B4,VBUS*%
%TO.N,USB_POWER*%
X70300000Y-67310000D03*
D45*
%TO.P,J7,B5,CC2*%
%TO.N,Net-(J7-PadB5)*%
X70950000Y-67310000D03*
%TO.P,J7,B6,D+*%
%TO.N,/USB/USBDM+*%
X71950000Y-67310000D03*
%TO.P,J7,B7,D-*%
%TO.N,/USB/USBDM-*%
X73450000Y-67310000D03*
%TO.P,J7,B8,SBU2*%
%TO.N,unconnected-(J7-PadB8)*%
X74450000Y-67310000D03*
D44*
%TO.P,J7,B9,VBUS*%
%TO.N,USB_POWER*%
X75100000Y-67310000D03*
%TO.P,J7,B12,GND*%
%TO.N,GND*%
X75900000Y-67310000D03*
D46*
%TO.P,J7,S1,SHIELD*%
%TO.N,GNDS*%
X77020000Y-66730000D03*
D47*
X77020000Y-62560000D03*
D46*
X68380000Y-66730000D03*
D47*
X68380000Y-62560000D03*
%TD*%
D13*
%TO.P,C5,1*%
%TO.N,/MCU/HSE-*%
X118072500Y-102462500D03*
%TO.P,C5,2*%
%TO.N,GND*%
X118072500Y-104187500D03*
%TD*%
D48*
%TO.P,D5,1,K*%
%TO.N,+3V3*%
X125150000Y-121300000D03*
%TO.P,D5,2,A*%
%TO.N,/MCU/ETH_RESET*%
X121850000Y-121300000D03*
%TD*%
D49*
%TO.P,C19,1*%
%TO.N,+3V3*%
X129450000Y-80512500D03*
%TO.P,C19,2*%
%TO.N,GND*%
X129450000Y-82587500D03*
%TD*%
D50*
%TO.P,Y2,1,1*%
%TO.N,/MCU/LSE+*%
X98168750Y-104361250D03*
%TO.P,Y2,2,2*%
%TO.N,GND*%
X101068750Y-104361250D03*
%TO.P,Y2,3,3*%
%TO.N,/MCU/LSE-*%
X101068750Y-102061250D03*
%TO.P,Y2,4,4*%
%TO.N,GND*%
X98168750Y-102061250D03*
%TD*%
D20*
%TO.P,C10,1*%
%TO.N,+3V3*%
X96037500Y-71200000D03*
%TO.P,C10,2*%
%TO.N,GND*%
X97762500Y-71200000D03*
%TD*%
D18*
%TO.P,C43,1*%
%TO.N,/Ethernet/PHY_1V8A*%
X106362500Y-115800000D03*
%TO.P,C43,2*%
%TO.N,GND*%
X104637500Y-115800000D03*
%TD*%
D10*
%TO.P,R12,1*%
%TO.N,+3V3*%
X97687500Y-117500000D03*
%TO.P,R12,2*%
%TO.N,/Ethernet/P2LED1*%
X99512500Y-117500000D03*
%TD*%
%TO.P,R22,1*%
%TO.N,+3V3*%
X97687500Y-114100000D03*
%TO.P,R22,2*%
%TO.N,/Ethernet/P1LED1*%
X99512500Y-114100000D03*
%TD*%
D50*
%TO.P,Y1,1,1*%
%TO.N,/MCU/HSE+*%
X112352500Y-104257500D03*
%TO.P,Y1,2,2*%
%TO.N,GND*%
X115252500Y-104257500D03*
%TO.P,Y1,3,3*%
%TO.N,/MCU/HSE-*%
X115252500Y-101957500D03*
%TO.P,Y1,4,4*%
%TO.N,GND*%
X112352500Y-101957500D03*
%TD*%
D13*
%TO.P,C29,1*%
%TO.N,Net-(C29-Pad1)*%
X109200000Y-129837500D03*
%TO.P,C29,2*%
%TO.N,GND*%
X109200000Y-131562500D03*
%TD*%
D19*
%TO.P,D2,1,K*%
%TO.N,+3V3*%
X127600000Y-101937500D03*
%TO.P,D2,2,A*%
%TO.N,/MCU/~{RESET}*%
X127600000Y-105237500D03*
%TD*%
D31*
%TO.P,SW1,1,1*%
%TO.N,/MCU/B0*%
X86492500Y-102192500D03*
%TO.P,SW1,2,2*%
%TO.N,+3V3*%
X89892500Y-102192500D03*
%TD*%
D13*
%TO.P,C44,1*%
%TO.N,/Display/DISP_RES*%
X70300000Y-118345000D03*
%TO.P,C44,2*%
%TO.N,GND*%
X70300000Y-120070000D03*
%TD*%
D20*
%TO.P,C37,1*%
%TO.N,+1V8*%
X112950000Y-109180000D03*
%TO.P,C37,2*%
%TO.N,GND*%
X114675000Y-109180000D03*
%TD*%
D15*
%TO.P,R8,1*%
%TO.N,Net-(J3-Pad11)*%
X88600000Y-147200000D03*
%TO.P,R8,2*%
%TO.N,/Ethernet/P1LED1*%
X86775000Y-147200000D03*
%TD*%
D18*
%TO.P,C39,1*%
%TO.N,+1V8*%
X106362500Y-114050000D03*
%TO.P,C39,2*%
%TO.N,GND*%
X104637500Y-114050000D03*
%TD*%
D15*
%TO.P,R3,1*%
%TO.N,/MCU/BOOT0*%
X96287500Y-91650000D03*
%TO.P,R3,2*%
%TO.N,GND*%
X94462500Y-91650000D03*
%TD*%
D34*
%TO.P,J2,1,Pin_1*%
%TO.N,+3V3*%
X104075000Y-64300000D03*
D35*
%TO.P,J2,2,Pin_2*%
%TO.N,/MCU/JTAG_SWDIO*%
X101535000Y-64300000D03*
%TO.P,J2,3,Pin_3*%
%TO.N,/MCU/JTAG_SWCLK*%
X98995000Y-64300000D03*
%TO.P,J2,4,Pin_4*%
%TO.N,GND*%
X96455000Y-64300000D03*
%TO.P,J2,5,Pin_5*%
%TO.N,/MCU/JTAG_SWO*%
X93915000Y-64300000D03*
%TD*%
D51*
%TO.P,J3,1*%
%TO.N,/Ethernet/TX1+*%
X107170000Y-143400000D03*
D52*
%TO.P,J3,2*%
%TO.N,/Ethernet/TX1-*%
X105900000Y-140860000D03*
%TO.P,J3,3*%
%TO.N,+3V3*%
X104630000Y-143400000D03*
%TO.P,J3,4*%
%TO.N,unconnected-(J3-Pad4)*%
X103360000Y-140860000D03*
%TO.P,J3,5*%
%TO.N,unconnected-(J3-Pad5)*%
X102090000Y-143400000D03*
%TO.P,J3,6*%
%TO.N,+3V3*%
X100820000Y-140860000D03*
%TO.P,J3,7*%
%TO.N,/Ethernet/RX1+*%
X99550000Y-143400000D03*
%TO.P,J3,8*%
%TO.N,/Ethernet/RX1-*%
X98280000Y-140860000D03*
%TO.P,J3,9*%
%TO.N,Net-(J3-Pad9)*%
X109050000Y-154830000D03*
%TO.P,J3,10*%
%TO.N,GND*%
X106510000Y-153130000D03*
%TO.P,J3,11*%
%TO.N,Net-(J3-Pad11)*%
X98940000Y-154830000D03*
%TO.P,J3,12*%
%TO.N,GND*%
X96400000Y-153130000D03*
D53*
%TO.P,J3,13*%
%TO.N,GNDREF*%
X94850000Y-146700000D03*
X110600000Y-146700000D03*
%TD*%
D51*
%TO.P,J4,1*%
%TO.N,/Ethernet/TX2+*%
X127630000Y-143450000D03*
D52*
%TO.P,J4,2*%
%TO.N,/Ethernet/TX2-*%
X126360000Y-140910000D03*
%TO.P,J4,3*%
%TO.N,+3V3*%
X125090000Y-143450000D03*
%TO.P,J4,4*%
%TO.N,unconnected-(J4-Pad4)*%
X123820000Y-140910000D03*
%TO.P,J4,5*%
%TO.N,unconnected-(J4-Pad5)*%
X122550000Y-143450000D03*
%TO.P,J4,6*%
%TO.N,+3V3*%
X121280000Y-140910000D03*
%TO.P,J4,7*%
%TO.N,/Ethernet/RX2+*%
X120010000Y-143450000D03*
%TO.P,J4,8*%
%TO.N,/Ethernet/RX2-*%
X118740000Y-140910000D03*
%TO.P,J4,9*%
%TO.N,Net-(J4-Pad9)*%
X129510000Y-154880000D03*
%TO.P,J4,10*%
%TO.N,GND*%
X126970000Y-153180000D03*
%TO.P,J4,11*%
%TO.N,Net-(J4-Pad11)*%
X119400000Y-154880000D03*
%TO.P,J4,12*%
%TO.N,GND*%
X116860000Y-153180000D03*
D53*
%TO.P,J4,13*%
%TO.N,GNDREF*%
X115310000Y-146750000D03*
X131060000Y-146750000D03*
%TD*%
D54*
%TO.N,GND*%
X94950000Y-79650000D03*
%TO.N,+3V3*%
X94950000Y-84900000D03*
D55*
%TO.N,/MCU/SPI_NSS*%
X116900000Y-90800000D03*
D54*
%TO.N,+3V3*%
X120322400Y-114422400D03*
X124200000Y-85600000D03*
X115425000Y-94500000D03*
X127600000Y-100487500D03*
X96000000Y-115800000D03*
X121100000Y-75100000D03*
X101200000Y-122700000D03*
X88400000Y-85800000D03*
X124400000Y-80700000D03*
X106600000Y-73000000D03*
X126400000Y-121300000D03*
X100200000Y-73100000D03*
X96000000Y-117500000D03*
X73790000Y-76110000D03*
X98325000Y-95225000D03*
X66200000Y-122707500D03*
X79130000Y-83410000D03*
X96000000Y-114100000D03*
X91562500Y-102162500D03*
X109700000Y-94400000D03*
X68950000Y-100295000D03*
X79130000Y-78620000D03*
X125300000Y-117300000D03*
X112900000Y-72600000D03*
X73800000Y-82430000D03*
X100800000Y-93800000D03*
X64500000Y-107900000D03*
X72750000Y-105295000D03*
X90775000Y-94450000D03*
X107700000Y-112300000D03*
X95300000Y-138300000D03*
X102950000Y-97525000D03*
X68950000Y-101895000D03*
X131350000Y-79200000D03*
X130900000Y-137700000D03*
X118700000Y-92900000D03*
X92600000Y-99050000D03*
X127650000Y-97650000D03*
X116700000Y-94325000D03*
X131600000Y-101987500D03*
X100800000Y-88100000D03*
%TO.N,GND*%
X133900000Y-138600000D03*
X69050000Y-112195000D03*
X109600000Y-100925000D03*
X102900000Y-119200000D03*
X102800000Y-112300000D03*
X55540000Y-86160000D03*
X111200000Y-115200000D03*
X132800000Y-137400000D03*
X105148750Y-104021250D03*
X125300000Y-119100000D03*
X122662500Y-115800000D03*
X130662500Y-92100000D03*
X96200000Y-112200000D03*
X115250000Y-105973500D03*
X124300000Y-87000000D03*
X88660000Y-145620000D03*
X60340000Y-86160000D03*
X95900000Y-119200000D03*
X69050000Y-110395000D03*
X129800000Y-101787500D03*
X80870000Y-78680000D03*
X102800000Y-114000000D03*
X118600000Y-131400000D03*
X107900000Y-122800000D03*
X70300000Y-122007500D03*
X58040000Y-86160000D03*
X107400000Y-131500000D03*
X68950000Y-106995000D03*
X98600000Y-131400000D03*
X86510000Y-73170000D03*
X68950000Y-105295000D03*
X106975000Y-66625000D03*
X44800000Y-86100000D03*
X93848750Y-102221250D03*
X131300000Y-83650000D03*
X100500000Y-69100000D03*
X108450000Y-94350000D03*
X62600000Y-86200000D03*
X65300000Y-73300000D03*
X116300000Y-114900000D03*
X80850000Y-83510000D03*
X102800000Y-117500000D03*
X124400000Y-82000000D03*
X107900000Y-91500000D03*
X68000000Y-81700000D03*
X107863500Y-72800000D03*
X114500000Y-72700000D03*
X112050000Y-100050000D03*
X83600000Y-64900000D03*
X124500000Y-100387500D03*
X114670000Y-107850000D03*
X127400000Y-131400000D03*
X76000000Y-68900000D03*
X83600000Y-63200000D03*
X99600000Y-107500000D03*
X69050000Y-108695000D03*
X76100000Y-79900000D03*
X112100000Y-94200000D03*
X53140000Y-86160000D03*
X130762500Y-96100000D03*
X64150000Y-110493500D03*
X65300000Y-75000000D03*
X94475000Y-89950000D03*
X125825000Y-78575000D03*
X72450000Y-112895000D03*
X69300000Y-68900000D03*
X118900000Y-94000000D03*
X115400000Y-118900000D03*
X50540000Y-86160000D03*
X113700000Y-113600000D03*
X68950000Y-103595000D03*
X88362500Y-106662500D03*
X93600000Y-137900000D03*
X102800000Y-115800000D03*
X92550000Y-97350000D03*
X100700000Y-87000000D03*
%TO.N,/MCU/~{RESET}*%
X116125000Y-92625000D03*
X124525000Y-106700000D03*
%TO.N,/MCU/STM32_VDDA*%
X124153937Y-97555062D03*
D55*
X116875003Y-97499195D03*
D54*
%TO.N,/MCU/STM32_VSSA*%
X123900000Y-96600000D03*
D55*
X116175267Y-97208161D03*
D54*
%TO.N,Net-(C29-Pad1)*%
X103900000Y-126400000D03*
X109200000Y-126400000D03*
%TO.N,Net-(C30-Pad1)*%
X102700000Y-126300000D03*
X96900000Y-126400000D03*
%TO.N,Net-(C31-Pad1)*%
X129200000Y-126200000D03*
X123400000Y-126200000D03*
%TO.N,Net-(C32-Pad1)*%
X116400000Y-126300000D03*
X121800000Y-126200000D03*
D55*
%TO.N,/MCU/ETH_RESET*%
X120475000Y-117325000D03*
X122425000Y-72550000D03*
D54*
X114609000Y-118100000D03*
X111100000Y-118400000D03*
%TO.N,+1V8*%
X100700000Y-109800000D03*
X105600000Y-113300000D03*
%TO.N,/Ethernet/PHY_3V3A*%
X107800000Y-119200000D03*
X112289319Y-118910681D03*
%TO.N,/Ethernet/PHY_1V8A*%
X113200000Y-116800000D03*
X107500000Y-116100500D03*
X101000000Y-112300000D03*
%TO.N,USB_POWER*%
X77280000Y-73130000D03*
X75073721Y-68920358D03*
D55*
%TO.N,/MCU/LD1*%
X94350000Y-87425000D03*
X103825000Y-93825000D03*
D54*
%TO.N,/MCU/JTAG_SWCLK*%
X99225000Y-67925000D03*
X97175000Y-74725000D03*
%TO.N,/MCU/JTAG_SWO*%
X93100000Y-75600000D03*
D56*
%TO.N,Net-(J7-PadA5)*%
X67000000Y-65500000D03*
X73430000Y-65810000D03*
%TO.N,Net-(J7-PadB5)*%
X68750000Y-70630000D03*
X70970000Y-70600000D03*
D55*
%TO.N,/MCU/B0*%
X97900000Y-99700000D03*
X104650000Y-99675000D03*
D54*
%TO.N,/Ethernet/P1LED0*%
X85300000Y-135800000D03*
X101200000Y-115900000D03*
X111100000Y-116800000D03*
X87352000Y-123448000D03*
%TO.N,/Ethernet/P1LED1*%
X86700000Y-132300000D03*
X86700000Y-128700000D03*
%TO.N,/Ethernet/ISET*%
X107800000Y-117500000D03*
X112400000Y-117500000D03*
D55*
%TO.N,/MCU/ETH_TXD2*%
X116550000Y-115775000D03*
X115625000Y-98400000D03*
%TO.N,/MCU/ETH_TX_CLK*%
X117375000Y-97925000D03*
X121450000Y-106125000D03*
%TO.N,/MCU/ETH_RX_CLK*%
X120900000Y-100050000D03*
X117950000Y-97100000D03*
%TO.N,/MCU/SPI_NSS*%
X107075000Y-103975000D03*
%TO.N,/MCU/SPI_SCK*%
X107375000Y-103225000D03*
X117700000Y-90400000D03*
%TO.N,/MCU/SPI_MISO*%
X106800000Y-102775000D03*
X117100000Y-89900000D03*
%TO.N,/MCU/ETH_RX_DV*%
X121850000Y-91500000D03*
X121875000Y-105500000D03*
%TO.N,/MCU/ETH_TX_EN*%
X120037500Y-116662500D03*
X122900000Y-78125000D03*
%TO.N,/MCU/ETH_TXD0*%
X119175000Y-115475000D03*
X121750000Y-73500000D03*
%TO.N,/MCU/ETH_TXD1*%
X121725000Y-72850000D03*
X119325000Y-116150000D03*
D54*
%TO.N,/MCU/MCO_25MHz*%
X119550000Y-118375000D03*
X105425000Y-76475000D03*
D55*
%TO.N,/MCU/ETH_INT*%
X111375000Y-109875000D03*
X102275000Y-84000000D03*
%TO.N,/MCU/SPI_MOSI*%
X102600000Y-89625000D03*
X106100000Y-98200000D03*
%TO.N,/MCU/ETH_TXD3*%
X115500000Y-116050000D03*
X102500000Y-91450000D03*
%TD*%
D57*
%TO.N,GND*%
X95000000Y-79700000D02*
X94950000Y-79650000D01*
X95000000Y-81262500D02*
X95000000Y-79700000D01*
%TO.N,+3V3*%
X95000000Y-84850000D02*
X94950000Y-84900000D01*
X95000000Y-83337500D02*
X95000000Y-84850000D01*
X120700000Y-114800000D02*
X120322400Y-114422400D01*
X106362500Y-112300000D02*
X107700000Y-112300000D01*
X106600000Y-71400000D02*
X106100000Y-70900000D01*
X98432742Y-73100000D02*
X97832742Y-72500000D01*
X67762500Y-120857500D02*
X68500000Y-120120000D01*
X130037500Y-80512500D02*
X131350000Y-79200000D01*
D58*
X79137500Y-78627500D02*
X79130000Y-78620000D01*
D57*
X130900000Y-135937500D02*
X131037500Y-135800000D01*
X126200000Y-80600000D02*
X129362500Y-80600000D01*
X107440000Y-73840000D02*
X106600000Y-73000000D01*
X124500000Y-80600000D02*
X124400000Y-80700000D01*
X102600000Y-122825000D02*
X104322500Y-122825000D01*
X64245000Y-111145000D02*
X62450000Y-111145000D01*
X125150000Y-121300000D02*
X126400000Y-121300000D01*
X129450000Y-80512500D02*
X130037500Y-80512500D01*
X107700000Y-114079100D02*
X107700000Y-112300000D01*
X120352500Y-81480000D02*
X123620000Y-81480000D01*
X66200000Y-120857500D02*
X66200000Y-122707500D01*
X102047448Y-93800000D02*
X100800000Y-93800000D01*
X99027500Y-93980000D02*
X99027500Y-94522500D01*
X115440000Y-95892500D02*
X115440000Y-94515000D01*
X116440000Y-95892500D02*
X116440000Y-94585000D01*
X95857500Y-82480000D02*
X95000000Y-83337500D01*
D58*
X73800000Y-84350000D02*
X73800000Y-82430000D01*
D57*
X100180000Y-87480000D02*
X100800000Y-88100000D01*
X126200000Y-80600000D02*
X124500000Y-80600000D01*
X66200000Y-120857500D02*
X67762500Y-120857500D01*
D58*
X79137500Y-80100000D02*
X79137500Y-78627500D01*
D57*
X112900000Y-71300000D02*
X112900000Y-72600000D01*
X129362500Y-80600000D02*
X129450000Y-80512500D01*
X120352500Y-75847500D02*
X121100000Y-75100000D01*
X72770000Y-105275000D02*
X72750000Y-105295000D01*
X99027500Y-82480000D02*
X95857500Y-82480000D01*
D58*
X79137500Y-81900000D02*
X79137500Y-83402500D01*
D57*
X115440000Y-94515000D02*
X115425000Y-94500000D01*
X86912500Y-85800000D02*
X88400000Y-85800000D01*
X95300000Y-138300000D02*
X95300000Y-136337500D01*
X101325000Y-122825000D02*
X101200000Y-122700000D01*
X96000000Y-72500000D02*
X96000000Y-71237500D01*
X104322500Y-122825000D02*
X104400000Y-122747500D01*
X108940000Y-95160000D02*
X109700000Y-94400000D01*
X103440000Y-95892500D02*
X103440000Y-95192552D01*
X108940000Y-95892500D02*
X108940000Y-95160000D01*
X67575000Y-100295000D02*
X68950000Y-100295000D01*
X96000000Y-71237500D02*
X96037500Y-71200000D01*
X89892500Y-102192500D02*
X91532500Y-102192500D01*
X98325000Y-98025000D02*
X98050000Y-98300000D01*
X65787500Y-108695000D02*
X65787500Y-110395000D01*
X102600000Y-122825000D02*
X101325000Y-122825000D01*
X103440000Y-97035000D02*
X102950000Y-97525000D01*
X97832742Y-72500000D02*
X96000000Y-72500000D01*
X99027500Y-94522500D02*
X98325000Y-95225000D01*
X98325000Y-95225000D02*
X98325000Y-98025000D01*
X130900000Y-137700000D02*
X130900000Y-135937500D01*
X120352500Y-76480000D02*
X120352500Y-75847500D01*
X109512500Y-114930400D02*
X108551300Y-114930400D01*
X118780000Y-92980000D02*
X118700000Y-92900000D01*
X92875000Y-94450000D02*
X90775000Y-94450000D01*
X112900000Y-69950000D02*
X113550000Y-69300000D01*
X100200000Y-73100000D02*
X98432742Y-73100000D01*
X99027500Y-87480000D02*
X100180000Y-87480000D01*
X123620000Y-81480000D02*
X124400000Y-80700000D01*
X103440000Y-95192552D02*
X102047448Y-93800000D01*
X65295000Y-108695000D02*
X64500000Y-107900000D01*
X123737500Y-75000000D02*
X121200000Y-75000000D01*
X100940000Y-74567500D02*
X100940000Y-73840000D01*
X65787500Y-108695000D02*
X65295000Y-108695000D01*
X65787500Y-112095000D02*
X65292500Y-111600000D01*
X91900000Y-83362500D02*
X94975000Y-83362500D01*
X120352500Y-92980000D02*
X118780000Y-92980000D01*
X94975000Y-83362500D02*
X95000000Y-83337500D01*
X100940000Y-73840000D02*
X100200000Y-73100000D01*
X121937500Y-114800000D02*
X120700000Y-114800000D01*
X127600000Y-101937500D02*
X127600000Y-100487500D01*
X131600000Y-103375000D02*
X131600000Y-101987500D01*
X74950000Y-105275000D02*
X72770000Y-105275000D01*
X65787500Y-110395000D02*
X64437500Y-109045000D01*
X97687500Y-115800000D02*
X96000000Y-115800000D01*
X67562500Y-100307500D02*
X67575000Y-100295000D01*
X112940000Y-72640000D02*
X112900000Y-72600000D01*
X106600000Y-73000000D02*
X106600000Y-71400000D01*
X97687500Y-117500000D02*
X96000000Y-117500000D01*
X64700000Y-111600000D02*
X64245000Y-111145000D01*
X120322400Y-114422400D02*
X117894500Y-114422400D01*
D58*
X73800000Y-76120000D02*
X73790000Y-76110000D01*
D57*
X127700000Y-96100000D02*
X127700000Y-97600000D01*
X108551300Y-114930400D02*
X107700000Y-114079100D01*
X127700000Y-94477500D02*
X127777500Y-94400000D01*
X91532500Y-102192500D02*
X91562500Y-102162500D01*
X94125000Y-99050000D02*
X92600000Y-99050000D01*
X126200000Y-85337500D02*
X124462500Y-85337500D01*
X127700000Y-97600000D02*
X127650000Y-97650000D01*
X97687500Y-114100000D02*
X96000000Y-114100000D01*
X99027500Y-93980000D02*
X100620000Y-93980000D01*
X67562500Y-101895000D02*
X68950000Y-101895000D01*
X112900000Y-71300000D02*
X112900000Y-69950000D01*
X124462500Y-85337500D02*
X124200000Y-85600000D01*
X116440000Y-94585000D02*
X116700000Y-94325000D01*
X123320000Y-86480000D02*
X124200000Y-85600000D01*
X65787500Y-112095000D02*
X65787500Y-110395000D01*
X127700000Y-96100000D02*
X127700000Y-94477500D01*
X95300000Y-136337500D02*
X95262500Y-136300000D01*
X103440000Y-95892500D02*
X103440000Y-97035000D01*
X64437500Y-109045000D02*
X62450000Y-109045000D01*
D58*
X79137500Y-83402500D02*
X79130000Y-83410000D01*
D57*
X123712500Y-117300000D02*
X125300000Y-117300000D01*
X100620000Y-93980000D02*
X100800000Y-93800000D01*
X112940000Y-74567500D02*
X112940000Y-72640000D01*
D58*
X73800000Y-78050000D02*
X73800000Y-76120000D01*
D57*
X120352500Y-86480000D02*
X123320000Y-86480000D01*
X107440000Y-74567500D02*
X107440000Y-73840000D01*
X67562500Y-101895000D02*
X67562500Y-100307500D01*
X121200000Y-75000000D02*
X121100000Y-75100000D01*
X65292500Y-111600000D02*
X64700000Y-111600000D01*
%TO.N,GND*%
X129200000Y-131462500D02*
X127462500Y-131462500D01*
X104587500Y-117479000D02*
X102821000Y-117479000D01*
X113440000Y-74567500D02*
X113440000Y-73760000D01*
X95348750Y-102258750D02*
X95546250Y-102061250D01*
X67562500Y-106995000D02*
X68950000Y-106995000D01*
X67512500Y-108695000D02*
X69050000Y-108695000D01*
X107462500Y-131562500D02*
X107400000Y-131500000D01*
D58*
X62560000Y-86160000D02*
X62600000Y-86200000D01*
D57*
X86480000Y-73200000D02*
X86510000Y-73170000D01*
X119420000Y-93480000D02*
X118900000Y-94000000D01*
X106560000Y-153180000D02*
X106510000Y-153130000D01*
X104637500Y-112300000D02*
X102800000Y-112300000D01*
X40000000Y-64000000D02*
X40000000Y-81300000D01*
X107055000Y-66625000D02*
X106975000Y-66625000D01*
X130237500Y-82587500D02*
X131300000Y-83650000D01*
D58*
X80862500Y-78687500D02*
X80870000Y-78680000D01*
D57*
X85037500Y-73200000D02*
X86480000Y-73200000D01*
X133000000Y-140000000D02*
X133000000Y-139500000D01*
X104637500Y-115800000D02*
X102800000Y-115800000D01*
D58*
X80862500Y-80100000D02*
X80862500Y-78687500D01*
D57*
X114625000Y-71300000D02*
X114625000Y-70300000D01*
X91900000Y-81637500D02*
X94625000Y-81637500D01*
D58*
X66887500Y-75000000D02*
X65300000Y-75000000D01*
D57*
X110400000Y-91500000D02*
X107900000Y-91500000D01*
X94125000Y-97350000D02*
X92550000Y-97350000D01*
X114625000Y-72575000D02*
X114500000Y-72700000D01*
D58*
X76100000Y-78050000D02*
X76100000Y-79900000D01*
D57*
X94625000Y-81637500D02*
X95000000Y-81262500D01*
X95348750Y-102258750D02*
X93886250Y-102258750D01*
X116900000Y-131462500D02*
X118537500Y-131462500D01*
X123662500Y-113129000D02*
X123712500Y-113079000D01*
X132762500Y-137362500D02*
X132800000Y-137400000D01*
X108440000Y-95892500D02*
X108440000Y-94360000D01*
X120352500Y-86980000D02*
X124280000Y-86980000D01*
X114625000Y-71300000D02*
X114625000Y-72575000D01*
X109572500Y-100952500D02*
X109600000Y-100925000D01*
D58*
X60340000Y-86160000D02*
X62560000Y-86160000D01*
X81962500Y-64900000D02*
X83600000Y-64900000D01*
D57*
X67512500Y-105295000D02*
X68950000Y-105295000D01*
X113449500Y-113349500D02*
X113700000Y-113600000D01*
X67512500Y-110395000D02*
X67512500Y-108695000D01*
X103548750Y-104083750D02*
X105086250Y-104083750D01*
X101068750Y-104361250D02*
X103271250Y-104361250D01*
X123662500Y-114800000D02*
X123662500Y-113129000D01*
X119830400Y-114930400D02*
X117894500Y-114930400D01*
X67512500Y-112095000D02*
X68950000Y-112095000D01*
X107875000Y-122825000D02*
X107900000Y-122800000D01*
X107940000Y-74567500D02*
X107940000Y-72876500D01*
X102600000Y-119500000D02*
X102900000Y-119200000D01*
X115252500Y-105971000D02*
X115250000Y-105973500D01*
X126200000Y-87062500D02*
X124362500Y-87062500D01*
D58*
X48000000Y-86160000D02*
X44860000Y-86160000D01*
X80862500Y-83497500D02*
X80850000Y-83510000D01*
X82012500Y-63200000D02*
X83600000Y-63200000D01*
D57*
X129425000Y-96100000D02*
X130762500Y-96100000D01*
X115456100Y-118956100D02*
X115400000Y-118900000D01*
X74950000Y-112895000D02*
X72450000Y-112895000D01*
D58*
X66887500Y-73300000D02*
X65300000Y-73300000D01*
D57*
X99562500Y-107537500D02*
X99600000Y-107500000D01*
X129800000Y-103425000D02*
X129800000Y-101787500D01*
X99027500Y-81980000D02*
X95717500Y-81980000D01*
X128562500Y-95237500D02*
X129425000Y-96100000D01*
X62450000Y-109745000D02*
X63401500Y-109745000D01*
X99027500Y-86980000D02*
X100680000Y-86980000D01*
X93886250Y-102258750D02*
X93848750Y-102221250D01*
X124400000Y-82000000D02*
X125875000Y-82000000D01*
X124362500Y-87062500D02*
X124300000Y-87000000D01*
X109860000Y-101957500D02*
X109572500Y-102245000D01*
X92340000Y-149070000D02*
X92340000Y-146980000D01*
X129450000Y-82587500D02*
X130237500Y-82587500D01*
X96300000Y-112300000D02*
X96200000Y-112200000D01*
X123662500Y-119100000D02*
X125300000Y-119100000D01*
X109512500Y-115413000D02*
X110987000Y-115413000D01*
X67512500Y-107045000D02*
X67562500Y-106995000D01*
X124380000Y-81980000D02*
X124400000Y-82000000D01*
X105086250Y-104083750D02*
X105148750Y-104021250D01*
X113449500Y-111984000D02*
X113449500Y-113349500D01*
X114625000Y-70300000D02*
X115625000Y-69300000D01*
X99562500Y-108700000D02*
X99562500Y-107537500D01*
X130562500Y-92200000D02*
X130662500Y-92100000D01*
X90980000Y-145620000D02*
X88660000Y-145620000D01*
X110700000Y-91800000D02*
X110400000Y-91500000D01*
X112352500Y-101957500D02*
X112352500Y-100352500D01*
X115456100Y-120366000D02*
X115456100Y-118956100D01*
X101440000Y-74567500D02*
X101440000Y-72040000D01*
X101440000Y-72040000D02*
X100500000Y-71100000D01*
X92340000Y-146980000D02*
X90980000Y-145620000D01*
X106200000Y-122825000D02*
X107875000Y-122825000D01*
X109572500Y-102245000D02*
X109572500Y-100952500D01*
D58*
X48000000Y-86160000D02*
X50540000Y-86160000D01*
D57*
X118002500Y-104257500D02*
X118072500Y-104187500D01*
X67562500Y-105345000D02*
X67512500Y-105295000D01*
X98537500Y-131462500D02*
X98600000Y-131400000D01*
X125837500Y-78562500D02*
X125825000Y-78575000D01*
X104637500Y-114050000D02*
X102850000Y-114050000D01*
X102600000Y-121100000D02*
X102600000Y-119500000D01*
D58*
X68000000Y-80062500D02*
X68000000Y-81700000D01*
D57*
X120700000Y-115800000D02*
X119830400Y-114930400D01*
X67512500Y-105295000D02*
X67512500Y-103595000D01*
X75900000Y-67310000D02*
X75900000Y-68800000D01*
X116860000Y-153180000D02*
X106560000Y-153180000D01*
X110987000Y-115413000D02*
X111200000Y-115200000D01*
X94462500Y-91650000D02*
X94462500Y-89962500D01*
X95717500Y-81980000D02*
X95000000Y-81262500D01*
X115252500Y-104257500D02*
X118002500Y-104257500D01*
X98650000Y-99425000D02*
X98650000Y-101580000D01*
X94462500Y-89962500D02*
X94475000Y-89950000D01*
X126970000Y-153180000D02*
X116860000Y-153180000D01*
X124500000Y-101787500D02*
X124500000Y-100387500D01*
X100400000Y-71200000D02*
X97762500Y-71200000D01*
D58*
X58040000Y-86160000D02*
X60340000Y-86160000D01*
X50540000Y-86160000D02*
X53140000Y-86160000D01*
D57*
X112352500Y-101957500D02*
X109860000Y-101957500D01*
X129287500Y-93021000D02*
X128562500Y-93746000D01*
X113440000Y-73760000D02*
X114500000Y-72700000D01*
X40000000Y-81300000D02*
X44800000Y-86100000D01*
X104637500Y-119200000D02*
X102900000Y-119200000D01*
X125462500Y-75000000D02*
X125462500Y-76585000D01*
X126200000Y-82325000D02*
X129187500Y-82325000D01*
X96400000Y-153130000D02*
X92340000Y-149070000D01*
X120352500Y-93480000D02*
X119420000Y-93480000D01*
X106510000Y-153130000D02*
X96400000Y-153130000D01*
X88375000Y-106650000D02*
X88362500Y-106662500D01*
D58*
X55540000Y-86160000D02*
X58040000Y-86160000D01*
D57*
X67512500Y-112095000D02*
X67512500Y-110395000D01*
X118537500Y-131462500D02*
X118600000Y-131400000D01*
X67512500Y-110395000D02*
X69050000Y-110395000D01*
X115252500Y-104257500D02*
X115252500Y-105971000D01*
X124280000Y-86980000D02*
X124300000Y-87000000D01*
X67512500Y-103595000D02*
X68950000Y-103595000D01*
X125837500Y-76960000D02*
X125837500Y-78562500D01*
X114675000Y-107855000D02*
X114670000Y-107850000D01*
X102850000Y-114050000D02*
X102800000Y-114000000D01*
X109380000Y-64300000D02*
X107055000Y-66625000D01*
X129287500Y-92200000D02*
X129287500Y-93021000D01*
X93537500Y-137837500D02*
X93600000Y-137900000D01*
X112100000Y-94200000D02*
X112100000Y-93200000D01*
X67512500Y-108695000D02*
X67512500Y-107045000D01*
X100500000Y-71100000D02*
X100400000Y-71200000D01*
X100500000Y-71100000D02*
X100500000Y-69100000D01*
X114675000Y-109180000D02*
X114675000Y-107855000D01*
X63401500Y-109745000D02*
X64150000Y-110493500D01*
X96900000Y-131462500D02*
X98537500Y-131462500D01*
X100680000Y-86980000D02*
X100700000Y-87000000D01*
X123662500Y-114800000D02*
X122662500Y-115800000D01*
X97687500Y-119200000D02*
X95900000Y-119200000D01*
X107863500Y-72800000D02*
X107863500Y-70938500D01*
X98650000Y-101580000D02*
X98168750Y-102061250D01*
X70300000Y-120070000D02*
X70300000Y-122007500D01*
X117894500Y-114930400D02*
X116330400Y-114930400D01*
D58*
X80862500Y-81900000D02*
X80862500Y-83497500D01*
X44860000Y-86160000D02*
X44800000Y-86100000D01*
X53140000Y-86160000D02*
X55540000Y-86160000D01*
D57*
X112352500Y-100352500D02*
X112050000Y-100050000D01*
X108440000Y-94360000D02*
X108450000Y-94350000D01*
X127462500Y-131462500D02*
X127400000Y-131400000D01*
X69500000Y-67310000D02*
X69500000Y-68700000D01*
X75900000Y-68800000D02*
X76000000Y-68900000D01*
X103271250Y-104361250D02*
X103548750Y-104083750D01*
X95546250Y-102061250D02*
X98168750Y-102061250D01*
X88375000Y-105362500D02*
X88375000Y-106650000D01*
X116330400Y-114930400D02*
X116300000Y-114900000D01*
X120352500Y-81980000D02*
X124380000Y-81980000D01*
X133000000Y-139500000D02*
X133900000Y-138600000D01*
X128562500Y-93746000D02*
X128562500Y-95237500D01*
X129287500Y-92200000D02*
X130562500Y-92200000D01*
X107863500Y-70938500D02*
X107825000Y-70900000D01*
X113449500Y-111984000D02*
X113449500Y-110405500D01*
X109200000Y-131562500D02*
X107462500Y-131562500D01*
X132762500Y-135800000D02*
X132762500Y-137362500D01*
X113449500Y-110405500D02*
X114675000Y-109180000D01*
X67562500Y-106995000D02*
X67562500Y-105345000D01*
X122662500Y-115800000D02*
X120700000Y-115800000D01*
X107940000Y-72876500D02*
X107863500Y-72800000D01*
X112100000Y-93200000D02*
X110700000Y-91800000D01*
X125875000Y-82000000D02*
X126200000Y-82325000D01*
X93537500Y-136300000D02*
X93537500Y-137837500D01*
X125462500Y-76585000D02*
X125837500Y-76960000D01*
X129187500Y-82325000D02*
X129450000Y-82587500D01*
X102821000Y-117479000D02*
X102800000Y-117500000D01*
X97837500Y-112300000D02*
X96300000Y-112300000D01*
X68950000Y-112095000D02*
X69050000Y-112195000D01*
X99775000Y-98300000D02*
X98650000Y-99425000D01*
X69500000Y-68700000D02*
X69300000Y-68900000D01*
D59*
%TO.N,/MCU/HSE+*%
X113820000Y-99930000D02*
X111940000Y-98050000D01*
X111940000Y-98050000D02*
X111940000Y-95892500D01*
X112352500Y-104257500D02*
X109860000Y-104257500D01*
X109860000Y-104257500D02*
X109572500Y-103970000D01*
X112352500Y-104257500D02*
X113820000Y-102790000D01*
X113820000Y-102790000D02*
X113820000Y-99930000D01*
%TO.N,/MCU/HSE-*%
X114837912Y-99574881D02*
X114713527Y-99699263D01*
X113300000Y-98285735D02*
X113299999Y-98285735D01*
X114289265Y-99274999D02*
X114289264Y-99275000D01*
X112875734Y-97861470D02*
X113158577Y-97578628D01*
X114289264Y-99275000D02*
X114413648Y-99150617D01*
X115252500Y-101957500D02*
X117567500Y-101957500D01*
X112440000Y-97850000D02*
X112451470Y-97861470D01*
X113158577Y-97578628D02*
X113158577Y-97578627D01*
X114837911Y-99574882D02*
X114837912Y-99574881D01*
X112440000Y-95892500D02*
X112440000Y-97850000D01*
X117567500Y-101957500D02*
X118072500Y-102462500D01*
X115252500Y-100662500D02*
X115252500Y-101957500D01*
X113300000Y-98710000D02*
X113865000Y-99275000D01*
X113582842Y-98002892D02*
X113300000Y-98285735D01*
X114713528Y-100123528D02*
X115252500Y-100662500D01*
X114713527Y-100123527D02*
X114713528Y-100123528D01*
X113582882Y-98002932D02*
G75*
G03*
X113582842Y-97578628I-212182J212132D01*
G01*
X114289232Y-99274967D02*
G75*
G02*
X113865000Y-99275000I-212132J212067D01*
G01*
X113582833Y-97578637D02*
G75*
G03*
X113158577Y-97578627I-212133J-212163D01*
G01*
X114837862Y-99574833D02*
G75*
G03*
X114837912Y-99150617I-212062J212133D01*
G01*
X112875733Y-97861469D02*
G75*
G02*
X112451471Y-97861469I-212131J212131D01*
G01*
X114713522Y-100123532D02*
G75*
G02*
X114713527Y-99699263I212178J212132D01*
G01*
X113299967Y-98710033D02*
G75*
G02*
X113299999Y-98285735I212133J212133D01*
G01*
X114837911Y-99150618D02*
G75*
G03*
X114413649Y-99150618I-212131J-212131D01*
G01*
%TO.N,/MCU/LSE+*%
X98168750Y-104361250D02*
X95726250Y-104361250D01*
X104440000Y-98320000D02*
X104440000Y-95892500D01*
X99630000Y-101220000D02*
X102170000Y-98680000D01*
X99630000Y-102900000D02*
X99630000Y-101220000D01*
X104080000Y-98680000D02*
X104440000Y-98320000D01*
X98168750Y-104361250D02*
X99630000Y-102900000D01*
X95726250Y-104361250D02*
X95348750Y-103983750D01*
X102170000Y-98680000D02*
X104080000Y-98680000D01*
%TO.N,/MCU/LSE-*%
X101165724Y-102061250D02*
X101068750Y-102061250D01*
X102357826Y-100869148D02*
X101932043Y-100443365D01*
X102994222Y-99808487D02*
X102780571Y-99594836D01*
X104940000Y-98286973D02*
X103418487Y-99808487D01*
X102356307Y-100019100D02*
X102569957Y-100232750D01*
X101721428Y-101505543D02*
X101494221Y-101732753D01*
X101507779Y-100443365D02*
X101507778Y-100443365D01*
X101494221Y-101732753D02*
X101165724Y-102061250D01*
X103251250Y-102061250D02*
X103548750Y-102358750D01*
X103207873Y-101294931D02*
X103207872Y-101294933D01*
X102994221Y-99808487D02*
X102994222Y-99808487D01*
X102783608Y-101294933D02*
X102357826Y-100869151D01*
X102357826Y-100869151D02*
X102357826Y-100869148D01*
X101068750Y-102061250D02*
X103251250Y-102061250D01*
X102569957Y-100232750D02*
X103207873Y-100870667D01*
X101507778Y-100867629D02*
X101721428Y-101081279D01*
X104940000Y-95892500D02*
X104940000Y-98286973D01*
X102783609Y-101294932D02*
G75*
G03*
X103207871Y-101294932I212131J212131D01*
G01*
X101721417Y-101505532D02*
G75*
G03*
X101721428Y-101081279I-212117J212132D01*
G01*
X101507780Y-100443366D02*
G75*
G02*
X101932042Y-100443366I212131J-212131D01*
G01*
X102994221Y-99808487D02*
G75*
G03*
X103418487Y-99808487I212133J212134D01*
G01*
X103207874Y-101294932D02*
G75*
G03*
X103207873Y-100870667I-212174J212132D01*
G01*
X102356308Y-99594837D02*
G75*
G02*
X102780570Y-99594837I212131J-212131D01*
G01*
X102356275Y-100019132D02*
G75*
G02*
X102356307Y-99594836I212125J212132D01*
G01*
X101507775Y-100867632D02*
G75*
G02*
X101507778Y-100443365I212125J212132D01*
G01*
D57*
%TO.N,Net-(C22-Pad2)*%
X101940000Y-74567500D02*
X101940000Y-71735000D01*
X101940000Y-71735000D02*
X102575000Y-71100000D01*
%TO.N,Net-(C23-Pad2)*%
X123762500Y-76960000D02*
X120372500Y-76960000D01*
X120372500Y-76960000D02*
X120352500Y-76980000D01*
%TO.N,/MCU/~{RESET}*%
X131550000Y-105150000D02*
X131600000Y-105200000D01*
X127600000Y-105237500D02*
X129712500Y-105237500D01*
X127550000Y-105187500D02*
X127600000Y-105237500D01*
X129712500Y-105237500D02*
X129800000Y-105150000D01*
X113575000Y-92625000D02*
X116125000Y-92625000D01*
X112940000Y-95892500D02*
X112940000Y-93260000D01*
X124525000Y-105212500D02*
X124500000Y-105187500D01*
X129800000Y-105150000D02*
X131550000Y-105150000D01*
X124500000Y-105187500D02*
X127550000Y-105187500D01*
X124525000Y-106700000D02*
X124525000Y-105212500D01*
X112940000Y-93260000D02*
X113575000Y-92625000D01*
D60*
%TO.N,/MCU/STM32_VDDA*%
X130200000Y-94400000D02*
X131500000Y-95700000D01*
D57*
X129450000Y-90000000D02*
X131062500Y-90000000D01*
D60*
X125250000Y-98650000D02*
X124153937Y-97553937D01*
X116875003Y-97499195D02*
X116940000Y-97434198D01*
D57*
X131562500Y-90500000D02*
X131562500Y-93100000D01*
X131562500Y-93100000D02*
X130262500Y-94400000D01*
X131062500Y-90000000D02*
X131562500Y-90500000D01*
D60*
X131500000Y-96800000D02*
X129650000Y-98650000D01*
X129347500Y-94400000D02*
X130200000Y-94400000D01*
X116940000Y-97434198D02*
X116940000Y-95892500D01*
X124153937Y-97553937D02*
X124153937Y-97555062D01*
X131500000Y-95700000D02*
X131500000Y-96800000D01*
D57*
X130262500Y-94400000D02*
X129347500Y-94400000D01*
D60*
X129650000Y-98650000D02*
X125250000Y-98650000D01*
%TO.N,/MCU/STM32_VSSA*%
X127837500Y-92200000D02*
X127837500Y-92662500D01*
D57*
X127725000Y-90000000D02*
X127725000Y-92087500D01*
D60*
X115900000Y-95932500D02*
X115940000Y-95892500D01*
X125300000Y-95200000D02*
X123900000Y-96600000D01*
D57*
X127725000Y-92087500D02*
X127837500Y-92200000D01*
D60*
X116175267Y-97075267D02*
X115900000Y-96800000D01*
X115900000Y-96800000D02*
X115900000Y-95932500D01*
X116175267Y-97208161D02*
X116175267Y-97075267D01*
X127837500Y-92662500D02*
X125300000Y-95200000D01*
D57*
%TO.N,Net-(C29-Pad1)*%
X109200000Y-126400000D02*
X109200000Y-127875000D01*
X109225000Y-127900000D02*
X109225000Y-129812500D01*
X103900000Y-127900000D02*
X103900000Y-126400000D01*
X109200000Y-127875000D02*
X109225000Y-127900000D01*
X109225000Y-129812500D02*
X109200000Y-129837500D01*
%TO.N,Net-(C30-Pad1)*%
X102700000Y-126300000D02*
X102225000Y-126775000D01*
X102225000Y-126775000D02*
X102225000Y-127900000D01*
X96900000Y-127900000D02*
X96900000Y-126400000D01*
X96900000Y-127900000D02*
X96900000Y-129737500D01*
%TO.N,Net-(C31-Pad1)*%
X129200000Y-126200000D02*
X129200000Y-127887500D01*
X129212500Y-129725000D02*
X129200000Y-129737500D01*
X129200000Y-127887500D02*
X129212500Y-127900000D01*
X123887500Y-126687500D02*
X123887500Y-127900000D01*
X129212500Y-127900000D02*
X129212500Y-129725000D01*
X123400000Y-126200000D02*
X123887500Y-126687500D01*
%TO.N,Net-(C32-Pad1)*%
X121800000Y-126200000D02*
X121800000Y-127487500D01*
X116887500Y-126787500D02*
X116887500Y-127900000D01*
X116900000Y-127912500D02*
X116887500Y-127900000D01*
X116900000Y-129737500D02*
X116900000Y-127912500D01*
X121800000Y-127487500D02*
X122212500Y-127900000D01*
X116400000Y-126300000D02*
X116887500Y-126787500D01*
%TO.N,/MCU/ETH_RESET*%
X121937500Y-119100000D02*
X121937500Y-117350000D01*
X115600000Y-118100000D02*
X118800000Y-121300000D01*
X111064400Y-118435600D02*
X111100000Y-118400000D01*
X121937500Y-117350000D02*
X121887500Y-117300000D01*
X114609000Y-118100000D02*
X115600000Y-118100000D01*
D60*
X108440000Y-74567500D02*
X108440000Y-72110000D01*
X120500000Y-117300000D02*
X121887500Y-117300000D01*
X113400000Y-67150000D02*
X117025000Y-67150000D01*
D57*
X118800000Y-121300000D02*
X121850000Y-121300000D01*
D60*
X117025000Y-67150000D02*
X122425000Y-72550000D01*
D57*
X121850000Y-121300000D02*
X121850000Y-119187500D01*
D60*
X108440000Y-72110000D02*
X113400000Y-67150000D01*
X120475000Y-117325000D02*
X120500000Y-117300000D01*
D57*
X109512500Y-118435600D02*
X111064400Y-118435600D01*
X121850000Y-119187500D02*
X121937500Y-119100000D01*
%TO.N,+1V8*%
X111401068Y-115921000D02*
X112941500Y-114380568D01*
X108821000Y-115921000D02*
X108452000Y-115552000D01*
X109512500Y-115921000D02*
X108821000Y-115921000D01*
X108452000Y-115418842D02*
X107083158Y-114050000D01*
X112941500Y-109188500D02*
X112950000Y-109180000D01*
X109512500Y-115921000D02*
X111401068Y-115921000D01*
X112941500Y-114380568D02*
X112941500Y-111984000D01*
X98652000Y-109763000D02*
X97915000Y-110500000D01*
X106362500Y-114050000D02*
X106350000Y-114050000D01*
X100700000Y-109800000D02*
X100663000Y-109763000D01*
X100663000Y-109763000D02*
X98652000Y-109763000D01*
X97837500Y-108700000D02*
X97837500Y-110422500D01*
X107083158Y-114050000D02*
X106362500Y-114050000D01*
X108452000Y-115552000D02*
X108452000Y-115418842D01*
X112941500Y-111984000D02*
X112941500Y-109188500D01*
X97837500Y-110422500D02*
X97915000Y-110500000D01*
X106350000Y-114050000D02*
X105600000Y-113300000D01*
%TO.N,/Ethernet/PHY_3V3A*%
X104400000Y-121177500D02*
X106122500Y-121177500D01*
X112345781Y-118910681D02*
X112941500Y-119506400D01*
X112941500Y-119506400D02*
X112941500Y-120366000D01*
X106122500Y-121177500D02*
X106200000Y-121100000D01*
X106362500Y-119200000D02*
X107800000Y-119200000D01*
X106200000Y-119362500D02*
X106362500Y-119200000D01*
X112289319Y-118910681D02*
X112345781Y-118910681D01*
X106200000Y-121100000D02*
X106200000Y-119362500D01*
%TO.N,/Ethernet/PHY_1V8A*%
X99485000Y-110500000D02*
X99485000Y-112222500D01*
X99485000Y-112222500D02*
X99562500Y-112300000D01*
X113957500Y-117557500D02*
X113957500Y-120366000D01*
X107500000Y-116100500D02*
X107199500Y-115800000D01*
X101000000Y-112300000D02*
X99562500Y-112300000D01*
X107199500Y-115800000D02*
X106362500Y-115800000D01*
X113200000Y-116800000D02*
X113957500Y-117557500D01*
%TO.N,/Display/DISP_RES*%
X60550000Y-108995000D02*
X60550000Y-113695000D01*
X61200000Y-108345000D02*
X60550000Y-108995000D01*
X66200000Y-117557500D02*
X67762500Y-117557500D01*
X67762500Y-117557500D02*
X68500000Y-118295000D01*
X68500000Y-118295000D02*
X70250000Y-118295000D01*
X60550000Y-113695000D02*
X64412500Y-117557500D01*
X62450000Y-108345000D02*
X61200000Y-108345000D01*
X70250000Y-118295000D02*
X70300000Y-118345000D01*
X64412500Y-117557500D02*
X66200000Y-117557500D01*
%TO.N,Net-(C48-Pad1)*%
X65787500Y-105295000D02*
X65537500Y-105545000D01*
X65537500Y-105545000D02*
X62450000Y-105545000D01*
%TO.N,Net-(C49-Pad1)*%
X63800000Y-111845000D02*
X62450000Y-111845000D01*
X65023000Y-113068000D02*
X63800000Y-111845000D01*
X66785500Y-113068000D02*
X65023000Y-113068000D01*
X67512500Y-113795000D02*
X66785500Y-113068000D01*
%TO.N,Net-(C49-Pad2)*%
X63700000Y-112545000D02*
X62450000Y-112545000D01*
X64950000Y-113795000D02*
X63700000Y-112545000D01*
X65787500Y-113795000D02*
X64950000Y-113795000D01*
%TO.N,Net-(C50-Pad1)*%
X64537500Y-104845000D02*
X62450000Y-104845000D01*
X65787500Y-103595000D02*
X64537500Y-104845000D01*
%TO.N,Net-(C51-Pad1)*%
X67512500Y-115495000D02*
X66785500Y-114768000D01*
X66785500Y-114768000D02*
X65123000Y-114768000D01*
X65123000Y-114768000D02*
X63600000Y-113245000D01*
X63600000Y-113245000D02*
X62450000Y-113245000D01*
%TO.N,Net-(C51-Pad2)*%
X65787500Y-115495000D02*
X65250000Y-115495000D01*
X65250000Y-115495000D02*
X63700000Y-113945000D01*
X63700000Y-113945000D02*
X62450000Y-113945000D01*
D58*
%TO.N,GNDS*%
X80187500Y-63200000D02*
X80187500Y-64850000D01*
X77020000Y-62560000D02*
X77020000Y-66730000D01*
X79547500Y-62560000D02*
X80187500Y-63200000D01*
X68380000Y-66730000D02*
X68380000Y-62560000D01*
X77020000Y-62560000D02*
X79547500Y-62560000D01*
X68380000Y-62560000D02*
X77020000Y-62560000D01*
X80187500Y-64850000D02*
X80237500Y-64900000D01*
%TO.N,USB_POWER*%
X62000000Y-89785000D02*
X66000000Y-85785000D01*
D57*
X75100000Y-66726000D02*
X73674000Y-65300000D01*
X77280000Y-73130000D02*
X82692500Y-73130000D01*
D58*
X67062500Y-78337500D02*
X68000000Y-78337500D01*
D57*
X75100000Y-67310000D02*
X75100000Y-68894079D01*
X82692500Y-73130000D02*
X82762500Y-73200000D01*
X75100000Y-67310000D02*
X75100000Y-66726000D01*
X70500000Y-67110000D02*
X70300000Y-67310000D01*
D58*
X68000000Y-78337500D02*
X71212500Y-78337500D01*
X71212500Y-78337500D02*
X71500000Y-78050000D01*
X66000000Y-79400000D02*
X67062500Y-78337500D01*
X66000000Y-85785000D02*
X66000000Y-79400000D01*
D57*
X71400000Y-65300000D02*
X70500000Y-66200000D01*
D58*
X71600000Y-72900000D02*
X71500000Y-73000000D01*
D57*
X73674000Y-65300000D02*
X71400000Y-65300000D01*
X75100000Y-68894079D02*
X75073721Y-68920358D01*
X70500000Y-66200000D02*
X70500000Y-67110000D01*
D58*
X71500000Y-73000000D02*
X71500000Y-78050000D01*
X70300000Y-71600000D02*
X71600000Y-72900000D01*
X70300000Y-67310000D02*
X70300000Y-71600000D01*
D57*
%TO.N,/MCU/LD1*%
X103825000Y-94350000D02*
X103975000Y-94500000D01*
X94275000Y-87500000D02*
X94350000Y-87425000D01*
X103825000Y-93825000D02*
X103825000Y-94350000D01*
X86850000Y-87500000D02*
X94275000Y-87500000D01*
X103975000Y-95857500D02*
X103940000Y-95892500D01*
X103975000Y-94500000D02*
X103975000Y-95857500D01*
%TO.N,Net-(D1-Pad2)*%
X85087500Y-85800000D02*
X85087500Y-87487500D01*
X85087500Y-87487500D02*
X85100000Y-87500000D01*
D59*
%TO.N,/Ethernet/RX1+*%
X102300000Y-134235001D02*
X102300000Y-133800000D01*
X102300000Y-132050000D02*
X102480000Y-132230000D01*
X111404800Y-121470901D02*
X111442900Y-121432801D01*
X105296800Y-124603200D02*
X109284170Y-124603200D01*
X99765701Y-129078331D02*
X99765701Y-128534299D01*
X102480000Y-132230000D02*
X102480000Y-133358600D01*
X104617058Y-125123459D02*
X104696800Y-125123459D01*
X102203200Y-138092850D02*
X102203200Y-134331801D01*
X102203201Y-131723201D02*
X102203201Y-131515831D01*
X102300000Y-131820000D02*
X102203201Y-131723201D01*
X99841400Y-140855969D02*
X99841400Y-140454650D01*
X111442900Y-121432801D02*
X111442900Y-120366000D01*
X104956929Y-124863330D02*
X104956929Y-124863329D01*
X111404800Y-122482570D02*
X111404800Y-121470901D01*
X102300000Y-133538600D02*
X102300000Y-133800000D01*
X102480000Y-133358600D02*
X102300000Y-133538600D01*
X102596537Y-124603200D02*
X104096800Y-124603200D01*
X102203200Y-134331801D02*
X102300000Y-134235001D01*
X102300000Y-131820000D02*
X102300000Y-132050000D01*
X105217058Y-124603200D02*
X105296800Y-124603200D01*
X99765701Y-128534299D02*
X100400000Y-127900000D01*
X99550000Y-143400000D02*
X99550000Y-141147369D01*
X104356929Y-124863329D02*
X104356929Y-124863330D01*
X102203201Y-131515831D02*
X99765701Y-129078331D01*
X100400000Y-127900000D02*
X100400000Y-126799737D01*
X99550000Y-141147369D02*
X99841400Y-140855969D01*
X100400000Y-126799737D02*
X102596537Y-124603200D01*
X109284170Y-124603200D02*
X111404800Y-122482570D01*
X99841400Y-140454650D02*
X102203200Y-138092850D01*
X105217058Y-124603129D02*
G75*
G03*
X104956929Y-124863329I42J-260171D01*
G01*
X104356900Y-124863329D02*
G75*
G03*
X104096800Y-124603200I-260100J29D01*
G01*
X104617058Y-125123471D02*
G75*
G02*
X104356929Y-124863330I42J260171D01*
G01*
X104956959Y-124863330D02*
G75*
G02*
X104696800Y-125123459I-260159J30D01*
G01*
%TO.N,/Ethernet/TX1-*%
X103600000Y-132065700D02*
X103420000Y-132245700D01*
X103600000Y-133800000D02*
X103600000Y-134235001D01*
X106553371Y-138540741D02*
X106763600Y-138750970D01*
X104856315Y-137267949D02*
X104712694Y-137411569D01*
X105136959Y-137835832D02*
X105136958Y-137835833D01*
X109215830Y-125196800D02*
X112001700Y-122410930D01*
X103420000Y-133390000D02*
X103600000Y-133570000D01*
X105985487Y-138684360D02*
X105985486Y-138684361D01*
X103600000Y-133570000D02*
X103600000Y-133800000D01*
X105704842Y-137692212D02*
X105704843Y-137692213D01*
X108428200Y-125196800D02*
X109215830Y-125196800D01*
X103696800Y-134331801D02*
X103696800Y-135684170D01*
X105136958Y-137835833D02*
X105280578Y-137692212D01*
X112001700Y-122410930D02*
X112001700Y-121483601D01*
X105704843Y-138116477D02*
X105561222Y-138260097D01*
X105704842Y-138116478D02*
X105704843Y-138116477D01*
X103420000Y-132245700D02*
X103420000Y-133390000D01*
X104856314Y-137267950D02*
X104856315Y-137267949D01*
X105985486Y-138684361D02*
X106129106Y-138540740D01*
X103696799Y-131723201D02*
X103696799Y-131415831D01*
X106763600Y-139996400D02*
X105900000Y-140860000D01*
X106763600Y-138750970D02*
X106763600Y-139996400D01*
X103600000Y-131820000D02*
X103600000Y-132065700D01*
X105725000Y-127900000D02*
X108428200Y-125196800D01*
X103600000Y-134235001D02*
X103696800Y-134331801D01*
X111950900Y-121432801D02*
X111950900Y-120366000D01*
X103696800Y-135684170D02*
X104856315Y-136843685D01*
X106359299Y-128753331D02*
X106359299Y-128534299D01*
X112001700Y-121483601D02*
X111950900Y-121432801D01*
X103600000Y-131820000D02*
X103696799Y-131723201D01*
X106359299Y-128534299D02*
X105725000Y-127900000D01*
X106553370Y-138540740D02*
X106553371Y-138540741D01*
X103696799Y-131415831D02*
X106359299Y-128753331D01*
X106553369Y-138540741D02*
G75*
G03*
X106129107Y-138540741I-212131J-212131D01*
G01*
X105704841Y-137692213D02*
G75*
G03*
X105280579Y-137692213I-212131J-212131D01*
G01*
X105136933Y-137835806D02*
G75*
G02*
X104712694Y-137835833I-212133J212106D01*
G01*
X105704796Y-138116432D02*
G75*
G03*
X105704842Y-137692214I-212096J212132D01*
G01*
X105985532Y-138684405D02*
G75*
G02*
X105561223Y-138684360I-212132J212205D01*
G01*
X104712696Y-137835831D02*
G75*
G02*
X104712695Y-137411570I212104J212131D01*
G01*
X104856296Y-137267932D02*
G75*
G03*
X104856314Y-136843686I-212096J212132D01*
G01*
X105561252Y-138684331D02*
G75*
G02*
X105561223Y-138260098I212148J212131D01*
G01*
%TO.N,/Ethernet/RX1-*%
X101530000Y-133410000D02*
X101700000Y-133580000D01*
X101225435Y-137952641D02*
X101225435Y-137952640D01*
X99359299Y-129246669D02*
X99359299Y-128534299D01*
X101700000Y-131820000D02*
X101796799Y-131723201D01*
X98280000Y-140860000D02*
X99262631Y-140860000D01*
X101225435Y-137952640D02*
X101284937Y-138012142D01*
X110998400Y-122314230D02*
X110998400Y-121470901D01*
X99262631Y-140860000D02*
X99435019Y-140687612D01*
X99359299Y-128534299D02*
X98725000Y-127900000D01*
X101796800Y-135974540D02*
X101796800Y-134724540D01*
X101462652Y-136274540D02*
X101496800Y-136274540D01*
X101796799Y-131684169D02*
X99359299Y-129246669D01*
X99435019Y-140687612D02*
X99435019Y-140286321D01*
X98725000Y-127900000D02*
X102428200Y-124196800D01*
X101796800Y-134724540D02*
X101796800Y-134331801D01*
X101700000Y-134235001D02*
X101700000Y-133800000D01*
X101796799Y-131723201D02*
X101796799Y-131684169D01*
X101700000Y-131820000D02*
X101700000Y-132050000D01*
X99435019Y-140286321D02*
X100860670Y-138860670D01*
X110998400Y-121470901D02*
X110960300Y-121432801D01*
X101796800Y-137924540D02*
X101796800Y-137174540D01*
X101700000Y-132050000D02*
X101530000Y-132220000D01*
X100860670Y-138436406D02*
X100801169Y-138376905D01*
X110960300Y-121432801D02*
X110960300Y-120366000D01*
X101709201Y-138012142D02*
X101709200Y-138012141D01*
X109115830Y-124196800D02*
X110998400Y-122314230D01*
X101700000Y-133580000D02*
X101700000Y-133800000D01*
X101530000Y-132220000D02*
X101530000Y-133410000D01*
X101796800Y-134331801D02*
X101700000Y-134235001D01*
X102428200Y-124196800D02*
X109115830Y-124196800D01*
X101709200Y-138012141D02*
X101796800Y-137924540D01*
X101496800Y-136874540D02*
X101462652Y-136874540D01*
X101162660Y-136574540D02*
G75*
G03*
X101462652Y-136874540I300040J40D01*
G01*
X101462652Y-136274452D02*
G75*
G03*
X101162652Y-136574540I48J-300048D01*
G01*
X100801196Y-137952668D02*
G75*
G03*
X100801169Y-138376905I212104J-212132D01*
G01*
X101796840Y-135974540D02*
G75*
G02*
X101496800Y-136274540I-300040J40D01*
G01*
X100860708Y-138436368D02*
G75*
G02*
X100860670Y-138860670I-212208J-212132D01*
G01*
X101496800Y-136874500D02*
G75*
G02*
X101796800Y-137174540I0J-300000D01*
G01*
X101709200Y-138012141D02*
G75*
G02*
X101284938Y-138012141I-212131J212131D01*
G01*
X101225434Y-137952642D02*
G75*
G03*
X100801170Y-137952642I-212132J-212130D01*
G01*
%TO.N,/Ethernet/TX1+*%
X104200000Y-133570000D02*
X104200000Y-133800000D01*
X112458900Y-121432801D02*
X112458900Y-120366000D01*
X107170000Y-138582630D02*
X104103200Y-135515830D01*
X104200000Y-131820000D02*
X104200000Y-132010000D01*
X112408100Y-121483601D02*
X112458900Y-121432801D01*
X110785833Y-124201535D02*
X110785834Y-124201534D01*
X104380000Y-133390000D02*
X104200000Y-133570000D01*
X110785833Y-124569420D02*
X110785834Y-124569420D01*
X108596537Y-125603200D02*
X109384170Y-125603200D01*
X110729455Y-124993684D02*
X110729455Y-124993685D01*
X104380000Y-132220000D02*
X104380000Y-133390000D01*
X110785834Y-124201534D02*
X112408100Y-122579270D01*
X104103200Y-134331801D02*
X104200000Y-134235001D01*
X104103200Y-135515830D02*
X104103200Y-134331801D01*
X110729455Y-124993685D02*
X110785834Y-124937305D01*
X104103201Y-131723201D02*
X104103201Y-131584169D01*
X109384170Y-125603200D02*
X109993685Y-124993685D01*
X104103201Y-131584169D02*
X106765701Y-128921669D01*
X107400000Y-127900000D02*
X107400000Y-126799737D01*
X104200000Y-132040000D02*
X104380000Y-132220000D01*
X106765701Y-128534299D02*
X107400000Y-127900000D01*
X112408100Y-122579270D02*
X112408100Y-121483601D01*
X107400000Y-126799737D02*
X108596537Y-125603200D01*
X104200000Y-134235001D02*
X104200000Y-133800000D01*
X107170000Y-143400000D02*
X107170000Y-138582630D01*
X104200000Y-131820000D02*
X104200000Y-132040000D01*
X104200000Y-131820000D02*
X104103201Y-131723201D01*
X106765701Y-128921669D02*
X106765701Y-128534299D01*
X110361569Y-124993685D02*
X110361570Y-124993685D01*
X110785856Y-124201558D02*
G75*
G03*
X110785834Y-124569420I183944J-183942D01*
G01*
X110729443Y-124993672D02*
G75*
G02*
X110361570Y-124993685I-183943J183972D01*
G01*
X110361568Y-124993686D02*
G75*
G03*
X109993686Y-124993686I-183941J-183942D01*
G01*
X110785796Y-124569457D02*
G75*
G02*
X110785834Y-124937305I-183896J-183943D01*
G01*
%TO.N,/Ethernet/RX2+*%
X119753201Y-128665831D02*
X119753201Y-128534299D01*
X120387500Y-127900000D02*
X115643815Y-123156315D01*
X114948100Y-121432801D02*
X114948100Y-120366000D01*
X122503200Y-138302850D02*
X122503200Y-134431801D01*
X120010000Y-141197369D02*
X120301400Y-140905969D01*
X122600000Y-131755000D02*
X122503200Y-131658200D01*
X122600000Y-131920000D02*
X122600000Y-132130000D01*
X120010000Y-143450000D02*
X120010000Y-141197369D01*
X122600000Y-134335001D02*
X122600000Y-133900000D01*
X119753201Y-128534299D02*
X120387500Y-127900000D01*
X115643685Y-123156315D02*
X114910000Y-122422630D01*
X114910000Y-122422630D02*
X114910000Y-121470901D01*
X122503200Y-131658200D02*
X122503200Y-131415830D01*
X122760000Y-133520000D02*
X122600000Y-133680000D01*
X122503200Y-131415830D02*
X119753201Y-128665831D01*
X122600000Y-132130000D02*
X122760000Y-132290000D01*
X122600000Y-133680000D02*
X122600000Y-133900000D01*
X114910000Y-121470901D02*
X114948100Y-121432801D01*
X122503200Y-134431801D02*
X122600000Y-134335001D01*
X115643815Y-123156315D02*
X115643685Y-123156315D01*
X122600000Y-131920000D02*
X122600000Y-131755000D01*
X122760000Y-132290000D02*
X122760000Y-133520000D01*
X120301400Y-140905969D02*
X120301400Y-140504650D01*
X120301400Y-140504650D02*
X122503200Y-138302850D01*
%TO.N,/Ethernet/TX2-*%
X119882942Y-124803200D02*
X119803200Y-124803200D01*
X115964100Y-121432801D02*
X115964100Y-120366000D01*
X123900000Y-131484999D02*
X123996800Y-131388199D01*
X123996800Y-131215830D02*
X126346799Y-128865831D01*
X125712500Y-126799737D02*
X123715963Y-124803200D01*
X126346799Y-128534299D02*
X125712500Y-127900000D01*
X123900000Y-133700000D02*
X123900000Y-133900000D01*
X116002200Y-122589570D02*
X116002200Y-121470901D01*
X125712500Y-127900000D02*
X125712500Y-126799737D01*
X126346799Y-128865831D02*
X126346799Y-128534299D01*
X124786959Y-137385832D02*
X124786958Y-137385833D01*
X124786958Y-137385833D02*
X124930578Y-137242212D01*
X123996800Y-134431801D02*
X123996800Y-135884170D01*
X123900000Y-131920000D02*
X123900000Y-132140000D01*
X126203371Y-138090741D02*
X127223600Y-139110970D01*
X123900000Y-134335001D02*
X123996800Y-134431801D01*
X123900000Y-132140000D02*
X123720000Y-132320000D01*
X123900000Y-133900000D02*
X123900000Y-134335001D01*
X127223600Y-139110970D02*
X127223600Y-140046400D01*
X118215830Y-124803200D02*
X116002200Y-122589570D01*
X123900000Y-131920000D02*
X123900000Y-131484999D01*
X123720000Y-133520000D02*
X123900000Y-133700000D01*
X123996800Y-131388199D02*
X123996800Y-131215830D01*
X123720000Y-132320000D02*
X123720000Y-133520000D01*
X116002200Y-121470901D02*
X115964100Y-121432801D01*
X125354843Y-137666477D02*
X125211222Y-137810097D01*
X120743071Y-125063329D02*
X120743071Y-125063330D01*
X123996800Y-135884170D02*
X124506315Y-136393685D01*
X120143071Y-125063330D02*
X120143071Y-125063329D01*
X119803200Y-124803200D02*
X118215830Y-124803200D01*
X125635486Y-138234361D02*
X125779106Y-138090740D01*
X127223600Y-140046400D02*
X126360000Y-140910000D01*
X125354842Y-137242212D02*
X125354843Y-137242213D01*
X124506315Y-136817949D02*
X124362694Y-136961569D01*
X124506314Y-136817950D02*
X124506315Y-136817949D01*
X120482942Y-125323459D02*
X120403200Y-125323459D01*
X126203370Y-138090740D02*
X126203371Y-138090741D01*
X125635487Y-138234360D02*
X125635486Y-138234361D01*
X125354842Y-137666478D02*
X125354843Y-137666477D01*
X123715963Y-124803200D02*
X121003200Y-124803200D01*
X125211252Y-138234331D02*
G75*
G02*
X125211223Y-137810098I212148J212131D01*
G01*
X119882942Y-124803129D02*
G75*
G02*
X120143071Y-125063329I-42J-260171D01*
G01*
X124362696Y-137385831D02*
G75*
G02*
X124362695Y-136961570I212104J212131D01*
G01*
X125354796Y-137666432D02*
G75*
G03*
X125354842Y-137242214I-212096J212132D01*
G01*
X120482942Y-125323471D02*
G75*
G03*
X120743071Y-125063330I-42J260171D01*
G01*
X125354841Y-137242213D02*
G75*
G03*
X124930579Y-137242213I-212131J-212131D01*
G01*
X120143041Y-125063330D02*
G75*
G03*
X120403200Y-125323459I260159J30D01*
G01*
X124786933Y-137385806D02*
G75*
G02*
X124362694Y-137385833I-212133J212106D01*
G01*
X124506296Y-136817932D02*
G75*
G03*
X124506314Y-136393686I-212096J212132D01*
G01*
X125635532Y-138234405D02*
G75*
G02*
X125211223Y-138234360I-212132J212205D01*
G01*
X126203369Y-138090741D02*
G75*
G03*
X125779107Y-138090741I-212131J-212131D01*
G01*
X120743100Y-125063329D02*
G75*
G02*
X121003200Y-124803200I260100J29D01*
G01*
%TO.N,/Ethernet/RX2-*%
X119895019Y-140336321D02*
X119895019Y-140737612D01*
X121796800Y-136896800D02*
X121712598Y-136896800D01*
X122000000Y-133690000D02*
X122000000Y-133900000D01*
X122000000Y-131755000D02*
X122096800Y-131658200D01*
X114503600Y-122590970D02*
X115356315Y-123443685D01*
X122000000Y-134335001D02*
X122096800Y-134431801D01*
X119346799Y-128534299D02*
X118712500Y-127900000D01*
X121712598Y-137496800D02*
X121796800Y-137496800D01*
X115356315Y-123443685D02*
X115356448Y-123443685D01*
X121820000Y-133510000D02*
X122000000Y-133690000D01*
X122000000Y-131920000D02*
X122000000Y-131755000D01*
X122096800Y-134431801D02*
X122096800Y-136596800D01*
X121283630Y-138523445D02*
X121259445Y-138499260D01*
X122096800Y-138134540D02*
X121707895Y-138523445D01*
X116156379Y-124979280D02*
X116156380Y-124979280D01*
X114465500Y-120366000D02*
X114465500Y-121432801D01*
X122000000Y-132140000D02*
X121820000Y-132320000D01*
X122000000Y-131920000D02*
X122000000Y-132140000D01*
X116948475Y-125035710D02*
X116948475Y-125035711D01*
X119346799Y-128834169D02*
X119346799Y-128534299D01*
X121283629Y-138523445D02*
X121283630Y-138523445D01*
X122000000Y-133900000D02*
X122000000Y-134335001D01*
X122096800Y-137846800D02*
X122096800Y-138134540D01*
X116156380Y-124979280D02*
X116212812Y-125035712D01*
X119722631Y-140910000D02*
X118740000Y-140910000D01*
X122096800Y-137796800D02*
X122096800Y-137846800D01*
X120859366Y-139371973D02*
X119895019Y-140336321D01*
X116580644Y-125035712D02*
X116580644Y-125035711D01*
X116948475Y-125035711D02*
X118712500Y-126799737D01*
X121820000Y-132320000D02*
X121820000Y-133510000D01*
X118712500Y-126799737D02*
X118712500Y-127900000D01*
X116580643Y-125035713D02*
X116580644Y-125035712D01*
X115356448Y-123443685D02*
X116156381Y-124243618D01*
X114465500Y-121432801D02*
X114503600Y-121470901D01*
X122096800Y-131584170D02*
X119346799Y-128834169D01*
X120859365Y-139371972D02*
X120859366Y-139371973D01*
X119895019Y-140737612D02*
X119722631Y-140910000D01*
X114503600Y-121470901D02*
X114503600Y-122590970D01*
X122096800Y-131658200D02*
X122096800Y-131584170D01*
X120835181Y-138923524D02*
X120859365Y-138947708D01*
X121283629Y-138523445D02*
G75*
G03*
X121707895Y-138523445I212133J212134D01*
G01*
X121712598Y-137496802D02*
G75*
G02*
X121412598Y-137196800I2J300002D01*
G01*
X121412600Y-137196800D02*
G75*
G02*
X121712598Y-136896800I300000J0D01*
G01*
X121796800Y-136896800D02*
G75*
G03*
X122096800Y-136596800I0J300000D01*
G01*
X116948515Y-125035670D02*
G75*
G03*
X116580644Y-125035711I-183915J-183930D01*
G01*
X116156344Y-124979315D02*
G75*
G02*
X116156380Y-124611449I183956J183915D01*
G01*
X120835182Y-138499261D02*
G75*
G02*
X121259444Y-138499261I212131J-212131D01*
G01*
X120835173Y-138923532D02*
G75*
G02*
X120835181Y-138499260I212127J212132D01*
G01*
X120859325Y-139371932D02*
G75*
G03*
X120859365Y-138947708I-212125J212132D01*
G01*
X116156347Y-124611415D02*
G75*
G03*
X116156380Y-124243619I-183847J183915D01*
G01*
X116580614Y-125035684D02*
G75*
G02*
X116212813Y-125035711I-183914J183884D01*
G01*
X122096800Y-137796800D02*
G75*
G03*
X121796800Y-137496800I-300000J0D01*
G01*
%TO.N,/Ethernet/TX2+*%
X124403200Y-134431801D02*
X124500000Y-134335001D01*
X124403200Y-131388199D02*
X124403200Y-131384170D01*
X127630000Y-143450000D02*
X127630000Y-138942630D01*
X124403200Y-131384170D02*
X126753201Y-129034169D01*
X116446700Y-121432801D02*
X116446700Y-120366000D01*
X123884300Y-124396800D02*
X118384170Y-124396800D01*
X124680000Y-133520000D02*
X124500000Y-133700000D01*
X116408600Y-121470901D02*
X116446700Y-121432801D01*
X124500000Y-133700000D02*
X124500000Y-133900000D01*
X126753201Y-129034169D02*
X126753201Y-128534299D01*
X124500000Y-131484999D02*
X124403200Y-131388199D01*
X124500000Y-132120000D02*
X124680000Y-132300000D01*
X126753201Y-128534299D02*
X127387500Y-127900000D01*
X124500000Y-131920000D02*
X124500000Y-131484999D01*
X118384170Y-124396800D02*
X116408600Y-122421230D01*
X124403200Y-135715830D02*
X124403200Y-134431801D01*
X127387500Y-127900000D02*
X123884300Y-124396800D01*
X124500000Y-131920000D02*
X124500000Y-132120000D01*
X124680000Y-132300000D02*
X124680000Y-133520000D01*
X124500000Y-134335001D02*
X124500000Y-133900000D01*
X127630000Y-138942630D02*
X124403200Y-135715830D01*
X116408600Y-122421230D02*
X116408600Y-121470901D01*
D57*
%TO.N,GNDREF*%
X94850000Y-146700000D02*
X110600000Y-146700000D01*
X133000000Y-144900000D02*
X133000000Y-141570000D01*
X110600000Y-146700000D02*
X115260000Y-146700000D01*
X115260000Y-146700000D02*
X115310000Y-146750000D01*
X115310000Y-146750000D02*
X131060000Y-146750000D01*
X132910000Y-144900000D02*
X133000000Y-144900000D01*
X131060000Y-146750000D02*
X132910000Y-144900000D01*
D58*
%TO.N,/Power/5V*%
X58800000Y-88700000D02*
X59300000Y-88200000D01*
X48000000Y-88700000D02*
X58800000Y-88700000D01*
X59315000Y-88215000D02*
X62000000Y-88215000D01*
X59300000Y-88200000D02*
X59315000Y-88215000D01*
D57*
%TO.N,/MCU/UART_TX*%
X110003158Y-66750000D02*
X113350000Y-66750000D01*
X105054000Y-71962317D02*
X105054000Y-69979158D01*
X109099158Y-67654000D02*
X110003158Y-66750000D01*
X104440000Y-74567500D02*
X104440000Y-72404000D01*
X113350000Y-66750000D02*
X114460000Y-65640000D01*
X105054000Y-69979158D02*
X107379158Y-67654000D01*
X104612317Y-72404000D02*
X105054000Y-71962317D01*
X114460000Y-65640000D02*
X114460000Y-64300000D01*
X107379158Y-67654000D02*
X109099158Y-67654000D01*
X104440000Y-72404000D02*
X104612317Y-72404000D01*
%TO.N,/MCU/UART_RX*%
X104677000Y-71806159D02*
X104677000Y-69823000D01*
X104677000Y-69823000D02*
X107223000Y-67277000D01*
X103940000Y-74567500D02*
X103940000Y-72027000D01*
X103940000Y-72027000D02*
X104456159Y-72027000D01*
X104456159Y-72027000D02*
X104677000Y-71806159D01*
X108943000Y-67277000D02*
X111920000Y-64300000D01*
X107223000Y-67277000D02*
X108943000Y-67277000D01*
%TO.N,/MCU/JTAG_SWDIO*%
X104300000Y-67065000D02*
X101535000Y-64300000D01*
X102440000Y-74567500D02*
X102450000Y-74557500D01*
X102450000Y-74557500D02*
X102450000Y-72900000D01*
X102450000Y-72900000D02*
X103700000Y-71650000D01*
X104300000Y-71650000D02*
X104300000Y-67065000D01*
X103700000Y-71650000D02*
X104300000Y-71650000D01*
%TO.N,/MCU/JTAG_SWCLK*%
X98930000Y-76480000D02*
X97175000Y-74725000D01*
X99027500Y-76480000D02*
X98930000Y-76480000D01*
X98995000Y-67695000D02*
X98995000Y-64300000D01*
X99225000Y-67925000D02*
X98995000Y-67695000D01*
%TO.N,/MCU/JTAG_SWO*%
X90700000Y-78000000D02*
X93100000Y-75600000D01*
X95823000Y-88123000D02*
X92500000Y-84800000D01*
X97360710Y-88480000D02*
X97003710Y-88123000D01*
X99027500Y-88480000D02*
X97360710Y-88480000D01*
X91500000Y-84800000D02*
X90700000Y-84000000D01*
X97003710Y-88123000D02*
X95823000Y-88123000D01*
X92500000Y-84800000D02*
X91500000Y-84800000D01*
X90700000Y-84000000D02*
X90700000Y-78000000D01*
%TO.N,Net-(J3-Pad9)*%
X90500000Y-148900000D02*
X88587500Y-148900000D01*
X90900000Y-150200000D02*
X90900000Y-149300000D01*
X97300000Y-156600000D02*
X90900000Y-150200000D01*
X107280000Y-156600000D02*
X97300000Y-156600000D01*
X90900000Y-149300000D02*
X90500000Y-148900000D01*
X109050000Y-154830000D02*
X107280000Y-156600000D01*
%TO.N,Net-(J3-Pad11)*%
X98940000Y-154830000D02*
X96682958Y-154830000D01*
X91800000Y-149947042D02*
X91800000Y-147800000D01*
X91800000Y-147800000D02*
X91200000Y-147200000D01*
X96682958Y-154830000D02*
X91800000Y-149947042D01*
X91200000Y-147200000D02*
X88600000Y-147200000D01*
%TO.N,Net-(J4-Pad9)*%
X96300000Y-157900000D02*
X91300000Y-152900000D01*
X129510000Y-154880000D02*
X127620000Y-154880000D01*
X90000000Y-152300000D02*
X88612500Y-152300000D01*
X127620000Y-154880000D02*
X124600000Y-157900000D01*
X91300000Y-152900000D02*
X90600000Y-152900000D01*
X124600000Y-157900000D02*
X96300000Y-157900000D01*
X90600000Y-152900000D02*
X90000000Y-152300000D01*
%TO.N,Net-(J4-Pad11)*%
X88687500Y-150500000D02*
X88587500Y-150600000D01*
X97000000Y-157300000D02*
X90200000Y-150500000D01*
X119400000Y-154880000D02*
X118120000Y-154880000D01*
X118120000Y-154880000D02*
X115700000Y-157300000D01*
X90200000Y-150500000D02*
X88687500Y-150500000D01*
X115700000Y-157300000D02*
X97000000Y-157300000D01*
%TO.N,/Display/DISP_SCL*%
X99027500Y-89980000D02*
X98327552Y-89980000D01*
X65750000Y-100295000D02*
X66850000Y-99195000D01*
X98327552Y-89980000D02*
X96847552Y-88500000D01*
X60800000Y-107645000D02*
X60550000Y-107395000D01*
X69150000Y-99195000D02*
X71550000Y-101595000D01*
X66850000Y-99195000D02*
X69150000Y-99195000D01*
X64150000Y-100295000D02*
X65750000Y-100295000D01*
X60550000Y-107395000D02*
X60550000Y-103895000D01*
X89850000Y-88500000D02*
X77125000Y-101225000D01*
X96847552Y-88500000D02*
X89850000Y-88500000D01*
X71550000Y-101595000D02*
X71550000Y-107195000D01*
X72170000Y-107815000D02*
X74950000Y-107815000D01*
X77125000Y-101225000D02*
X77125000Y-105640000D01*
X62450000Y-107645000D02*
X60800000Y-107645000D01*
X71550000Y-107195000D02*
X72170000Y-107815000D01*
X60550000Y-103895000D02*
X64150000Y-100295000D01*
X77125000Y-105640000D02*
X74950000Y-107815000D01*
%TO.N,/Display/DISP_SCA*%
X96691394Y-88877000D02*
X90048000Y-88877000D01*
X98294394Y-90480000D02*
X96691394Y-88877000D01*
X77502000Y-107803000D02*
X74950000Y-110355000D01*
X61050000Y-104295000D02*
X63450000Y-101895000D01*
X77502000Y-101423000D02*
X77502000Y-107803000D01*
X99027500Y-90480000D02*
X98294394Y-90480000D01*
X66050000Y-101895000D02*
X66850000Y-102695000D01*
X62450000Y-106945000D02*
X61200000Y-106945000D01*
X63450000Y-101895000D02*
X65737500Y-101895000D01*
X70950000Y-103595000D02*
X70950000Y-107995000D01*
X61200000Y-106945000D02*
X61050000Y-106795000D01*
X65737500Y-101895000D02*
X66050000Y-101895000D01*
X61050000Y-106795000D02*
X61050000Y-104295000D01*
X73310000Y-110355000D02*
X74950000Y-110355000D01*
X90048000Y-88877000D02*
X77502000Y-101423000D01*
X70050000Y-102695000D02*
X70950000Y-103595000D01*
X70950000Y-107995000D02*
X73310000Y-110355000D01*
X66850000Y-102695000D02*
X70050000Y-102695000D01*
%TO.N,Net-(J5-Pad12)*%
X64987500Y-106245000D02*
X62450000Y-106245000D01*
X65737500Y-106995000D02*
X64987500Y-106245000D01*
D61*
%TO.N,Net-(J7-PadA5)*%
X67000000Y-65500000D02*
X67000000Y-67380000D01*
X73950000Y-67310000D02*
X73950000Y-66330000D01*
X73950000Y-66330000D02*
X73430000Y-65810000D01*
X67860000Y-74147500D02*
X68712500Y-75000000D01*
X67000000Y-67380000D02*
X67860000Y-68240000D01*
X67860000Y-68240000D02*
X67860000Y-74147500D01*
D59*
%TO.N,/USB/USBDM+*%
X71950000Y-66526800D02*
X72256800Y-66220000D01*
X71950000Y-68780000D02*
X77320000Y-74150000D01*
X71950000Y-67310000D02*
X71950000Y-68780000D01*
X85037500Y-74150000D02*
X88737500Y-74150000D01*
X72730000Y-66220000D02*
X72950000Y-66440000D01*
X88737500Y-74150000D02*
X88787500Y-74100000D01*
X77320000Y-74150000D02*
X82762500Y-74150000D01*
X71950000Y-67310000D02*
X71950000Y-66526800D01*
X72950000Y-66440000D02*
X72950000Y-67310000D01*
X72256800Y-66220000D02*
X72730000Y-66220000D01*
X82762500Y-74150000D02*
X85037500Y-74150000D01*
%TO.N,/USB/USBDM-*%
X88737500Y-72250000D02*
X88787500Y-72300000D01*
X72780000Y-68450000D02*
X73130000Y-68450000D01*
X73450000Y-67310000D02*
X73450000Y-68790000D01*
X72450000Y-68120000D02*
X72780000Y-68450000D01*
X82762500Y-72250000D02*
X85037500Y-72250000D01*
X73450000Y-68790000D02*
X76910000Y-72250000D01*
X76910000Y-72250000D02*
X82762500Y-72250000D01*
X73130000Y-68450000D02*
X73450000Y-68130000D01*
X85037500Y-72250000D02*
X88737500Y-72250000D01*
X72450000Y-67310000D02*
X72450000Y-68120000D01*
X73450000Y-68130000D02*
X73450000Y-67310000D01*
D61*
%TO.N,Net-(J7-PadB5)*%
X70950000Y-70580000D02*
X70970000Y-70600000D01*
X68750000Y-70630000D02*
X68750000Y-73262500D01*
X68750000Y-73262500D02*
X68712500Y-73300000D01*
X70950000Y-67310000D02*
X70950000Y-70580000D01*
D60*
%TO.N,/MCU/B0*%
X97075000Y-100525000D02*
X87950000Y-100525000D01*
X105300000Y-98300000D02*
X105300000Y-98750000D01*
X109440000Y-95892500D02*
X109440000Y-96486382D01*
X105300000Y-98750000D02*
X105300000Y-99025000D01*
X109440000Y-96486382D02*
X108551382Y-97375000D01*
X87950000Y-100525000D02*
X86492500Y-101982500D01*
D57*
X86492500Y-105305000D02*
X86550000Y-105362500D01*
D60*
X105300000Y-99025000D02*
X104650000Y-99675000D01*
D57*
X86492500Y-102192500D02*
X86492500Y-105305000D01*
D60*
X108551382Y-97375000D02*
X106225000Y-97375000D01*
X106225000Y-97375000D02*
X105300000Y-98300000D01*
X97900000Y-99700000D02*
X97075000Y-100525000D01*
X86492500Y-101982500D02*
X86492500Y-102192500D01*
D57*
%TO.N,/MCU/BOOT0*%
X96275000Y-91662500D02*
X96287500Y-91650000D01*
X96957500Y-90980000D02*
X96287500Y-91650000D01*
X96275000Y-94450000D02*
X96275000Y-91662500D01*
X99027500Y-90980000D02*
X96957500Y-90980000D01*
D62*
%TO.N,/MCU/PDR_ON*%
X95950000Y-97350000D02*
X95950000Y-99050000D01*
D57*
X97300000Y-96275000D02*
X96225000Y-97350000D01*
X99027500Y-93480000D02*
X98327552Y-93480000D01*
X97300000Y-94507552D02*
X97300000Y-96275000D01*
X96225000Y-97350000D02*
X95950000Y-97350000D01*
X98327552Y-93480000D02*
X97300000Y-94507552D01*
%TO.N,/Ethernet/P1LED0*%
X109512500Y-116937000D02*
X110963000Y-116937000D01*
X110963000Y-116937000D02*
X111100000Y-116800000D01*
X99612500Y-115900000D02*
X99512500Y-115800000D01*
X95727000Y-115073000D02*
X98785500Y-115073000D01*
X98785500Y-115073000D02*
X99512500Y-115800000D01*
X85300000Y-147437500D02*
X86762500Y-148900000D01*
X87352000Y-123448000D02*
X95727000Y-115073000D01*
X101200000Y-115900000D02*
X99612500Y-115900000D01*
X85300000Y-135800000D02*
X85300000Y-147437500D01*
%TO.N,/Ethernet/P1LED1*%
X108795842Y-116429000D02*
X107500000Y-115133158D01*
X86775000Y-147200000D02*
X86775000Y-132375000D01*
X86700000Y-122477932D02*
X95804932Y-113373000D01*
X100312500Y-114900000D02*
X99512500Y-114100000D01*
X107400000Y-114900000D02*
X100312500Y-114900000D01*
X109512500Y-116429000D02*
X108795842Y-116429000D01*
X86700000Y-128700000D02*
X86700000Y-122477932D01*
X86775000Y-132375000D02*
X86700000Y-132300000D01*
X98785500Y-113373000D02*
X99512500Y-114100000D01*
X107500000Y-115000000D02*
X107400000Y-114900000D01*
X95804932Y-113373000D02*
X98785500Y-113373000D01*
X107500000Y-115133158D02*
X107500000Y-115000000D01*
%TO.N,/Ethernet/P2LED0*%
X108551300Y-117927600D02*
X108178900Y-118300000D01*
X108178900Y-118300000D02*
X102800000Y-118300000D01*
X109512500Y-117927600D02*
X108551300Y-117927600D01*
X87700000Y-151387500D02*
X87700000Y-131012500D01*
X101900000Y-119200000D02*
X99512500Y-119200000D01*
X86787500Y-152300000D02*
X87700000Y-151387500D01*
X102800000Y-118300000D02*
X101900000Y-119200000D01*
X87700000Y-131012500D02*
X99512500Y-119200000D01*
%TO.N,/Ethernet/P2LED1*%
X109512500Y-117419600D02*
X108641668Y-117419600D01*
X101948000Y-116752000D02*
X101200000Y-117500000D01*
X101200000Y-117500000D02*
X99512500Y-117500000D01*
X107852000Y-116752000D02*
X101948000Y-116752000D01*
X108641668Y-117419600D02*
X108022068Y-116800000D01*
X86762500Y-150600000D02*
X84600000Y-148437500D01*
X84600000Y-133300000D02*
X97800000Y-120100000D01*
X97800000Y-120100000D02*
X97967258Y-120100000D01*
X107900000Y-116800000D02*
X107852000Y-116752000D01*
X98700000Y-119367258D02*
X98700000Y-118312500D01*
X97967258Y-120100000D02*
X98700000Y-119367258D01*
X108022068Y-116800000D02*
X107900000Y-116800000D01*
X84600000Y-148437500D02*
X84600000Y-133300000D01*
X98700000Y-118312500D02*
X99512500Y-117500000D01*
%TO.N,/Ethernet/ISET*%
X112400000Y-117500000D02*
X112400000Y-118100000D01*
X112400000Y-118100000D02*
X113449500Y-119149500D01*
X107779000Y-117479000D02*
X107800000Y-117500000D01*
X106412500Y-117479000D02*
X107779000Y-117479000D01*
X113449500Y-119149500D02*
X113449500Y-120366000D01*
%TO.N,/Ethernet/MII_LINK_MODE*%
X121887500Y-113079000D02*
X121534700Y-113431800D01*
X121534700Y-113431800D02*
X117894500Y-113431800D01*
D59*
%TO.N,/MCU/USB_D+*%
X102986799Y-74614299D02*
X102986799Y-75800831D01*
X94034007Y-72996799D02*
X94028201Y-72996799D01*
X102986799Y-75800831D02*
X102240830Y-76546800D01*
X94331104Y-72699701D02*
X94331104Y-72699702D01*
X94634007Y-72402604D02*
X94628201Y-72402604D01*
X101234170Y-76546800D02*
X97684169Y-72996799D01*
X102940000Y-74567500D02*
X102986799Y-74614299D01*
X94028201Y-72996799D02*
X91309299Y-72996799D01*
X97684169Y-72996799D02*
X95228201Y-72996799D01*
X94931104Y-72699702D02*
X94931104Y-72699701D01*
X91309299Y-72996799D02*
X90612500Y-72300000D01*
X102240830Y-76546800D02*
X101234170Y-76546800D01*
X94034007Y-72996804D02*
G75*
G03*
X94331104Y-72699702I-7J297104D01*
G01*
X94331104Y-72699701D02*
G75*
G02*
X94628201Y-72402604I297096J1D01*
G01*
X94634007Y-72402596D02*
G75*
G02*
X94931104Y-72699701I-7J-297104D01*
G01*
X94931101Y-72699702D02*
G75*
G03*
X95228201Y-72996799I297099J2D01*
G01*
%TO.N,/MCU/USB_D-*%
X103393201Y-75969169D02*
X103393201Y-74614299D01*
X103393201Y-74614299D02*
X103440000Y-74567500D01*
X102409170Y-76953200D02*
X103393201Y-75969169D01*
X91309299Y-73403201D02*
X97515831Y-73403201D01*
X90612500Y-74100000D02*
X91309299Y-73403201D01*
X97515831Y-73403201D02*
X101065830Y-76953200D01*
X101065830Y-76953200D02*
X102409170Y-76953200D01*
D60*
%TO.N,/MCU/ETH_TXD2*%
X114440000Y-97215000D02*
X114440000Y-95892500D01*
X115625000Y-98400000D02*
X114440000Y-97215000D01*
X117894500Y-116429000D02*
X117204000Y-116429000D01*
X117204000Y-116429000D02*
X116550000Y-115775000D01*
%TO.N,/MCU/ETH_TX_CLK*%
X116175000Y-97925000D02*
X114940000Y-96690000D01*
X117039400Y-113914400D02*
X116625000Y-113500000D01*
X117375000Y-97925000D02*
X116175000Y-97925000D01*
X117800000Y-109775000D02*
X121450000Y-106125000D01*
X117800000Y-110000000D02*
X117800000Y-109775000D01*
X114940000Y-96690000D02*
X114940000Y-95892500D01*
X117894500Y-113914400D02*
X117039400Y-113914400D01*
X116625000Y-113375000D02*
X117475000Y-112525000D01*
X117475000Y-112525000D02*
X117800000Y-112200000D01*
X117800000Y-112200000D02*
X117800000Y-110000000D01*
X116625000Y-113500000D02*
X116625000Y-113375000D01*
%TO.N,/MCU/ETH_CRS*%
X111950900Y-110725900D02*
X111848000Y-110623000D01*
X117103974Y-106550000D02*
X120125500Y-103528474D01*
X112053973Y-106550001D02*
X117103974Y-106550000D01*
X111950900Y-111984000D02*
X111950900Y-110725900D01*
X117440000Y-97165000D02*
X117440000Y-95892500D01*
X120125500Y-99850500D02*
X117440000Y-97165000D01*
X111848000Y-110623000D02*
X111848000Y-106755974D01*
X111848000Y-106755974D02*
X112053973Y-106550001D01*
X120125500Y-103528474D02*
X120125500Y-99850500D01*
%TO.N,/MCU/ETH_RX_CLK*%
X117950000Y-95902500D02*
X117940000Y-95892500D01*
X120579500Y-100670500D02*
X120579499Y-103716527D01*
X117950000Y-97100000D02*
X117950000Y-95902500D01*
X115389500Y-109589192D02*
X113957500Y-111021192D01*
X120900000Y-100350000D02*
X120579500Y-100670500D01*
X115389500Y-108906526D02*
X115389500Y-109589192D01*
X120579499Y-103716527D02*
X115389500Y-108906526D01*
X113957500Y-111021192D02*
X113957500Y-111984000D01*
X120900000Y-100050000D02*
X120900000Y-100350000D01*
%TO.N,/MCU/ETH_COL*%
X112075000Y-106850000D02*
X112075000Y-110525000D01*
X117198000Y-106777000D02*
X112148000Y-106777000D01*
X120352499Y-103622501D02*
X117198000Y-106777000D01*
X112458900Y-110908900D02*
X112458900Y-111984000D01*
X112148000Y-106777000D02*
X112075000Y-106850000D01*
X112075000Y-110525000D02*
X112458900Y-110908900D01*
X120352500Y-93980000D02*
X120352499Y-103622501D01*
%TO.N,/MCU/SPI_NSS*%
X110652000Y-110152000D02*
X110652000Y-114094100D01*
X107075000Y-103975000D02*
X107075000Y-106575000D01*
X110652000Y-114094100D02*
X110323700Y-114422400D01*
X119096002Y-92480000D02*
X120352500Y-92480000D01*
X107075000Y-106575000D02*
X110652000Y-110152000D01*
X117416002Y-90800000D02*
X119096002Y-92480000D01*
X110323700Y-114422400D02*
X109512500Y-114422400D01*
X116900000Y-90800000D02*
X117416002Y-90800000D01*
%TO.N,/MCU/SPI_SCK*%
X110960300Y-109810300D02*
X110960300Y-111984000D01*
X119280000Y-91980000D02*
X120352500Y-91980000D01*
X107375000Y-103225000D02*
X107650000Y-103500000D01*
X117700000Y-90400000D02*
X119280000Y-91980000D01*
X107650000Y-103500000D02*
X107650000Y-106500000D01*
X107650000Y-106500000D02*
X110960300Y-109810300D01*
%TO.N,/MCU/SPI_MISO*%
X110425000Y-110675000D02*
X110425000Y-113813100D01*
X106516843Y-106766843D02*
X110425000Y-110675000D01*
X117100000Y-89900000D02*
X117735987Y-89900000D01*
X117735987Y-89900000D02*
X119315987Y-91480000D01*
X106800000Y-102775000D02*
X106516843Y-103058157D01*
X106516843Y-103058157D02*
X106516843Y-106766843D01*
X119315987Y-91480000D02*
X120352500Y-91480000D01*
X110323700Y-113914400D02*
X109512500Y-113914400D01*
X110425000Y-113813100D02*
X110323700Y-113914400D01*
%TO.N,/MCU/ETH_RX_DV*%
X121850000Y-91500000D02*
X121330000Y-90980000D01*
X121422404Y-105500000D02*
X116446700Y-110475704D01*
X121875000Y-105500000D02*
X121422404Y-105500000D01*
X121330000Y-90980000D02*
X120352500Y-90980000D01*
X116446700Y-110475704D02*
X116446700Y-111984000D01*
%TO.N,/MCU/ETH_RXD0*%
X122250000Y-103388300D02*
X122250000Y-91025000D01*
X121705000Y-90480000D02*
X120352500Y-90480000D01*
X114465500Y-111172800D02*
X122250000Y-103388300D01*
X114465500Y-111984000D02*
X114465500Y-111172800D01*
X122250000Y-91025000D02*
X121705000Y-90480000D01*
%TO.N,/MCU/ETH_RXD1*%
X114948100Y-111011226D02*
X122477000Y-103482326D01*
X121526026Y-89980000D02*
X120352500Y-89980000D01*
X122477000Y-103482326D02*
X122477000Y-90930974D01*
X122477000Y-90930974D02*
X121526026Y-89980000D01*
X114948100Y-111984000D02*
X114948100Y-111011226D01*
%TO.N,/MCU/ETH_RXD2*%
X115456100Y-110824252D02*
X122704000Y-103576352D01*
X122704000Y-90836948D02*
X121347052Y-89480000D01*
X121347052Y-89480000D02*
X120352500Y-89480000D01*
X115456100Y-111984000D02*
X115456100Y-110824252D01*
X122704000Y-103576352D02*
X122704000Y-90836948D01*
%TO.N,/MCU/ETH_RXD3*%
X115964100Y-110637278D02*
X122931000Y-103670378D01*
X115964100Y-111984000D02*
X115964100Y-110637278D01*
X122931000Y-103670378D02*
X122930999Y-90742921D01*
X121168078Y-88980000D02*
X120352500Y-88980000D01*
X122930999Y-90742921D02*
X121168078Y-88980000D01*
%TO.N,/MCU/ETH_TX_EN*%
X122900000Y-78125000D02*
X122255000Y-77480000D01*
X120037500Y-116662500D02*
X119280400Y-117419600D01*
X122255000Y-77480000D02*
X120352500Y-77480000D01*
X119280400Y-117419600D02*
X117894500Y-117419600D01*
%TO.N,/MCU/ETH_TXD0*%
X118440000Y-73835000D02*
X118440000Y-74567500D01*
X118775000Y-73500000D02*
X118440000Y-73835000D01*
X117894500Y-115413000D02*
X119113000Y-115413000D01*
X121750000Y-73500000D02*
X118775000Y-73500000D01*
X119113000Y-115413000D02*
X119175000Y-115475000D01*
%TO.N,/MCU/ETH_TXD1*%
X119325000Y-116150000D02*
X119096000Y-115921000D01*
X119096000Y-115921000D02*
X117894500Y-115921000D01*
X121725000Y-72850000D02*
X119063618Y-72850000D01*
X117940000Y-73973618D02*
X117940000Y-74567500D01*
X119063618Y-72850000D02*
X117940000Y-73973618D01*
%TO.N,/MCU/MCO_25MHz*%
X105425000Y-76475000D02*
X105440000Y-76460000D01*
X119489400Y-118435600D02*
X119550000Y-118375000D01*
X105440000Y-76460000D02*
X105440000Y-74567500D01*
X117894500Y-118435600D02*
X119489400Y-118435600D01*
%TO.N,/MCU/ETH_INT*%
X99047500Y-84000000D02*
X99027500Y-83980000D01*
X111442900Y-109942900D02*
X111375000Y-109875000D01*
X102275000Y-84000000D02*
X99047500Y-84000000D01*
X111442900Y-111984000D02*
X111442900Y-109942900D01*
%TO.N,/MCU/SPI_MOSI*%
X106100000Y-106700000D02*
X106100000Y-98200000D01*
X109512500Y-110112500D02*
X108850000Y-109450000D01*
X102600000Y-89625000D02*
X99172500Y-89625000D01*
X99172500Y-89625000D02*
X99027500Y-89480000D01*
X107250000Y-107850000D02*
X106100000Y-106700000D01*
X108850000Y-109450000D02*
X107250000Y-107850000D01*
X109512500Y-113431800D02*
X109512500Y-110112500D01*
%TO.N,/MCU/ETH_TXD3*%
X115500000Y-116050000D02*
X116387000Y-116937000D01*
X102470000Y-91480000D02*
X99027500Y-91480000D01*
X102500000Y-91450000D02*
X102470000Y-91480000D01*
X116387000Y-116937000D02*
X117894500Y-116937000D01*
D63*
%TO.N,/Power/ISO_+24V*%
X54897181Y-68242913D02*
X54897181Y-71402819D01*
X50300000Y-76000000D02*
X48000000Y-76000000D01*
X54897181Y-71402819D02*
X50300000Y-76000000D01*
%TO.N,/Power/ISO_GND*%
X47225300Y-78540000D02*
X48000000Y-78540000D01*
X51397180Y-68242913D02*
X45600000Y-74040093D01*
X45600000Y-76914700D02*
X47225300Y-78540000D01*
X45600000Y-74040093D02*
X45600000Y-76914700D01*
%TD*%
M02*
