%TF.GenerationSoftware,KiCad,Pcbnew,(6.0.11)*%
%TF.CreationDate,2023-05-21T23:05:42+09:00*%
%TF.ProjectId,STM32F4_Ethernet,53544d33-3246-4345-9f45-746865726e65,rev?*%
%TF.SameCoordinates,Original*%
%TF.FileFunction,Legend,Bot*%
%TF.FilePolarity,Positive*%
%FSLAX46Y46*%
G04 Gerber Fmt 4.6, Leading zero omitted, Abs format (unit mm)*
G04 Created by KiCad (PCBNEW (6.0.11)) date 2023-05-21 23:05:42*
%MOMM*%
%LPD*%
G01*
G04 APERTURE LIST*
%ADD10C,0.150000*%
%ADD11C,0.120000*%
G04 APERTURE END LIST*
D10*
%TO.C,J3*%
X102503333Y-137852380D02*
X102503333Y-138566666D01*
X102550952Y-138709523D01*
X102646190Y-138804761D01*
X102789047Y-138852380D01*
X102884285Y-138852380D01*
X102122380Y-137852380D02*
X101503333Y-137852380D01*
X101836666Y-138233333D01*
X101693809Y-138233333D01*
X101598571Y-138280952D01*
X101550952Y-138328571D01*
X101503333Y-138423809D01*
X101503333Y-138661904D01*
X101550952Y-138757142D01*
X101598571Y-138804761D01*
X101693809Y-138852380D01*
X101979523Y-138852380D01*
X102074761Y-138804761D01*
X102122380Y-138757142D01*
%TO.C,C1*%
X109029166Y-91927142D02*
X109076785Y-91974761D01*
X109219642Y-92022380D01*
X109314880Y-92022380D01*
X109457738Y-91974761D01*
X109552976Y-91879523D01*
X109600595Y-91784285D01*
X109648214Y-91593809D01*
X109648214Y-91450952D01*
X109600595Y-91260476D01*
X109552976Y-91165238D01*
X109457738Y-91070000D01*
X109314880Y-91022380D01*
X109219642Y-91022380D01*
X109076785Y-91070000D01*
X109029166Y-91117619D01*
X108076785Y-92022380D02*
X108648214Y-92022380D01*
X108362500Y-92022380D02*
X108362500Y-91022380D01*
X108457738Y-91165238D01*
X108552976Y-91260476D01*
X108648214Y-91308095D01*
%TO.C,C12*%
X116627142Y-92319642D02*
X116674761Y-92272023D01*
X116722380Y-92129166D01*
X116722380Y-92033928D01*
X116674761Y-91891071D01*
X116579523Y-91795833D01*
X116484285Y-91748214D01*
X116293809Y-91700595D01*
X116150952Y-91700595D01*
X115960476Y-91748214D01*
X115865238Y-91795833D01*
X115770000Y-91891071D01*
X115722380Y-92033928D01*
X115722380Y-92129166D01*
X115770000Y-92272023D01*
X115817619Y-92319642D01*
X116722380Y-93272023D02*
X116722380Y-92700595D01*
X116722380Y-92986309D02*
X115722380Y-92986309D01*
X115865238Y-92891071D01*
X115960476Y-92795833D01*
X116008095Y-92700595D01*
X115817619Y-93652976D02*
X115770000Y-93700595D01*
X115722380Y-93795833D01*
X115722380Y-94033928D01*
X115770000Y-94129166D01*
X115817619Y-94176785D01*
X115912857Y-94224404D01*
X116008095Y-94224404D01*
X116150952Y-94176785D01*
X116722380Y-93605357D01*
X116722380Y-94224404D01*
%TO.C,J4*%
X122963333Y-137902380D02*
X122963333Y-138616666D01*
X123010952Y-138759523D01*
X123106190Y-138854761D01*
X123249047Y-138902380D01*
X123344285Y-138902380D01*
X122058571Y-138235714D02*
X122058571Y-138902380D01*
X122296666Y-137854761D02*
X122534761Y-138569047D01*
X121915714Y-138569047D01*
%TO.C,C9*%
X103987142Y-87333333D02*
X104034761Y-87285714D01*
X104082380Y-87142857D01*
X104082380Y-87047619D01*
X104034761Y-86904761D01*
X103939523Y-86809523D01*
X103844285Y-86761904D01*
X103653809Y-86714285D01*
X103510952Y-86714285D01*
X103320476Y-86761904D01*
X103225238Y-86809523D01*
X103130000Y-86904761D01*
X103082380Y-87047619D01*
X103082380Y-87142857D01*
X103130000Y-87285714D01*
X103177619Y-87333333D01*
X104082380Y-87809523D02*
X104082380Y-88000000D01*
X104034761Y-88095238D01*
X103987142Y-88142857D01*
X103844285Y-88238095D01*
X103653809Y-88285714D01*
X103272857Y-88285714D01*
X103177619Y-88238095D01*
X103130000Y-88190476D01*
X103082380Y-88095238D01*
X103082380Y-87904761D01*
X103130000Y-87809523D01*
X103177619Y-87761904D01*
X103272857Y-87714285D01*
X103510952Y-87714285D01*
X103606190Y-87761904D01*
X103653809Y-87809523D01*
X103701428Y-87904761D01*
X103701428Y-88095238D01*
X103653809Y-88190476D01*
X103606190Y-88238095D01*
X103510952Y-88285714D01*
%TO.C,C8*%
X114066666Y-91727142D02*
X114114285Y-91774761D01*
X114257142Y-91822380D01*
X114352380Y-91822380D01*
X114495238Y-91774761D01*
X114590476Y-91679523D01*
X114638095Y-91584285D01*
X114685714Y-91393809D01*
X114685714Y-91250952D01*
X114638095Y-91060476D01*
X114590476Y-90965238D01*
X114495238Y-90870000D01*
X114352380Y-90822380D01*
X114257142Y-90822380D01*
X114114285Y-90870000D01*
X114066666Y-90917619D01*
X113495238Y-91250952D02*
X113590476Y-91203333D01*
X113638095Y-91155714D01*
X113685714Y-91060476D01*
X113685714Y-91012857D01*
X113638095Y-90917619D01*
X113590476Y-90870000D01*
X113495238Y-90822380D01*
X113304761Y-90822380D01*
X113209523Y-90870000D01*
X113161904Y-90917619D01*
X113114285Y-91012857D01*
X113114285Y-91060476D01*
X113161904Y-91155714D01*
X113209523Y-91203333D01*
X113304761Y-91250952D01*
X113495238Y-91250952D01*
X113590476Y-91298571D01*
X113638095Y-91346190D01*
X113685714Y-91441428D01*
X113685714Y-91631904D01*
X113638095Y-91727142D01*
X113590476Y-91774761D01*
X113495238Y-91822380D01*
X113304761Y-91822380D01*
X113209523Y-91774761D01*
X113161904Y-91727142D01*
X113114285Y-91631904D01*
X113114285Y-91441428D01*
X113161904Y-91346190D01*
X113209523Y-91298571D01*
X113304761Y-91250952D01*
D11*
%TO.C,J3*%
X110840000Y-148200000D02*
X110840000Y-160610000D01*
X107170000Y-139090000D02*
X94610000Y-139090000D01*
X94610000Y-139090000D02*
X94610000Y-145210000D01*
X94610000Y-148190000D02*
X94610000Y-160610000D01*
X110840000Y-143400000D02*
X110840000Y-145210000D01*
X94610000Y-160610000D02*
X110840000Y-160610000D01*
%TO.C,C1*%
X109008767Y-93510000D02*
X108716233Y-93510000D01*
X109008767Y-92490000D02*
X108716233Y-92490000D01*
%TO.C,C12*%
X117190000Y-92816233D02*
X117190000Y-93108767D01*
X118210000Y-92816233D02*
X118210000Y-93108767D01*
%TO.C,J4*%
X115070000Y-160660000D02*
X131300000Y-160660000D01*
X115070000Y-139140000D02*
X115070000Y-145260000D01*
X115070000Y-148240000D02*
X115070000Y-160660000D01*
X127630000Y-139140000D02*
X115070000Y-139140000D01*
X131300000Y-148250000D02*
X131300000Y-160660000D01*
X131300000Y-143450000D02*
X131300000Y-145260000D01*
%TO.C,C9*%
X102710000Y-87646267D02*
X102710000Y-87353733D01*
X101690000Y-87646267D02*
X101690000Y-87353733D01*
%TO.C,C8*%
X114046267Y-93310000D02*
X113753733Y-93310000D01*
X114046267Y-92290000D02*
X113753733Y-92290000D01*
%TD*%
M02*
