%TF.GenerationSoftware,KiCad,Pcbnew,(6.0.11)*%
%TF.CreationDate,2023-05-21T23:05:42+09:00*%
%TF.ProjectId,STM32F4_Ethernet,53544d33-3246-4345-9f45-746865726e65,rev?*%
%TF.SameCoordinates,Original*%
%TF.FileFunction,Soldermask,Bot*%
%TF.FilePolarity,Negative*%
%FSLAX46Y46*%
G04 Gerber Fmt 4.6, Leading zero omitted, Abs format (unit mm)*
G04 Created by KiCad (PCBNEW (6.0.11)) date 2023-05-21 23:05:42*
%MOMM*%
%LPD*%
G01*
G04 APERTURE LIST*
G04 Aperture macros list*
%AMRoundRect*
0 Rectangle with rounded corners*
0 $1 Rounding radius*
0 $2 $3 $4 $5 $6 $7 $8 $9 X,Y pos of 4 corners*
0 Add a 4 corners polygon primitive as box body*
4,1,4,$2,$3,$4,$5,$6,$7,$8,$9,$2,$3,0*
0 Add four circle primitives for the rounded corners*
1,1,$1+$1,$2,$3*
1,1,$1+$1,$4,$5*
1,1,$1+$1,$6,$7*
1,1,$1+$1,$8,$9*
0 Add four rect primitives between the rounded corners*
20,1,$1+$1,$2,$3,$4,$5,0*
20,1,$1+$1,$4,$5,$6,$7,0*
20,1,$1+$1,$6,$7,$8,$9,0*
20,1,$1+$1,$8,$9,$2,$3,0*%
G04 Aperture macros list end*
%ADD10C,5.700000*%
%ADD11C,0.800000*%
%ADD12C,1.100000*%
%ADD13R,1.700000X1.700000*%
%ADD14O,1.700000X1.700000*%
%ADD15O,1.950000X3.900000*%
%ADD16C,0.600000*%
%ADD17O,0.900000X2.000000*%
%ADD18O,0.900000X1.700000*%
%ADD19C,3.250000*%
%ADD20RoundRect,0.250500X0.499500X0.499500X-0.499500X0.499500X-0.499500X-0.499500X0.499500X-0.499500X0*%
%ADD21C,1.500000*%
%ADD22C,2.500000*%
%ADD23RoundRect,0.237500X0.300000X0.237500X-0.300000X0.237500X-0.300000X-0.237500X0.300000X-0.237500X0*%
%ADD24RoundRect,0.237500X-0.237500X0.300000X-0.237500X-0.300000X0.237500X-0.300000X0.237500X0.300000X0*%
%ADD25RoundRect,0.237500X0.237500X-0.300000X0.237500X0.300000X-0.237500X0.300000X-0.237500X-0.300000X0*%
G04 APERTURE END LIST*
D10*
%TO.C,H4*%
X81200000Y-156200000D03*
%TD*%
D11*
%TO.C,SW3*%
X124500000Y-103487500D03*
%TD*%
D10*
%TO.C,H2*%
X132000000Y-64000000D03*
%TD*%
D11*
%TO.C,SW2*%
X94575000Y-94450000D03*
%TD*%
D12*
%TO.C,J5*%
X59450000Y-114495000D03*
X59450000Y-104295000D03*
%TD*%
D13*
%TO.C,J1*%
X117000000Y-64300000D03*
D14*
X114460000Y-64300000D03*
X111920000Y-64300000D03*
X109380000Y-64300000D03*
%TD*%
D10*
%TO.C,H1*%
X40000000Y-64000000D03*
%TD*%
D15*
%TO.C,U7*%
X58397180Y-68242913D03*
X54897181Y-68242913D03*
X51397180Y-68242913D03*
%TD*%
D10*
%TO.C,H3*%
X39725000Y-156000000D03*
%TD*%
D13*
%TO.C,J6*%
X74950000Y-112895000D03*
D14*
X74950000Y-110355000D03*
X74950000Y-107815000D03*
X74950000Y-105275000D03*
%TD*%
D16*
%TO.C,J7*%
X69810000Y-66250000D03*
X75590000Y-66250000D03*
D17*
X77020000Y-66730000D03*
D18*
X77020000Y-62560000D03*
D17*
X68380000Y-66730000D03*
D18*
X68380000Y-62560000D03*
%TD*%
D11*
%TO.C,SW1*%
X88192500Y-102192500D03*
%TD*%
D13*
%TO.C,J2*%
X104075000Y-64300000D03*
D14*
X101535000Y-64300000D03*
X98995000Y-64300000D03*
X96455000Y-64300000D03*
X93915000Y-64300000D03*
%TD*%
D19*
%TO.C,J3*%
X108440000Y-149750000D03*
X97010000Y-149750000D03*
D20*
X107170000Y-143400000D03*
D21*
X105900000Y-140860000D03*
X104630000Y-143400000D03*
X103360000Y-140860000D03*
X102090000Y-143400000D03*
X100820000Y-140860000D03*
X99550000Y-143400000D03*
X98280000Y-140860000D03*
X109050000Y-154830000D03*
X106510000Y-153130000D03*
X98940000Y-154830000D03*
X96400000Y-153130000D03*
D22*
X94850000Y-146700000D03*
X110600000Y-146700000D03*
%TD*%
D23*
%TO.C,C1*%
X109725000Y-93000000D03*
X108000000Y-93000000D03*
%TD*%
D24*
%TO.C,C12*%
X117700000Y-92100000D03*
X117700000Y-93825000D03*
%TD*%
D19*
%TO.C,J4*%
X128900000Y-149800000D03*
X117470000Y-149800000D03*
D20*
X127630000Y-143450000D03*
D21*
X126360000Y-140910000D03*
X125090000Y-143450000D03*
X123820000Y-140910000D03*
X122550000Y-143450000D03*
X121280000Y-140910000D03*
X120010000Y-143450000D03*
X118740000Y-140910000D03*
X129510000Y-154880000D03*
X126970000Y-153180000D03*
X119400000Y-154880000D03*
X116860000Y-153180000D03*
D22*
X115310000Y-146750000D03*
X131060000Y-146750000D03*
%TD*%
D25*
%TO.C,C9*%
X102200000Y-88362500D03*
X102200000Y-86637500D03*
%TD*%
D23*
%TO.C,C8*%
X114762500Y-92800000D03*
X113037500Y-92800000D03*
%TD*%
M02*
