M48
; DRILL file {KiCad (6.0.11)} date Sun May 21 23:05:44 2023
; FORMAT={-:-/ absolute / inch / decimal}
; #@! TF.CreationDate,2023-05-21T23:05:44+09:00
; #@! TF.GenerationSoftware,Kicad,Pcbnew,(6.0.11)
; #@! TF.FileFunction,Plated,1,4,PTH
FMAT,2
INCH
; #@! TA.AperFunction,Plated,PTH,ViaDrill
T1C0.0059
; #@! TA.AperFunction,Plated,PTH,ViaDrill
T2C0.0079
; #@! TA.AperFunction,Plated,PTH,ViaDrill
T3C0.0157
; #@! TA.AperFunction,Plated,PTH,ComponentDrill
T4C0.0236
; #@! TA.AperFunction,Plated,PTH,ComponentDrill
T5C0.0354
; #@! TA.AperFunction,Plated,PTH,ComponentDrill
T6C0.0394
; #@! TA.AperFunction,Plated,PTH,ComponentDrill
T7C0.0402
; #@! TA.AperFunction,Plated,PTH,ComponentDrill
T8C0.0512
; #@! TA.AperFunction,Plated,PTH,ComponentDrill
T9C0.0630
; #@! TA.AperFunction,Plated,PTH,ComponentDrill
T10C0.1260
%
G90
G05
T1
X3.7146Y-3.4419
X3.8543Y-3.9252
X4.0266Y-3.3071
X4.0354Y-3.6004
X4.0394Y-3.5285
X4.0876Y-3.6939
X4.1201Y-3.9242
X4.1772Y-3.8661
X4.2047Y-4.0463
X4.2156Y-4.0935
X4.2274Y-4.064
X4.3848Y-4.3258
X4.5472Y-4.5689
X4.5522Y-3.874
X4.5738Y-3.8271
X4.5886Y-4.5581
X4.6014Y-3.8386
X4.6024Y-3.5748
X4.6102Y-3.5394
X4.6211Y-3.8553
X4.6339Y-3.5591
X4.6437Y-3.8228
X4.6919Y-4.5463
X4.6978Y-4.5728
X4.7259Y-4.593
X4.7431Y-4.6191
X4.7598Y-3.939
X4.7815Y-4.1781
X4.7923Y-2.8681
X4.7933Y-2.8937
X4.7972Y-3.6024
X4.7982Y-4.1535
X4.8199Y-2.8563
X4.8386Y-3.0758
T2
X2.6378Y-2.5787
X2.7067Y-2.7807
X2.7941Y-2.7795
X2.8909Y-2.5909
T3
X1.7638Y-3.3898
X1.9898Y-3.3921
X2.0921Y-3.3921
X2.1866Y-3.3921
X2.285Y-3.3921
X2.3756Y-3.3921
X2.4646Y-3.3937
X2.5256Y-4.3501
X2.5394Y-4.248
X2.5709Y-2.8858
X2.5709Y-2.9528
X2.6063Y-4.831
X2.6772Y-3.2165
X2.7146Y-3.9486
X2.7146Y-4.0116
X2.7146Y-4.0785
X2.7146Y-4.1455
X2.7146Y-4.2124
X2.7185Y-4.2793
X2.7185Y-4.3463
X2.7185Y-4.4171
X2.7283Y-2.7126
X2.7677Y-4.8034
X2.8524Y-4.4447
X2.8642Y-4.1455
X2.9051Y-2.9965
X2.9055Y-3.2453
X2.9557Y-2.7134
X2.9921Y-2.7126
X2.9961Y-3.1457
X3.0425Y-2.8791
X3.1154Y-3.0953
X3.1154Y-3.2839
X3.1831Y-3.2878
X3.1839Y-3.0976
X3.2913Y-2.4882
X3.2913Y-2.5551
X3.3583Y-5.3465
X3.4059Y-2.8807
X3.4134Y-5.0669
X3.4134Y-5.2087
X3.4391Y-4.8602
X3.4788Y-4.1993
X3.4803Y-3.378
X3.4906Y-5.7331
X3.5738Y-3.7185
X3.6048Y-4.0221
X3.6437Y-3.8327
X3.6457Y-3.8996
X3.6654Y-2.9764
X3.685Y-5.4291
X3.6948Y-4.0245
X3.7195Y-3.5413
X3.7382Y-3.1358
X3.7382Y-3.3425
X3.752Y-5.4449
X3.7756Y-4.6929
X3.7795Y-4.4921
X3.7795Y-4.5591
X3.7795Y-4.626
X3.7874Y-4.4173
X3.815Y-4.9764
X3.8258Y-2.9419
X3.8711Y-3.749
X3.8819Y-5.1732
X3.9065Y-2.6742
X3.9213Y-4.2323
X3.9449Y-2.878
X3.9567Y-2.7205
X3.9646Y-3.4252
X3.9646Y-4.3228
X3.9685Y-3.4685
X3.9685Y-3.6929
X3.9764Y-4.4213
X3.9843Y-4.563
X3.9843Y-4.8307
X4.0433Y-4.9724
X4.0472Y-4.4213
X4.0472Y-4.4882
X4.0472Y-4.5591
X4.0472Y-4.626
X4.0512Y-4.6929
X4.0531Y-3.8396
X4.0906Y-4.9764
X4.1397Y-4.0953
X4.1506Y-3.0108
X4.1575Y-4.4606
X4.1969Y-2.874
X4.2116Y-2.623
X4.2283Y-5.1772
X4.2323Y-4.5709
X4.2402Y-4.4213
X4.2441Y-4.626
X4.2441Y-4.6929
X4.2466Y-2.8661
X4.248Y-3.6024
X4.248Y-4.8346
X4.2697Y-3.7146
X4.2992Y-4.9764
X4.315Y-3.9734
X4.3189Y-3.7165
X4.374Y-4.5984
X4.374Y-4.6614
X4.378Y-4.5354
X4.4114Y-3.939
X4.4134Y-3.7087
X4.4208Y-4.6815
X4.4252Y-4.626
X4.4449Y-2.8583
X4.4567Y-4.5984
X4.4764Y-4.4724
X4.5079Y-2.8622
X4.5122Y-4.6496
X4.5146Y-4.2461
X4.5374Y-4.1722
X4.5433Y-4.6811
X4.5443Y-3.7205
X4.5719Y-3.6467
X4.5787Y-4.5236
X4.5827Y-4.9724
X4.5945Y-3.7136
X4.6693Y-5.1732
X4.6732Y-3.6575
X4.6811Y-3.7008
X4.7067Y-4.6604
X4.7371Y-4.5048
X4.7677Y-2.9567
X4.7953Y-4.9685
X4.8292Y-4.5591
X4.8583Y-4.9685
X4.878Y-3.8031
X4.888Y-3.8408
X4.8898Y-3.3701
X4.8937Y-3.4252
X4.8976Y-3.1772
X4.8976Y-3.2283
X4.9016Y-3.9523
X4.9026Y-4.2008
X4.9331Y-4.6181
X4.9331Y-4.689
X4.9537Y-3.0935
X4.9764Y-4.7756
X5.0157Y-5.1732
X5.0236Y-3.9562
X5.0256Y-3.8445
X5.0866Y-4.9685
X5.1102Y-4.0074
X5.1442Y-3.626
X5.1481Y-3.7835
X5.1535Y-5.4213
X5.1693Y-3.2933
X5.1713Y-3.1181
X5.1811Y-4.0153
X5.2283Y-5.4094
X5.2717Y-5.4567
T5
X3.8693Y-5.5457
X3.9193Y-5.6457
X3.9693Y-5.5457
X4.0193Y-5.6457
X4.0693Y-5.5457
X4.1193Y-5.6457
X4.1693Y-5.5457
X4.2193Y-5.6457
X4.6748Y-5.5476
X4.7248Y-5.6476
X4.7748Y-5.5476
X4.8248Y-5.6476
X4.8748Y-5.5476
X4.9248Y-5.6476
X4.9748Y-5.5476
X5.0248Y-5.6476
T6
X2.9508Y-4.1447
X2.9508Y-4.2447
X2.9508Y-4.3447
X2.9508Y-4.4447
X3.6974Y-2.5315
X3.7974Y-2.5315
X3.8974Y-2.5315
X3.9974Y-2.5315
X4.0974Y-2.5315
X4.3063Y-2.5315
X4.4063Y-2.5315
X4.5063Y-2.5315
X4.6063Y-2.5315
T7
X3.7953Y-6.0287
X3.8953Y-6.0957
X4.1933Y-6.0287
X4.2933Y-6.0957
X4.6008Y-6.0307
X4.7008Y-6.0976
X4.9988Y-6.0307
X5.0988Y-6.0976
T8
X2.0235Y-2.6867
X2.1613Y-2.6867
X2.2991Y-2.6867
T9
X3.7343Y-5.7756
X4.3543Y-5.7756
X4.5398Y-5.7776
X5.1598Y-5.7776
T10
X1.564Y-6.1417
X1.5748Y-2.5197
X3.1969Y-6.1496
X5.1969Y-2.5197
T4
G00X2.6921Y-2.4472
M15
G01X2.6921Y-2.4787
M16
G05
G00X2.6921Y-2.6055
M15
G01X2.6921Y-2.6488
M16
G05
G00X3.0323Y-2.4472
M15
G01X3.0323Y-2.4787
M16
G05
G00X3.0323Y-2.6055
M15
G01X3.0323Y-2.6488
M16
G05
T0
M30
