%TF.GenerationSoftware,KiCad,Pcbnew,(6.0.11)*%
%TF.CreationDate,2023-05-21T23:05:42+09:00*%
%TF.ProjectId,STM32F4_Ethernet,53544d33-3246-4345-9f45-746865726e65,rev?*%
%TF.SameCoordinates,Original*%
%TF.FileFunction,Copper,L4,Bot*%
%TF.FilePolarity,Positive*%
%FSLAX46Y46*%
G04 Gerber Fmt 4.6, Leading zero omitted, Abs format (unit mm)*
G04 Created by KiCad (PCBNEW (6.0.11)) date 2023-05-21 23:05:42*
%MOMM*%
%LPD*%
G01*
G04 APERTURE LIST*
G04 Aperture macros list*
%AMRoundRect*
0 Rectangle with rounded corners*
0 $1 Rounding radius*
0 $2 $3 $4 $5 $6 $7 $8 $9 X,Y pos of 4 corners*
0 Add a 4 corners polygon primitive as box body*
4,1,4,$2,$3,$4,$5,$6,$7,$8,$9,$2,$3,0*
0 Add four circle primitives for the rounded corners*
1,1,$1+$1,$2,$3*
1,1,$1+$1,$4,$5*
1,1,$1+$1,$6,$7*
1,1,$1+$1,$8,$9*
0 Add four rect primitives between the rounded corners*
20,1,$1+$1,$2,$3,$4,$5,0*
20,1,$1+$1,$4,$5,$6,$7,0*
20,1,$1+$1,$6,$7,$8,$9,0*
20,1,$1+$1,$8,$9,$2,$3,0*%
G04 Aperture macros list end*
%TA.AperFunction,ComponentPad*%
%ADD10C,5.700000*%
%TD*%
%TA.AperFunction,ComponentPad*%
%ADD11R,1.700000X1.700000*%
%TD*%
%TA.AperFunction,ComponentPad*%
%ADD12O,1.700000X1.700000*%
%TD*%
%TA.AperFunction,ComponentPad*%
%ADD13O,1.950000X3.900000*%
%TD*%
%TA.AperFunction,ComponentPad*%
%ADD14O,0.900000X2.000000*%
%TD*%
%TA.AperFunction,ComponentPad*%
%ADD15O,0.900000X1.700000*%
%TD*%
%TA.AperFunction,ComponentPad*%
%ADD16RoundRect,0.250500X0.499500X0.499500X-0.499500X0.499500X-0.499500X-0.499500X0.499500X-0.499500X0*%
%TD*%
%TA.AperFunction,ComponentPad*%
%ADD17C,1.500000*%
%TD*%
%TA.AperFunction,ComponentPad*%
%ADD18C,2.500000*%
%TD*%
%TA.AperFunction,SMDPad,CuDef*%
%ADD19RoundRect,0.237500X0.300000X0.237500X-0.300000X0.237500X-0.300000X-0.237500X0.300000X-0.237500X0*%
%TD*%
%TA.AperFunction,SMDPad,CuDef*%
%ADD20RoundRect,0.237500X-0.237500X0.300000X-0.237500X-0.300000X0.237500X-0.300000X0.237500X0.300000X0*%
%TD*%
%TA.AperFunction,SMDPad,CuDef*%
%ADD21RoundRect,0.237500X0.237500X-0.300000X0.237500X0.300000X-0.237500X0.300000X-0.237500X-0.300000X0*%
%TD*%
%TA.AperFunction,ViaPad*%
%ADD22C,0.800000*%
%TD*%
%TA.AperFunction,ViaPad*%
%ADD23C,0.250000*%
%TD*%
%TA.AperFunction,ViaPad*%
%ADD24C,0.300000*%
%TD*%
%TA.AperFunction,Conductor*%
%ADD25C,0.250000*%
%TD*%
%TA.AperFunction,Conductor*%
%ADD26C,0.100000*%
%TD*%
%TA.AperFunction,Conductor*%
%ADD27C,0.150000*%
%TD*%
G04 APERTURE END LIST*
D10*
%TO.P,H4,1,1*%
%TO.N,GND*%
X81200000Y-156200000D03*
%TD*%
%TO.P,H2,1,1*%
%TO.N,GND*%
X132000000Y-64000000D03*
%TD*%
D11*
%TO.P,J1,1,Pin_1*%
%TO.N,unconnected-(J1-Pad1)*%
X117000000Y-64300000D03*
D12*
%TO.P,J1,2,Pin_2*%
%TO.N,/MCU/UART_TX*%
X114460000Y-64300000D03*
%TO.P,J1,3,Pin_3*%
%TO.N,/MCU/UART_RX*%
X111920000Y-64300000D03*
%TO.P,J1,4,Pin_4*%
%TO.N,GND*%
X109380000Y-64300000D03*
%TD*%
D10*
%TO.P,H1,1,1*%
%TO.N,GND*%
X40000000Y-64000000D03*
%TD*%
D13*
%TO.P,U7,1,1*%
%TO.N,unconnected-(U7-Pad1)*%
X58397180Y-68242913D03*
%TO.P,U7,2,2*%
%TO.N,/Power/ISO_+24V*%
X54897181Y-68242913D03*
%TO.P,U7,3,3*%
%TO.N,/Power/ISO_GND*%
X51397180Y-68242913D03*
%TD*%
D10*
%TO.P,H3,1,1*%
%TO.N,GND*%
X39725000Y-156000000D03*
%TD*%
D11*
%TO.P,J6,1,Pin_1*%
%TO.N,GND*%
X74950000Y-112895000D03*
D12*
%TO.P,J6,2,Pin_2*%
%TO.N,/Display/DISP_SCA*%
X74950000Y-110355000D03*
%TO.P,J6,3,Pin_3*%
%TO.N,/Display/DISP_SCL*%
X74950000Y-107815000D03*
%TO.P,J6,4,Pin_4*%
%TO.N,+3V3*%
X74950000Y-105275000D03*
%TD*%
D14*
%TO.P,J7,S1,SHIELD*%
%TO.N,GNDS*%
X77020000Y-66730000D03*
D15*
X77020000Y-62560000D03*
D14*
X68380000Y-66730000D03*
D15*
X68380000Y-62560000D03*
%TD*%
D11*
%TO.P,J2,1,Pin_1*%
%TO.N,+3V3*%
X104075000Y-64300000D03*
D12*
%TO.P,J2,2,Pin_2*%
%TO.N,/MCU/JTAG_SWDIO*%
X101535000Y-64300000D03*
%TO.P,J2,3,Pin_3*%
%TO.N,/MCU/JTAG_SWCLK*%
X98995000Y-64300000D03*
%TO.P,J2,4,Pin_4*%
%TO.N,GND*%
X96455000Y-64300000D03*
%TO.P,J2,5,Pin_5*%
%TO.N,/MCU/JTAG_SWO*%
X93915000Y-64300000D03*
%TD*%
D16*
%TO.P,J3,1*%
%TO.N,/Ethernet/TX1+*%
X107170000Y-143400000D03*
D17*
%TO.P,J3,2*%
%TO.N,/Ethernet/TX1-*%
X105900000Y-140860000D03*
%TO.P,J3,3*%
%TO.N,+3V3*%
X104630000Y-143400000D03*
%TO.P,J3,4*%
%TO.N,unconnected-(J3-Pad4)*%
X103360000Y-140860000D03*
%TO.P,J3,5*%
%TO.N,unconnected-(J3-Pad5)*%
X102090000Y-143400000D03*
%TO.P,J3,6*%
%TO.N,+3V3*%
X100820000Y-140860000D03*
%TO.P,J3,7*%
%TO.N,/Ethernet/RX1+*%
X99550000Y-143400000D03*
%TO.P,J3,8*%
%TO.N,/Ethernet/RX1-*%
X98280000Y-140860000D03*
%TO.P,J3,9*%
%TO.N,Net-(J3-Pad9)*%
X109050000Y-154830000D03*
%TO.P,J3,10*%
%TO.N,GND*%
X106510000Y-153130000D03*
%TO.P,J3,11*%
%TO.N,Net-(J3-Pad11)*%
X98940000Y-154830000D03*
%TO.P,J3,12*%
%TO.N,GND*%
X96400000Y-153130000D03*
D18*
%TO.P,J3,13*%
%TO.N,GNDREF*%
X94850000Y-146700000D03*
X110600000Y-146700000D03*
%TD*%
D19*
%TO.P,C1,1*%
%TO.N,+3V3*%
X109725000Y-93000000D03*
%TO.P,C1,2*%
%TO.N,GND*%
X108000000Y-93000000D03*
%TD*%
D20*
%TO.P,C12,1*%
%TO.N,+3V3*%
X117700000Y-92100000D03*
%TO.P,C12,2*%
%TO.N,GND*%
X117700000Y-93825000D03*
%TD*%
D16*
%TO.P,J4,1*%
%TO.N,/Ethernet/TX2+*%
X127630000Y-143450000D03*
D17*
%TO.P,J4,2*%
%TO.N,/Ethernet/TX2-*%
X126360000Y-140910000D03*
%TO.P,J4,3*%
%TO.N,+3V3*%
X125090000Y-143450000D03*
%TO.P,J4,4*%
%TO.N,unconnected-(J4-Pad4)*%
X123820000Y-140910000D03*
%TO.P,J4,5*%
%TO.N,unconnected-(J4-Pad5)*%
X122550000Y-143450000D03*
%TO.P,J4,6*%
%TO.N,+3V3*%
X121280000Y-140910000D03*
%TO.P,J4,7*%
%TO.N,/Ethernet/RX2+*%
X120010000Y-143450000D03*
%TO.P,J4,8*%
%TO.N,/Ethernet/RX2-*%
X118740000Y-140910000D03*
%TO.P,J4,9*%
%TO.N,Net-(J4-Pad9)*%
X129510000Y-154880000D03*
%TO.P,J4,10*%
%TO.N,GND*%
X126970000Y-153180000D03*
%TO.P,J4,11*%
%TO.N,Net-(J4-Pad11)*%
X119400000Y-154880000D03*
%TO.P,J4,12*%
%TO.N,GND*%
X116860000Y-153180000D03*
D18*
%TO.P,J4,13*%
%TO.N,GNDREF*%
X115310000Y-146750000D03*
X131060000Y-146750000D03*
%TD*%
D21*
%TO.P,C9,1*%
%TO.N,+3V3*%
X102200000Y-88362500D03*
%TO.P,C9,2*%
%TO.N,GND*%
X102200000Y-86637500D03*
%TD*%
D19*
%TO.P,C8,1*%
%TO.N,+3V3*%
X114762500Y-92800000D03*
%TO.P,C8,2*%
%TO.N,GND*%
X113037500Y-92800000D03*
%TD*%
D22*
%TO.N,GND*%
X94950000Y-79650000D03*
%TO.N,+3V3*%
X94950000Y-84900000D03*
D23*
%TO.N,/MCU/SPI_NSS*%
X116900000Y-90800000D03*
D22*
%TO.N,+3V3*%
X120322400Y-114422400D03*
X124200000Y-85600000D03*
X115425000Y-94500000D03*
X127600000Y-100487500D03*
X96000000Y-115800000D03*
X121100000Y-75100000D03*
X101200000Y-122700000D03*
X88400000Y-85800000D03*
X124400000Y-80700000D03*
X106600000Y-73000000D03*
X126400000Y-121300000D03*
X100200000Y-73100000D03*
X96000000Y-117500000D03*
X73790000Y-76110000D03*
X98325000Y-95225000D03*
X66200000Y-122707500D03*
X79130000Y-83410000D03*
X96000000Y-114100000D03*
X91562500Y-102162500D03*
X109700000Y-94400000D03*
X68950000Y-100295000D03*
X79130000Y-78620000D03*
X125300000Y-117300000D03*
X112900000Y-72600000D03*
X73800000Y-82430000D03*
X100800000Y-93800000D03*
X64500000Y-107900000D03*
X72750000Y-105295000D03*
X90775000Y-94450000D03*
X107700000Y-112300000D03*
X95300000Y-138300000D03*
X102950000Y-97525000D03*
X68950000Y-101895000D03*
X131350000Y-79200000D03*
X130900000Y-137700000D03*
X118700000Y-92900000D03*
X92600000Y-99050000D03*
X127650000Y-97650000D03*
X116700000Y-94325000D03*
X131600000Y-101987500D03*
X100800000Y-88100000D03*
%TO.N,GND*%
X133900000Y-138600000D03*
X69050000Y-112195000D03*
X109600000Y-100925000D03*
X102900000Y-119200000D03*
X102800000Y-112300000D03*
X55540000Y-86160000D03*
X111200000Y-115200000D03*
X132800000Y-137400000D03*
X105148750Y-104021250D03*
X125300000Y-119100000D03*
X122662500Y-115800000D03*
X130662500Y-92100000D03*
X96200000Y-112200000D03*
X115250000Y-105973500D03*
X124300000Y-87000000D03*
X88660000Y-145620000D03*
X60340000Y-86160000D03*
X95900000Y-119200000D03*
X69050000Y-110395000D03*
X129800000Y-101787500D03*
X80870000Y-78680000D03*
X102800000Y-114000000D03*
X118600000Y-131400000D03*
X107900000Y-122800000D03*
X70300000Y-122007500D03*
X58040000Y-86160000D03*
X107400000Y-131500000D03*
X68950000Y-106995000D03*
X98600000Y-131400000D03*
X86510000Y-73170000D03*
X68950000Y-105295000D03*
X106975000Y-66625000D03*
X44800000Y-86100000D03*
X93848750Y-102221250D03*
X131300000Y-83650000D03*
X100500000Y-69100000D03*
X108450000Y-94350000D03*
X62600000Y-86200000D03*
X65300000Y-73300000D03*
X116300000Y-114900000D03*
X80850000Y-83510000D03*
X102800000Y-117500000D03*
X124400000Y-82000000D03*
X107900000Y-91500000D03*
X68000000Y-81700000D03*
X107863500Y-72800000D03*
X114500000Y-72700000D03*
X112050000Y-100050000D03*
X83600000Y-64900000D03*
X124500000Y-100387500D03*
X114670000Y-107850000D03*
X127400000Y-131400000D03*
X76000000Y-68900000D03*
X83600000Y-63200000D03*
X99600000Y-107500000D03*
X69050000Y-108695000D03*
X76100000Y-79900000D03*
X112100000Y-94200000D03*
X53140000Y-86160000D03*
X130762500Y-96100000D03*
X64150000Y-110493500D03*
X65300000Y-75000000D03*
X94475000Y-89950000D03*
X125825000Y-78575000D03*
X72450000Y-112895000D03*
X69300000Y-68900000D03*
X118900000Y-94000000D03*
X115400000Y-118900000D03*
X50540000Y-86160000D03*
X113700000Y-113600000D03*
X68950000Y-103595000D03*
X88362500Y-106662500D03*
X93600000Y-137900000D03*
X102800000Y-115800000D03*
X92550000Y-97350000D03*
X100700000Y-87000000D03*
%TO.N,/MCU/~{RESET}*%
X116125000Y-92625000D03*
X124525000Y-106700000D03*
%TO.N,/MCU/STM32_VDDA*%
X124153937Y-97555062D03*
D23*
X116875003Y-97499195D03*
D22*
%TO.N,/MCU/STM32_VSSA*%
X123900000Y-96600000D03*
D23*
X116175267Y-97208161D03*
D22*
%TO.N,Net-(C29-Pad1)*%
X103900000Y-126400000D03*
X109200000Y-126400000D03*
%TO.N,Net-(C30-Pad1)*%
X102700000Y-126300000D03*
X96900000Y-126400000D03*
%TO.N,Net-(C31-Pad1)*%
X129200000Y-126200000D03*
X123400000Y-126200000D03*
%TO.N,Net-(C32-Pad1)*%
X116400000Y-126300000D03*
X121800000Y-126200000D03*
D23*
%TO.N,/MCU/ETH_RESET*%
X120475000Y-117325000D03*
X122425000Y-72550000D03*
D22*
X114609000Y-118100000D03*
X111100000Y-118400000D03*
%TO.N,+1V8*%
X100700000Y-109800000D03*
X105600000Y-113300000D03*
%TO.N,/Ethernet/PHY_3V3A*%
X107800000Y-119200000D03*
X112289319Y-118910681D03*
%TO.N,/Ethernet/PHY_1V8A*%
X113200000Y-116800000D03*
X107500000Y-116100500D03*
X101000000Y-112300000D03*
%TO.N,USB_POWER*%
X77280000Y-73130000D03*
X75073721Y-68920358D03*
D23*
%TO.N,/MCU/LD1*%
X94350000Y-87425000D03*
X103825000Y-93825000D03*
D22*
%TO.N,/MCU/JTAG_SWCLK*%
X99225000Y-67925000D03*
X97175000Y-74725000D03*
%TO.N,/MCU/JTAG_SWO*%
X93100000Y-75600000D03*
D24*
%TO.N,Net-(J7-PadA5)*%
X67000000Y-65500000D03*
X73430000Y-65810000D03*
%TO.N,Net-(J7-PadB5)*%
X68750000Y-70630000D03*
X70970000Y-70600000D03*
D23*
%TO.N,/MCU/B0*%
X97900000Y-99700000D03*
X104650000Y-99675000D03*
D22*
%TO.N,/Ethernet/P1LED0*%
X85300000Y-135800000D03*
X101200000Y-115900000D03*
X111100000Y-116800000D03*
X87352000Y-123448000D03*
%TO.N,/Ethernet/P1LED1*%
X86700000Y-132300000D03*
X86700000Y-128700000D03*
%TO.N,/Ethernet/ISET*%
X107800000Y-117500000D03*
X112400000Y-117500000D03*
D23*
%TO.N,/MCU/ETH_TXD2*%
X116550000Y-115775000D03*
X115625000Y-98400000D03*
%TO.N,/MCU/ETH_TX_CLK*%
X117375000Y-97925000D03*
X121450000Y-106125000D03*
%TO.N,/MCU/ETH_RX_CLK*%
X120900000Y-100050000D03*
X117950000Y-97100000D03*
%TO.N,/MCU/SPI_NSS*%
X107075000Y-103975000D03*
%TO.N,/MCU/SPI_SCK*%
X107375000Y-103225000D03*
X117700000Y-90400000D03*
%TO.N,/MCU/SPI_MISO*%
X106800000Y-102775000D03*
X117100000Y-89900000D03*
%TO.N,/MCU/ETH_RX_DV*%
X121850000Y-91500000D03*
X121875000Y-105500000D03*
%TO.N,/MCU/ETH_TX_EN*%
X120037500Y-116662500D03*
X122900000Y-78125000D03*
%TO.N,/MCU/ETH_TXD0*%
X119175000Y-115475000D03*
X121750000Y-73500000D03*
%TO.N,/MCU/ETH_TXD1*%
X121725000Y-72850000D03*
X119325000Y-116150000D03*
D22*
%TO.N,/MCU/MCO_25MHz*%
X119550000Y-118375000D03*
X105425000Y-76475000D03*
D23*
%TO.N,/MCU/ETH_INT*%
X111375000Y-109875000D03*
X102275000Y-84000000D03*
%TO.N,/MCU/SPI_MOSI*%
X102600000Y-89625000D03*
X106100000Y-98200000D03*
%TO.N,/MCU/ETH_TXD3*%
X115500000Y-116050000D03*
X102500000Y-91450000D03*
%TD*%
D25*
%TO.N,+3V3*%
X125090000Y-143450000D02*
X126370000Y-144730000D01*
X102420000Y-145610000D02*
X97580000Y-145610000D01*
X121280000Y-140910000D02*
X122282000Y-141912000D01*
X115425000Y-93462500D02*
X114762500Y-92800000D01*
X129660000Y-144730000D02*
X130900000Y-143490000D01*
X97580000Y-145610000D02*
X95300000Y-143330000D01*
X109700000Y-94400000D02*
X109700000Y-93025000D01*
X126370000Y-144730000D02*
X129660000Y-144730000D01*
X95300000Y-143330000D02*
X95300000Y-138300000D01*
X130900000Y-143490000D02*
X130900000Y-137700000D01*
X102358000Y-142398000D02*
X100820000Y-140860000D01*
X101062500Y-88362500D02*
X100800000Y-88100000D01*
X102200000Y-88362500D02*
X101062500Y-88362500D01*
X115425000Y-94500000D02*
X115425000Y-93462500D01*
X103628000Y-142398000D02*
X102358000Y-142398000D01*
X104630000Y-143400000D02*
X102420000Y-145610000D01*
X122282000Y-141912000D02*
X123552000Y-141912000D01*
X109700000Y-93025000D02*
X109725000Y-93000000D01*
X123552000Y-141912000D02*
X125090000Y-143450000D01*
X118700000Y-92900000D02*
X118500000Y-92900000D01*
X104630000Y-143400000D02*
X103628000Y-142398000D01*
X118500000Y-92900000D02*
X117700000Y-92100000D01*
%TO.N,GND*%
X113037500Y-92800000D02*
X112500000Y-92800000D01*
X112500000Y-92800000D02*
X112100000Y-93200000D01*
X101062500Y-86637500D02*
X100700000Y-87000000D01*
X118900000Y-94000000D02*
X117875000Y-94000000D01*
X117875000Y-94000000D02*
X117700000Y-93825000D01*
X107900000Y-91500000D02*
X107900000Y-92900000D01*
X107900000Y-92900000D02*
X108000000Y-93000000D01*
X112100000Y-93200000D02*
X112100000Y-94200000D01*
X108450000Y-94350000D02*
X108400000Y-94300000D01*
X108400000Y-93400000D02*
X108000000Y-93000000D01*
X108400000Y-94300000D02*
X108400000Y-93400000D01*
X102200000Y-86637500D02*
X101062500Y-86637500D01*
%TO.N,Net-(C29-Pad1)*%
X103900000Y-126400000D02*
X109200000Y-126400000D01*
%TO.N,Net-(C30-Pad1)*%
X96900000Y-126400000D02*
X102600000Y-126400000D01*
X102600000Y-126400000D02*
X102700000Y-126300000D01*
%TO.N,Net-(C31-Pad1)*%
X123400000Y-126200000D02*
X129200000Y-126200000D01*
%TO.N,Net-(C32-Pad1)*%
X116500000Y-126200000D02*
X116400000Y-126300000D01*
X121800000Y-126200000D02*
X116500000Y-126200000D01*
%TO.N,/MCU/ETH_RESET*%
X111100000Y-118400000D02*
X111241319Y-118258681D01*
D26*
X123279000Y-107346000D02*
X120225000Y-110400000D01*
D25*
X111241319Y-118258681D02*
X114541319Y-118258681D01*
X114600000Y-118200000D02*
X114600000Y-118109000D01*
D26*
X120225000Y-113325000D02*
X120800000Y-113900000D01*
D25*
X114541319Y-118258681D02*
X114600000Y-118200000D01*
X114600000Y-118109000D02*
X114609000Y-118100000D01*
D26*
X120225000Y-110400000D02*
X120225000Y-113325000D01*
X120900000Y-116250000D02*
X120900000Y-116900000D01*
X120900000Y-116900000D02*
X120475000Y-117325000D01*
X120800000Y-113900000D02*
X120900000Y-114000000D01*
X123279000Y-73404000D02*
X123279000Y-107346000D01*
X122425000Y-72550000D02*
X123279000Y-73404000D01*
X120900000Y-114000000D02*
X120900000Y-116250000D01*
D25*
%TO.N,+1V8*%
X102877932Y-113300000D02*
X101600000Y-112022068D01*
X101600000Y-112022068D02*
X101600000Y-111300000D01*
X101600000Y-110700000D02*
X100700000Y-109800000D01*
X101600000Y-111300000D02*
X101600000Y-110700000D01*
X105600000Y-113300000D02*
X102877932Y-113300000D01*
%TO.N,/Ethernet/PHY_3V3A*%
X112000000Y-119200000D02*
X107800000Y-119200000D01*
X112289319Y-118910681D02*
X112000000Y-119200000D01*
%TO.N,/Ethernet/PHY_1V8A*%
X107700500Y-115900000D02*
X112300000Y-115900000D01*
X101100000Y-114200000D02*
X101000000Y-114100000D01*
X101000000Y-114100000D02*
X101000000Y-112300000D01*
X101552000Y-114652000D02*
X101100000Y-114200000D01*
X112300000Y-115900000D02*
X113200000Y-116800000D01*
X107500000Y-116100500D02*
X107700500Y-115900000D01*
X107500000Y-116100500D02*
X106051500Y-114652000D01*
X106051500Y-114652000D02*
X101552000Y-114652000D01*
%TO.N,USB_POWER*%
X75073721Y-68920358D02*
X75073721Y-70923721D01*
X75073721Y-70923721D02*
X77280000Y-73130000D01*
%TO.N,/MCU/LD1*%
X102725000Y-83325000D02*
X103825000Y-84425000D01*
X102625000Y-83225000D02*
X102725000Y-83325000D01*
X100925000Y-83225000D02*
X102625000Y-83225000D01*
X96725000Y-87425000D02*
X100925000Y-83225000D01*
X94350000Y-87425000D02*
X96725000Y-87425000D01*
X103825000Y-84425000D02*
X103825000Y-93825000D01*
%TO.N,/MCU/JTAG_SWCLK*%
X99225000Y-72675000D02*
X99225000Y-67925000D01*
X97175000Y-74725000D02*
X99225000Y-72675000D01*
%TO.N,/MCU/JTAG_SWO*%
X93100000Y-75600000D02*
X93915000Y-74785000D01*
X93915000Y-74785000D02*
X93915000Y-64300000D01*
D27*
%TO.N,Net-(J7-PadA5)*%
X73120000Y-65500000D02*
X67000000Y-65500000D01*
X73430000Y-65810000D02*
X73120000Y-65500000D01*
%TO.N,Net-(J7-PadB5)*%
X70970000Y-70600000D02*
X70940000Y-70630000D01*
X70940000Y-70630000D02*
X68750000Y-70630000D01*
D26*
%TO.N,/MCU/B0*%
X104650000Y-99675000D02*
X97925000Y-99675000D01*
X97925000Y-99675000D02*
X97900000Y-99700000D01*
D25*
%TO.N,/Ethernet/P1LED0*%
X87352000Y-123448000D02*
X85300000Y-125500000D01*
X111100000Y-116800000D02*
X102100000Y-116800000D01*
X102100000Y-116800000D02*
X101200000Y-115900000D01*
X85300000Y-125500000D02*
X85300000Y-135800000D01*
%TO.N,/Ethernet/P1LED1*%
X86700000Y-128700000D02*
X86700000Y-132300000D01*
%TO.N,/Ethernet/ISET*%
X107800000Y-117500000D02*
X112400000Y-117500000D01*
D26*
%TO.N,/MCU/ETH_TXD2*%
X116358998Y-115775000D02*
X115300000Y-114716002D01*
X119900000Y-100550000D02*
X117729000Y-98379000D01*
X115300000Y-109325000D02*
X119900000Y-104725000D01*
X115646000Y-98379000D02*
X115625000Y-98400000D01*
X117729000Y-98379000D02*
X115646000Y-98379000D01*
X116550000Y-115775000D02*
X116358998Y-115775000D01*
X119900000Y-104725000D02*
X119900000Y-100550000D01*
X115300000Y-114716002D02*
X115300000Y-109325000D01*
%TO.N,/MCU/ETH_TX_CLK*%
X117375000Y-97925000D02*
X117775000Y-97925000D01*
X117775000Y-97925000D02*
X121450000Y-101600000D01*
X121450000Y-101600000D02*
X121450000Y-106125000D01*
%TO.N,/MCU/ETH_RX_CLK*%
X120900000Y-100050000D02*
X117950000Y-97100000D01*
%TO.N,/MCU/SPI_NSS*%
X111426999Y-92773001D02*
X111427000Y-97690052D01*
X111427000Y-97690052D02*
X108050000Y-101067052D01*
X116900000Y-90800000D02*
X113400000Y-90800000D01*
X107685987Y-103975000D02*
X107075000Y-103975000D01*
X108050000Y-103610987D02*
X107685987Y-103975000D01*
X113400000Y-90800000D02*
X111426999Y-92773001D01*
X108050000Y-101067052D02*
X108050000Y-103610987D01*
%TO.N,/MCU/SPI_SCK*%
X107375000Y-101421026D02*
X107375000Y-103225000D01*
X111200000Y-92400000D02*
X111200000Y-97596026D01*
X113200000Y-90400000D02*
X111200000Y-92400000D01*
X117700000Y-90400000D02*
X113200000Y-90400000D01*
X111200000Y-97596026D02*
X107375000Y-101421026D01*
%TO.N,/MCU/SPI_MISO*%
X110725000Y-97750000D02*
X106800000Y-101675000D01*
X117100000Y-89900000D02*
X113100000Y-89900000D01*
X106800000Y-101675000D02*
X106800000Y-102775000D01*
X113100000Y-89900000D02*
X110725000Y-92275000D01*
X110725000Y-92275000D02*
X110725000Y-97750000D01*
%TO.N,/MCU/ETH_RX_DV*%
X121875000Y-105500000D02*
X121975000Y-105400000D01*
X121975000Y-105400000D02*
X121975000Y-91625000D01*
X121975000Y-91625000D02*
X121850000Y-91500000D01*
%TO.N,/MCU/ETH_TX_EN*%
X122750000Y-107321026D02*
X122750000Y-89600000D01*
X122750000Y-78275000D02*
X122900000Y-78125000D01*
X122750000Y-89600000D02*
X122750000Y-78275000D01*
X120037500Y-116662500D02*
X120037500Y-114962500D01*
X120037500Y-114962500D02*
X119725000Y-114650000D01*
X119725000Y-114650000D02*
X119725000Y-110346026D01*
X119725000Y-110346026D02*
X122750000Y-107321026D01*
%TO.N,/MCU/ETH_TXD0*%
X122254000Y-107146000D02*
X122254000Y-89429000D01*
X122225000Y-73975000D02*
X121750000Y-73500000D01*
X122225000Y-89400000D02*
X122225000Y-73975000D01*
X119175000Y-110225000D02*
X122254000Y-107146000D01*
X122254000Y-89429000D02*
X122225000Y-89400000D01*
X119175000Y-115475000D02*
X119175000Y-110225000D01*
%TO.N,/MCU/ETH_TXD1*%
X122480999Y-107269001D02*
X122480999Y-73605999D01*
X119325000Y-116150000D02*
X119554000Y-115921000D01*
X119425000Y-115189013D02*
X119425000Y-110325000D01*
X119425000Y-110325000D02*
X122480999Y-107269001D01*
X122480999Y-73605999D02*
X121725000Y-72850000D01*
X119554000Y-115921000D02*
X119554000Y-115318013D01*
X119554000Y-115318013D02*
X119425000Y-115189013D01*
%TO.N,/MCU/ETH_INT*%
X105727000Y-99052000D02*
X105925000Y-99250000D01*
X105925000Y-103360987D02*
X111375000Y-108810987D01*
X106479000Y-98356987D02*
X105783987Y-99052000D01*
X105925000Y-99250000D02*
X105925000Y-103360987D01*
X103125000Y-93135987D02*
X102725000Y-93535987D01*
X105783987Y-99052000D02*
X105727000Y-99052000D01*
X106479000Y-98043013D02*
X106479000Y-98356987D01*
X103125000Y-84850000D02*
X103125000Y-93135987D01*
X102725000Y-93535987D02*
X102725000Y-94289013D01*
X102275000Y-84000000D02*
X103125000Y-84850000D01*
X102725000Y-94289013D02*
X106479000Y-98043013D01*
X111375000Y-108810987D02*
X111375000Y-109875000D01*
%TO.N,/MCU/SPI_MOSI*%
X102600000Y-89625000D02*
X102879000Y-89904000D01*
X102327000Y-93398000D02*
X102327000Y-94427000D01*
X102879000Y-92846000D02*
X102327000Y-93398000D01*
X102327000Y-94427000D02*
X106100000Y-98200000D01*
X102879000Y-89904000D02*
X102879000Y-92846000D01*
%TO.N,/MCU/ETH_TXD3*%
X102625000Y-92778974D02*
X102625000Y-91575000D01*
X107550000Y-105606498D02*
X105500000Y-103556498D01*
X102100001Y-93303973D02*
X102625000Y-92778974D01*
X105500000Y-98225000D02*
X102100001Y-94825001D01*
X102100001Y-94825001D02*
X102100001Y-93303973D01*
X115500000Y-116050000D02*
X115333998Y-116050000D01*
X102625000Y-91575000D02*
X102500000Y-91450000D01*
X105500000Y-103556498D02*
X105500000Y-98225000D01*
X115333998Y-116050000D02*
X107550000Y-108266002D01*
X107550000Y-108266002D02*
X107550000Y-105606498D01*
%TD*%
M02*
